<svg width="24" height="24" viewBox="0 0 24 24" fill="none" xmlns="http://www.w3.org/2000/svg">
<path fill-rule="evenodd" clip-rule="evenodd" d="M5.08798 20.5711L11.3557 9.72756C13.1016 6.5061 17.2629 0.0505327 19.9417 0C20.3281 0.0140373 20.6686 0.587932 19.8245 2.35963C18.653 4.81819 16.8199 6.10575 15.5843 6.54821C15.7704 6.80789 15.985 7.61225 15.4183 8.25233C15.2225 8.47351 14.9262 8.77524 14.5718 9.13612C13.6442 10.0807 12.3187 11.4305 11.3557 12.8016C10.0249 14.6966 9.33804 15.6862 9.23071 16.2337C10.9121 14.3597 14.8803 10.9867 17.3015 12.4858C18.017 13.0683 18.7483 14.9409 15.9492 17.7707C14.5826 19.02 10.5627 21.4089 6.2286 21.4539C5.89396 21.4574 5.55324 21.8977 5.48767 22.4251C5.4221 22.9526 5.32273 23.1551 4.63245 23.4155L3.51359 23.9271C3.29551 24.0232 2.93899 24.1001 3.25758 23.6388L4.78417 21.0996C4.4523 20.9384 3.79426 20.5788 3.81701 20.4299L4.08251 20.0393C4.2566 20.1582 4.70143 20.4309 5.08798 20.5711ZM19.0904 1.12533C18.8135 2.10981 17.5377 4.55401 14.6491 6.45507L14.8052 7.0292C14.8447 7.16414 14.835 7.51583 14.4803 7.84311L12.6008 9.72C13.2726 8.54743 14.8276 5.9581 15.6732 4.98129C15.9571 4.65337 16.3071 4.23681 16.6748 3.79929C17.676 2.60771 18.8078 1.26067 19.0904 1.12533ZM6.3583 20.8186C8.28622 18.1147 12.8483 12.7917 15.6732 13.1308C15.9664 13.1822 16.4349 13.6048 15.9634 14.8842C15.3742 16.4834 12.5653 20.3176 6.3583 20.8186Z" fill="#111111"/>
</svg>
