<svg width="821" height="341" viewBox="0 0 821 341" fill="none" xmlns="http://www.w3.org/2000/svg">
<rect x="0.847656" y="0.572754" width="220" height="100" rx="10" fill="#3D6493"/>
<rect opacity="0.2" x="6.84766" y="6.57275" width="208" height="88" rx="10" fill="#1A2A3E"/>
<path d="M81.719 41.7478V58.7415H78.6676V41.7478H81.719ZM87.7513 51.2774V58.7415H84.7469V45.9962H87.6105V48.1556H87.7748C88.3616 46.7238 89.6525 45.8319 91.5537 45.8319C94.2061 45.8319 95.943 47.5688 95.9195 50.6202V58.7415H92.9386V51.0896C92.9386 49.3762 92.0232 48.3669 90.4506 48.3669C88.8545 48.3669 87.7513 49.4231 87.7513 51.2774ZM109.698 45.9962L105.144 58.7415H101.858L97.3044 45.9962H100.497L103.431 55.4789H103.571L106.529 45.9962H109.698ZM116.786 58.9996C112.937 58.9996 110.589 56.4412 110.589 52.451C110.589 48.5077 112.984 45.8319 116.622 45.8319C119.744 45.8319 122.443 47.7801 122.443 52.2632V53.2021H113.547C113.582 55.3732 114.861 56.6525 116.81 56.6525C118.124 56.6525 119.016 56.0891 119.391 55.338H122.325C121.786 57.5444 119.744 58.9996 116.786 58.9996ZM113.57 51.16H119.579C119.556 49.4231 118.406 48.1556 116.669 48.1556C114.861 48.1556 113.664 49.5287 113.57 51.16ZM131.996 49.6343C131.808 48.672 131.01 48.0617 129.743 48.0617C128.452 48.0617 127.513 48.6955 127.536 49.5639C127.513 50.2211 128.053 50.7141 129.344 51.0192L131.503 51.4652C133.921 52.005 135.071 53.1082 135.094 54.939C135.071 57.3331 132.982 58.9996 129.649 58.9996C126.41 58.9996 124.485 57.5444 124.18 55.1033H127.231C127.419 56.183 128.264 56.7229 129.649 56.7229C131.08 56.7229 132.043 56.1361 132.043 55.1972C132.043 54.4696 131.456 54.0001 130.189 53.7185L128.146 53.2725C125.776 52.8031 124.555 51.559 124.555 49.7282C124.555 47.381 126.574 45.8319 129.696 45.8319C132.747 45.8319 134.625 47.3106 134.836 49.6343H131.996ZM143.732 45.9962V48.2964H141.22V54.9155C141.22 56.1361 141.831 56.3943 142.582 56.3943C142.934 56.3943 143.521 56.3708 143.896 56.3473V58.7884C143.544 58.8588 142.957 58.9058 142.206 58.9058C139.953 58.9058 138.216 57.8026 138.239 55.4084V48.2964H136.409V45.9962H138.239V42.9448H141.22V45.9962H143.732Z" fill="#FCFEFF"/>
<rect x="240.568" y="0.572754" width="220" height="100" rx="10" fill="#3D6493"/>
<rect opacity="0.2" x="246.568" y="6.57275" width="208" height="88" rx="10" fill="#1A2A3E"/>
<path d="M329.115 56.4439V58.5798H309.727V56.4439H318.083V51.8199H311.863V41.5862H326.885V51.8199H320.665V56.4439H329.115ZM314.422 43.6752V49.7779H324.303V43.6752H314.422ZM339.818 42.2434V44.3324H333.762V47.8062H339.443V49.8483H333.762V53.9793C336.38 53.9559 338.199 53.862 340.358 53.5334L340.569 55.6693C338.105 56.0918 336.016 56.1622 332.706 56.1622H331.274V42.2434H339.818ZM348.808 39.9431V61.1618H346.296V50.3881H344.114V60.129H341.649V40.3187H344.114V48.2757H346.296V39.9431H348.808ZM369.041 39.9431V55.505H366.435V47.8766H363.102V45.7876H366.435V39.9431H369.041ZM363.196 41.7035V43.816H361.319V50.0595C362.234 49.9891 363.138 49.907 363.994 49.8013L364.159 51.6791C359.981 52.4067 355.169 52.5006 351.578 52.5006L351.296 50.3412L353.69 50.3177V43.816H351.836V41.7035H363.196ZM369.581 58.6268V60.7393H355.098V54.1671H357.727V58.6268H369.581ZM356.225 50.2943C357.07 50.2708 357.927 50.2473 358.784 50.2004V43.816H356.225V50.2943ZM389.274 49.8952V51.9842H374.392V41.7974H389.109V43.9099H376.974V49.8952H389.274ZM391.433 56.3031V58.4625H372.045V56.3031H391.433Z" fill="#FCFEFF"/>
<rect x="240.568" y="240.573" width="220" height="100" rx="10" fill="#A1D0F9"/>
<rect opacity="0.3" x="246.568" y="246.573" width="208" height="88" rx="10" fill="#EBF5FE"/>
<path d="M307.098 279.943V295.998H304.61V279.943H307.098ZM302.873 280.319V295.341H300.409V288.017H298.156V292.195H289.776V281.61H292.241V284.966H295.738V281.61H298.156V285.905H300.409V280.319H302.873ZM292.241 290.083H295.738V286.961H292.241V290.083ZM307.685 298.627V300.739H292.898V293.862H295.503V298.627H307.685ZM327.519 279.943V301.185H324.914V290.341H320.806V288.229H324.914V279.943H327.519ZM317.473 286.68C317.449 289.895 319.374 293.322 322.731 294.801L321.322 296.796C318.893 295.763 317.133 293.639 316.205 291.092C315.267 293.792 313.518 296.057 311.089 297.148L309.68 295.129C312.99 293.627 314.868 290.013 314.868 286.68V285.576H310.314V283.487H314.891V280.389H317.496V283.487H321.933V285.576H317.473V286.68ZM349.864 292.595V294.73H341.438V301.162H338.856V294.73H330.476V292.595H349.864ZM347.775 288.769V290.834H332.964V280.859H347.54V282.924H335.546V284.802H347.071V286.82H335.546V288.769H347.775ZM358.877 285.975C358.877 289.261 360.826 292.994 364.182 294.543L362.727 296.608C360.333 295.482 358.561 293.205 357.61 290.552C356.648 293.463 354.793 295.951 352.352 297.125L350.827 295.083C354.207 293.486 356.249 289.496 356.272 285.975V284.192H351.648V282.032H363.314V284.192H358.877V285.975ZM367.891 279.943V288.205H371.153V290.388H367.891V301.162H365.285V279.943H367.891ZM391.433 296.467V298.603H372.045V296.467H380.425V291.585H383.03V296.467H391.433ZM389.766 281.657V283.793H383.077C383.159 286.844 386.304 289.649 390.658 290.294L389.626 292.36C386.034 291.703 383.1 289.813 381.739 287.172C380.366 289.848 377.455 291.808 373.923 292.477L372.89 290.412C377.127 289.696 380.249 286.844 380.331 283.793H373.665V281.657H389.766ZM409.553 279.943V285.177H412.511V287.337H409.553V292.336H406.948V279.943H409.553ZM398.428 293.181V295.012H406.948V293.181H409.553V300.904H395.846V293.181H398.428ZM398.428 298.838H406.948V297.031H398.428V298.838ZM405.422 281.915V284.004H392.841V281.915H397.841V279.779H400.446V281.915H405.422ZM399.132 284.731C402.207 284.731 404.296 286.21 404.319 288.463C404.296 290.717 402.207 292.195 399.132 292.195C396.033 292.195 393.921 290.717 393.921 288.463C393.921 286.21 396.033 284.731 399.132 284.731ZM399.132 286.656C397.512 286.656 396.456 287.337 396.456 288.463C396.456 289.614 397.512 290.271 399.132 290.271C400.751 290.271 401.831 289.614 401.831 288.463C401.831 287.337 400.751 286.656 399.132 286.656Z" fill="#1A2A3E"/>
<rect opacity="0.5" x="600.568" y="240.573" width="220" height="100" rx="10" fill="#ECF0F4"/>
<rect opacity="0.03" x="606.568" y="246.573" width="208" height="88" rx="10" fill="#1A2A3E"/>
<path d="M653.696 284.638V282.079H667.239V284.638H662.005V299.073H658.954V284.638H653.696ZM667.169 295.482C667.169 292.618 669.539 291.773 671.91 291.632C672.79 291.573 674.621 291.468 675.173 291.444V290.435C675.173 289.168 674.351 288.44 672.872 288.44C671.535 288.44 670.713 289.05 670.478 289.966H667.591C667.803 287.806 669.751 286.163 672.943 286.163C675.36 286.163 678.154 287.149 678.154 290.552V299.073H675.29V297.312H675.196C674.633 298.392 673.436 299.331 671.441 299.331C669 299.331 667.169 297.993 667.169 295.482ZM670.056 295.458C670.056 296.561 670.948 297.125 672.215 297.125C674.023 297.125 675.196 295.928 675.196 294.496V293.439L672.38 293.627C670.948 293.745 670.056 294.331 670.056 295.458ZM680.97 299.073V286.327H683.881V288.44H684.022C684.468 286.985 685.712 286.14 687.167 286.14C687.495 286.14 687.965 286.163 688.247 286.21V288.98C687.988 288.886 687.355 288.792 686.862 288.792C685.195 288.792 683.975 289.942 683.975 291.562V299.073H680.97ZM695.171 304.119C691.791 304.119 689.655 302.617 689.444 300.223H692.425C692.636 301.326 693.692 301.866 695.218 301.866C697.002 301.866 698.175 301.091 698.175 299.214V296.773H698.034C697.565 297.711 696.556 298.885 694.349 298.885C691.415 298.885 689.092 296.749 689.092 292.595C689.092 288.393 691.415 286.163 694.373 286.163C696.626 286.163 697.565 287.501 698.034 288.416H698.175V286.327H701.133V299.284C701.133 302.547 698.621 304.119 695.171 304.119ZM695.171 296.538C697.095 296.538 698.199 295.083 698.199 292.641C698.199 290.224 697.119 288.604 695.171 288.604C693.176 288.604 692.143 290.318 692.143 292.641C692.143 294.989 693.199 296.538 695.171 296.538ZM709.653 299.331C705.804 299.331 703.456 296.773 703.456 292.782C703.456 288.839 705.851 286.163 709.489 286.163C712.61 286.163 715.31 288.111 715.31 292.595V293.533H706.414C706.449 295.705 707.728 296.984 709.676 296.984C710.991 296.984 711.883 296.42 712.258 295.669H715.192C714.652 297.876 712.61 299.331 709.653 299.331ZM706.437 291.491H712.446C712.423 289.754 711.273 288.487 709.536 288.487C707.728 288.487 706.531 289.86 706.437 291.491ZM723.994 286.327V288.628H721.483V295.247C721.483 296.467 722.093 296.726 722.844 296.726C723.196 296.726 723.783 296.702 724.159 296.679V299.12C723.807 299.19 723.22 299.237 722.469 299.237C720.215 299.237 718.478 298.134 718.502 295.74V288.628H716.671V286.327H718.502V283.276H721.483V286.327H723.994ZM743.593 287.806C743.241 285.764 741.598 284.591 739.533 284.591C736.74 284.591 734.791 286.727 734.791 290.576C734.791 294.472 736.763 296.561 739.533 296.561C741.551 296.561 743.194 295.435 743.593 293.439H746.668C746.199 296.702 743.523 299.307 739.486 299.307C735.003 299.307 731.717 296.045 731.717 290.576C731.717 285.083 735.05 281.844 739.486 281.844C743.241 281.844 746.152 284.027 746.668 287.806H743.593ZM754.719 299.331C751.01 299.331 748.616 296.702 748.616 292.759C748.616 288.792 751.01 286.163 754.719 286.163C758.451 286.163 760.822 288.792 760.822 292.759C760.822 296.702 758.451 299.331 754.719 299.331ZM754.743 296.937C756.785 296.937 757.794 295.083 757.794 292.735C757.794 290.412 756.785 288.534 754.743 288.534C752.654 288.534 751.644 290.412 751.644 292.735C751.644 295.083 752.654 296.937 754.743 296.937ZM765 299.261C763.99 299.261 763.169 298.439 763.169 297.43C763.169 296.444 763.99 295.622 765 295.622C765.962 295.622 766.807 296.444 766.807 297.43C766.807 298.439 765.962 299.261 765 299.261Z" fill="#1A2A3E"/>
<path d="M530.041 274.721V276.321H523.73V281.137H521.797V276.321H515.521V274.721H530.041ZM528.477 271.856V273.403H517.385V265.932H528.301V267.479H519.318V268.885H527.949V270.397H519.318V271.856H528.477ZM536.791 269.764C536.791 272.225 538.25 275.02 540.764 276.18L539.674 277.727C537.881 276.883 536.554 275.178 535.842 273.192C535.121 275.372 533.732 277.235 531.904 278.114L530.762 276.584C533.293 275.389 534.822 272.401 534.84 269.764V268.428H531.377V266.811H540.113V268.428H536.791V269.764ZM543.541 265.247V271.434H545.984V273.069H543.541V281.137H541.59V265.247H543.541Z" fill="#1A2A3E"/>
<rect x="480.29" y="0.572754" width="220" height="100" rx="10" fill="#3D6493"/>
<rect opacity="0.2" x="486.29" y="6.57275" width="208" height="88" rx="10" fill="#1A2A3E"/>
<path d="M545.071 26.1238C548.287 26.1238 550.681 28.1189 550.704 30.9121C550.681 33.7287 548.287 35.7004 545.071 35.7004C541.832 35.7004 539.438 33.7287 539.438 30.9121C539.438 28.1189 541.832 26.1238 545.071 26.1238ZM545.071 28.2832C543.287 28.2832 541.973 29.2925 541.973 30.9121C541.973 32.5551 543.287 33.5879 545.071 33.5879C546.855 33.5879 548.169 32.5551 548.169 30.9121C548.169 29.2925 546.855 28.2832 545.071 28.2832ZM556.736 25.4431V36.1698H554.108V25.4431H556.736ZM556.736 37.0852V42.6246H545.259V44.338H557.37V46.4036H542.7V40.6999H554.131V39.1273H542.653V37.0852H556.736ZM576.57 25.4666V31.5928H579.528V33.7522H576.57V41.0754H573.965V25.4666H576.57ZM577.415 44.1268V46.2393H562.98V39.5028H565.585V44.1268H577.415ZM563.144 26.9688V30.2079H568.097V26.9688H570.679V37.6251H560.562V26.9688H563.144ZM563.144 35.5595H568.097V32.2265H563.144V35.5595ZM599.995 41.9674V44.1033H580.607V41.9674H588.987V37.0852H591.592V41.9674H599.995ZM598.329 27.1566V29.2925H591.639C591.721 32.3439 594.867 35.1488 599.221 35.7943L598.188 37.8598C594.597 37.2026 591.663 35.3131 590.301 32.6725C588.928 35.3483 586.018 37.3082 582.485 37.9771L581.452 35.9116C585.689 35.1957 588.811 32.3439 588.893 29.2925H582.227V27.1566H598.329ZM618.116 25.4431V30.6774H621.073V32.8368H618.116V37.8363H615.51V25.4431H618.116ZM606.99 38.6813V40.5121H615.51V38.6813H618.116V46.4036H604.408V38.6813H606.99ZM606.99 44.338H615.51V42.5307H606.99V44.338ZM613.984 27.4148V29.5038H601.404V27.4148H606.403V25.2788H609.008V27.4148H613.984ZM607.694 30.2314C610.769 30.2314 612.858 31.7101 612.881 33.9634C612.858 36.2167 610.769 37.6955 607.694 37.6955C604.596 37.6955 602.483 36.2167 602.483 33.9634C602.483 31.7101 604.596 30.2314 607.694 30.2314ZM607.694 32.1561C606.074 32.1561 605.018 32.8368 605.018 33.9634C605.018 35.1136 606.074 35.7708 607.694 35.7708C609.314 35.7708 610.393 35.1136 610.393 33.9634C610.393 32.8368 609.314 32.1561 607.694 32.1561ZM639.944 25.4666V41.5214H637.316V39.6671H633.161V37.8363H637.316V25.4666H639.944ZM640.437 44.1268V46.2393H624.875V39.9723H627.481V44.1268H640.437ZM622.059 34.9962C625.979 34.9727 631.236 34.9258 635.743 34.3625L635.884 36.2402C634.135 36.5336 632.328 36.7331 630.532 36.8505V40.9346H627.927V36.9913C625.943 37.0735 624.054 37.0852 622.387 37.0852L622.059 34.9962ZM628.983 26.2412C632.081 26.2412 634.241 27.7669 634.264 29.9967C634.241 32.2735 632.081 33.7287 628.983 33.7287C625.838 33.7287 623.678 32.2735 623.678 29.9967C623.678 27.7669 625.838 26.2412 628.983 26.2412ZM628.983 28.1659C627.293 28.1659 626.143 28.8466 626.143 29.9967C626.143 31.1468 627.293 31.8275 628.983 31.8275C630.603 31.8275 631.753 31.1468 631.776 29.9967C631.753 28.8466 630.603 28.1659 628.983 28.1659ZM569.353 67.0945C569.353 62.6818 570.667 58.9967 572.873 55.8515H575.69C574.07 58.1752 572.451 62.893 572.451 67.0945C572.451 71.296 574.07 76.0138 575.69 78.361H572.873C570.667 75.1923 569.353 71.5307 569.353 67.0945ZM577.943 73.5728V56.5791H580.995V70.9908H588.506V73.5728H577.943ZM590.947 73.5728V56.5791H597.331C601.227 56.5791 603.316 58.9497 603.316 62.2123C603.316 65.4749 601.204 67.8221 597.284 67.8221H593.998V73.5728H590.947ZM593.998 65.3106H596.862C599.162 65.3106 600.195 64.0197 600.195 62.2123C600.195 60.3815 599.162 59.1375 596.862 59.1375H593.998V65.3106ZM611.227 67.0945C611.227 71.5307 609.912 75.1923 607.706 78.361H604.889C606.509 76.0138 608.128 71.296 608.128 67.0945C608.128 62.893 606.509 58.1752 604.889 55.8515H607.706C609.912 58.9967 611.227 62.6818 611.227 67.0945Z" fill="#FCFEFF"/>
<path d="M590.568 290.573L585.568 287.686V293.46L590.568 290.573ZM470.568 291.073H586.068V290.073H470.568V291.073Z" fill="#3399F3"/>
<path d="M110.848 110.573L110.848 170.573" stroke="#3399F3" stroke-linecap="round" stroke-linejoin="round"/>
<path d="M110.848 170.573H590.289" stroke="#3399F3" stroke-linecap="round" stroke-linejoin="round"/>
<path d="M350.568 230.573L353.455 225.573L347.682 225.573L350.568 230.573ZM350.068 110.573L350.068 226.073L351.068 226.073L351.068 110.573L350.068 110.573Z" fill="#3399F3"/>
<path d="M590.289 110.573L590.289 170.573" stroke="#3399F3" stroke-linecap="round" stroke-linejoin="round"/>
</svg>
