<svg width="551" height="461" viewBox="0 0 551 461" fill="none" xmlns="http://www.w3.org/2000/svg">
<rect opacity="0.5" x="250.82" y="170.423" width="300" height="120" rx="10" fill="#ECF0F4"/>
<rect opacity="0.5" x="250.82" y="0.423218" width="300" height="120" rx="10" fill="#ECF0F4"/>
<rect opacity="0.5" x="250.82" y="340.423" width="300" height="120" rx="10" fill="#ECF0F4"/>
<rect x="0.820068" y="180.423" width="170" height="100" rx="10" fill="#3D6493"/>
<rect opacity="0.2" x="6.81982" y="186.305" width="158" height="88.2361" rx="10" fill="#1A2A3E"/>
<rect opacity="0.03" x="256.82" y="6.42319" width="288" height="108" rx="10" fill="#1A2A3E"/>
<rect opacity="0.03" x="256.82" y="176.423" width="288" height="108" rx="10" fill="#1A2A3E"/>
<rect opacity="0.03" x="256.82" y="346.423" width="288" height="108" rx="10" fill="#1A2A3E"/>
<path d="M30.0535 226.64V224.197H40.7585V226.64H36.8914V236.923H33.9207V226.64H30.0535ZM45.2761 237.099C42.2878 237.099 40.4773 235.113 40.4773 232.177C40.4773 229.242 42.2878 227.255 45.2761 227.255C48.2644 227.255 50.075 229.242 50.075 232.177C50.075 235.113 48.2644 237.099 45.2761 237.099ZM45.2937 234.867C46.4187 234.867 47.0515 233.759 47.0515 232.16C47.0515 230.56 46.4187 229.453 45.2937 229.453C44.1335 229.453 43.5007 230.56 43.5007 232.16C43.5007 233.759 44.1335 234.867 45.2937 234.867ZM56.9304 227.378V229.558H55.1902V233.935C55.1902 234.533 55.489 234.708 55.9988 234.726C56.2449 234.744 56.7195 234.708 57.0535 234.691V236.958C56.7722 236.994 56.28 237.064 55.5769 237.064C53.4851 237.064 52.2195 236.203 52.2371 234.269V229.558H50.9539V227.378H52.2371V225.093H55.1902V227.378H56.9304ZM58.0203 234.269C58.0203 232.16 59.655 231.404 61.5535 231.281C62.239 231.237 63.4343 231.193 63.8386 231.175V230.402C63.8386 229.734 63.3464 229.365 62.5378 229.365C61.7468 229.365 61.2546 229.699 61.1316 230.331H58.3718C58.4949 228.644 59.9363 227.255 62.6082 227.255C64.9636 227.255 66.8093 228.38 66.8093 230.437V236.923H64.0144V235.587H63.9441C63.4167 236.554 62.5027 237.099 61.1667 237.099C59.3386 237.099 58.0203 236.167 58.0203 234.269ZM60.8328 234.146C60.8328 234.796 61.3425 235.13 62.0632 235.13C63.0652 235.13 63.8738 234.48 63.8562 233.531V232.915C63.4958 232.933 62.4851 232.977 62.0457 233.021C61.3074 233.109 60.8328 233.513 60.8328 234.146ZM71.5906 224.197V236.923H68.6199V224.197H71.5906ZM84.405 227.976C84.3347 227.044 83.6492 226.499 82.4187 226.499C81.2058 226.499 80.5906 227.027 80.573 227.747C80.5554 228.538 81.3289 228.925 82.4714 229.171L83.5789 229.435C86.0222 229.98 87.446 231.193 87.4636 233.232C87.446 235.64 85.5828 237.099 82.4187 237.099C79.2546 237.099 77.198 235.658 77.1453 232.74H80.0281C80.0984 233.97 81.0125 234.603 82.3835 234.603C83.6492 234.603 84.405 234.04 84.4226 233.232C84.405 232.494 83.7546 232.107 82.3484 231.79L81.0125 231.474C78.8152 230.964 77.4792 229.874 77.4792 227.958C77.4617 225.603 79.5535 224.021 82.4363 224.021C85.3718 224.021 87.2527 225.62 87.2878 227.976H84.405ZM93.4402 237.099C90.4519 237.099 88.6238 235.236 88.6238 232.195C88.6238 229.242 90.4695 227.255 93.3347 227.255C96.0066 227.255 97.9402 228.96 97.9402 232.124V232.88H91.5417V232.933C91.5417 234.163 92.2976 234.954 93.4929 234.954C94.3015 234.954 94.8992 234.603 95.1453 234.04H97.905C97.5535 235.904 95.9187 237.099 93.4402 237.099ZM91.5417 231.14H95.1804C95.1628 230.12 94.4246 229.4 93.405 229.4C92.3503 229.4 91.5857 230.147 91.5417 231.14ZM99.4695 236.923V227.378H102.352V229.101H102.44C102.792 227.853 103.635 227.238 104.69 227.238C104.971 227.238 105.288 227.29 105.534 227.343V229.927C105.253 229.839 104.725 229.786 104.356 229.786C103.249 229.786 102.44 230.56 102.44 231.703V236.923H99.4695ZM116.221 227.378L112.934 236.923H109.542L106.272 227.378H109.384L111.194 234.005H111.3L113.093 227.378H116.221ZM117.364 236.923V227.378H120.335V236.923H117.364ZM118.858 226.236C118.014 226.236 117.329 225.603 117.329 224.812C117.329 224.021 118.014 223.388 118.858 223.388C119.702 223.388 120.405 224.021 120.405 224.812C120.405 225.603 119.702 226.236 118.858 226.236ZM126.663 237.099C123.657 237.099 121.864 235.095 121.864 232.177C121.864 229.259 123.675 227.255 126.663 227.255C129.282 227.255 130.987 228.767 131.057 231.087H128.298C128.157 230.12 127.594 229.505 126.698 229.505C125.608 229.505 124.887 230.437 124.887 232.142C124.887 233.865 125.591 234.796 126.698 234.796C127.542 234.796 128.175 234.251 128.298 233.232H131.057C130.969 235.552 129.317 237.099 126.663 237.099ZM137.034 237.099C134.046 237.099 132.218 235.236 132.218 232.195C132.218 229.242 134.063 227.255 136.928 227.255C139.6 227.255 141.534 228.96 141.534 232.124V232.88H135.135V232.933C135.135 234.163 135.891 234.954 137.087 234.954C137.895 234.954 138.493 234.603 138.739 234.04H141.499C141.147 235.904 139.512 237.099 137.034 237.099ZM135.135 231.14H138.774C138.757 230.12 138.018 229.4 136.999 229.4C135.944 229.4 135.179 230.147 135.135 231.14Z" fill="#FCFEFF"/>
<path d="M300.229 51.5717V53.1713H293.919V57.9877H291.985V53.1713H285.71V51.5717H300.229ZM298.665 48.7064V50.2533H287.573V42.7826H298.489V44.3295H289.507V45.7357H298.138V47.2474H289.507V48.7064H298.665ZM306.979 46.6146C306.979 49.0756 308.438 51.8705 310.952 53.0306L309.862 54.5775C308.069 53.7338 306.742 52.0287 306.03 50.0424C305.31 52.222 303.921 54.0853 302.093 54.9642L300.95 53.4349C303.481 52.2396 305.011 49.2513 305.028 46.6146V45.2787H301.565V43.6615H310.302V45.2787H306.979V46.6146ZM313.729 42.097V48.2845H316.173V49.9193H313.729V57.9877H311.778V42.097H313.729ZM330.077 42.097V57.9877H328.126V42.097H330.077ZM316.911 53.5756C318.177 53.5668 319.609 53.5668 321.112 53.5228V52.0638C319.319 51.7826 318.159 50.684 318.159 49.181C318.159 47.3881 319.741 46.1927 322.062 46.1927C324.399 46.1927 326.017 47.3881 326.017 49.181C326.017 50.6752 324.848 51.765 323.063 52.0463V53.4525C324.461 53.391 325.867 53.2767 327.194 53.101L327.335 54.5599C323.837 55.1576 320.058 55.1927 317.192 55.1927L316.911 53.5756ZM326.913 43.9252V45.472H317.245V43.9252H321.112V42.1498H323.063V43.9252H326.913ZM322.062 47.6869C320.866 47.7045 320.005 48.2494 320.022 49.181C320.005 50.0951 320.866 50.64 322.062 50.6224C323.31 50.64 324.136 50.0951 324.136 49.181C324.136 48.2494 323.31 47.7045 322.062 47.6869ZM338.075 45.9115C338.058 48.7416 339.481 51.6244 341.942 52.8021L340.747 54.3666C339.024 53.4965 337.785 51.8177 337.108 49.7963C336.414 51.9584 335.113 53.7513 333.294 54.6654L332.099 53.101C334.647 51.8881 336.106 48.847 336.124 45.9115V43.3802H338.075V45.9115ZM344.843 42.097V48.3197H347.286V49.9896H344.843V57.9877H342.892V42.097H344.843ZM353.104 43.2045C355.618 43.1869 357.464 44.7865 357.481 47.0365C357.464 49.3041 355.618 50.8861 353.104 50.8861C350.608 50.8861 348.745 49.3041 348.745 47.0365C348.745 44.7865 350.608 43.1869 353.104 43.2045ZM353.104 44.892C351.716 44.892 350.679 45.7181 350.679 47.0365C350.679 48.3724 351.716 49.181 353.104 49.181C354.511 49.181 355.565 48.3724 355.565 47.0365C355.565 45.7181 354.511 44.892 353.104 44.892ZM361.19 42.097V58.0052H359.239V42.097H361.19ZM348.024 53.0834C350.89 53.0834 354.862 53.0482 358.29 52.556L358.448 53.9799C354.88 54.6654 351.065 54.683 348.271 54.683L348.024 53.0834ZM373.601 44.3822C373.583 46.5443 374.849 48.5131 377.345 49.3041L376.29 50.8334C374.559 50.2269 373.346 49.0756 372.669 47.5638C371.966 49.2953 370.639 50.6576 368.714 51.3256L367.677 49.7435C370.313 48.8822 371.632 46.7552 371.632 44.4701V42.9584H373.601V44.3822ZM381.089 42.097V51.4486H379.138V46.7728H375.974V45.1732H379.138V42.097H381.089ZM375.71 51.8705C379.085 51.8705 381.142 52.9955 381.142 54.9291C381.142 56.8627 379.085 57.9701 375.71 57.9701C372.353 57.9701 370.296 56.8627 370.313 54.9291C370.296 52.9955 372.353 51.8705 375.71 51.8705ZM375.71 53.3822C373.495 53.3822 372.247 53.9271 372.247 54.9291C372.247 55.8959 373.495 56.4408 375.71 56.4408C377.925 56.4408 379.19 55.8959 379.19 54.9291C379.19 53.9271 377.925 53.3822 375.71 53.3822ZM389.034 44.9623C389.034 46.9135 390.3 48.7416 392.778 49.4974L391.847 51.0267C390.062 50.473 388.797 49.3392 388.103 47.8978C387.399 49.5677 386.055 50.8949 384.147 51.5365L383.163 49.9896C385.729 49.1459 387.065 47.0892 387.065 44.9799V44.7865H383.708V43.2045H392.339V44.7865H389.034V44.9623ZM395.872 42.097V45.9115H398.087V47.5111H395.872V51.5717H393.921V42.097H395.872ZM390.704 51.9232C393.991 51.9232 396.013 53.0306 396.03 54.9291C396.013 56.8451 393.991 57.9701 390.704 57.9701C387.382 57.9701 385.325 56.8451 385.325 54.9291C385.325 53.0306 387.382 51.9232 390.704 51.9232ZM390.704 53.4525C388.524 53.4525 387.276 53.9623 387.276 54.9291C387.276 55.9135 388.524 56.4408 390.704 56.4408C392.884 56.4408 394.097 55.9135 394.097 54.9291C394.097 53.9623 392.884 53.4525 390.704 53.4525ZM400.829 52.222C400.073 52.222 399.458 51.6068 399.458 50.851C399.458 50.1127 400.073 49.4974 400.829 49.4974C401.55 49.4974 402.183 50.1127 402.183 50.851C402.183 51.6068 401.55 52.222 400.829 52.222ZM417.581 42.097V57.9877H415.718V49.9369H414.083V57.2142H412.237V42.3783H414.083V48.3197H415.718V42.097H417.581ZM408.739 46.1576C408.739 48.9877 409.688 51.5892 412.044 52.8021L410.901 54.2963C409.39 53.4877 408.396 52.0902 407.843 50.3588C407.298 52.3363 406.305 53.9271 404.731 54.8588L403.536 53.3646C405.892 52.0287 406.841 49.2513 406.841 46.1576V45.4017H404.011V43.8373H411.341V45.4017H408.739V46.1576ZM433.858 51.097V52.6791H427.53V57.9701H425.597V52.6791H419.339V51.097H433.858ZM432.083 42.9056V49.2338H421.114V42.9056H432.083ZM423.03 44.4701V47.7045H430.132V44.4701H423.03ZM447.446 42.097V46.7552H449.661V48.3724H447.446V53.7162H445.495V42.097H447.446ZM448.079 56.0892V57.6713H437.269V52.5033H439.22V56.0892H448.079ZM439.378 43.1517C441.786 43.1517 443.649 44.8217 443.667 47.1595C443.649 49.4623 441.786 51.1498 439.378 51.1498C436.97 51.1498 435.071 49.4623 435.089 47.1595C435.071 44.8217 436.97 43.1517 439.378 43.1517ZM439.378 44.8568C438.042 44.8568 436.987 45.7533 437.005 47.1595C436.987 48.5306 438.042 49.4271 439.378 49.4271C440.714 49.4271 441.751 48.5306 441.751 47.1595C441.751 45.7533 440.714 44.8568 439.378 44.8568ZM463.776 42.097V51.5365H461.825V47.6517H459.118V46.0521H461.825V42.097H463.776ZM458.397 51.9408C461.772 51.9408 463.829 53.0482 463.829 54.9642C463.829 56.8802 461.772 57.9877 458.397 57.9877C455.04 57.9877 452.983 56.8802 453.001 54.9642C452.983 53.0482 455.04 51.9408 458.397 51.9408ZM458.397 53.4349C456.183 53.4349 454.935 53.9623 454.935 54.9642C454.935 55.9486 456.183 56.476 458.397 56.476C460.612 56.476 461.878 55.9486 461.878 54.9642C461.878 53.9623 460.612 53.4349 458.397 53.4349ZM456.306 44.8217C456.306 46.7552 457.589 48.7064 460.05 49.5326L459.065 51.0795C457.299 50.4818 456.042 49.2689 455.356 47.7748C454.653 49.4711 453.326 50.8246 451.437 51.5013L450.417 49.9545C452.966 49.0756 454.319 46.931 454.319 44.8392V44.7162H451.015V43.1342H459.593V44.7162H456.306V44.8217ZM473.251 42.3431C476.872 42.3431 478.964 43.3099 478.981 45.0677C478.964 46.8431 476.872 47.7924 473.251 47.8099C469.63 47.7924 467.521 46.8431 467.521 45.0677C467.521 43.3099 469.63 42.3431 473.251 42.3431ZM473.251 43.7845C470.825 43.7845 469.56 44.2416 469.577 45.0677C469.56 45.9467 470.825 46.351 473.251 46.351C475.712 46.351 476.96 45.9467 476.96 45.0677C476.96 44.2416 475.712 43.7845 473.251 43.7845ZM480.511 48.6537V50.2181H466.026V48.6537H480.511ZM478.7 51.2904V55.1752H469.665V56.3529H479.14V57.847H467.749V53.7865H476.784V52.7318H467.731V51.2904H478.7ZM491.04 42.8002C493.448 42.7826 495.206 44.1537 495.206 46.14C495.206 48.0912 493.448 49.4799 491.04 49.4623C488.649 49.4799 486.909 48.0912 486.909 46.14C486.909 44.1537 488.649 42.7826 491.04 42.8002ZM491.04 44.3822C489.739 44.3646 488.79 45.0502 488.808 46.14C488.79 47.2123 489.739 47.8627 491.04 47.8627C492.394 47.8627 493.343 47.2123 493.343 46.14C493.343 45.0502 492.394 44.3646 491.04 44.3822ZM499.144 42.1146V57.9701H497.21V42.1146H499.144ZM485.872 50.5521C488.737 50.5521 492.745 50.4994 496.173 49.9896L496.313 51.431C494.942 51.6947 493.519 51.8617 492.13 51.9584V57.4955H490.161V52.0814C488.693 52.1429 487.313 52.1517 486.118 52.1693L485.872 50.5521ZM513.944 42.1146V47.1068H516.159V48.724H513.944V53.9799H511.993V42.1146H513.944ZM510.851 43.8724V45.4369H501.429V43.8724H505.173V42.097H507.124V43.8724H510.851ZM506.14 46.0873C508.425 46.0873 510.007 47.3002 510.024 49.1283C510.007 50.9388 508.425 52.1342 506.14 52.1342C503.837 52.1342 502.237 50.9388 502.237 49.1283C502.237 47.3002 503.837 46.0873 506.14 46.0873ZM506.14 47.599C504.927 47.599 504.136 48.1615 504.136 49.1283C504.136 50.0775 504.927 50.64 506.14 50.6224C507.353 50.64 508.161 50.0775 508.161 49.1283C508.161 48.1615 507.353 47.599 506.14 47.599ZM514.577 56.0892V57.6713H503.767V53.0482H505.718V56.0892H514.577ZM322.686 63.1146V72.3959H320.734V70.6381H316.955V69.056H320.734V67.351H317.113C316.103 69.8822 313.791 71.6488 310.328 72.6068L309.537 71.0599C313.255 70.0492 315.232 68.1683 315.549 65.8041H310.381V64.222H317.676C317.676 64.7758 317.632 65.3031 317.535 65.8041H320.734V63.1146H322.686ZM317.43 72.5717C320.646 72.5717 322.791 73.7845 322.791 75.7357C322.791 77.6869 320.646 78.8998 317.43 78.8998C314.178 78.8998 312.033 77.6869 312.033 75.7357C312.033 73.7845 314.178 72.5717 317.43 72.5717ZM317.43 74.101C315.285 74.101 313.984 74.681 313.984 75.7357C313.984 76.7728 315.285 77.3529 317.43 77.3529C319.521 77.3529 320.84 76.7728 320.84 75.7357C320.84 74.681 319.521 74.101 317.43 74.101ZM329.348 63.9935C330.631 63.9935 331.738 64.4681 332.494 65.2592H336.291V63.097H338.242V72.4486H336.291V70.4271H332.494C331.738 71.2181 330.622 71.684 329.348 71.6752C326.957 71.6927 325.146 70.0756 325.146 67.8431C325.146 65.5931 326.957 63.9935 329.348 63.9935ZM329.348 65.6635C327.977 65.6635 327.01 66.5072 327.01 67.8431C327.01 69.1439 327.977 70.0228 329.348 70.0228C330.666 70.0228 331.633 69.1439 331.65 67.8431C331.633 66.5072 330.666 65.6635 329.348 65.6635ZM332.863 72.7826C336.203 72.7826 338.295 73.9252 338.295 75.8763C338.295 77.8275 336.203 78.9701 332.863 78.9701C329.541 78.9701 327.449 77.8275 327.467 75.8763C327.449 73.9252 329.541 72.7826 332.863 72.7826ZM332.863 74.2767C330.648 74.2767 329.365 74.8392 329.383 75.8763C329.365 76.8783 330.648 77.4408 332.863 77.4408C335.113 77.4408 336.379 76.8783 336.379 75.8763C336.379 74.8392 335.113 74.2767 332.863 74.2767ZM333.373 66.8236C333.461 67.1488 333.514 67.4828 333.514 67.8431C333.514 68.1947 333.461 68.5287 333.391 68.8451H336.291V66.8236H333.373ZM346.205 66.3666C346.205 68.0892 347.488 69.7767 349.984 70.4623L349.088 71.974C347.26 71.4818 345.959 70.4095 345.256 69.0385C344.553 70.5502 343.226 71.7191 341.336 72.2552L340.404 70.7435C342.918 70.0404 344.254 68.265 344.254 66.3666V66.3314H340.932V64.7845H344.254V63.0267H346.223V64.7845H349.527V66.3314H346.205V66.3666ZM353.025 63.097V66.9291H355.24V68.5463H353.025V72.4486H351.074V63.097H353.025ZM353.025 73.1166V78.7943H342.76V73.1166H353.025ZM344.693 74.6635V77.2123H351.092V74.6635H344.693ZM360.391 64.2572C361.832 64.2572 363.019 65.057 363.73 66.4545H367.439V63.097H369.373V79.0052H367.439V72.9935H363.871C363.186 74.5756 361.929 75.4896 360.391 75.4896C358 75.4896 356.312 73.3275 356.312 69.8646C356.312 66.4369 358 64.2572 360.391 64.2572ZM360.391 66.015C359.072 66.015 358.176 67.4388 358.193 69.8646C358.176 72.308 359.072 73.7318 360.391 73.7318C361.709 73.7318 362.588 72.308 362.605 69.8646C362.588 67.4388 361.709 66.015 360.391 66.015ZM364.275 68.0541C364.39 68.6078 364.451 69.2142 364.451 69.8646C364.451 70.4183 364.407 70.9281 364.328 71.4115H367.439V68.0541H364.275ZM384.35 64.0814V70.6908H376.686V64.0814H384.35ZM378.619 65.6283V69.1615H382.416V65.6283H378.619ZM389.078 63.097V72.1498H387.145V63.097H389.078ZM389.412 73.0814V74.558H384.877C385.062 75.7885 386.969 77.142 390.01 77.4408L389.342 78.9349C386.767 78.6713 384.815 77.6517 383.857 76.3334C382.864 77.6693 380.896 78.6537 378.303 78.9349L377.635 77.4408C380.676 77.1771 382.627 75.8236 382.803 74.558H378.285V73.0814H382.855V71.6927H384.824V73.0814H389.412ZM401.699 67.6146C401.699 70.2162 403.229 72.9584 405.795 74.0306L404.723 75.5775C402.842 74.7689 401.471 73.099 400.75 71.0775C400.012 73.2572 398.623 75.0853 396.76 75.9642L395.635 74.4349C398.148 73.2748 399.713 70.3217 399.713 67.6146V66.2787H396.215V64.6615H405.18V66.2787H401.699V67.6146ZM408.924 63.097V78.9877H406.955V63.097H408.924ZM425.746 70.9017V72.4838H411.262V70.9017H417.52V68.6869H419.453V70.9017H425.746ZM419.471 63.9584C419.471 65.892 421.598 67.6498 424.92 68.0717L424.164 69.601C421.554 69.1967 419.479 68.0189 418.469 66.349C417.449 68.0189 415.375 69.1967 412.756 69.601L412.053 68.0717C415.322 67.6498 417.484 65.8568 417.484 63.9584V63.3607H419.471V63.9584ZM423.971 73.7494V78.9877H422.02V75.2787H412.861V73.7494H423.971ZM432.654 65.8217C432.654 67.7552 433.938 69.7064 436.398 70.5326L435.414 72.0443C433.639 71.4642 432.382 70.2601 431.688 68.7748C430.993 70.4359 429.666 71.7719 427.785 72.3959L426.783 70.849C429.314 70.0228 430.668 67.9135 430.668 65.8392V65.6283H427.363V64.0638H435.941V65.6283H432.654V65.8217ZM440.125 73.3275V78.9877H438.174V74.892H429.297V73.3275H440.125ZM440.125 63.097V72.5717H438.174V68.6342H435.467V67.0345H438.174V63.097H440.125ZM454.979 64.3275C454.979 68.6517 453.01 71.6927 447.719 73.4154L446.963 71.8861C449.406 71.1039 450.953 70.0756 451.867 68.8099L447.227 69.1967L446.928 67.6498L452.588 67.4213C452.764 66.9467 452.869 66.4369 452.922 65.9095H447.736V64.3275H454.979ZM459.953 63.1146V74.8568H458.002V69.601H454.908V68.0013H458.002V63.1146H459.953ZM460.375 77.0892V78.6713H449.652V73.6967H451.621V77.0892H460.375ZM475.51 63.097V71.2357H473.559V67.2103H470.395V65.6459H473.559V63.097H475.51ZM475.51 71.9213V76.0345H466.984V77.2474H476.02V78.7943H465.068V74.5756H473.576V73.4506H465.051V71.9213H475.51ZM467.969 64.89C467.969 66.8412 469.252 68.7045 471.713 69.4603L470.676 70.972C468.953 70.392 467.705 69.2758 467.02 67.8256C466.316 69.4515 465.016 70.7084 463.135 71.3236L462.115 69.7592C464.664 68.9857 466 67.0345 466 64.89V63.6244H467.969V64.89ZM486.32 64.2396V65.7865H480.625V67.2982H485.863V68.8275H480.625V70.3568C483.596 70.3744 485.406 70.3304 487.498 69.9701L487.691 71.517C485.406 71.8861 483.42 71.9564 479.992 71.9388H478.639V64.2396H486.32ZM490.996 63.1146V72.8002H489.027V63.1146H490.996ZM485.635 73.0287C488.975 73.0287 491.066 74.1185 491.066 75.9994C491.066 77.8802 488.975 78.9701 485.635 78.9701C482.242 78.9701 480.186 77.8802 480.203 75.9994C480.186 74.1185 482.242 73.0287 485.635 73.0287ZM485.635 74.5404C483.385 74.5404 482.137 75.0677 482.154 75.9994C482.137 76.9486 483.385 77.4584 485.635 77.4584C487.832 77.4584 489.115 76.9486 489.115 75.9994C489.115 75.0677 487.832 74.5404 485.635 74.5404Z" fill="#111111"/>
<path d="M329.848 220.411V221.941H315.328V220.411H329.848ZM328.02 223.154V227.988H326.051V224.718H316.963V223.154H328.02ZM328.23 217.74V219.234H317.191V212.484H328.107V214.013H319.143V215.103H327.721V216.562H319.143V217.74H328.23ZM343.488 212.097V218.654H345.721V220.288H343.488V227.988H341.52V212.097H343.488ZM330.727 223.576C331.931 223.576 333.328 223.576 334.787 223.54V222.046C333.056 221.756 331.922 220.666 331.939 219.181C331.922 217.388 333.504 216.193 335.789 216.193C338.039 216.193 339.639 217.388 339.656 219.181C339.639 220.675 338.487 221.765 336.756 222.046V223.47C338.092 223.4 339.428 223.294 340.676 223.119L340.799 224.542C337.389 225.158 333.715 225.193 331.008 225.193L330.727 223.576ZM340.5 213.925V215.472H331.025V213.925H334.787V212.167H336.756V213.925H340.5ZM335.789 217.687C334.576 217.704 333.785 218.249 333.785 219.181C333.785 220.095 334.576 220.64 335.789 220.622C336.984 220.64 337.775 220.095 337.775 219.181C337.775 218.249 336.984 217.704 335.789 217.687ZM356.443 214.91C356.426 217.001 357.744 218.988 360.24 219.796L359.221 221.343C357.454 220.745 356.206 219.55 355.512 218.021C354.8 219.708 353.49 221.027 351.645 221.677L350.555 220.13C353.174 219.286 354.475 217.142 354.475 214.892V213.081H356.443V214.91ZM363.281 212.097V216.79H365.496V218.443H363.281V223.769H361.33V212.097H363.281ZM363.914 226.089V227.671H353.104V222.626H355.107V226.089H363.914ZM370.717 212.8C372.773 212.783 374.391 213.969 374.795 215.718H377.66V212.097H379.611V220.622H377.66V217.3H374.812C374.417 219.084 372.782 220.288 370.717 220.288C368.273 220.288 366.516 218.724 366.516 216.527C366.516 214.365 368.273 212.783 370.717 212.8ZM370.717 214.435C369.346 214.435 368.379 215.244 368.379 216.527C368.379 217.792 369.346 218.636 370.717 218.636C372.053 218.636 373.002 217.792 373.02 216.527C373.002 215.244 372.053 214.435 370.717 214.435ZM371.068 221.361V223.048H377.66V221.361H379.611V227.794H369.135V221.361H371.068ZM371.068 226.212H377.66V224.56H371.068V226.212ZM395.168 212.097V220.306H393.217V218.583H390.018V219.796H382.582V212.8H384.533V214.804H388.084V212.8H390.018V214.206H393.217V212.097H395.168ZM395.168 220.956V225.035H386.66V226.247H395.678V227.794H384.709V223.593H393.217V222.486H384.691V220.956H395.168ZM384.533 218.249H388.084V216.298H384.533V218.249ZM390.018 217.089H393.217V215.683H390.018V217.089ZM400.512 225.175L399.035 230.097H397.365L398.279 225.175H400.512ZM420.779 221.572V223.171H414.469V227.988H412.535V223.171H406.26V221.572H420.779ZM419.215 218.706V220.253H408.123V212.783H419.039V214.329H410.057V215.736H418.688V217.247H410.057V218.706H419.215ZM427.529 216.615C427.529 219.076 428.988 221.87 431.502 223.031L430.412 224.578C428.619 223.734 427.292 222.029 426.58 220.042C425.859 222.222 424.471 224.085 422.643 224.964L421.5 223.435C424.031 222.24 425.561 219.251 425.578 216.615V215.279H422.115V213.661H430.852V215.279H427.529V216.615ZM434.279 212.097V218.285H436.723V219.919H434.279V227.988H432.328V212.097H434.279ZM454.934 212.097V227.988H452.965V212.097H454.934ZM450.188 213.785C450.188 218.513 448.359 222.538 442.787 225.175L441.768 223.611C445.925 221.633 447.858 218.944 448.201 215.331H442.576V213.785H450.188ZM461.631 212.8C463.688 212.783 465.305 213.969 465.709 215.718H468.574V212.097H470.525V220.622H468.574V217.3H465.727C465.331 219.084 463.696 220.288 461.631 220.288C459.188 220.288 457.43 218.724 457.43 216.527C457.43 214.365 459.188 212.783 461.631 212.8ZM461.631 214.435C460.26 214.435 459.293 215.244 459.293 216.527C459.293 217.792 460.26 218.636 461.631 218.636C462.967 218.636 463.916 217.792 463.934 216.527C463.916 215.244 462.967 214.435 461.631 214.435ZM461.982 221.361V223.048H468.574V221.361H470.525V227.794H460.049V221.361H461.982ZM461.982 226.212H468.574V224.56H461.982V226.212ZM486.082 212.097V220.306H484.131V218.583H480.932V219.796H473.496V212.8H475.447V214.804H478.998V212.8H480.932V214.206H484.131V212.097H486.082ZM486.082 220.956V225.035H477.574V226.247H486.592V227.794H475.623V223.593H484.131V222.486H475.605V220.956H486.082ZM475.447 218.249H478.998V216.298H475.447V218.249ZM480.932 217.089H484.131V215.683H480.932V217.089ZM336.589 233.115V244.716H334.638V238.898H331.825V237.316H334.638V233.115H336.589ZM336.993 247.089V248.671H326.165V243.697H328.116V247.089H336.993ZM329.118 236.279C329.118 238.195 330.401 240.163 332.862 240.972L331.878 242.536C330.103 241.93 328.846 240.726 328.151 239.214C327.448 240.893 326.121 242.22 324.249 242.87L323.247 241.288C325.778 240.462 327.132 238.37 327.132 236.261V235.839H323.827V234.257H332.405V235.839H329.118V236.279ZM353.341 241.042V242.607H347.206V245.525H345.272V242.607H338.821V241.042H353.341ZM351.478 233.818V239.566H340.667V233.818H351.478ZM342.565 235.347V238.036H349.544V235.347H342.565ZM351.741 247.089V248.671H340.579V244.066H342.53V247.089H351.741ZM366.841 233.097V239.302H369.196V240.937H366.841V248.953H364.89V233.097H366.841ZM362.64 234.749C362.64 239.425 360.706 243.521 355.415 246.122L354.308 244.611C358.175 242.686 360.267 239.979 360.671 236.367H355.169V234.749H362.64ZM383.593 234.046V235.611H380.253C380.279 237.474 381.65 239.258 384.155 239.97L383.171 241.499C381.334 240.954 380.007 239.803 379.286 238.335C378.574 239.917 377.212 241.165 375.313 241.763L374.329 240.234C376.869 239.487 378.24 237.579 378.284 235.611H374.856V234.046H383.593ZM387.46 233.097V241.71H385.491V233.097H387.46ZM378.882 242.413V244.048H385.509V242.413H387.46V248.794H376.948V242.413H378.882ZM378.882 247.212H385.509V245.56H378.882V247.212ZM402.313 233.097V237.562H404.546V239.179H402.313V244.593H400.362V233.097H402.313ZM397.567 234.415V235.98H392.382V240.304C395.37 240.313 397.031 240.207 398.921 239.812L399.132 241.394C397.058 241.798 395.194 241.904 391.731 241.904H390.448V234.415H397.567ZM402.946 247.089V248.671H392.136V243.38H394.087V247.089H402.946ZM420.718 234.697V247.423H418.679L412.649 238.722H412.544V247.423H410.259V234.697H412.333L418.327 243.398H418.45V234.697H420.718ZM427.204 247.617C424.321 247.617 422.563 245.701 422.563 242.712C422.563 239.759 424.356 237.755 427.081 237.755C429.419 237.755 431.44 239.214 431.44 242.572V243.275H424.778C424.805 244.901 425.763 245.859 427.222 245.859C428.206 245.859 428.874 245.437 429.155 244.874H431.353C430.948 246.527 429.419 247.617 427.204 247.617ZM424.796 241.745H429.296C429.278 240.445 428.417 239.495 427.116 239.495C425.763 239.495 424.866 240.524 424.796 241.745ZM437.944 237.878V239.601H436.063V244.558C436.063 245.472 436.521 245.665 437.083 245.665C437.347 245.665 437.786 245.648 438.067 245.63V247.458C437.804 247.511 437.364 247.546 436.802 247.546C435.114 247.546 433.813 246.72 433.831 244.927V239.601H432.46V237.878H433.831V235.593H436.063V237.878H437.944ZM441.653 247.423L438.946 237.878H441.231L442.919 244.593H443.007L444.712 237.878H446.979L448.702 244.558H448.79L450.46 237.878H452.745L450.038 247.423H447.7L445.907 240.954H445.784L443.991 247.423H441.653ZM458.071 247.617C455.294 247.617 453.501 245.648 453.501 242.695C453.501 239.724 455.294 237.755 458.071 237.755C460.866 237.755 462.642 239.724 462.642 242.695C462.642 245.648 460.866 247.617 458.071 247.617ZM458.089 245.824C459.618 245.824 460.374 244.435 460.374 242.677C460.374 240.937 459.618 239.531 458.089 239.531C456.524 239.531 455.769 240.937 455.769 242.677C455.769 244.435 456.524 245.824 458.089 245.824ZM464.382 247.423V237.878H466.562V239.46H466.667C467.001 238.37 467.933 237.738 469.022 237.738C469.269 237.738 469.62 237.755 469.831 237.79V239.865C469.638 239.794 469.163 239.724 468.794 239.724C467.546 239.724 466.632 240.585 466.632 241.798V247.423H464.382ZM471.167 247.423V234.697H473.417V241.71H473.575L477.003 237.878H479.622L475.931 241.992L479.851 247.423H477.179L474.243 243.328L473.417 244.206V247.423H471.167Z" fill="#111111"/>
<path d="M331.659 391.572V393.171H325.349V397.988H323.415V393.171H317.14V391.572H331.659ZM330.095 388.706V390.253H319.003V382.783H329.919V384.329H320.937V385.736H329.567V387.247H320.937V388.706H330.095ZM338.409 386.615C338.409 389.076 339.868 391.87 342.382 393.031L341.292 394.578C339.499 393.734 338.172 392.029 337.46 390.042C336.739 392.222 335.351 394.085 333.522 394.964L332.38 393.435C334.911 392.24 336.44 389.251 336.458 386.615V385.279H332.995V383.661H341.731V385.279H338.409V386.615ZM345.159 382.097V388.285H347.603V389.919H345.159V397.988H343.208V382.097H345.159ZM365.181 382.747V388.267H360.751V389.937H367.026V391.519H352.542V389.937H358.782V388.267H354.37V382.747H365.181ZM356.269 384.277V386.72H363.247V384.277H356.269ZM365.251 392.855V397.988H363.3V394.402H354.142V392.855H365.251ZM373.935 384.822C373.935 386.755 375.218 388.706 377.679 389.533L376.694 391.044C374.919 390.464 373.662 389.26 372.968 387.775C372.273 389.436 370.946 390.772 369.065 391.396L368.063 389.849C370.595 389.023 371.948 386.913 371.948 384.839V384.628H368.644V383.064H377.222V384.628H373.935V384.822ZM381.405 392.328V397.988H379.454V393.892H370.577V392.328H381.405ZM381.405 382.097V391.572H379.454V387.634H376.747V386.035H379.454V382.097H381.405ZM395.661 382.958V384.523H390.476V388.056C393.367 388.038 395.099 387.924 397.067 387.529L397.278 389.04C395.151 389.533 393.2 389.585 389.825 389.585H388.542V382.958H395.661ZM400.46 382.097V385.226H402.675V386.826H400.46V390.042H398.509V382.097H400.46ZM400.46 390.728V394.947H392.022V396.212H400.952V397.794H390.089V393.47H398.509V392.292H390.071V390.728H400.46ZM409.302 384.382C409.284 386.544 410.55 388.513 413.046 389.304L411.991 390.833C410.26 390.227 409.047 389.076 408.37 387.564C407.667 389.295 406.34 390.658 404.415 391.326L403.378 389.744C406.015 388.882 407.333 386.755 407.333 384.47V382.958H409.302V384.382ZM416.79 382.097V391.449H414.839V386.773H411.675V385.173H414.839V382.097H416.79ZM411.411 391.87C414.786 391.87 416.843 392.995 416.843 394.929C416.843 396.863 414.786 397.97 411.411 397.97C408.054 397.97 405.997 396.863 406.015 394.929C405.997 392.995 408.054 391.87 411.411 391.87ZM411.411 393.382C409.196 393.382 407.948 393.927 407.948 394.929C407.948 395.896 409.196 396.441 411.411 396.441C413.626 396.441 414.892 395.896 414.892 394.929C414.892 393.927 413.626 393.382 411.411 393.382ZM429.323 385.911C429.306 388.829 430.835 391.747 433.419 392.855L432.259 394.419C430.431 393.576 429.086 391.888 428.356 389.814C427.627 392.055 426.265 393.883 424.331 394.788L423.136 393.154C425.79 392.011 427.337 388.97 427.337 385.911V383.38H429.323V385.911ZM436.53 382.097V398.005H434.562V382.097H436.53ZM452.175 382.097V391.326H450.224V387.476H447.481V385.876H450.224V382.097H452.175ZM452.175 392.011V397.794H441.61V392.011H452.175ZM443.562 393.558V396.212H450.259V393.558H443.562ZM444.704 384.716C444.704 386.632 445.987 388.583 448.448 389.427L447.464 390.974C445.688 390.368 444.432 389.163 443.737 387.669C443.034 389.322 441.707 390.649 439.835 391.273L438.833 389.744C441.364 388.9 442.718 386.808 442.718 384.699V384.576H439.413V382.994H447.991V384.576H444.704V384.716ZM467.099 382.097V388.443H469.296V390.06H467.099V397.988H465.13V382.097H467.099ZM459.188 383.767C459.171 387.933 458.591 391.449 455.726 394.542L454.196 393.435C456.438 391.062 457.167 388.548 457.325 385.367H454.829V383.767H459.188ZM463.583 383.767C463.565 388.038 463.126 392.117 460.261 395.562L458.696 394.49C460.964 391.791 461.597 388.812 461.737 385.367H459.716V383.767H463.583ZM475.976 386.615C475.976 389.216 477.505 391.958 480.071 393.031L478.999 394.578C477.118 393.769 475.747 392.099 475.026 390.078C474.288 392.257 472.899 394.085 471.036 394.964L469.911 393.435C472.425 392.275 473.989 389.322 473.989 386.615V385.279H470.491V383.661H479.456V385.279H475.976V386.615ZM483.2 382.097V397.988H481.231V382.097H483.2ZM314.67 403.097V411.622H312.701V403.097H314.67ZM306.092 412.361V413.995H312.719V412.361H314.67V418.794H304.158V412.361H306.092ZM306.092 417.212H312.719V415.525H306.092V417.212ZM306.004 403.8C308.447 403.783 310.275 405.312 310.275 407.527C310.275 409.689 308.447 411.218 306.004 411.218C303.543 411.218 301.715 409.689 301.715 407.527C301.715 405.312 303.543 403.783 306.004 403.8ZM306.004 405.435C304.615 405.435 303.613 406.244 303.631 407.527C303.613 408.792 304.615 409.601 306.004 409.619C307.375 409.601 308.359 408.792 308.359 407.527C308.359 406.244 307.375 405.435 306.004 405.435ZM321.842 407.949C321.842 410.41 322.861 412.888 325.076 414.083L323.986 415.525C322.51 414.743 321.508 413.345 320.945 411.675C320.383 413.477 319.381 415.015 317.887 415.894L316.744 414.417C318.994 413.117 319.996 410.462 319.996 407.949V407.456H317.289V405.874H319.996V403.66H321.842V405.874H324.496V407.456H321.842V407.949ZM330.666 403.097V418.988H328.803V403.097H330.666ZM327.432 403.396V418.214H325.586V410.814H323.512V409.197H325.586V403.396H327.432ZM338.383 405.822C338.383 407.755 339.666 409.706 342.127 410.533L341.143 412.044C339.367 411.464 338.11 410.26 337.416 408.775C336.722 410.436 335.395 411.772 333.514 412.396L332.512 410.849C335.043 410.023 336.396 407.913 336.396 405.839V405.628H333.092V404.064H341.67V405.628H338.383V405.822ZM345.854 413.328V418.988H343.902V414.892H335.025V413.328H345.854ZM345.854 403.097V412.572H343.902V408.634H341.195V407.035H343.902V403.097H345.854ZM361.34 403.115V414.593H359.371V403.115H361.34ZM361.779 417.089V418.671H350.828V413.433H352.797V417.089H361.779ZM352.674 404.152C355.082 404.152 356.945 405.822 356.945 408.124C356.945 410.48 355.082 412.115 352.674 412.115C350.248 412.115 348.385 410.48 348.385 408.124C348.385 405.822 350.248 404.152 352.674 404.152ZM352.674 405.857C351.32 405.857 350.283 406.753 350.301 408.124C350.283 409.531 351.32 410.41 352.674 410.41C353.992 410.41 355.029 409.531 355.029 408.124C355.029 406.753 353.992 405.857 352.674 405.857ZM370.199 417.423H367.756L372.238 404.697H375.051L379.551 417.423H377.107L376.053 414.277H371.254L370.199 417.423ZM371.869 412.431H375.438L373.697 407.298H373.592L371.869 412.431ZM384.824 417.617C381.977 417.617 380.254 415.578 380.254 412.695C380.254 409.777 382.029 407.755 384.824 407.755C387.145 407.755 388.762 409.109 388.92 411.165H386.775C386.6 410.251 385.932 409.548 384.842 409.548C383.453 409.548 382.521 410.726 382.521 412.642C382.521 414.611 383.436 415.788 384.842 415.788C385.844 415.788 386.582 415.208 386.775 414.171H388.92C388.744 416.193 387.215 417.617 384.824 417.617ZM395.371 407.878V409.601H393.49V414.558C393.49 415.472 393.947 415.665 394.51 415.665C394.773 415.665 395.213 415.648 395.494 415.63V417.458C395.23 417.511 394.791 417.546 394.229 417.546C392.541 417.546 391.24 416.72 391.258 414.927V409.601H389.887V407.878H391.258V405.593H393.49V407.878H395.371ZM397.094 417.423V407.878H399.344V417.423H397.094ZM398.236 406.525C397.533 406.525 396.936 405.98 396.936 405.294C396.936 404.626 397.533 404.081 398.236 404.081C398.957 404.081 399.537 404.626 399.537 405.294C399.537 405.98 398.957 406.525 398.236 406.525ZM410.014 407.878L406.604 417.423H404.143L400.732 407.878H403.123L405.32 414.98H405.426L407.641 407.878H410.014ZM415.322 417.617C412.439 417.617 410.682 415.701 410.682 412.712C410.682 409.759 412.475 407.755 415.199 407.755C417.537 407.755 419.559 409.214 419.559 412.572V413.275H412.896C412.923 414.901 413.881 415.859 415.34 415.859C416.324 415.859 416.992 415.437 417.273 414.874H419.471C419.066 416.527 417.537 417.617 415.322 417.617ZM412.914 411.745H417.414C417.396 410.445 416.535 409.495 415.234 409.495C413.881 409.495 412.984 410.524 412.914 411.745ZM427.961 404.697V417.423H425.676V404.697H427.961ZM432.479 411.833V417.423H430.229V407.878H432.373V409.495H432.496C432.936 408.423 433.902 407.755 435.326 407.755C437.312 407.755 438.613 409.056 438.596 411.341V417.423H436.363V411.693C436.363 410.41 435.678 409.654 434.5 409.654C433.305 409.654 432.479 410.445 432.479 411.833ZM448.914 407.878L445.504 417.423H443.043L439.633 407.878H442.023L444.221 414.98H444.326L446.541 407.878H448.914ZM454.223 417.617C451.34 417.617 449.582 415.701 449.582 412.712C449.582 409.759 451.375 407.755 454.1 407.755C456.438 407.755 458.459 409.214 458.459 412.572V413.275H451.797C451.823 414.901 452.781 415.859 454.24 415.859C455.225 415.859 455.893 415.437 456.174 414.874H458.371C457.967 416.527 456.438 417.617 454.223 417.617ZM451.814 411.745H456.314C456.297 410.445 455.436 409.495 454.135 409.495C452.781 409.495 451.885 410.524 451.814 411.745ZM465.613 410.603C465.473 409.882 464.875 409.425 463.926 409.425C462.959 409.425 462.256 409.9 462.273 410.55C462.256 411.042 462.66 411.411 463.627 411.64L465.244 411.974C467.055 412.378 467.916 413.204 467.934 414.576C467.916 416.369 466.352 417.617 463.855 417.617C461.43 417.617 459.988 416.527 459.76 414.699H462.045C462.186 415.507 462.818 415.911 463.855 415.911C464.928 415.911 465.648 415.472 465.648 414.769C465.648 414.224 465.209 413.872 464.26 413.661L462.73 413.328C460.955 412.976 460.041 412.044 460.041 410.673C460.041 408.915 461.553 407.755 463.891 407.755C466.176 407.755 467.582 408.863 467.74 410.603H465.613ZM474.402 407.878V409.601H472.521V414.558C472.521 415.472 472.979 415.665 473.541 415.665C473.805 415.665 474.244 415.648 474.525 415.63V417.458C474.262 417.511 473.822 417.546 473.26 417.546C471.572 417.546 470.271 416.72 470.289 414.927V409.601H468.918V407.878H470.289V405.593H472.521V407.878H474.402ZM476.125 417.423V407.878H478.375V417.423H476.125ZM477.268 406.525C476.564 406.525 475.967 405.98 475.967 405.294C475.967 404.626 476.564 404.081 477.268 404.081C477.988 404.081 478.568 404.626 478.568 405.294C478.568 405.98 477.988 406.525 477.268 406.525ZM482.77 411.833V417.423H480.52V407.878H482.664V409.495H482.787C483.227 408.423 484.193 407.755 485.617 407.755C487.604 407.755 488.904 409.056 488.887 411.341V417.423H486.654V411.693C486.654 410.41 485.969 409.654 484.791 409.654C483.596 409.654 482.77 410.445 482.77 411.833ZM495.197 421.203C492.666 421.203 491.066 420.078 490.908 418.285H493.141C493.299 419.111 494.09 419.515 495.232 419.515C496.568 419.515 497.447 418.935 497.447 417.529V415.701H497.342C496.99 416.404 496.234 417.283 494.582 417.283C492.385 417.283 490.645 415.683 490.645 412.572C490.645 409.425 492.385 407.755 494.6 407.755C496.287 407.755 496.99 408.757 497.342 409.443H497.447V407.878H499.662V417.581C499.662 420.025 497.781 421.203 495.197 421.203ZM495.197 415.525C496.639 415.525 497.465 414.435 497.465 412.607C497.465 410.796 496.656 409.583 495.197 409.583C493.703 409.583 492.93 410.867 492.93 412.607C492.93 414.365 493.721 415.525 495.197 415.525Z" fill="#111111"/>
<path d="M169.691 232.839C171.026 233.463 172.613 232.886 173.236 231.552C173.86 230.218 173.284 228.631 171.949 228.007C170.615 227.384 169.028 227.96 168.404 229.294C167.781 230.628 168.357 232.216 169.691 232.839ZM249.239 62.6261C250.573 63.2497 252.16 62.6735 252.784 61.3393C253.407 60.005 252.831 58.4179 251.497 57.7944C250.162 57.1708 248.575 57.747 247.952 59.0812C247.328 60.4155 247.904 62.0026 249.239 62.6261ZM171.273 230.635L250.821 60.422L249.915 59.9986L170.367 230.212L171.273 230.635Z" fill="#3399F3"/>
<path d="M169.678 228.013C168.348 228.644 167.78 230.234 168.41 231.565C169.041 232.896 170.631 233.464 171.962 232.833C173.293 232.202 173.861 230.612 173.23 229.281C172.599 227.95 171.009 227.383 169.678 228.013ZM250.13 397.799C248.799 398.43 248.232 400.02 248.862 401.351C249.493 402.682 251.083 403.249 252.414 402.619C253.745 401.988 254.312 400.398 253.682 399.067C253.051 397.736 251.461 397.168 250.13 397.799ZM170.368 230.637L250.82 400.423L251.724 399.995L171.272 230.209L170.368 230.637Z" fill="#3399F3"/>
<path d="M168.154 230.423C168.154 231.896 169.348 233.09 170.82 233.09C172.293 233.09 173.487 231.896 173.487 230.423C173.487 228.95 172.293 227.757 170.82 227.757C169.348 227.757 168.154 228.95 168.154 230.423ZM248.154 230.423C248.154 231.896 249.348 233.09 250.82 233.09C252.293 233.09 253.487 231.896 253.487 230.423C253.487 228.95 252.293 227.757 250.82 227.757C249.348 227.757 248.154 228.95 248.154 230.423ZM170.82 230.923L250.82 230.923L250.82 229.923L170.82 229.923L170.82 230.923Z" fill="#3399F3"/>
<circle opacity="0.5" cx="250.368" cy="60.2103" r="6" fill="#3399F3"/>
<circle opacity="0.5" cx="250.82" cy="230.423" r="6" fill="#3399F3"/>
<circle opacity="0.5" cx="251.272" cy="400.209" r="6" fill="#3399F3"/>
<circle opacity="0.5" cx="170.82" cy="230.423" r="6" fill="#3399F3"/>
</svg>
