<svg width="701" height="341" viewBox="0 0 701 341" fill="none" xmlns="http://www.w3.org/2000/svg">
<rect x="0.847656" y="0.241455" width="220" height="100" rx="10" fill="#3D6493"/>
<rect opacity="0.2" x="6.84766" y="6.24146" width="208" height="88" rx="10" fill="#1A2A3E"/>
<path d="M81.719 41.7478V58.7415H78.6676V41.7478H81.719ZM87.7513 51.2774V58.7415H84.7469V45.9962H87.6105V48.1556H87.7748C88.3616 46.7238 89.6525 45.8319 91.5537 45.8319C94.2061 45.8319 95.943 47.5688 95.9195 50.6202V58.7415H92.9386V51.0896C92.9386 49.3762 92.0232 48.3669 90.4506 48.3669C88.8545 48.3669 87.7513 49.4231 87.7513 51.2774ZM109.698 45.9962L105.144 58.7415H101.858L97.3044 45.9962H100.497L103.431 55.4789H103.571L106.529 45.9962H109.698ZM116.786 58.9996C112.937 58.9996 110.589 56.4412 110.589 52.451C110.589 48.5077 112.984 45.8319 116.622 45.8319C119.744 45.8319 122.443 47.7801 122.443 52.2632V53.2021H113.547C113.582 55.3732 114.861 56.6525 116.81 56.6525C118.124 56.6525 119.016 56.0891 119.391 55.338H122.325C121.786 57.5444 119.744 58.9996 116.786 58.9996ZM113.57 51.16H119.579C119.556 49.4231 118.406 48.1556 116.669 48.1556C114.861 48.1556 113.664 49.5287 113.57 51.16ZM131.996 49.6343C131.808 48.672 131.01 48.0617 129.743 48.0617C128.452 48.0617 127.513 48.6955 127.536 49.5639C127.513 50.2211 128.053 50.7141 129.344 51.0192L131.503 51.4652C133.921 52.005 135.071 53.1082 135.094 54.939C135.071 57.3331 132.982 58.9996 129.649 58.9996C126.41 58.9996 124.485 57.5444 124.18 55.1033H127.231C127.419 56.183 128.264 56.7229 129.649 56.7229C131.08 56.7229 132.043 56.1361 132.043 55.1972C132.043 54.4696 131.456 54.0001 130.189 53.7185L128.146 53.2725C125.776 52.8031 124.555 51.559 124.555 49.7282C124.555 47.381 126.574 45.8319 129.696 45.8319C132.747 45.8319 134.625 47.3106 134.836 49.6343H131.996ZM143.732 45.9962V48.2964H141.22V54.9155C141.22 56.1361 141.831 56.3943 142.582 56.3943C142.934 56.3943 143.521 56.3708 143.896 56.3473V58.7884C143.544 58.8588 142.957 58.9058 142.206 58.9058C139.953 58.9058 138.216 57.8026 138.239 55.4084V48.2964H136.409V45.9962H138.239V42.9448H141.22V45.9962H143.732Z" fill="#FCFEFF"/>
<rect x="120.848" y="240.241" width="220" height="100" rx="10" fill="#A1D0F9"/>
<rect opacity="0.3" x="126.848" y="246.241" width="208" height="88" rx="10" fill="#EBF5FE"/>
<path d="M187.878 279.612V295.667H185.39V279.612H187.878ZM183.653 279.987V295.009H181.188V287.686H178.935V291.864H170.555V281.278H173.02V284.635H176.517V281.278H178.935V285.574H181.188V279.987H183.653ZM173.02 289.752H176.517V286.63H173.02V289.752ZM188.464 298.295V300.408H173.677V293.531H176.283V298.295H188.464ZM208.298 279.612V300.854H205.693V290.01H201.585V287.897H205.693V279.612H208.298ZM198.252 286.348C198.229 289.564 200.153 292.991 203.51 294.47L202.102 296.465C199.672 295.432 197.912 293.308 196.985 290.761C196.046 293.46 194.297 295.725 191.868 296.817L190.46 294.798C193.769 293.296 195.647 289.681 195.647 286.348V285.245H191.093V283.156H195.67V280.058H198.276V283.156H202.712V285.245H198.252V286.348ZM230.643 292.263V294.399H222.217V300.83H219.635V294.399H211.256V292.263H230.643ZM228.554 288.437V290.503H213.744V280.527H228.32V282.593H216.326V284.471H227.85V286.489H216.326V288.437H228.554ZM239.657 285.644C239.657 288.93 241.605 292.662 244.961 294.211L243.506 296.277C241.112 295.15 239.34 292.873 238.389 290.221C237.427 293.132 235.573 295.62 233.132 296.793L231.606 294.751C234.986 293.155 237.028 289.165 237.051 285.644V283.86H232.427V281.701H244.093V283.86H239.657V285.644ZM248.67 279.612V287.874H251.933V290.057H248.67V300.83H246.065V279.612H248.67ZM272.212 296.136V298.272H252.824V296.136H261.204V291.254H263.809V296.136H272.212ZM270.546 281.325V283.461H263.856C263.938 286.513 267.084 289.317 271.438 289.963L270.405 292.028C266.814 291.371 263.88 289.482 262.518 286.841C261.145 289.517 258.235 291.477 254.702 292.146L253.669 290.08C257.906 289.364 261.028 286.513 261.11 283.461H254.444V281.325H270.546ZM290.333 279.612V284.846H293.29V287.005H290.333V292.005H287.727V279.612H290.333ZM279.207 292.85V294.681H287.727V292.85H290.333V300.572H276.625V292.85H279.207ZM279.207 298.507H287.727V296.699H279.207V298.507ZM286.202 281.583V283.672H273.621V281.583H278.62V279.448H281.225V281.583H286.202ZM279.911 284.4C282.986 284.4 285.075 285.879 285.098 288.132C285.075 290.385 282.986 291.864 279.911 291.864C276.813 291.864 274.7 290.385 274.7 288.132C274.7 285.879 276.813 284.4 279.911 284.4ZM279.911 286.325C278.292 286.325 277.235 287.005 277.235 288.132C277.235 289.282 278.292 289.939 279.911 289.939C281.531 289.939 282.61 289.282 282.61 288.132C282.61 287.005 281.531 286.325 279.911 286.325Z" fill="#1A2A3E"/>
<rect opacity="0.5" x="480.848" y="240.241" width="220" height="100" rx="10" fill="#ECF0F4"/>
<rect opacity="0.03" x="486.848" y="246.241" width="208" height="88" rx="10" fill="#1A2A3E"/>
<path d="M533.975 284.306V281.748H547.518V284.306H542.284V298.741H539.233V284.306H533.975ZM547.448 295.15C547.448 292.287 549.819 291.442 552.189 291.301C553.07 291.242 554.9 291.137 555.452 291.113V290.104C555.452 288.836 554.63 288.109 553.152 288.109C551.814 288.109 550.992 288.719 550.758 289.634H547.871C548.082 287.475 550.03 285.832 553.222 285.832C555.64 285.832 558.433 286.818 558.433 290.221V298.741H555.569V296.981H555.475C554.912 298.061 553.715 299 551.72 299C549.279 299 547.448 297.662 547.448 295.15ZM550.335 295.127C550.335 296.23 551.227 296.793 552.495 296.793C554.302 296.793 555.475 295.596 555.475 294.164V293.108L552.659 293.296C551.227 293.413 550.335 294 550.335 295.127ZM561.25 298.741V285.996H564.16V288.109H564.301C564.747 286.653 565.991 285.808 567.446 285.808C567.775 285.808 568.244 285.832 568.526 285.879V288.649C568.268 288.555 567.634 288.461 567.141 288.461C565.475 288.461 564.254 289.611 564.254 291.23V298.741H561.25ZM575.45 303.788C572.07 303.788 569.934 302.286 569.723 299.892H572.704C572.915 300.995 573.971 301.535 575.497 301.535C577.281 301.535 578.454 300.76 578.454 298.882V296.441H578.314C577.844 297.38 576.835 298.554 574.629 298.554C571.695 298.554 569.371 296.418 569.371 292.263C569.371 288.062 571.695 285.832 574.652 285.832C576.905 285.832 577.844 287.17 578.314 288.085H578.454V285.996H581.412V298.953C581.412 302.215 578.9 303.788 575.45 303.788ZM575.45 296.206C577.375 296.206 578.478 294.751 578.478 292.31C578.478 289.893 577.398 288.273 575.45 288.273C573.455 288.273 572.422 289.986 572.422 292.31C572.422 294.657 573.478 296.206 575.45 296.206ZM589.932 299C586.083 299 583.736 296.441 583.736 292.451C583.736 288.508 586.13 285.832 589.768 285.832C592.89 285.832 595.589 287.78 595.589 292.263V293.202H586.693C586.728 295.373 588.008 296.652 589.956 296.652C591.27 296.652 592.162 296.089 592.538 295.338H595.472C594.932 297.544 592.89 299 589.932 299ZM586.717 291.16H592.725C592.702 289.423 591.552 288.156 589.815 288.156C588.008 288.156 586.81 289.529 586.717 291.16ZM604.274 285.996V288.296H601.762V294.916C601.762 296.136 602.372 296.394 603.123 296.394C603.476 296.394 604.062 296.371 604.438 296.347V298.788C604.086 298.859 603.499 298.906 602.748 298.906C600.495 298.906 598.758 297.803 598.781 295.408V288.296H596.95V285.996H598.781V282.945H601.762V285.996H604.274ZM623.873 287.475C623.521 285.433 621.878 284.259 619.812 284.259C617.019 284.259 615.071 286.395 615.071 290.245C615.071 294.141 617.042 296.23 619.812 296.23C621.831 296.23 623.474 295.103 623.873 293.108H626.947C626.478 296.371 623.802 298.976 619.765 298.976C615.282 298.976 611.996 295.714 611.996 290.245C611.996 284.752 615.329 281.513 619.765 281.513C623.521 281.513 626.431 283.696 626.947 287.475H623.873ZM634.998 299C631.29 299 628.896 296.371 628.896 292.428C628.896 288.461 631.29 285.832 634.998 285.832C638.73 285.832 641.101 288.461 641.101 292.428C641.101 296.371 638.73 299 634.998 299ZM635.022 296.606C637.064 296.606 638.073 294.751 638.073 292.404C638.073 290.08 637.064 288.203 635.022 288.203C632.933 288.203 631.924 290.08 631.924 292.404C631.924 294.751 632.933 296.606 635.022 296.606ZM645.279 298.929C644.27 298.929 643.448 298.108 643.448 297.098C643.448 296.113 644.27 295.291 645.279 295.291C646.241 295.291 647.086 296.113 647.086 297.098C647.086 298.108 646.241 298.929 645.279 298.929Z" fill="#1A2A3E"/>
<path d="M410.32 274.39V275.99H404.01V280.806H402.076V275.99H395.801V274.39H410.32ZM408.756 271.525V273.072H397.664V265.601H408.58V267.148H399.598V268.554H408.229V270.066H399.598V271.525H408.756ZM417.07 269.433C417.07 271.894 418.529 274.689 421.043 275.849L419.953 277.396C418.16 276.552 416.833 274.847 416.121 272.861C415.4 275.04 414.012 276.904 412.184 277.782L411.041 276.253C413.572 275.058 415.102 272.07 415.119 269.433V268.097H411.656V266.48H420.393V268.097H417.07V269.433ZM423.82 264.915V271.103H426.264V272.738H423.82V280.806H421.869V264.915H423.82Z" fill="#1A2A3E"/>
<rect x="240.848" y="0.241455" width="220" height="100" rx="10" fill="#3D6493"/>
<rect opacity="0.2" x="246.848" y="6.24146" width="208" height="88" rx="10" fill="#1A2A3E"/>
<path d="M305.629 25.7925C308.845 25.7925 311.239 27.7876 311.262 30.5808C311.239 33.3974 308.845 35.3691 305.629 35.3691C302.39 35.3691 299.996 33.3974 299.996 30.5808C299.996 27.7876 302.39 25.7925 305.629 25.7925ZM305.629 27.9519C303.845 27.9519 302.531 28.9612 302.531 30.5808C302.531 32.2238 303.845 33.2566 305.629 33.2566C307.413 33.2566 308.727 32.2238 308.727 30.5808C308.727 28.9612 307.413 27.9519 305.629 27.9519ZM317.295 25.1118V35.8385H314.666V25.1118H317.295ZM317.295 36.7539V42.2933H305.817V44.0067H317.928V46.0723H303.258V40.3686H314.689V38.796H303.211V36.7539H317.295ZM337.128 25.1353V31.2615H340.086V33.4209H337.128V40.7441H334.523V25.1353H337.128ZM337.973 43.7955V45.908H323.538V39.1715H326.143V43.7955H337.973ZM323.702 26.6375V29.8766H328.655V26.6375H331.237V37.2938H321.12V26.6375H323.702ZM323.702 35.2282H328.655V31.8952H323.702V35.2282ZM360.553 41.6361V43.772H341.165V41.6361H349.545V36.7539H352.15V41.6361H360.553ZM358.887 26.8253V28.9612H352.197C352.279 32.0126 355.425 34.8175 359.779 35.463L358.746 37.5285C355.155 36.8713 352.221 34.9818 350.859 32.3412C349.486 35.017 346.576 36.9769 343.043 37.6458L342.01 35.5803C346.247 34.8644 349.369 32.0126 349.451 28.9612H342.785V26.8253H358.887ZM378.674 25.1118V30.3461H381.631V32.5055H378.674V37.505H376.068V25.1118H378.674ZM367.548 38.35V40.1808H376.068V38.35H378.674V46.0723H364.966V38.35H367.548ZM367.548 44.0067H376.068V42.1994H367.548V44.0067ZM374.543 27.0835V29.1725H361.962V27.0835H366.961V24.9475H369.567V27.0835H374.543ZM368.252 29.9001C371.327 29.9001 373.416 31.3788 373.439 33.6321C373.416 35.8854 371.327 37.3642 368.252 37.3642C365.154 37.3642 363.041 35.8854 363.041 33.6321C363.041 31.3788 365.154 29.9001 368.252 29.9001ZM368.252 31.8248C366.633 31.8248 365.576 32.5055 365.576 33.6321C365.576 34.7823 366.633 35.4395 368.252 35.4395C369.872 35.4395 370.951 34.7823 370.951 33.6321C370.951 32.5055 369.872 31.8248 368.252 31.8248ZM400.503 25.1353V41.1901H397.874V39.3358H393.719V37.505H397.874V25.1353H400.503ZM400.995 43.7955V45.908H385.434V39.641H388.039V43.7955H400.995ZM382.617 34.6649C386.537 34.6414 391.794 34.5945 396.301 34.0312L396.442 35.9089C394.693 36.2023 392.886 36.4018 391.09 36.5192V40.6033H388.485V36.66C386.502 36.7422 384.612 36.7539 382.946 36.7539L382.617 34.6649ZM389.541 25.9099C392.639 25.9099 394.799 27.4356 394.822 29.6654C394.799 31.9422 392.639 33.3974 389.541 33.3974C386.396 33.3974 384.236 31.9422 384.236 29.6654C384.236 27.4356 386.396 25.9099 389.541 25.9099ZM389.541 27.8346C387.851 27.8346 386.701 28.5153 386.701 29.6654C386.701 30.8155 387.851 31.4962 389.541 31.4962C391.161 31.4962 392.311 30.8155 392.334 29.6654C392.311 28.5153 391.161 27.8346 389.541 27.8346ZM329.911 66.7632C329.911 62.3505 331.225 58.6654 333.431 55.5202H336.248C334.629 57.8439 333.009 62.5617 333.009 66.7632C333.009 70.9647 334.629 75.6825 336.248 78.0297H333.431C331.225 74.861 329.911 71.1994 329.911 66.7632ZM338.501 73.2415V56.2478H341.553V70.6595H349.064V73.2415H338.501ZM351.505 73.2415V56.2478H357.889C361.786 56.2478 363.875 58.6184 363.875 61.881C363.875 65.1436 361.762 67.4908 357.842 67.4908H354.556V73.2415H351.505ZM354.556 64.9793H357.42C359.72 64.9793 360.753 63.6884 360.753 61.881C360.753 60.0502 359.72 58.8062 357.42 58.8062H354.556V64.9793ZM371.785 66.7632C371.785 71.1994 370.47 74.861 368.264 78.0297H365.447C367.067 75.6825 368.686 70.9647 368.686 66.7632C368.686 62.5617 367.067 57.8439 365.447 55.5202H368.264C370.47 58.6654 371.785 62.3505 371.785 66.7632Z" fill="#FCFEFF"/>
<path d="M110.848 110.241L110.848 170.241" stroke="#3399F3"/>
<path d="M110.848 170.241L349.782 170.241" stroke="#3399F3"/>
<path d="M230.848 230.241L233.734 225.241L227.961 225.241L230.848 230.241ZM230.348 170.241L230.348 225.741L231.348 225.741L231.348 170.241L230.348 170.241Z" fill="#3399F3"/>
<path d="M470.848 290.241L465.848 287.355V293.128L470.848 290.241ZM350.848 290.741H466.348V289.741H350.848V290.741Z" fill="#3399F3"/>
<path d="M349.782 110.241L349.782 170.241" stroke="#3399F3"/>
</svg>
