<svg width="941" height="281" viewBox="0 0 941 281" fill="none" xmlns="http://www.w3.org/2000/svg">
<rect x="720.848" y="6.90381" width="220" height="100" rx="10" fill="#3D6493"/>
<rect opacity="0.2" x="726.848" y="12.9038" width="208" height="88" rx="10" fill="#1A2A3E"/>
<path d="M767.65 50.0297C767.626 52.8229 769.386 55.4752 772.719 56.5549L771.358 58.6204C768.999 57.8224 767.333 56.2263 766.405 54.1842C765.455 56.4375 763.706 58.1979 761.242 59.0664L759.786 57.0009C763.284 55.8742 765.021 53.0106 765.021 50.0062V47.5886H767.65V50.0297ZM776.78 46.2742V52.5412H779.738V54.7476H776.78V61.8595H774.175V46.2742H776.78ZM777.625 64.9578V67.0703H763.19V60.3339H765.866V64.9578H777.625ZM786.709 47.2131C789.455 47.1896 791.614 48.7739 792.154 51.1094H795.98V46.2742H798.585V57.6581H795.98V53.2219H792.178C791.65 55.6043 789.467 57.2121 786.709 57.2121C783.446 57.2121 781.099 55.1231 781.099 52.1891C781.099 49.3021 783.446 47.1896 786.709 47.2131ZM786.709 49.396C784.878 49.396 783.587 50.4757 783.587 52.1891C783.587 53.8791 784.878 55.0057 786.709 55.0057C788.493 55.0057 789.76 53.8791 789.784 52.1891C789.76 50.4757 788.493 49.396 786.709 49.396ZM787.178 58.6439V60.8972H795.98V58.6439H798.585V67.2346H784.596V58.6439H787.178ZM787.178 65.1221H795.98V62.9158H787.178V65.1221ZM820.954 58.9256V61.0615H812.528V67.4928H809.946V61.0615H801.566V58.9256H820.954ZM818.865 55.0996V57.1652H804.054V47.1896H818.631V49.2551H806.636V51.1329H818.161V53.1515H806.636V55.0996H818.865ZM829.967 52.3065C829.967 55.5925 831.916 59.3246 835.272 60.8737L833.817 62.9393C831.423 61.8126 829.651 59.5358 828.7 56.8835C827.738 59.794 825.883 62.282 823.442 63.4556L821.917 61.4136C825.297 59.8175 827.339 55.8273 827.362 52.3065V50.5226H822.738V48.3632H834.404V50.5226H829.967V52.3065ZM838.981 46.2742V54.5363H842.243V56.7192H838.981V67.4928H836.375V46.2742H838.981ZM850.74 52.3065C850.74 55.5925 852.688 59.3246 856.045 60.8737L854.59 62.9393C852.195 61.8126 850.423 59.5358 849.473 56.8835C848.51 59.794 846.656 62.282 844.215 63.4556L842.689 61.4136C846.069 59.8175 848.111 55.8273 848.135 52.3065V50.5226H843.511V48.3632H855.176V50.5226H850.74V52.3065ZM859.753 46.2742V54.5363H863.016V56.7192H859.753V67.4928H857.148V46.2742H859.753ZM865.175 58.9256C865.175 54.5128 866.49 50.8277 868.696 47.6825H871.513C869.893 50.0062 868.274 54.7241 868.274 58.9256C868.274 63.127 869.893 67.8449 871.513 70.1921H868.696C866.49 67.0234 865.175 63.3618 865.175 58.9256ZM883.014 53.081C882.873 51.6258 881.629 50.7808 879.798 50.7808C877.874 50.7808 876.7 51.7197 876.7 52.9872C876.7 54.4189 878.202 55.0057 879.611 55.3344L881.207 55.7568C883.742 56.3436 886.183 57.6815 886.183 60.639C886.183 63.6199 883.836 65.662 879.751 65.662C875.785 65.662 873.297 63.7608 873.156 60.4043H876.16C876.301 62.1882 877.803 63.0566 879.728 63.0566C881.747 63.0566 883.131 62.0708 883.131 60.6155C883.131 59.2776 881.887 58.7143 880.057 58.2449L878.132 57.752C875.339 57.0243 873.602 55.616 873.602 53.1749C873.602 50.1705 876.278 48.1754 879.845 48.1754C883.46 48.1754 885.901 50.2175 885.948 53.081H883.014ZM891.769 48.4101V65.4038H888.718V48.4101H891.769ZM900.383 58.9256C900.383 63.3618 899.069 67.0234 896.862 70.1921H894.046C895.665 67.8449 897.285 63.127 897.285 58.9256C897.285 54.7241 895.665 50.0062 894.046 47.6825H896.862C899.069 50.8277 900.383 54.5128 900.383 58.9256Z" fill="#FCFEFF"/>
<rect x="0.847656" y="180.904" width="220" height="100" rx="10" fill="#3D6493"/>
<rect opacity="0.2" x="6.84766" y="186.904" width="208" height="88" rx="10" fill="#1A2A3E"/>
<path d="M47.6495 224.03C47.626 226.823 49.3864 229.475 52.7194 230.555L51.3581 232.62C48.9991 231.822 47.3326 230.226 46.4055 228.184C45.4549 230.438 43.7062 232.198 41.2417 233.066L39.7864 231.001C43.2837 229.874 45.0206 227.011 45.0206 224.006V221.589H47.6495V224.03ZM56.7801 220.274V226.541H59.7375V228.748H56.7801V235.86H54.1747V220.274H56.7801ZM57.6251 238.958V241.07H43.1898V234.334H45.8656V238.958H57.6251ZM66.7087 221.213C69.4549 221.19 71.6143 222.774 72.1542 225.109H75.9801V220.274H78.5855V231.658H75.9801V227.222H72.1777C71.6495 229.604 69.4667 231.212 66.7087 231.212C63.4461 231.212 61.0989 229.123 61.0989 226.189C61.0989 223.302 63.4461 221.19 66.7087 221.213ZM66.7087 223.396C64.8779 223.396 63.5869 224.476 63.5869 226.189C63.5869 227.879 64.8779 229.006 66.7087 229.006C68.4926 229.006 69.7601 227.879 69.7835 226.189C69.7601 224.476 68.4926 223.396 66.7087 223.396ZM67.1781 232.644V234.897H75.9801V232.644H78.5855V241.235H64.5962V232.644H67.1781ZM67.1781 239.122H75.9801V236.916H67.1781V239.122ZM100.954 232.926V235.062H92.5278V241.493H89.9459V235.062H81.5664V232.926H100.954ZM98.8652 229.1V231.165H84.0545V221.19H98.6305V223.255H86.6364V225.133H98.1611V227.151H86.6364V229.1H98.8652ZM109.967 226.306C109.967 229.593 111.916 233.325 115.272 234.874L113.817 236.939C111.423 235.813 109.651 233.536 108.7 230.883C107.738 233.794 105.883 236.282 103.442 237.456L101.917 235.414C105.297 233.817 107.339 229.827 107.362 226.306V224.523H102.738V222.363H114.404V224.523H109.967V226.306ZM118.981 220.274V228.536H122.243V230.719H118.981V241.493H116.375V220.274H118.981ZM130.74 226.306C130.74 229.593 132.688 233.325 136.045 234.874L134.59 236.939C132.195 235.813 130.423 233.536 129.473 230.883C128.51 233.794 126.656 236.282 124.215 237.456L122.689 235.414C126.069 233.817 128.111 229.827 128.135 226.306V224.523H123.511V222.363H135.176V224.523H130.74V226.306ZM139.753 220.274V228.536H143.016V230.719H139.753V241.493H137.148V220.274H139.753ZM145.175 232.926C145.175 228.513 146.49 224.828 148.696 221.683H151.513C149.893 224.006 148.274 228.724 148.274 232.926C148.274 237.127 149.893 241.845 151.513 244.192H148.696C146.49 241.023 145.175 237.362 145.175 232.926ZM163.014 227.081C162.873 225.626 161.629 224.781 159.798 224.781C157.874 224.781 156.7 225.72 156.7 226.987C156.7 228.419 158.202 229.006 159.611 229.334L161.207 229.757C163.742 230.344 166.183 231.682 166.183 234.639C166.183 237.62 163.836 239.662 159.751 239.662C155.785 239.662 153.297 237.761 153.156 234.404H156.16C156.301 236.188 157.803 237.057 159.728 237.057C161.747 237.057 163.131 236.071 163.131 234.616C163.131 233.278 161.887 232.714 160.057 232.245L158.132 231.752C155.339 231.024 153.602 229.616 153.602 227.175C153.602 224.171 156.278 222.175 159.845 222.175C163.46 222.175 165.901 224.217 165.948 227.081H163.014ZM171.769 222.41V239.404H168.718V222.41H171.769ZM180.383 232.926C180.383 237.362 179.069 241.023 176.862 244.192H174.046C175.665 241.845 177.285 237.127 177.285 232.926C177.285 228.724 175.665 224.006 174.046 221.683H176.862C179.069 224.828 180.383 228.513 180.383 232.926Z" fill="#FCFEFF"/>
<rect x="0.847656" y="0.903809" width="220" height="100" rx="10" fill="#A1D0F9"/>
<rect opacity="0.3" x="6.84766" y="6.90381" width="208" height="88" rx="10" fill="#EBF5FE"/>
<path d="M67.3776 40.2742V56.329H64.8896V40.2742H67.3776ZM63.1527 40.6497V55.6718H60.6882V48.3485H58.4348V52.5265H50.0554V41.9407H52.5199V45.2972H56.0172V41.9407H58.4348V46.2361H60.6882V40.6497H63.1527ZM52.5199 50.4141H56.0172V47.2923H52.5199V50.4141ZM67.9644 58.9578V61.0703H53.1771V54.193H55.7825V58.9578H67.9644ZM87.7982 40.2742V61.5163H85.1928V50.6723H81.0853V48.5598H85.1928V40.2742H87.7982ZM77.7522 47.0106C77.7288 50.2263 79.6535 53.6532 83.01 55.1319L81.6016 57.127C79.1723 56.0943 77.4119 53.9701 76.4848 51.4234C75.5459 54.1226 73.7972 56.3877 71.3679 57.4791L69.9596 55.4605C73.2691 53.9583 75.1469 50.3436 75.1469 47.0106V45.9075H70.5933V43.8185H75.1703V40.7202H77.7757V43.8185H82.2119V45.9075H77.7522V47.0106ZM110.143 52.9256V55.0615H101.717V61.4928H99.1352V55.0615H90.7557V52.9256H110.143ZM108.054 49.0996V51.1652H93.2437V41.1896H107.82V43.2551H95.8256V45.1329H107.35V47.1515H95.8256V49.0996H108.054ZM119.157 46.3065C119.157 49.5925 121.105 53.3246 124.461 54.8737L123.006 56.9393C120.612 55.8126 118.84 53.5358 117.889 50.8835C116.927 53.794 115.073 56.282 112.632 57.4556L111.106 55.4136C114.486 53.8175 116.528 49.8273 116.551 46.3065V44.5226H111.927V42.3632H123.593V44.5226H119.157V46.3065ZM128.17 40.2742V48.5363H131.433V50.7192H128.17V61.4928H125.565V40.2742H128.17ZM151.712 56.7984V58.9344H132.324V56.7984H140.704V51.9163H143.309V56.7984H151.712ZM150.046 41.9876V44.1236H143.356C143.438 47.1749 146.584 49.9798 150.938 50.6253L149.905 52.6908C146.314 52.0336 143.38 50.1441 142.018 47.5035C140.645 50.1793 137.735 52.1392 134.202 52.8082L133.169 50.7427C137.406 50.0268 140.528 47.1749 140.61 44.1236H133.944V41.9876H150.046ZM169.833 40.2742V45.5084H172.79V47.6678H169.833V52.6674H167.227V40.2742H169.833ZM158.707 53.5124V55.3432H167.227V53.5124H169.833V61.2346H156.125V53.5124H158.707ZM158.707 59.1691H167.227V57.3618H158.707V59.1691ZM165.702 42.2458V44.3348H153.121V42.2458H158.12V40.1099H160.725V42.2458H165.702ZM159.411 45.0625C162.486 45.0625 164.575 46.5412 164.598 48.7945C164.575 51.0478 162.486 52.5265 159.411 52.5265C156.313 52.5265 154.2 51.0478 154.2 48.7945C154.2 46.5412 156.313 45.0625 159.411 45.0625ZM159.411 46.9872C157.792 46.9872 156.735 47.6678 156.735 48.7945C156.735 49.9446 157.792 50.6018 159.411 50.6018C161.031 50.6018 162.11 49.9446 162.11 48.7945C162.11 47.6678 161.031 46.9872 159.411 46.9872Z" fill="#1A2A3E"/>
<rect opacity="0.5" x="360.848" y="0.903809" width="220" height="100" rx="10" fill="#ECF0F4"/>
<rect opacity="0.03" x="366.848" y="6.90381" width="208" height="88" rx="10" fill="#1A2A3E"/>
<path d="M413.975 44.9686V42.4101H427.518V44.9686H422.284V59.4038H419.233V44.9686H413.975ZM427.448 55.8126C427.448 52.949 429.819 52.104 432.189 51.9632C433.07 51.9045 434.9 51.7989 435.452 51.7754V50.7661C435.452 49.4987 434.63 48.771 433.152 48.771C431.814 48.771 430.992 49.3813 430.758 50.2967H427.871C428.082 48.1373 430.03 46.4942 433.222 46.4942C435.64 46.4942 438.433 47.4801 438.433 50.8835V59.4038H435.569V57.6434H435.475C434.912 58.7231 433.715 59.662 431.72 59.662C429.279 59.662 427.448 58.3241 427.448 55.8126ZM430.335 55.7891C430.335 56.8923 431.227 57.4556 432.495 57.4556C434.302 57.4556 435.475 56.2586 435.475 54.8268V53.7705L432.659 53.9583C431.227 54.0757 430.335 54.6625 430.335 55.7891ZM441.25 59.4038V46.6586H444.16V48.771H444.301C444.747 47.3158 445.991 46.4708 447.446 46.4708C447.775 46.4708 448.244 46.4942 448.526 46.5412V49.3109C448.268 49.217 447.634 49.1231 447.141 49.1231C445.475 49.1231 444.254 50.2732 444.254 51.8928V59.4038H441.25ZM455.45 64.4503C452.07 64.4503 449.934 62.9481 449.723 60.5539H452.704C452.915 61.6571 453.971 62.197 455.497 62.197C457.281 62.197 458.454 61.4224 458.454 59.5446V57.1036H458.314C457.844 58.0424 456.835 59.216 454.629 59.216C451.695 59.216 449.371 57.0801 449.371 52.9256C449.371 48.7241 451.695 46.4942 454.652 46.4942C456.905 46.4942 457.844 47.8321 458.314 48.7476H458.454V46.6586H461.412V59.6151C461.412 62.8777 458.9 64.4503 455.45 64.4503ZM455.45 56.8688C457.375 56.8688 458.478 55.4136 458.478 52.9725C458.478 50.5549 457.398 48.9353 455.45 48.9353C453.455 48.9353 452.422 50.6488 452.422 52.9725C452.422 55.3197 453.478 56.8688 455.45 56.8688ZM469.932 59.662C466.083 59.662 463.736 57.1036 463.736 53.1133C463.736 49.17 466.13 46.4942 469.768 46.4942C472.89 46.4942 475.589 48.4424 475.589 52.9256V53.8644H466.693C466.728 56.0356 468.008 57.3148 469.956 57.3148C471.27 57.3148 472.162 56.7515 472.538 56.0004H475.472C474.932 58.2067 472.89 59.662 469.932 59.662ZM466.717 51.8224H472.725C472.702 50.0855 471.552 48.818 469.815 48.818C468.008 48.818 466.81 50.1911 466.717 51.8224ZM484.274 46.6586V48.9588H481.762V55.5779C481.762 56.7984 482.372 57.0566 483.123 57.0566C483.476 57.0566 484.062 57.0331 484.438 57.0097V59.4508C484.086 59.5212 483.499 59.5681 482.748 59.5681C480.495 59.5681 478.758 58.4649 478.781 56.0708V48.9588H476.95V46.6586H478.781V43.6072H481.762V46.6586H484.274ZM503.873 48.1373C503.521 46.0952 501.878 44.9216 499.812 44.9216C497.019 44.9216 495.071 47.0576 495.071 50.907C495.071 54.8033 497.042 56.8923 499.812 56.8923C501.831 56.8923 503.474 55.7657 503.873 53.7705H506.947C506.478 57.0331 503.802 59.6385 499.765 59.6385C495.282 59.6385 491.996 56.3759 491.996 50.907C491.996 45.4145 495.329 42.1754 499.765 42.1754C503.521 42.1754 506.431 44.3583 506.947 48.1373H503.873ZM514.998 59.662C511.29 59.662 508.896 57.0331 508.896 53.0899C508.896 49.1231 511.29 46.4942 514.998 46.4942C518.73 46.4942 521.101 49.1231 521.101 53.0899C521.101 57.0331 518.73 59.662 514.998 59.662ZM515.022 57.2679C517.064 57.2679 518.073 55.4136 518.073 53.0664C518.073 50.7427 517.064 48.8649 515.022 48.8649C512.933 48.8649 511.924 50.7427 511.924 53.0664C511.924 55.4136 512.933 57.2679 515.022 57.2679ZM525.279 59.5916C524.27 59.5916 523.448 58.7701 523.448 57.7608C523.448 56.775 524.27 55.9534 525.279 55.9534C526.241 55.9534 527.086 56.775 527.086 57.7608C527.086 58.7701 526.241 59.5916 525.279 59.5916Z" fill="#1A2A3E"/>
<path d="M290.32 35.0522V36.6519H284.01V41.4683H282.076V36.6519H275.801V35.0522H290.32ZM288.756 32.187V33.7339H277.664V26.2632H288.58V27.8101H279.598V29.2163H288.229V30.728H279.598V32.187H288.756ZM297.07 30.0952C297.07 32.5562 298.529 35.3511 301.043 36.5112L299.953 38.0581C298.16 37.2144 296.833 35.5093 296.121 33.5229C295.4 35.7026 294.012 37.5659 292.184 38.4448L291.041 36.9155C293.572 35.7202 295.102 32.7319 295.119 30.0952V28.7593H291.656V27.1421H300.393V28.7593H297.07V30.0952ZM303.82 25.5776V31.7651H306.264V33.3999H303.82V41.4683H301.869V25.5776H303.82Z" fill="#1A2A3E"/>
<path d="M350.848 50.9038L345.848 48.0171V53.7906L350.848 50.9038ZM230.848 51.4038L346.348 51.4038V50.4038L230.848 50.4038V51.4038Z" fill="#3399F3"/>
<path d="M650.029 4.57764V20.4683H648.148V12.3296H646.461V19.6948H644.615V4.85889H646.461V10.7124H648.148V4.57764H650.029ZM643.051 6.30029V16.3726H636.811V6.30029H643.051ZM638.639 7.84717V14.8257H641.223V7.84717H638.639ZM664.408 4.57764V8.40967H666.623V10.0444H664.408V13.8413H662.457V4.57764H664.408ZM659.979 5.50928C659.979 9.67529 657.271 12.5405 652.525 13.7534L651.717 12.2593C655.435 11.3013 657.544 9.40283 657.887 7.09131H652.508V5.50928H659.979ZM664.408 14.5093V20.4683H662.457V16.0737H653.826V14.5093H664.408ZM599.422 35.0522C599.422 31.7476 600.406 28.9878 602.059 26.6323H604.168C602.955 28.3726 601.742 31.9058 601.742 35.0522C601.742 38.1987 602.955 41.7319 604.168 43.4897H602.059C600.406 41.1167 599.422 38.3745 599.422 35.0522ZM618.477 25.5776V41.4683H616.508V25.5776H618.477ZM613.73 27.2651C613.73 31.9937 611.902 36.019 606.33 38.6558L605.311 37.0913C609.468 35.1138 611.401 32.4243 611.744 28.812H606.119V27.2651H613.73ZM625.174 26.2808C627.23 26.2632 628.848 27.4497 629.252 29.1987H632.117V25.5776H634.068V34.103H632.117V30.7808H629.27C628.874 32.5649 627.239 33.769 625.174 33.769C622.73 33.769 620.973 32.2046 620.973 30.0073C620.973 27.8452 622.73 26.2632 625.174 26.2808ZM625.174 27.9155C623.803 27.9155 622.836 28.7241 622.836 30.0073C622.836 31.2729 623.803 32.1167 625.174 32.1167C626.51 32.1167 627.459 31.2729 627.477 30.0073C627.459 28.7241 626.51 27.9155 625.174 27.9155ZM625.525 34.8413V36.5288H632.117V34.8413H634.068V41.2749H623.592V34.8413H625.525ZM625.525 39.6929H632.117V38.0405H625.525V39.6929ZM650.803 34.437V36.019H644.492V41.4507H642.559V36.019H636.318V34.437H650.803ZM649.467 26.4741V28.021H644.703C644.817 29.7612 646.909 31.4312 650.047 31.8354L649.344 33.3647C646.637 32.9868 644.527 31.7476 643.561 30.0249C642.594 31.7476 640.484 32.9868 637.812 33.3647L637.074 31.8354C640.194 31.4312 642.286 29.7612 642.436 28.021H637.654V26.4741H649.467ZM657.799 27.8452C657.799 29.937 659.1 31.9058 661.631 32.6968L660.664 34.2437C658.827 33.6284 657.518 32.4243 656.814 30.8687C656.085 32.5386 654.758 33.8657 652.877 34.5073L651.893 32.978C654.459 32.0991 655.777 30.0073 655.777 27.8452V26.3335H657.799V27.8452ZM665.111 35.8081V41.4683H663.143V37.3726H654.266V35.8081H665.111ZM665.111 25.5776V35.0874H663.143V25.5776H665.111ZM680.668 25.5952V37.0737H678.699V25.5952H680.668ZM681.107 39.5698V41.1519H670.156V35.9136H672.125V39.5698H681.107ZM672.002 26.6323C674.41 26.6323 676.273 28.3022 676.273 30.605C676.273 32.9604 674.41 34.5952 672.002 34.5952C669.576 34.5952 667.713 32.9604 667.713 30.605C667.713 28.3022 669.576 26.6323 672.002 26.6323ZM672.002 28.3374C670.648 28.3374 669.611 29.2339 669.629 30.605C669.611 32.0112 670.648 32.8901 672.002 32.8901C673.32 32.8901 674.357 32.0112 674.357 30.605C674.357 29.2339 673.32 28.3374 672.002 28.3374ZM691.268 26.896C691.268 28.8999 693.5 30.9214 696.893 31.3608L696.119 32.9429C693.421 32.5386 691.276 31.2114 690.248 29.4097C689.202 31.2114 687.066 32.5386 684.395 32.9429L683.621 31.3608C686.979 30.9214 689.211 28.8999 689.211 26.896V26.0874H691.268V26.896ZM697.473 34.314V35.9312H691.162V41.4683H689.229V35.9312H682.988V34.314H697.473ZM703.273 35.0522C703.273 38.3745 702.289 41.1167 700.637 43.4897H698.527C699.74 41.7319 700.953 38.1987 700.953 35.0522C700.953 31.9058 699.74 28.3726 698.527 26.6323H700.637C702.289 28.9878 703.273 31.7476 703.273 35.0522Z" fill="#1A2A3E"/>
<path d="M710.848 50.9038L705.848 48.0171V53.7906L710.848 50.9038ZM590.848 51.4038L706.348 51.4038V50.4038L590.848 50.4038V51.4038Z" fill="#3399F3"/>
<path d="M375.154 189.595V198.876H373.203V197.119H369.424V195.537H373.203V193.832H369.582C368.571 196.363 366.26 198.129 362.797 199.087L362.006 197.541C365.724 196.53 367.701 194.649 368.018 192.285H362.85V190.703H370.145C370.145 191.256 370.101 191.784 370.004 192.285H373.203V189.595H375.154ZM369.898 199.052C373.115 199.052 375.26 200.265 375.26 202.216C375.26 204.167 373.115 205.38 369.898 205.38C366.646 205.38 364.502 204.167 364.502 202.216C364.502 200.265 366.646 199.052 369.898 199.052ZM369.898 200.582C367.754 200.582 366.453 201.162 366.453 202.216C366.453 203.253 367.754 203.833 369.898 203.833C371.99 203.833 373.309 203.253 373.309 202.216C373.309 201.162 371.99 200.582 369.898 200.582ZM381.816 190.474C383.1 190.474 384.207 190.949 384.963 191.74H388.76V189.578H390.711V198.929H388.76V196.908H384.963C384.207 197.699 383.091 198.165 381.816 198.156C379.426 198.173 377.615 196.556 377.615 194.324C377.615 192.074 379.426 190.474 381.816 190.474ZM381.816 192.144C380.445 192.144 379.479 192.988 379.479 194.324C379.479 195.625 380.445 196.503 381.816 196.503C383.135 196.503 384.102 195.625 384.119 194.324C384.102 192.988 383.135 192.144 381.816 192.144ZM385.332 199.263C388.672 199.263 390.764 200.406 390.764 202.357C390.764 204.308 388.672 205.451 385.332 205.451C382.01 205.451 379.918 204.308 379.936 202.357C379.918 200.406 382.01 199.263 385.332 199.263ZM385.332 200.757C383.117 200.757 381.834 201.32 381.852 202.357C381.834 203.359 383.117 203.921 385.332 203.921C387.582 203.921 388.848 203.359 388.848 202.357C388.848 201.32 387.582 200.757 385.332 200.757ZM385.842 193.304C385.93 193.629 385.982 193.963 385.982 194.324C385.982 194.675 385.93 195.009 385.859 195.326H388.76V193.304H385.842ZM406.391 189.595V201.566H404.404V199.65H401.17V198.103H404.404V189.595H406.391ZM406.76 203.57V205.152H395.123V200.3H397.074V203.57H406.76ZM392.855 195.695C394.789 195.686 397.188 195.66 399.588 195.519C399.816 194.042 399.887 192.865 399.922 192.003H394.297V190.439H401.873V191.037C401.873 191.863 401.873 193.348 401.557 195.361C402.102 195.308 402.646 195.238 403.174 195.167L403.314 196.556C401.943 196.793 400.528 196.96 399.131 197.066V200.546H397.197V197.171C395.721 197.242 394.323 197.259 393.102 197.259L392.855 195.695ZM426.377 189.578V199.562H424.514V195.238H422.967V199.035H421.139V189.894H422.967V193.656H424.514V189.578H426.377ZM420.611 191.3V192.83H412.701V191.3H415.707V189.718H417.641V191.3H420.611ZM416.674 193.48C418.695 193.48 420.119 194.57 420.137 196.222C420.119 197.875 418.695 198.964 416.674 198.964C414.688 198.964 413.246 197.875 413.264 196.222C413.246 194.57 414.688 193.48 416.674 193.48ZM416.674 194.886C415.689 194.886 415.004 195.396 415.004 196.222C415.004 197.048 415.672 197.558 416.674 197.558C417.676 197.558 418.361 197.048 418.361 196.222C418.361 195.396 417.676 194.886 416.674 194.886ZM421.016 199.755C424.408 199.755 426.447 200.792 426.465 202.621C426.447 204.414 424.408 205.451 421.016 205.451C417.623 205.451 415.566 204.414 415.566 202.621C415.566 200.792 417.623 199.755 421.016 199.755ZM421.016 201.25C418.748 201.232 417.518 201.689 417.518 202.621C417.518 203.5 418.748 203.957 421.016 203.957C423.266 203.957 424.496 203.5 424.496 202.621C424.496 201.689 423.266 201.232 421.016 201.25ZM434.023 193.392C434.006 196.222 435.43 199.105 437.891 200.283L436.695 201.847C434.973 200.977 433.733 199.298 433.057 197.277C432.362 199.439 431.062 201.232 429.242 202.146L428.047 200.582C430.596 199.369 432.055 196.328 432.072 193.392V190.861H434.023V193.392ZM440.791 189.578V195.8H443.234V197.47H440.791V205.468H438.84V189.578H440.791Z" fill="#1A2A3E"/>
<path d="M230.848 230.904H470.568" stroke="#3399F3" stroke-linecap="round" stroke-linejoin="round"/>
<path d="M470.068 230.904C470.068 231.18 470.292 231.404 470.568 231.404C470.845 231.404 471.068 231.18 471.068 230.904L470.068 230.904ZM470.568 110.904L467.682 115.904L473.455 115.904L470.568 110.904ZM471.068 230.904L471.068 115.404L470.068 115.404L470.068 230.904L471.068 230.904Z" fill="#3399F3"/>
</svg>
