<svg width="280" height="870" viewBox="0 0 280 870" fill="none" xmlns="http://www.w3.org/2000/svg">
<path fill-rule="evenodd" clip-rule="evenodd" d="M0 827.461L0.0195098 621.274L138.606 659.817L139.945 660.19L141.285 659.817L279.913 621.263L279.893 827.461L139.946 869.776L0 827.461ZM139.945 649.81L0.020492 610.895L0.0257344 555.486L0.0788426 435.002L0.0371346 435.002L0.0403256 401.28L138.606 439.817L139.945 440.19L141.285 439.817L279.934 401.257L279.919 554.569L279.894 610.888L139.945 649.81ZM279.946 274.86L279.894 390.888L139.945 429.81L0.0413079 390.9L0.0522408 275.353L0.0788426 215.002L0.0579514 215.002L0.0611415 181.285L138.606 219.817L139.945 220.19L141.285 219.817L279.955 181.251L279.946 274.86ZM139.945 209.81L0.0621237 170.906L0.0782952 2.38419e-05L279.97 0L279.894 170.888L139.945 209.81Z" fill="#3D6493"/>
<path d="M97.9619 50.2065V52.9487H89.7822V59.0659H86.4072V52.9487H78.2979V50.2065H97.9619ZM95.9229 46.1987V48.8472H80.7119V38.3706H95.6885V41.019H84.0166V42.3081H95.2432V44.8862H84.0166V46.1987H95.9229ZM107.22 43.1753C107.196 46.4097 108.696 50.1831 112.376 51.8472L110.501 54.4956C108.134 53.4409 106.517 51.3667 105.579 48.9175C104.63 51.6362 102.942 53.9097 100.47 55.0581L98.5244 52.3862C102.251 50.6519 103.798 46.6909 103.798 43.1753V42.3315H99.415V39.5894H111.392V42.3315H107.22V43.1753ZM116.126 37.5503V45.6128H119.173V48.4019H116.126V59.0659H112.751V37.5503H116.126ZM138.462 37.5503V59.0659H135.274V48.4253H133.54V58.0347H130.47V37.8784H133.54V45.7534H135.274V37.5503H138.462ZM128.36 40.0112V42.7065H123.743V51.4956C125.595 51.4722 127.341 51.3667 129.298 51.0269L129.532 53.7456C126.884 54.2612 124.563 54.3315 121.892 54.3315H120.345V40.0112H128.36ZM148.587 40.9253C148.587 43.4097 149.876 45.8472 153.368 46.9019L151.587 49.5034C149.349 48.8003 147.825 47.4292 146.923 45.6597C145.997 47.7104 144.392 49.3159 141.978 50.1128L140.149 47.4878C143.853 46.269 145.188 43.4331 145.188 40.5737V38.7222H148.587V40.9253ZM157.681 37.5503V42.4019H160.47V45.1909H157.681V50.2065H154.306V37.5503H157.681ZM150.579 50.605C155.056 50.605 157.892 52.1753 157.892 54.8237C157.892 57.519 155.056 59.0894 150.579 59.0659C146.009 59.0894 143.149 57.519 143.149 54.8237C143.149 52.1753 146.009 50.605 150.579 50.605ZM150.579 53.23C147.907 53.23 146.501 53.769 146.524 54.8237C146.501 55.9487 147.907 56.4409 150.579 56.4409C153.228 56.4409 154.563 55.9487 154.563 54.8237C154.563 53.769 153.228 53.23 150.579 53.23ZM165.181 38.5347V40.9253H169.001V38.5347H172.376V47.9331H161.853V38.5347H165.181ZM165.181 45.3081H169.001V43.4331H165.181V45.3081ZM178.423 37.5503V41.5815H181.212V44.3003H178.423V48.4487H175.048V37.5503H178.423ZM178.423 49.1753V55.2222H167.337V56.3003H178.985V58.9487H164.009V52.8315H175.048V51.7534H163.985V49.1753H178.423ZM199.446 38.3706V39.8706C199.446 41.1597 199.446 42.8472 199.071 44.8628H201.696V47.4644H193.493V49.2456H199.306V55.1987H187.587V56.3472H199.892V58.9253H184.235V52.9253H195.978V51.8472H184.212V49.2456H190.165V47.4644H182.032V44.8628H195.673C195.966 43.3276 196.048 42.0972 196.071 40.9956H184.399V38.3706H199.446Z" fill="#FCFEFF"/>
<path opacity="0.8" d="M25.0293 307.848C23.9395 307.848 23.043 306.951 23.043 305.844C23.043 304.754 23.9395 303.857 25.0293 303.857C26.1367 303.857 27.0332 304.754 27.0332 305.844C27.0332 306.951 26.1367 307.848 25.0293 307.848ZM48.0742 297.969V313.719H46.4746V297.969H48.0742ZM44.9102 298.268V312.945H43.3281V307.865H41.043C40.4805 309.43 39.4346 310.335 38.0898 310.326C36.0332 310.344 34.6973 308.182 34.6973 304.771C34.6973 301.361 36.0332 299.217 38.0898 299.234C39.4346 299.226 40.4717 300.122 41.043 301.678H43.3281V298.268H44.9102ZM38.0898 300.799C36.9297 300.799 36.2266 302.258 36.2266 304.771C36.2266 307.285 36.9297 308.744 38.0898 308.744C39.25 308.744 39.9883 307.285 39.9883 304.771C39.9883 302.258 39.25 300.799 38.0898 300.799ZM41.3945 303.031C41.4736 303.567 41.5176 304.147 41.5176 304.771C41.5176 305.387 41.4736 305.967 41.3945 306.494H43.3281V303.031H41.3945ZM63.1211 297.969V313.754H61.4512V297.969H63.1211ZM52.627 299.287V303.33H56.8633V299.287H58.5156V309.975H50.957V299.287H52.627ZM52.627 308.604H56.8633V304.648H52.627V308.604ZM73.7734 298.953C73.7734 302.961 71.0312 305.809 66.4609 307.092L65.7754 305.791C69.4053 304.771 71.6641 302.803 71.998 300.324H66.6016V298.953H73.7734ZM78.7656 297.986V306.898H77.0957V303.312H73.8438V301.924H77.0957V297.986H78.7656ZM78.7656 307.549V313.508H68.4648V307.549H78.7656ZM70.0996 308.885V312.172H77.1133V308.885H70.0996ZM93.9707 306.037V307.373H89.207V310.449H95.6055V311.82H81.1914V310.449H87.5371V307.373H83.002V299.182H93.8125V300.553H84.6895V302.574H93.4785V303.893H84.6895V306.037H93.9707ZM25.0293 334.848C23.9395 334.848 23.043 333.951 23.043 332.844C23.043 331.754 23.9395 330.857 25.0293 330.857C26.1367 330.857 27.0332 331.754 27.0332 332.844C27.0332 333.951 26.1367 334.848 25.0293 334.848ZM47.6523 324.986V336.518H45.9824V330.594H42.9766V329.24H45.9824V324.986H47.6523ZM48.0742 339.031V340.385H37.4219V335.48H39.0918V339.031H48.0742ZM40.1641 328.168C40.1641 330.137 41.5879 332.105 43.9609 332.896L43.0996 334.232C41.333 333.608 40.0234 332.343 39.3379 330.787C38.6523 332.519 37.2725 333.916 35.4004 334.584L34.5391 333.23C36.9648 332.404 38.459 330.33 38.459 328.168V327.553H35.0488V326.182H43.5391V327.553H40.1641V328.168ZM64.7383 327.377V328.748H62.4531V330.699H64.7383V332.088H62.4531V334.549H60.7832V324.986H62.4531V327.377H64.7383ZM57.8828 325.9V330.4H52.3984V332.422C55.1318 332.413 57.0654 332.316 59.3594 331.93L59.5352 333.283C57.0918 333.705 55.0176 333.793 51.9941 333.793H50.7285V329.1H56.248V327.254H50.7109V325.9H57.8828ZM62.4531 335.34V340.701H60.7832V336.693H52.0469V335.34H62.4531ZM68.4648 338.012L67.0586 342.863H65.5645L66.4961 338.012H68.4648ZM87.6602 324.969V340.719H85.9902V324.969H87.6602ZM74.7227 336.43C76.0146 336.421 77.5 336.412 79.0469 336.359V334.795C77.2012 334.558 76.0059 333.477 76.0234 331.93C76.0059 330.154 77.5527 328.977 79.8379 328.977C82.1406 328.977 83.7227 330.154 83.7227 331.93C83.7227 333.459 82.5273 334.531 80.6992 334.777V336.307C82.1582 336.245 83.6348 336.131 85.0234 335.955L85.1465 337.203C81.6484 337.783 77.834 337.818 74.9512 337.818L74.7227 336.43ZM84.6719 326.85V328.186H75.0566V326.85H79.0469V325.004H80.7168V326.85H84.6719ZM79.8379 330.277C78.5195 330.277 77.5879 330.928 77.6055 331.93C77.5879 332.932 78.5195 333.547 79.8379 333.547C81.1914 333.547 82.123 332.932 82.123 331.93C82.123 330.928 81.1914 330.277 79.8379 330.277ZM103.727 324.969V340.719H102.145V324.969H103.727ZM100.51 325.373V339.945H98.9277V334.584H96.2383V333.213H98.9277V330.646H96.502C95.7373 333.292 94.0586 335.586 91.0879 337.361L90.1035 336.166C93.4434 334.18 95.0518 331.534 95.3418 328.291H90.877V326.92H96.9941C96.9941 327.729 96.9326 328.511 96.8008 329.275H98.9277V325.373H100.51ZM108.578 338.012L107.172 342.863H105.678L106.609 338.012H108.578ZM117.174 325.777V328.08H121.111V325.777H122.764V328.748H126.209V324.969H127.879V333.564H126.209V330.137H122.764V333.037H115.504V325.777H117.174ZM117.174 331.684H121.111V329.381H117.174V331.684ZM119.266 334.303V336.078H126.209V334.303H127.861V340.49H117.613V334.303H119.266ZM119.266 339.137H126.209V337.379H119.266V339.137ZM144.701 332.088V333.336H140.922V334.602H142.926V338.064H133.68V339.383H143.418V340.561H132.01V336.957H141.273V335.797H131.992V334.602H134.084V333.336H130.287V332.088H144.701ZM142.891 325.373V328.766H133.785V329.926H143.154V331.104H132.133V327.658H141.221V326.533H132.098V325.373H142.891ZM135.736 334.602H139.27V333.336H135.736V334.602ZM163.299 324.969V333.072H161.646V324.969H163.299ZM163.316 333.828V337.766H154.633V339.225H163.844V340.561H153.016V336.5H161.664V335.146H152.963V333.828H163.316ZM155.986 326.604C155.969 328.713 157.498 330.629 159.906 331.385L159.08 332.686C157.243 332.088 155.863 330.84 155.16 329.24C154.439 330.963 153.033 332.334 151.152 332.984L150.309 331.666C152.77 330.84 154.281 328.783 154.281 326.604V325.391H155.986V326.604ZM171.279 328.977C171.262 331.771 172.879 334.619 175.234 335.762L174.197 337.098C172.483 336.21 171.156 334.443 170.471 332.334C169.759 334.584 168.379 336.465 166.586 337.396L165.549 336.043C167.975 334.883 169.609 331.859 169.609 328.977V326.287H171.279V328.977ZM178.082 324.969V331.244H180.613V332.668H178.082V340.719H176.412V324.969H178.082ZM25.0293 361.848C23.9395 361.848 23.043 360.951 23.043 359.844C23.043 358.754 23.9395 357.857 25.0293 357.857C26.1367 357.857 27.0332 358.754 27.0332 359.844C27.0332 360.951 26.1367 361.848 25.0293 361.848ZM40.1641 354.764C40.1641 356.75 41.5879 358.701 43.9609 359.51L43.0996 360.811C41.333 360.195 40.0234 358.938 39.3379 357.383C38.6523 359.114 37.2725 360.503 35.4004 361.162L34.5391 359.844C36.9648 359.018 38.459 356.908 38.459 354.781V354.342H35.0488V352.988H43.5391V354.342H40.1641V354.764ZM47.6523 362.182V367.719H45.9824V363.535H36.9824V362.182H47.6523ZM47.6523 351.969V361.391H45.9824V357.348H43.0645V355.977H45.9824V351.969H47.6523ZM63.209 351.969V361.338H61.5391V357.348H58.6035V355.977H61.5391V351.969H63.209ZM57.9355 361.777C61.2402 361.777 63.2617 362.867 63.2617 364.748C63.2617 366.629 61.2402 367.701 57.9355 367.719C54.6309 367.701 52.5918 366.629 52.6094 364.748C52.5918 362.867 54.6309 361.777 57.9355 361.777ZM57.9355 363.078C55.6328 363.078 54.2617 363.676 54.2617 364.748C54.2617 365.803 55.6328 366.418 57.9355 366.4C60.2383 366.418 61.6094 365.803 61.6094 364.748C61.6094 363.676 60.2383 363.078 57.9355 363.078ZM55.7207 354.746C55.7207 356.75 57.1445 358.684 59.5176 359.492L58.6562 360.811C56.8896 360.195 55.5889 358.938 54.9121 357.383C54.2178 359.149 52.8379 360.564 50.957 361.25L50.0781 359.914C52.5215 359.07 54.0156 356.943 54.0156 354.764V354.412H50.6055V353.059H59.0957V354.412H55.7207V354.746ZM82.2988 351.969V358.244H84.7422V359.633H82.2988V367.701H80.6289V351.969H82.2988ZM78.1855 353.621C78.168 358.174 76.1641 362.234 70.9785 364.801L70.0469 363.5C73.9932 361.531 76.1377 358.684 76.4805 355.01H70.8379V353.621H78.1855ZM98.6289 351.969V367.719H96.959V351.969H98.6289ZM91.5098 357.031C91.5098 359.545 93.1797 362.111 95.623 363.148L94.709 364.432C92.8984 363.641 91.4482 362.006 90.7188 360.02C90.0068 362.12 88.583 363.869 86.7461 364.695L85.8145 363.412C88.2578 362.322 89.875 359.668 89.875 357.031V355.994H86.2891V354.658H89.8574V352.285H91.5098V354.658H95.043V355.994H91.5098V357.031ZM111.004 354.852C111.004 356.961 112.48 358.947 114.871 359.756L114.01 361.074C112.243 360.45 110.934 359.193 110.23 357.611C109.545 359.378 108.191 360.758 106.346 361.443L105.414 360.125C107.91 359.264 109.352 357.154 109.352 354.799V352.936H111.004V354.852ZM117.912 351.951V356.697H120.197V358.121H117.912V363.57H116.242V351.951H117.912ZM118.598 366.031V367.385H107.945V362.445H109.65V366.031H118.598ZM134.225 351.969V361.338H132.555V357.348H129.619V355.977H132.555V351.969H134.225ZM128.951 361.777C132.256 361.777 134.277 362.867 134.277 364.748C134.277 366.629 132.256 367.701 128.951 367.719C125.646 367.701 123.607 366.629 123.625 364.748C123.607 362.867 125.646 361.777 128.951 361.777ZM128.951 363.078C126.648 363.078 125.277 363.676 125.277 364.748C125.277 365.803 126.648 366.418 128.951 366.4C131.254 366.418 132.625 365.803 132.625 364.748C132.625 363.676 131.254 363.078 128.951 363.078ZM126.736 354.746C126.736 356.75 128.16 358.684 130.533 359.492L129.672 360.811C127.905 360.195 126.604 358.938 125.928 357.383C125.233 359.149 123.854 360.564 121.973 361.25L121.094 359.914C123.537 359.07 125.031 356.943 125.031 354.764V354.412H121.621V353.059H130.111V354.412H126.736V354.746ZM149.359 352.971V359.439H141.871V352.971H149.359ZM143.506 354.307V358.139H147.707V354.307H143.506ZM154.088 351.969V360.969H152.436V351.969H154.088ZM154.457 361.988V363.254H149.852C149.966 364.625 152.154 366.058 155.02 366.383L154.457 367.666C151.987 367.376 149.957 366.312 149.008 364.924C148.041 366.33 145.967 367.358 143.488 367.666L142.908 366.383C145.773 366.11 148.015 364.66 148.129 363.254H143.541V361.988H148.164V360.512H149.816V361.988H154.457ZM175.393 361.426V362.797H168.994V367.719H167.342V362.797H160.979V361.426H175.393ZM173.793 358.631V359.967H162.877V352.672H173.617V354.008H164.512V355.625H173.266V356.926H164.512V358.631H173.793ZM182.037 356.609C182.037 359.105 183.672 361.883 186.062 363.008L185.113 364.309C183.347 363.456 181.949 361.681 181.246 359.615C180.517 361.874 179.04 363.816 177.238 364.713L176.254 363.395C178.645 362.252 180.385 359.281 180.385 356.609V354.939H176.834V353.551H185.465V354.939H182.037V356.609ZM188.822 351.969V358.209H191.354V359.615H188.822V367.719H187.152V351.969H188.822ZM204.643 352.953V354.342C204.643 355.836 204.643 357.453 204.203 359.703H206.471V361.074H200.09V367.736H198.402V361.074H192.109V359.703H202.516C202.99 357.462 202.99 355.81 202.99 354.342V354.324H193.867V352.953H204.643ZM222.08 364.379V365.75H207.666V364.379H214.029V360.652H215.699V364.379H222.08ZM215.717 354.834C215.717 357.242 218.441 359.387 221.447 359.861L220.779 361.18C218.239 360.696 215.893 359.22 214.873 357.154C213.845 359.246 211.516 360.767 209.02 361.25L208.334 359.932C211.27 359.439 213.977 357.242 213.977 354.834V354.693H208.861V353.322H220.832V354.693H215.717V354.834ZM240.748 351.969V359.984H239.078V358.473H235.088V357.172H239.078V355.467H235.281C234.306 357.91 231.933 359.519 228.443 360.336L227.863 358.965C231.643 358.13 233.69 356.381 233.963 354.061H228.689V352.689H235.791C235.791 353.199 235.747 353.683 235.668 354.148H239.078V351.969H240.748ZM240.748 360.652V364.643H232.135V366.225H241.223V367.561H230.482V363.377H239.078V361.971H230.447V360.652H240.748ZM256.305 351.969V361.338H254.635V357.348H251.699V355.977H254.635V351.969H256.305ZM251.031 361.777C254.336 361.777 256.357 362.867 256.357 364.748C256.357 366.629 254.336 367.701 251.031 367.719C247.727 367.701 245.688 366.629 245.705 364.748C245.688 362.867 247.727 361.777 251.031 361.777ZM251.031 363.078C248.729 363.078 247.357 363.676 247.357 364.748C247.357 365.803 248.729 366.418 251.031 366.4C253.334 366.418 254.705 365.803 254.705 364.748C254.705 363.676 253.334 363.078 251.031 363.078ZM248.816 354.746C248.816 356.75 250.24 358.684 252.613 359.492L251.752 360.811C249.985 360.195 248.685 358.938 248.008 357.383C247.313 359.149 245.934 360.564 244.053 361.25L243.174 359.914C245.617 359.07 247.111 356.943 247.111 354.764V354.412H243.701V353.059H252.191V354.412H248.816V354.746Z" fill="#EBF5FE"/>
<path opacity="0.8" d="M75.3799 108.439C74.29 108.439 73.3936 107.542 73.3936 106.435C73.3936 105.345 74.29 104.449 75.3799 104.449C76.4873 104.449 77.3838 105.345 77.3838 106.435C77.3838 107.542 76.4873 108.439 75.3799 108.439ZM99.2686 108.017V109.388H92.8701V114.31H91.2178V109.388H84.8545V108.017H99.2686ZM97.6689 105.222V106.558H86.7529V99.2632H97.4932V100.599H88.3877V102.216H97.1416V103.517H88.3877V105.222H97.6689ZM105.913 103.201C105.913 105.697 107.548 108.474 109.938 109.599L108.989 110.9C107.223 110.047 105.825 108.272 105.122 106.207C104.393 108.465 102.916 110.408 101.114 111.304L100.13 109.986C102.521 108.843 104.261 105.873 104.261 103.201V101.531H100.71V100.142H109.341V101.531H105.913V103.201ZM112.698 98.5601V104.8H115.229V106.207H112.698V114.31H111.028V98.5601H112.698ZM129.503 98.5601V114.31H127.903V106.171H125.864V113.501H124.335V98.8765H125.864V104.8H127.903V98.5601H129.503ZM122.419 100.458V101.812H118.183V109.107C120.116 109.089 121.575 109.001 123.263 108.685L123.386 110.056C121.487 110.443 119.87 110.513 117.567 110.531H116.513V100.458H122.419ZM136.974 101.074C136.974 103.148 138.415 105.064 140.771 105.837L139.874 107.156C138.151 106.549 136.859 105.319 136.183 103.763C135.488 105.53 134.152 106.91 132.315 107.595L131.419 106.259C133.88 105.38 135.304 103.289 135.321 100.933V99.3862H136.974V101.074ZM143.917 98.5601V102.515H146.202V103.921H143.917V108.07H142.247V98.5601H143.917ZM138.837 108.439C142.071 108.439 144.058 109.511 144.058 111.357C144.058 113.22 142.071 114.292 138.837 114.275C135.567 114.292 133.546 113.22 133.546 111.357C133.546 109.511 135.567 108.439 138.837 108.439ZM138.837 109.757C136.552 109.757 135.198 110.355 135.216 111.357C135.198 112.394 136.552 112.957 138.837 112.974C141.104 112.957 142.423 112.394 142.423 111.357C142.423 110.355 141.104 109.757 138.837 109.757ZM159.14 103.447C159.017 102.269 157.979 101.583 156.521 101.583C154.956 101.583 153.972 102.375 153.972 103.464C153.972 104.677 155.29 105.134 156.292 105.38L157.522 105.714C159.157 106.101 161.179 106.998 161.196 109.3C161.179 111.445 159.474 113.027 156.468 113.027C153.62 113.027 151.827 111.603 151.704 109.283H153.638C153.761 110.671 154.974 111.339 156.468 111.339C158.085 111.339 159.263 110.513 159.28 109.265C159.263 108.158 158.226 107.701 156.872 107.349L155.36 106.945C153.321 106.382 152.038 105.345 152.038 103.57C152.038 101.373 154.007 99.9136 156.573 99.9136C159.157 99.9136 160.968 101.39 161.021 103.447H159.14ZM167.226 113.009C164.413 113.009 162.69 111.076 162.69 108.105C162.69 105.169 164.448 103.148 167.103 103.148C169.282 103.148 171.339 104.501 171.339 107.947V108.615H164.554C164.606 110.425 165.67 111.462 167.243 111.462C168.315 111.462 169.001 111.005 169.317 110.425H171.216C170.794 111.972 169.317 113.009 167.226 113.009ZM164.571 107.208H169.493C169.493 105.75 168.562 104.695 167.12 104.695C165.617 104.695 164.642 105.855 164.571 107.208ZM172.763 110.126C172.763 107.947 174.608 107.384 176.331 107.261C176.964 107.217 178.396 107.138 178.845 107.121L178.827 106.365C178.827 105.292 178.177 104.66 176.894 104.66C175.786 104.66 175.118 105.169 174.925 105.873H173.062C173.237 104.291 174.714 103.148 176.964 103.148C178.476 103.148 180.708 103.71 180.708 106.47V112.816H178.88V111.515H178.81C178.44 112.236 177.562 113.027 175.979 113.027C174.169 113.027 172.763 111.99 172.763 110.126ZM174.591 110.144C174.591 111.058 175.347 111.533 176.401 111.533C177.931 111.533 178.845 110.513 178.845 109.371V108.492L176.595 108.65C175.364 108.738 174.591 109.195 174.591 110.144ZM182.976 112.816V103.271H184.786V104.783H184.892C185.243 103.763 186.192 103.13 187.317 103.13C187.546 103.13 187.915 103.148 188.108 103.166V104.958C187.95 104.923 187.511 104.853 187.124 104.853C185.823 104.853 184.856 105.75 184.856 106.998V112.816H182.976ZM193.241 113.009C190.464 113.009 188.776 110.953 188.776 108.087C188.776 105.169 190.517 103.148 193.206 103.148C195.386 103.148 196.968 104.431 197.161 106.365H195.333C195.14 105.468 194.419 104.712 193.241 104.712C191.694 104.712 190.657 105.996 190.657 108.035C190.657 110.126 191.677 111.41 193.241 111.41C194.296 111.41 195.104 110.83 195.333 109.792H197.161C196.95 111.638 195.491 113.009 193.241 113.009ZM200.817 107.156V112.816H198.937V100.089H200.782V104.835H200.905C201.362 103.798 202.241 103.148 203.735 103.148C205.704 103.148 207.005 104.361 207.005 106.751V112.816H205.124V106.98C205.124 105.574 204.368 104.765 203.103 104.765C201.784 104.765 200.817 105.626 200.817 107.156ZM75.3799 135.439C74.29 135.439 73.3936 134.542 73.3936 133.435C73.3936 132.345 74.29 131.449 75.3799 131.449C76.4873 131.449 77.3838 132.345 77.3838 133.435C77.3838 134.542 76.4873 135.439 75.3799 135.439ZM93.0107 126.544C93.0107 130.552 90.2686 133.4 85.6982 134.683L85.0127 133.382C88.6426 132.363 90.9014 130.394 91.2354 127.916H85.8389V126.544H93.0107ZM98.0029 125.578V134.49H96.333V130.904H93.0811V129.515H96.333V125.578H98.0029ZM98.0029 135.14V141.099H87.7021V135.14H98.0029ZM89.3369 136.476V139.763H96.3506V136.476H89.3369ZM113.208 133.628V134.964H108.444V138.041H114.843V139.412H100.429V138.041H106.774V134.964H102.239V126.773H113.05V128.144H103.927V130.166H112.716V131.484H103.927V133.628H113.208ZM129.503 125.56V141.31H127.903V133.171H125.864V140.501H124.335V125.876H125.864V131.8H127.903V125.56H129.503ZM122.419 127.458V128.812H118.183V136.107C120.116 136.089 121.575 136.001 123.263 135.685L123.386 137.056C121.487 137.443 119.87 137.513 117.567 137.531H116.513V127.458H122.419ZM136.974 128.074C136.974 130.148 138.415 132.064 140.771 132.837L139.874 134.156C138.151 133.549 136.859 132.319 136.183 130.763C135.488 132.53 134.152 133.91 132.315 134.595L131.419 133.259C133.88 132.38 135.304 130.289 135.321 127.933V126.386H136.974V128.074ZM143.917 125.56V129.515H146.202V130.921H143.917V135.07H142.247V125.56H143.917ZM138.837 135.439C142.071 135.439 144.058 136.511 144.058 138.357C144.058 140.22 142.071 141.292 138.837 141.275C135.567 141.292 133.546 140.22 133.546 138.357C133.546 136.511 135.567 135.439 138.837 135.439ZM138.837 136.757C136.552 136.757 135.198 137.355 135.216 138.357C135.198 139.394 136.552 139.957 138.837 139.974C141.104 139.957 142.423 139.394 142.423 138.357C142.423 137.355 141.104 136.757 138.837 136.757ZM157.048 128.443C157.048 130.57 158.472 132.644 160.845 133.47L159.931 134.771C158.208 134.112 156.925 132.811 156.257 131.167C155.571 132.996 154.227 134.437 152.372 135.14L151.476 133.822C153.919 132.943 155.378 130.763 155.396 128.39V126.527H157.048V128.443ZM164.624 125.578V137.32H162.954V130.535H159.632V129.164H162.954V125.578H164.624ZM164.976 139.623V140.976H154.341V136.001H156.028V139.623H164.976ZM180.181 125.56V134.929H178.511V130.939H175.575V129.568H178.511V125.56H180.181ZM174.907 135.369C178.212 135.369 180.233 136.458 180.233 138.339C180.233 140.22 178.212 141.292 174.907 141.31C171.603 141.292 169.563 140.22 169.581 138.339C169.563 136.458 171.603 135.369 174.907 135.369ZM174.907 136.669C172.604 136.669 171.233 137.267 171.233 138.339C171.233 139.394 172.604 140.009 174.907 139.992C177.21 140.009 178.581 139.394 178.581 138.339C178.581 137.267 177.21 136.669 174.907 136.669ZM172.692 128.337C172.692 130.341 174.116 132.275 176.489 133.083L175.628 134.402C173.861 133.787 172.561 132.53 171.884 130.974C171.189 132.741 169.81 134.156 167.929 134.841L167.05 133.505C169.493 132.662 170.987 130.535 170.987 128.355V128.003H167.577V126.65H176.067V128.003H172.692V128.337Z" fill="#EBF5FE"/>
<path d="M93.8013 236.959V258.475H90.3794V236.959H93.8013ZM87.3325 239.186C87.3325 245.818 85.2231 251.209 77.395 254.889L75.6372 252.217C81.1099 249.627 83.4067 246.451 83.8872 241.811H76.856V239.186H87.3325ZM102.403 237.85C105.11 237.85 107.29 239.396 107.934 241.646H111.239V236.959H114.59V248.537H111.239V244.295H107.958C107.325 246.615 105.122 248.186 102.403 248.186C99.0747 248.186 96.6138 246.006 96.6372 242.982C96.6138 240.029 99.0747 237.85 102.403 237.85ZM102.403 240.639C100.879 240.639 99.8247 241.506 99.8247 242.982C99.8247 244.482 100.879 245.35 102.403 245.35C103.856 245.35 104.911 244.482 104.911 242.982C104.911 241.506 103.856 240.639 102.403 240.639ZM103.411 249.428V251.279H111.239V249.428H114.59V258.24H100.106V249.428H103.411ZM103.411 255.521H111.239V253.857H103.411V255.521ZM134.184 236.959V245.045H137.067V247.811H134.184V258.404H130.809V236.959H134.184ZM128.372 239.115C128.372 245.654 125.981 251.232 118.668 254.818L116.77 252.24C121.704 249.768 124.352 246.557 124.95 241.881H118.059V239.115H128.372ZM155.911 236.959V258.475H152.536V236.959H155.911ZM146.418 243.615C146.418 246.568 147.942 250.107 151.622 251.607L149.817 254.186C147.391 253.213 145.739 251.256 144.778 248.912C143.817 251.408 142.129 253.506 139.645 254.514L137.864 251.912C141.52 250.342 143.043 246.732 143.043 243.615V243.076H138.637V240.404H143.043V237.475H146.395V240.404H150.708V243.076H146.418V243.615ZM175.95 238.318V241.014H174.309V246.357C174.942 246.322 175.563 246.264 176.161 246.193L176.278 248.654C172.293 249.334 167.676 249.428 164.301 249.428L163.95 246.709L166.083 246.686V241.014H164.489V238.318H175.95ZM182.184 236.959V250.061H178.833V247.084H176.512V244.412H178.833V242.982H176.512V240.334H178.833V236.959H182.184ZM174.754 250.365C179.442 250.365 182.231 251.842 182.254 254.467C182.231 256.975 179.442 258.498 174.754 258.475C170.114 258.498 167.325 256.975 167.325 254.467C167.325 251.842 170.114 250.365 174.754 250.365ZM174.754 252.92C172.036 252.92 170.676 253.389 170.676 254.467C170.676 255.475 172.036 255.92 174.754 255.943C177.497 255.92 178.879 255.475 178.903 254.467C178.879 253.389 177.497 252.92 174.754 252.92ZM169.34 246.615L171.098 246.568V241.014H169.34V246.615ZM201.778 236.959V245.045H204.661V247.811H201.778V258.404H198.403V236.959H201.778ZM195.965 239.115C195.965 245.654 193.575 251.232 186.262 254.818L184.364 252.24C189.297 249.768 191.946 246.557 192.543 241.881H185.653V239.115H195.965Z" fill="#FCFEFF"/>
<path opacity="0.8" d="M58.8799 530.065C57.79 530.065 56.8936 529.169 56.8936 528.062C56.8936 526.972 57.79 526.075 58.8799 526.075C59.9873 526.075 60.8838 526.972 60.8838 528.062C60.8838 529.169 59.9873 530.065 58.8799 530.065ZM82.7686 529.644V531.015H76.3701V535.937H74.7178V531.015H68.3545V529.644H82.7686ZM81.1689 526.849V528.185H70.2529V520.89H80.9932V522.226H71.8877V523.843H80.6416V525.144H71.8877V526.849H81.1689ZM89.4131 524.827C89.4131 527.323 91.0479 530.101 93.4385 531.226L92.4893 532.526C90.7227 531.674 89.3252 529.898 88.6221 527.833C87.8926 530.092 86.416 532.034 84.6143 532.931L83.6299 531.612C86.0205 530.47 87.7607 527.499 87.7607 524.827V523.157H84.21V521.769H92.8408V523.157H89.4131V524.827ZM96.1982 520.187V526.427H98.7295V527.833H96.1982V535.937H94.5283V520.187H96.1982ZM112.546 520.204V529.116H110.876V520.204H112.546ZM112.546 529.96V535.743H102.192V529.96H112.546ZM103.845 531.296V534.39H110.911V531.296H103.845ZM105.216 522.331C105.198 524.458 106.728 526.374 109.118 527.183L108.292 528.466C106.464 527.859 105.093 526.611 104.372 524.985C103.669 526.717 102.271 528.097 100.382 528.765L99.5557 527.446C102.017 526.62 103.511 524.528 103.511 522.331V520.802H105.216V522.331ZM120.175 521.312C122.671 521.294 124.446 522.841 124.464 525.056C124.446 527.271 122.671 528.817 120.175 528.817C117.696 528.817 115.868 527.271 115.886 525.056C115.868 522.841 117.696 521.294 120.175 521.312ZM120.175 522.753C118.646 522.753 117.521 523.667 117.538 525.056C117.521 526.444 118.646 527.358 120.175 527.358C121.704 527.358 122.829 526.444 122.829 525.056C122.829 523.667 121.704 522.753 120.175 522.753ZM128.067 520.187V535.972H126.397V520.187H128.067ZM115.13 531.19C117.995 531.19 121.968 531.155 125.413 530.663L125.536 531.876C121.968 532.562 118.153 532.579 115.341 532.579L115.13 531.19ZM135.767 520.907C138.14 520.907 139.862 522.226 139.862 524.177C139.862 526.11 138.14 527.446 135.767 527.429C133.394 527.446 131.706 526.11 131.706 524.177C131.706 522.226 133.394 520.907 135.767 520.907ZM135.767 522.261C134.343 522.261 133.306 523.017 133.323 524.177C133.306 525.319 134.343 526.075 135.767 526.058C137.226 526.075 138.263 525.319 138.263 524.177C138.263 523.017 137.226 522.261 135.767 522.261ZM143.694 520.204V535.937H142.042V520.204H143.694ZM130.581 528.659C133.481 528.659 137.507 528.589 140.952 528.079L141.075 529.327C139.643 529.6 138.148 529.767 136.698 529.872V535.444H135.028V529.96C133.499 530.03 132.058 530.039 130.81 530.048L130.581 528.659ZM159.251 520.204V532.14H157.581V530.628H154.417V529.45H157.581V520.204H159.251ZM159.638 534.249V535.603H148.265V530.979H149.917V534.249H159.638ZM146.085 527.394C149.003 527.376 152.923 527.341 156.28 526.919L156.386 528.114C155.041 528.334 153.626 528.483 152.237 528.571V531.647H150.567V528.659C149.038 528.729 147.57 528.738 146.296 528.729L146.085 527.394ZM151.235 520.802C153.538 520.802 155.138 521.909 155.138 523.579C155.138 525.249 153.538 526.321 151.235 526.321C148.897 526.321 147.315 525.249 147.315 523.579C147.315 521.909 148.897 520.802 151.235 520.802ZM151.235 522.05C149.829 522.032 148.88 522.63 148.897 523.579C148.88 524.511 149.829 525.091 151.235 525.091C152.589 525.091 153.538 524.511 153.556 523.579C153.538 522.63 152.589 522.032 151.235 522.05ZM174.737 520.187V535.937H173.067V520.187H174.737ZM161.8 531.647C163.092 531.639 164.577 531.63 166.124 531.577V530.013C164.278 529.775 163.083 528.694 163.101 527.147C163.083 525.372 164.63 524.194 166.915 524.194C169.218 524.194 170.8 525.372 170.8 527.147C170.8 528.677 169.604 529.749 167.776 529.995V531.524C169.235 531.463 170.712 531.349 172.101 531.173L172.224 532.421C168.726 533.001 164.911 533.036 162.028 533.036L161.8 531.647ZM171.749 522.067V523.403H162.134V522.067H166.124V520.222H167.794V522.067H171.749ZM166.915 525.495C165.597 525.495 164.665 526.146 164.683 527.147C164.665 528.149 165.597 528.765 166.915 528.765C168.269 528.765 169.2 528.149 169.2 527.147C169.2 526.146 168.269 525.495 166.915 525.495ZM58.8799 557.065C57.79 557.065 56.8936 556.169 56.8936 555.062C56.8936 553.972 57.79 553.075 58.8799 553.075C59.9873 553.075 60.8838 553.972 60.8838 555.062C60.8838 556.169 59.9873 557.065 58.8799 557.065ZM73.8564 551.827C73.8564 554.323 75.4912 557.101 77.8818 558.226L76.9326 559.526C75.166 558.674 73.7686 556.898 73.0654 554.833C72.3359 557.092 70.8594 559.034 69.0576 559.931L68.0732 558.612C70.4639 557.47 72.2041 554.499 72.2041 551.827V550.157H68.6533V548.769H77.2842V550.157H73.8564V551.827ZM80.6416 547.187V553.427H83.1729V554.833H80.6416V562.937H78.9717V547.187H80.6416ZM96.5146 547.978V549.173C96.5146 550.412 96.5146 551.818 96.1104 553.726H98.3428V555.097H83.9287V553.726H94.4229C94.8447 551.889 94.8623 550.544 94.8623 549.349H85.7393V547.978H96.5146ZM96.5322 557.101V562.743H85.6865V557.101H96.5322ZM87.3213 558.419V561.39H94.8799V558.419H87.3213ZM109.716 549.7C109.716 551.651 111.245 553.479 113.671 554.183L112.827 555.483C110.99 554.93 109.602 553.726 108.89 552.179C108.178 553.831 106.771 555.141 104.882 555.765L104.038 554.446C106.481 553.69 108.011 551.774 108.028 549.7V549.524H104.495V548.171H113.179V549.524H109.716V549.7ZM116.94 547.187V555.712H115.271V547.187H116.94ZM108.274 556.45V558.208H115.288V556.45H116.94V562.743H106.64V556.45H108.274ZM108.274 561.39H115.288V559.526H108.274V561.39ZM132.866 547.187V557.118H131.284V552.724H129.456V556.573H127.892V547.485H129.456V551.353H131.284V547.187H132.866ZM127.312 548.979V550.298H119.349V548.979H122.53V547.31H124.183V548.979H127.312ZM123.339 551.036C125.343 551.036 126.749 552.108 126.749 553.743C126.749 555.378 125.343 556.45 123.339 556.45C121.37 556.45 119.964 555.378 119.964 553.743C119.964 552.108 121.37 551.036 123.339 551.036ZM123.339 552.267C122.231 552.267 121.458 552.847 121.458 553.743C121.458 554.64 122.231 555.237 123.339 555.237C124.481 555.237 125.237 554.64 125.237 553.743C125.237 552.847 124.481 552.267 123.339 552.267ZM127.593 557.347C130.933 557.347 132.937 558.349 132.954 560.142C132.937 561.899 130.933 562.919 127.593 562.901C124.253 562.919 122.249 561.899 122.267 560.142C122.249 558.349 124.253 557.347 127.593 557.347ZM127.593 558.63C125.255 558.63 123.901 559.157 123.919 560.142C123.901 561.091 125.255 561.636 127.593 561.618C129.948 561.636 131.267 561.091 131.284 560.142C131.267 559.157 129.948 558.63 127.593 558.63ZM58.8799 584.065C57.79 584.065 56.8936 583.169 56.8936 582.062C56.8936 580.972 57.79 580.075 58.8799 580.075C59.9873 580.075 60.8838 580.972 60.8838 582.062C60.8838 583.169 59.9873 584.065 58.8799 584.065ZM81.5029 574.204V583.521H79.833V581.604H75.8604V580.233H79.833V578.317H76.0186C75.0078 580.849 72.6436 582.633 69.2334 583.608L68.5654 582.308C72.292 581.235 74.4717 579.24 74.7705 576.7H69.374V575.329H76.5811C76.5811 575.909 76.5195 576.472 76.4229 576.999H79.833V574.204H81.5029ZM76.3174 583.696C79.499 583.696 81.5908 584.856 81.6084 586.772C81.5908 588.688 79.499 589.866 76.3174 589.866C73.083 589.866 71.0088 588.688 71.0088 586.772C71.0088 584.856 73.083 583.696 76.3174 583.696ZM76.3174 585.015C74.0674 585.015 72.6611 585.647 72.6611 586.772C72.6611 587.88 74.0674 588.53 76.3174 588.53C78.5322 588.53 79.9209 587.88 79.9385 586.772C79.9209 585.647 78.5322 585.015 76.3174 585.015ZM88.2881 575.101C89.5977 575.092 90.7139 575.584 91.4521 576.401H95.3896V574.187H97.0596V583.485H95.3896V581.358H91.4346C90.7051 582.167 89.5889 582.65 88.2881 582.642C85.915 582.659 84.1572 581.077 84.1572 578.88C84.1572 576.665 85.915 575.083 88.2881 575.101ZM88.2881 576.542C86.8115 576.524 85.7568 577.474 85.7568 578.88C85.7568 580.251 86.8115 581.235 88.2881 581.218C89.7295 581.235 90.7842 580.251 90.7842 578.88C90.7842 577.474 89.7295 576.524 88.2881 576.542ZM91.7861 583.837C95.0557 583.837 97.1123 584.944 97.1123 586.878C97.1123 588.794 95.0557 589.919 91.7861 589.901C88.499 589.919 86.4424 588.794 86.46 586.878C86.4424 584.944 88.499 583.837 91.7861 583.837ZM91.7861 585.12C89.4834 585.12 88.0771 585.753 88.0947 586.878C88.0771 587.968 89.4834 588.583 91.7861 588.583C94.1064 588.583 95.4775 587.968 95.4775 586.878C95.4775 585.753 94.1064 585.12 91.7861 585.12ZM92.208 577.737C92.3223 578.089 92.3838 578.476 92.3838 578.88C92.3838 579.267 92.3223 579.645 92.2256 579.987H95.3896V577.737H92.208ZM112.651 575.382V576.261C112.634 577.315 112.634 578.88 112.247 580.919L110.595 580.761C110.938 579.012 110.99 577.746 111.017 576.753H104.706V575.382H112.651ZM108.626 578.915V582.167C110.313 582.114 112.054 581.991 113.636 581.763L113.741 582.976C110.454 583.556 106.692 583.608 103.915 583.626L103.757 582.272C104.724 582.264 105.822 582.255 106.974 582.22V578.915H108.626ZM116.343 574.187V579.196H118.505V580.603H116.343V586.017H114.638V574.187H116.343ZM116.853 588.249V589.603H106.147V584.944H107.817V588.249H116.853ZM132.515 574.187V589.972H130.845V574.187H132.515ZM127.698 575.61V581.358H122.038V584.804C124.587 584.795 126.819 584.681 129.456 584.241L129.614 585.612C126.819 586.087 124.446 586.192 121.669 586.192H120.333V580.022H125.993V576.964H120.315V575.61H127.698ZM147.702 575.188V581.657H140.214V575.188H147.702ZM141.849 576.524V580.356H146.05V576.524H141.849ZM152.431 574.187V583.187H150.778V574.187H152.431ZM152.8 584.206V585.472H148.194C148.309 586.843 150.497 588.275 153.362 588.601L152.8 589.884C150.33 589.594 148.3 588.53 147.351 587.142C146.384 588.548 144.31 589.576 141.831 589.884L141.251 588.601C144.116 588.328 146.357 586.878 146.472 585.472H141.884V584.206H146.507V582.729H148.159V584.206H152.8ZM173.735 582.079V583.433H167.495V586.491H165.808V583.433H159.321V582.079H173.735ZM172.136 588.231V589.603H161.132V584.979H162.802V588.231H172.136ZM166.511 574.556C169.903 574.556 172.101 575.786 172.101 577.755C172.101 579.724 169.903 580.937 166.511 580.937C163.136 580.937 160.903 579.724 160.903 577.755C160.903 575.786 163.136 574.556 166.511 574.556ZM166.511 575.892C164.208 575.892 162.679 576.595 162.696 577.755C162.679 578.897 164.208 579.583 166.511 579.583C168.831 579.583 170.343 578.897 170.343 577.755C170.343 576.595 168.831 575.892 166.511 575.892ZM179.255 575.101C180.564 575.092 181.681 575.584 182.419 576.401H186.356V574.187H188.026V583.485H186.356V581.358H182.401C181.672 582.167 180.556 582.65 179.255 582.642C176.882 582.659 175.124 581.077 175.124 578.88C175.124 576.665 176.882 575.083 179.255 575.101ZM179.255 576.542C177.778 576.524 176.724 577.474 176.724 578.88C176.724 580.251 177.778 581.235 179.255 581.218C180.696 581.235 181.751 580.251 181.751 578.88C181.751 577.474 180.696 576.524 179.255 576.542ZM182.753 583.837C186.022 583.837 188.079 584.944 188.079 586.878C188.079 588.794 186.022 589.919 182.753 589.901C179.466 589.919 177.409 588.794 177.427 586.878C177.409 584.944 179.466 583.837 182.753 583.837ZM182.753 585.12C180.45 585.12 179.044 585.753 179.062 586.878C179.044 587.968 180.45 588.583 182.753 588.583C185.073 588.583 186.444 587.968 186.444 586.878C186.444 585.753 185.073 585.12 182.753 585.12ZM183.175 577.737C183.289 578.089 183.351 578.476 183.351 578.88C183.351 579.267 183.289 579.645 183.192 579.987H186.356V577.737H183.175ZM200.647 578.827C200.647 581.464 202.37 584.188 204.796 585.226L203.882 586.526C202.027 585.709 200.551 583.978 199.821 581.868C199.092 584.118 197.606 586.034 195.778 586.931L194.812 585.612C197.185 584.505 198.942 581.534 198.96 578.827V577.157H195.356V575.769H204.233V577.157H200.647V578.827ZM207.89 574.187V589.937H206.22V574.187H207.89ZM223.499 574.204V586.14H221.829V584.628H218.665V583.45H221.829V574.204H223.499ZM223.886 588.249V589.603H212.513V584.979H214.165V588.249H223.886ZM210.333 581.394C213.251 581.376 217.171 581.341 220.528 580.919L220.634 582.114C219.289 582.334 217.874 582.483 216.485 582.571V585.647H214.815V582.659C213.286 582.729 211.818 582.738 210.544 582.729L210.333 581.394ZM215.483 574.802C217.786 574.802 219.386 575.909 219.386 577.579C219.386 579.249 217.786 580.321 215.483 580.321C213.146 580.321 211.563 579.249 211.563 577.579C211.563 575.909 213.146 574.802 215.483 574.802ZM215.483 576.05C214.077 576.032 213.128 576.63 213.146 577.579C213.128 578.511 214.077 579.091 215.483 579.091C216.837 579.091 217.786 578.511 217.804 577.579C217.786 576.63 216.837 576.032 215.483 576.05Z" fill="#EBF5FE"/>
<path d="M89.5361 471.833V474.575H81.3564V480.692H77.9814V474.575H69.8721V471.833H89.5361ZM87.4971 467.825V470.474H72.2861V459.997H87.2627V462.646H75.5908V463.935H86.8174V466.513H75.5908V467.825H87.4971ZM98.7939 464.802C98.7705 468.036 100.271 471.81 103.95 473.474L102.075 476.122C99.708 475.067 98.0908 472.993 97.1533 470.544C96.2041 473.263 94.5166 475.536 92.0439 476.685L90.0986 474.013C93.8252 472.278 95.3721 468.317 95.3721 464.802V463.958H90.9893V461.216H102.966V463.958H98.7939V464.802ZM107.7 459.177V467.239H110.747V470.028H107.7V480.692H104.325V459.177H107.7ZM129.45 460.302V462.974H125.372C125.618 465.048 127.083 467.122 130.364 467.966L128.677 470.614C126.263 469.935 124.61 468.54 123.661 466.771C122.677 468.692 120.978 470.216 118.458 470.966L116.747 468.341C120.134 467.403 121.622 465.188 121.88 462.974H117.661V460.302H129.45ZM134.817 459.177V470.849H131.442V459.177H134.817ZM123.614 471.692V473.521H131.442V471.692H134.817V480.458H120.31V471.692H123.614ZM123.614 477.763H131.442V476.122H123.614V477.763ZM156.028 459.177V472.63H152.817V467.075H151.481V471.927H148.317V459.575H151.481V464.333H152.817V459.177H156.028ZM147.778 461.286V463.888H137.372V461.286H140.911V459.388H144.263V461.286H147.778ZM142.599 464.474C145.341 464.474 147.333 465.997 147.333 468.247C147.333 470.474 145.341 471.997 142.599 471.997C139.927 471.997 137.935 470.474 137.935 468.247C137.935 465.997 139.927 464.474 142.599 464.474ZM142.599 466.888C141.614 466.864 140.958 467.356 140.958 468.247C140.958 469.138 141.614 469.63 142.599 469.63C143.606 469.63 144.286 469.138 144.286 468.247C144.286 467.356 143.606 466.864 142.599 466.888ZM148.599 472.771C153.286 472.771 156.122 474.224 156.146 476.731C156.122 479.263 153.286 480.716 148.599 480.692C143.958 480.716 141.075 479.263 141.099 476.731C141.075 474.224 143.958 472.771 148.599 472.771ZM148.599 475.278C145.833 475.278 144.45 475.724 144.474 476.731C144.45 477.716 145.833 478.161 148.599 478.161C151.411 478.161 152.724 477.716 152.747 476.731C152.724 475.724 151.411 475.278 148.599 475.278ZM163.083 476.661L160.997 483.435H158.255L159.38 476.661H163.083ZM181.81 460.7V462.13C181.81 463.653 181.81 465.786 181.341 468.411L178.036 468.106C178.376 466.196 178.47 464.696 178.505 463.442H170.63V460.7H181.81ZM176.513 465.739V469.7C178.587 469.606 180.696 469.442 182.653 469.161L182.817 471.575C178.364 472.419 173.372 472.489 169.669 472.489L169.388 469.841C170.524 469.841 171.802 469.841 173.161 469.817V465.739H176.513ZM187.177 459.177V465.599H189.614V468.388H187.177V475.255H183.708V459.177H187.177ZM187.833 477.646V480.341H172.481V473.825H175.88V477.646H187.833ZM208.552 459.177V480.739H205.2V459.177H208.552ZM201.849 460.935V469.419H195.075V472.981C198.251 472.958 200.899 472.794 203.841 472.302L204.122 475.021C200.724 475.63 197.56 475.771 193.552 475.771H191.583V466.771H198.403V463.63H191.583V460.935H201.849Z" fill="#FCFEFF"/>
<path opacity="0.8" d="M58.8799 778.997C57.79 778.997 56.8936 778.1 56.8936 776.993C56.8936 775.903 57.79 775.006 58.8799 775.006C59.9873 775.006 60.8838 775.903 60.8838 776.993C60.8838 778.1 59.9873 778.997 58.8799 778.997ZM69.0928 783.374V770.647H77.0732V772.317H71.0264V776.167H76.6514V777.819H71.0264V781.704H77.1436V783.374H69.0928ZM80.7822 773.829L82.874 777.538L84.9834 773.829H87.04L84.0693 778.592L87.0576 783.374H85.0186L82.874 779.805L80.7471 783.374H78.6904L81.6436 778.592L78.708 773.829H80.7822ZM88.7451 783.374V773.829H90.626V783.374H88.7451ZM89.6943 772.352C89.0439 772.352 88.499 771.86 88.499 771.245C88.499 770.629 89.0439 770.137 89.6943 770.137C90.3271 770.137 90.8721 770.629 90.8721 771.245C90.8721 771.86 90.3271 772.352 89.6943 772.352ZM97.376 773.829V775.323H95.4248V780.561C95.4248 781.633 95.9697 781.827 96.5674 781.844C96.8311 781.844 97.2529 781.809 97.5166 781.792V783.426C97.2529 783.461 96.8486 783.497 96.3389 783.497C94.8623 783.497 93.5439 782.688 93.5615 780.948V775.323H92.1553V773.829H93.5615V771.543H95.4248V773.829H97.376ZM116.167 769.135V780.667H114.497V774.743H111.491V773.389H114.497V769.135H116.167ZM116.589 783.18V784.534H105.937V779.629H107.606V783.18H116.589ZM108.679 772.317C108.679 774.286 110.103 776.254 112.476 777.045L111.614 778.381C109.848 777.757 108.538 776.492 107.853 774.936C107.167 776.667 105.787 778.065 103.915 778.733L103.054 777.379C105.479 776.553 106.974 774.479 106.974 772.317V771.702H103.563V770.331H112.054V771.702H108.679V772.317ZM133.253 771.526V772.897H130.968V774.848H133.253V776.237H130.968V778.698H129.298V769.135H130.968V771.526H133.253ZM126.397 770.049V774.549H120.913V776.571C123.646 776.562 125.58 776.465 127.874 776.079L128.05 777.432C125.606 777.854 123.532 777.942 120.509 777.942H119.243V773.249H124.763V771.403H119.226V770.049H126.397ZM130.968 779.489V784.85H129.298V780.842H120.562V779.489H130.968ZM146.612 770.506C146.595 772.598 149.161 774.567 152.255 774.971L151.604 776.342C149.029 775.929 146.762 774.593 145.751 772.739C144.714 774.602 142.455 775.929 139.897 776.342L139.229 774.971C142.323 774.567 144.854 772.616 144.872 770.506V769.645H146.612V770.506ZM152.905 777.889V779.26H146.507V784.868H144.872V779.26H138.544V777.889H152.905ZM167.161 769.135V777.819H165.491V769.135H167.161ZM162.134 769.874V774.268H156.562V776.131C159.312 776.114 161.343 776.043 163.733 775.657L163.944 777.01C161.378 777.432 159.216 777.502 156.245 777.52H154.927V772.967H160.481V771.227H154.892V769.874H162.134ZM158.495 778.557V780.262H165.509V778.557H167.161V784.674H156.825V778.557H158.495ZM158.495 783.321H165.509V781.581H158.495V783.321ZM182.366 770.12V776.588H174.878V770.12H182.366ZM176.513 771.456V775.288H180.714V771.456H176.513ZM187.095 769.118V778.118H185.442V769.118H187.095ZM187.464 779.137V780.403H182.858C182.973 781.774 185.161 783.207 188.026 783.532L187.464 784.815C184.994 784.525 182.964 783.461 182.015 782.073C181.048 783.479 178.974 784.507 176.495 784.815L175.915 783.532C178.78 783.259 181.021 781.809 181.136 780.403H176.548V779.137H181.171V777.661H182.823V779.137H187.464ZM207.046 769.118V777.221H205.394V769.118H207.046ZM207.063 777.977V781.915H198.38V783.374H207.591V784.709H196.763V780.649H205.411V779.295H196.71V777.977H207.063ZM199.733 770.752C199.716 772.862 201.245 774.778 203.653 775.534L202.827 776.834C200.99 776.237 199.61 774.989 198.907 773.389C198.187 775.112 196.78 776.483 194.899 777.133L194.056 775.815C196.517 774.989 198.028 772.932 198.028 770.752V769.54H199.733V770.752ZM222.989 769.118V779.049H221.407V774.655H219.579V778.504H218.015V769.417H219.579V773.284H221.407V769.118H222.989ZM217.435 770.911V772.229H209.472V770.911H212.653V769.241H214.306V770.911H217.435ZM213.462 772.967C215.466 772.967 216.872 774.04 216.872 775.674C216.872 777.309 215.466 778.381 213.462 778.381C211.493 778.381 210.087 777.309 210.087 775.674C210.087 774.04 211.493 772.967 213.462 772.967ZM213.462 774.198C212.354 774.198 211.581 774.778 211.581 775.674C211.581 776.571 212.354 777.168 213.462 777.168C214.604 777.168 215.36 776.571 215.36 775.674C215.36 774.778 214.604 774.198 213.462 774.198ZM217.716 779.278C221.056 779.278 223.06 780.28 223.077 782.073C223.06 783.831 221.056 784.85 217.716 784.833C214.376 784.85 212.372 783.831 212.39 782.073C212.372 780.28 214.376 779.278 217.716 779.278ZM217.716 780.561C215.378 780.561 214.024 781.088 214.042 782.073C214.024 783.022 215.378 783.567 217.716 783.549C220.071 783.567 221.39 783.022 221.407 782.073C221.39 781.088 220.071 780.561 217.716 780.561Z" fill="#EBF5FE"/>
<path d="M115.036 720.764V723.506H106.856V729.624H103.481V723.506H95.3721V720.764H115.036ZM112.997 716.756V719.405H97.7861V708.928H112.763V711.577H101.091V712.866H112.317V715.444H101.091V716.756H112.997ZM124.294 713.733C124.271 716.967 125.771 720.741 129.45 722.405L127.575 725.053C125.208 723.999 123.591 721.924 122.653 719.475C121.704 722.194 120.017 724.467 117.544 725.616L115.599 722.944C119.325 721.209 120.872 717.249 120.872 713.733V712.889H116.489V710.147H128.466V712.889H124.294V713.733ZM133.2 708.108V716.17H136.247V718.959H133.2V729.624H129.825V708.108H133.2ZM142.974 727.374V710.405H154.716V713.663H146.958V717.249H154.106V720.506H146.958V724.116H154.739V727.374H142.974ZM160.599 714.647L162.755 718.889L164.958 714.647H168.966L165.38 720.999L169.083 727.374H165.122L162.755 723.108L160.435 727.374H156.403L160.13 720.999L156.591 714.647H160.599ZM170.771 727.374V714.647H174.731V727.374H170.771ZM172.763 713.124C171.638 713.124 170.724 712.28 170.724 711.225C170.724 710.17 171.638 709.327 172.763 709.327C173.888 709.327 174.825 710.17 174.825 711.225C174.825 712.28 173.888 713.124 172.763 713.124ZM184.364 714.647V717.553H182.044V723.389C182.044 724.186 182.442 724.42 183.122 724.444C183.45 724.467 184.083 724.42 184.528 724.397V727.42C184.153 727.467 183.497 727.561 182.56 727.561C179.771 727.561 178.083 726.413 178.106 723.834V717.553H176.396V714.647H178.106V711.6H182.044V714.647H184.364Z" fill="#FCFEFF"/>
</svg>
