<svg width="687" height="687" viewBox="0 0 687 687" fill="none" xmlns="http://www.w3.org/2000/svg">
<path d="M626.478 343.662C626.478 499.893 499.827 626.543 343.597 626.543C187.366 626.543 60.7156 499.893 60.7156 343.662C60.7156 187.431 187.366 60.7809 343.597 60.7809C499.827 60.7809 626.478 187.431 626.478 343.662Z" fill="#DDF2FF"/>
<path d="M549.474 343.662C549.474 457.365 457.3 549.54 343.597 549.54C229.893 549.54 137.719 457.365 137.719 343.662C137.719 229.959 229.893 137.784 343.597 137.784C457.3 137.784 549.474 229.959 549.474 343.662Z" fill="#FCFEFF"/>
<path d="M526.82 343.662C526.82 444.853 444.788 526.885 343.597 526.885C242.405 526.885 160.373 444.853 160.373 343.662C160.373 242.47 242.405 160.438 343.597 160.438C444.788 160.438 526.82 242.47 526.82 343.662Z" fill="#EFF9FF"/>
<path opacity="0.8" d="M572.447 262.31L571.034 262.812L572.447 262.31ZM566.926 439.132L565.547 438.542L566.926 439.132ZM442.921 565.304L442.308 563.935L442.921 565.304ZM266.221 573.887L266.699 572.465L266.221 573.887ZM210.331 140.607L202.975 156.288L193.073 142.077L210.331 140.607ZM280.346 107.608C339.696 91.7055 402.859 98.7431 457.253 127.319L455.857 129.975C402.131 101.75 339.744 94.7985 281.123 110.506L280.346 107.608ZM457.253 127.319C511.647 155.895 553.28 203.913 573.861 261.807L571.034 262.812C550.706 205.628 509.584 158.2 455.857 129.975L457.253 127.319ZM573.861 261.807C594.441 319.702 592.458 383.224 568.305 439.722L565.547 438.542C589.403 382.738 591.362 319.996 571.034 262.812L573.861 261.807ZM568.305 439.722C544.153 496.219 499.605 541.546 443.534 566.673L442.308 563.935C497.69 539.117 541.691 494.347 565.547 438.542L568.305 439.722ZM443.534 566.673C387.464 591.8 323.985 594.883 265.743 575.309L266.699 572.465C324.226 591.799 386.925 588.754 442.308 563.935L443.534 566.673ZM265.743 575.309C207.501 555.735 158.769 514.939 129.255 461.048L131.886 459.607C161.038 512.836 209.171 553.131 266.699 572.465L265.743 575.309ZM129.255 461.048C99.7411 407.157 91.6106 344.126 106.483 284.509L109.394 285.236C94.704 344.12 102.735 406.378 131.886 459.607L129.255 461.048ZM106.483 284.509C120.257 229.297 152.824 180.767 198.365 147.117L200.147 149.53C155.166 182.766 122.998 230.701 109.394 285.236L106.483 284.509Z" fill="#3D6493"/>
<circle cx="343.597" cy="100.781" r="100" fill="#3D6493"/>
<circle opacity="0.2" cx="343.597" cy="100.662" r="94" fill="#1A2A3E"/>
<path d="M275.657 92.955V104.978H273.794V92.955H275.657ZM272.493 93.2362V104.486H270.647V99.0018H268.96V102.131H262.685V94.203H264.53V96.7167H267.149V94.203H268.96V97.4198H270.647V93.2362H272.493ZM264.53 100.549H267.149V98.2108H264.53V100.549ZM276.097 106.947V108.529H265.022V103.379H266.974V106.947H276.097ZM290.95 92.955V108.863H288.999V100.742H285.923V99.16H288.999V92.955H290.95ZM283.427 97.9999C283.409 100.408 284.851 102.974 287.364 104.082L286.31 105.576C284.49 104.803 283.172 103.212 282.478 101.305C281.774 103.326 280.465 105.022 278.646 105.84L277.591 104.328C280.069 103.203 281.476 100.496 281.476 97.9999V97.1737H278.065V95.6093H281.493V93.2889H283.444V95.6093H286.767V97.1737H283.427V97.9999ZM306.454 92.955V108.846H304.485V92.955H306.454ZM301.708 94.6425C301.708 99.371 299.88 103.396 294.308 106.033L293.288 104.469C297.445 102.491 299.379 99.8016 299.722 96.1893H294.097V94.6425H301.708ZM313.151 93.6581C315.208 93.6405 316.825 94.827 317.229 96.576H320.095V92.955H322.046V101.48H320.095V98.1581H317.247C316.852 99.9423 315.217 101.146 313.151 101.146C310.708 101.146 308.95 99.5819 308.95 97.3846C308.95 95.2225 310.708 93.6405 313.151 93.6581ZM313.151 95.2928C311.78 95.2928 310.813 96.1014 310.813 97.3846C310.813 98.6503 311.78 99.494 313.151 99.494C314.487 99.494 315.437 98.6503 315.454 97.3846C315.437 96.1014 314.487 95.2928 313.151 95.2928ZM313.503 102.219V103.906H320.095V102.219H322.046V108.652H311.569V102.219H313.503ZM313.503 107.07H320.095V105.418H313.503V107.07ZM343.069 102.43V104.029H336.759V108.846H334.825V104.029H328.55V102.43H343.069ZM341.505 99.5643V101.111H330.413V93.6405H341.329V95.1874H332.347V96.5936H340.978V98.1053H332.347V99.5643H341.505ZM349.819 97.4725C349.819 99.9335 351.278 102.728 353.792 103.889L352.702 105.435C350.909 104.592 349.582 102.887 348.87 100.9C348.149 103.08 346.761 104.943 344.933 105.822L343.79 104.293C346.321 103.098 347.851 100.109 347.868 97.4725V96.1366H344.405V94.5194H353.142V96.1366H349.819V97.4725ZM356.569 92.955V99.1425H359.013V100.777H356.569V108.846H354.618V92.955H356.569ZM374.2 105.33V106.93H359.681V105.33H365.956V101.674H367.907V105.33H374.2ZM372.952 94.2382V95.8378H367.942C368.004 98.1229 370.359 100.224 373.62 100.707L372.847 102.254C370.157 101.762 367.96 100.347 366.94 98.369C365.912 100.373 363.732 101.841 361.087 102.342L360.313 100.795C363.486 100.259 365.824 98.1229 365.886 95.8378H360.894V94.2382H372.952ZM387.771 92.955V96.8749H389.985V98.4921H387.771V102.236H385.819V92.955H387.771ZM379.438 102.869V104.24H385.819V102.869H387.771V108.652H377.505V102.869H379.438ZM379.438 107.105H385.819V105.752H379.438V107.105ZM384.677 94.4315V95.996H375.255V94.4315H378.999V92.8319H380.95V94.4315H384.677ZM379.966 96.5409C382.269 96.5409 383.833 97.6483 383.851 99.3358C383.833 101.023 382.269 102.131 379.966 102.131C377.646 102.131 376.063 101.023 376.063 99.3358C376.063 97.6483 377.646 96.5409 379.966 96.5409ZM379.966 97.9823C378.753 97.9823 377.962 98.4921 377.962 99.3358C377.962 100.197 378.753 100.689 379.966 100.689C381.179 100.689 381.987 100.197 381.987 99.3358C381.987 98.4921 381.179 97.9823 379.966 97.9823ZM409.567 100.812V102.377H403.433V105.295H401.446V102.377H395.048V100.812H409.567ZM407.968 106.93V108.529H396.823V103.818H398.792V106.93H407.968ZM402.29 93.3065C405.718 93.3065 407.985 94.5546 407.985 96.5585C407.985 98.5624 405.718 99.7928 402.29 99.7928C398.862 99.7928 396.595 98.5624 396.595 96.5585C396.595 94.5546 398.862 93.3065 402.29 93.3065ZM402.29 94.8534C400.11 94.8534 398.687 95.4686 398.704 96.5585C398.687 97.6132 400.11 98.2284 402.29 98.2284C404.487 98.2284 405.894 97.6132 405.894 96.5585C405.894 95.4686 404.487 94.8534 402.29 94.8534ZM425.106 100.601V102.166H410.622V100.601H413.997V98.58C412.802 98.079 412.116 97.2792 412.116 96.2421C412.116 94.3436 414.349 93.2186 417.847 93.2186C421.345 93.2186 423.56 94.3436 423.577 96.2421C423.568 97.288 422.883 98.0878 421.679 98.58V100.601H425.106ZM417.847 103.133C421.274 103.115 423.331 104.135 423.349 105.963C423.331 107.808 421.274 108.81 417.847 108.81C414.384 108.81 412.31 107.808 412.31 105.963C412.31 104.135 414.384 103.115 417.847 103.133ZM417.847 104.609C415.526 104.609 414.278 105.066 414.296 105.963C414.278 106.859 415.526 107.334 417.847 107.334C420.114 107.334 421.38 106.859 421.397 105.963C421.38 105.066 420.114 104.609 417.847 104.609ZM417.847 94.7303C415.491 94.7303 414.138 95.2577 414.155 96.2421C414.138 97.2089 415.491 97.7186 417.847 97.7186C420.185 97.7186 421.556 97.2089 421.556 96.2421C421.556 95.2577 420.185 94.7303 417.847 94.7303ZM415.966 100.601H419.728V99.0897C419.156 99.1688 418.523 99.2128 417.847 99.2128C417.17 99.2128 416.537 99.1688 415.966 99.0897V100.601Z" fill="white"/>
<circle cx="343.597" cy="586.543" r="100" fill="#3D6493"/>
<circle opacity="0.2" cx="343.597" cy="586.662" r="94" fill="#1A2A3E"/>
<path d="M276.554 575.511V577.093H270.261V578.412C273.108 578.605 274.778 579.589 274.796 581.242C274.778 583.07 272.722 584.089 269.294 584.089C265.831 584.089 263.757 583.07 263.757 581.242C263.757 579.589 265.444 578.596 268.327 578.412V577.093H262.069V575.511H276.554ZM269.294 579.888C266.974 579.906 265.726 580.363 265.743 581.242C265.726 582.121 266.974 582.595 269.294 582.595C271.562 582.595 272.827 582.121 272.845 581.242C272.827 580.363 271.562 579.906 269.294 579.888ZM275.253 568.919V570.484H270.683C270.99 571.794 272.889 572.971 275.868 573.244L275.183 574.791C272.3 574.501 270.155 573.349 269.294 571.732C268.433 573.34 266.323 574.501 263.44 574.791L262.772 573.244C265.69 572.971 267.589 571.776 267.923 570.484H263.388V568.919H275.253ZM290.933 568.234V579.976H288.981V576.513H285.149V574.914H288.981V572.945H285.36C284.235 575.388 281.897 577.216 278.681 578.201L277.854 576.671C281.361 575.546 283.611 573.525 283.972 571.011H278.681V569.447H286.116C286.116 570.115 286.037 570.756 285.905 571.363H288.981V568.234H290.933ZM291.337 582.209V583.791H280.579V578.816H282.565V582.209H291.337ZM306.454 568.216V584.107H304.485V568.216H306.454ZM301.708 569.904C301.708 574.632 299.88 578.658 294.308 581.294L293.288 579.73C297.445 577.753 299.379 575.063 299.722 571.451H294.097V569.904H301.708ZM313.151 568.919C315.208 568.902 316.825 570.088 317.229 571.837H320.095V568.216H322.046V576.742H320.095V573.419H317.247C316.852 575.204 315.217 576.408 313.151 576.408C310.708 576.408 308.95 574.843 308.95 572.646C308.95 570.484 310.708 568.902 313.151 568.919ZM313.151 570.554C311.78 570.554 310.813 571.363 310.813 572.646C310.813 573.912 311.78 574.755 313.151 574.755C314.487 574.755 315.437 573.912 315.454 572.646C315.437 571.363 314.487 570.554 313.151 570.554ZM313.503 577.48V579.168H320.095V577.48H322.046V583.914H311.569V577.48H313.503ZM313.503 582.332H320.095V580.679H313.503V582.332ZM329.446 569.324C331.96 569.306 333.806 570.906 333.823 573.156C333.806 575.423 331.96 577.005 329.446 577.005C326.95 577.005 325.087 575.423 325.087 573.156C325.087 570.906 326.95 569.306 329.446 569.324ZM329.446 571.011C328.058 571.011 327.021 571.837 327.021 573.156C327.021 574.492 328.058 575.3 329.446 575.3C330.853 575.3 331.907 574.492 331.907 573.156C331.907 571.837 330.853 571.011 329.446 571.011ZM337.532 568.216V584.125H335.581V568.216H337.532ZM324.366 579.203C327.231 579.203 331.204 579.168 334.632 578.675L334.79 580.099C331.222 580.785 327.407 580.802 324.612 580.802L324.366 579.203ZM349.942 570.502C349.925 572.664 351.19 574.632 353.687 575.423L352.632 576.953C350.9 576.346 349.688 575.195 349.011 573.683C348.308 575.415 346.98 576.777 345.056 577.445L344.019 575.863C346.655 575.002 347.974 572.875 347.974 570.589V569.078H349.942V570.502ZM357.431 568.216V577.568H355.479V572.892H352.315V571.293H355.479V568.216H357.431ZM352.052 577.99C355.427 577.99 357.483 579.115 357.483 581.048C357.483 582.982 355.427 584.089 352.052 584.089C348.694 584.089 346.638 582.982 346.655 581.048C346.638 579.115 348.694 577.99 352.052 577.99ZM352.052 579.502C349.837 579.502 348.589 580.046 348.589 581.048C348.589 582.015 349.837 582.56 352.052 582.56C354.267 582.56 355.532 582.015 355.532 581.048C355.532 580.046 354.267 579.502 352.052 579.502ZM365.376 571.082C365.376 573.033 366.642 574.861 369.12 575.617L368.188 577.146C366.404 576.592 365.139 575.459 364.444 574.017C363.741 575.687 362.396 577.014 360.489 577.656L359.505 576.109C362.071 575.265 363.407 573.209 363.407 571.099V570.906H360.05V569.324H368.681V570.906H365.376V571.082ZM372.214 568.216V572.031H374.429V573.63H372.214V577.691H370.263V568.216H372.214ZM367.046 578.043C370.333 578.043 372.354 579.15 372.372 581.048C372.354 582.964 370.333 584.089 367.046 584.089C363.724 584.089 361.667 582.964 361.667 581.048C361.667 579.15 363.724 578.043 367.046 578.043ZM367.046 579.572C364.866 579.572 363.618 580.082 363.618 581.048C363.618 582.033 364.866 582.56 367.046 582.56C369.226 582.56 370.438 582.033 370.438 581.048C370.438 580.082 369.226 579.572 367.046 579.572ZM382.462 568.462C386.083 568.462 388.175 569.429 388.192 571.187C388.175 572.962 386.083 573.912 382.462 573.929C378.841 573.912 376.731 572.962 376.731 571.187C376.731 569.429 378.841 568.462 382.462 568.462ZM382.462 569.904C380.036 569.904 378.771 570.361 378.788 571.187C378.771 572.066 380.036 572.47 382.462 572.47C384.923 572.47 386.171 572.066 386.171 571.187C386.171 570.361 384.923 569.904 382.462 569.904ZM389.722 574.773V576.337H375.237V574.773H389.722ZM387.911 577.41V581.294H378.876V582.472H388.351V583.966H376.96V579.906H385.995V578.851H376.942V577.41H387.911ZM400.251 568.919C402.659 568.902 404.417 570.273 404.417 572.259C404.417 574.211 402.659 575.599 400.251 575.582C397.86 575.599 396.12 574.211 396.12 572.259C396.12 570.273 397.86 568.902 400.251 568.919ZM400.251 570.502C398.95 570.484 398.001 571.169 398.019 572.259C398.001 573.332 398.95 573.982 400.251 573.982C401.604 573.982 402.554 573.332 402.554 572.259C402.554 571.169 401.604 570.484 400.251 570.502ZM408.354 568.234V584.089H406.421V568.234H408.354ZM395.083 576.671C397.948 576.671 401.956 576.619 405.384 576.109L405.524 577.55C404.153 577.814 402.729 577.981 401.341 578.078V583.615H399.372V578.201C397.904 578.262 396.524 578.271 395.329 578.289L395.083 576.671ZM423.155 568.234V573.226H425.37V574.843H423.155V580.099H421.204V568.234H423.155ZM420.062 569.992V571.556H410.64V569.992H414.384V568.216H416.335V569.992H420.062ZM415.351 572.207C417.636 572.207 419.218 573.419 419.235 575.248C419.218 577.058 417.636 578.253 415.351 578.253C413.048 578.253 411.448 577.058 411.448 575.248C411.448 573.419 413.048 572.207 415.351 572.207ZM415.351 573.718C414.138 573.718 413.347 574.281 413.347 575.248C413.347 576.197 414.138 576.759 415.351 576.742C416.563 576.759 417.372 576.197 417.372 575.248C417.372 574.281 416.563 573.718 415.351 573.718ZM423.788 582.209V583.791H412.978V579.168H414.929V582.209H423.788ZM285.545 592.029C285.545 594.138 286.811 596.195 289.271 597.039L288.199 598.568C286.485 597.918 285.255 596.678 284.596 595.123C283.901 596.863 282.609 598.243 280.746 598.937L279.709 597.39C282.258 596.529 283.559 594.332 283.576 592.011V590.201H285.545V592.029ZM293.068 589.234V601.029H291.117V594.332H287.953V592.732H291.117V589.234H293.068ZM293.42 603.209V604.791H282.592V599.746H284.578V603.209H293.42ZM301.348 592.451C301.348 594.419 302.701 596.353 305.232 597.144L304.23 598.673C302.429 598.085 301.119 596.898 300.398 595.386C299.678 597.03 298.333 598.339 296.443 598.99L295.441 597.443C297.99 596.599 299.361 594.543 299.379 592.451V591.994H295.951V590.429H304.688V591.994H301.348V592.451ZM308.555 589.234V600.765H306.586V589.234H308.555ZM308.994 603.209V604.791H298.043V599.711H300.012V603.209H308.994ZM323.619 589.99V591.22C323.619 592.451 323.619 593.857 323.232 595.738H325.395V597.32H310.875V595.738H321.264C321.633 594.024 321.668 592.714 321.668 591.554H312.668V589.99H323.619ZM323.602 599.166V604.914H312.615V599.166H323.602ZM314.531 600.695V603.332H321.668V600.695H314.531ZM340.916 596.441V598.041H337.559V600.027C338.587 600.519 339.149 601.257 339.158 602.224C339.141 604.07 337.084 605.107 333.656 605.107C330.193 605.107 328.119 604.07 328.119 602.224C328.119 601.231 328.717 600.484 329.807 599.992V598.041H326.432V596.441H340.916ZM333.656 599.359C334.368 599.359 335.019 599.403 335.607 599.482V598.041H331.775V599.464C332.347 599.403 332.971 599.359 333.656 599.359ZM333.656 600.836C331.336 600.836 330.088 601.31 330.105 602.224C330.088 603.138 331.336 603.595 333.656 603.595C335.924 603.595 337.189 603.138 337.207 602.224C337.189 601.31 335.924 600.836 333.656 600.836ZM333.656 589.498C337.154 589.498 339.369 590.64 339.387 592.539C339.369 594.419 337.154 595.544 333.656 595.544C330.158 595.544 327.926 594.419 327.926 592.539C327.926 590.64 330.158 589.498 333.656 589.498ZM333.656 591.027C331.336 591.027 329.947 591.554 329.965 592.539C329.947 593.505 331.336 594.033 333.656 594.033C335.977 594.033 337.365 593.505 337.365 592.539C337.365 591.554 335.977 591.027 333.656 591.027ZM355.26 589.216V605.107H353.291V589.216H355.26ZM350.514 590.904C350.514 595.632 348.686 599.658 343.113 602.294L342.094 600.73C346.251 598.753 348.185 596.063 348.527 592.451H342.902V590.904H350.514ZM360.217 590.043V592.205H363.768V590.043H365.701V592.943H368.9V589.216H370.852V597.9H368.9V594.56H365.701V597.408H358.266V590.043H360.217ZM360.217 595.826H363.768V593.716H360.217V595.826ZM362.326 598.603V600.22H368.9V598.603H370.852V604.878H360.375V598.603H362.326ZM362.326 603.296H368.9V601.732H362.326V603.296ZM391.049 589.216V605.107H389.186V589.216H391.049ZM387.814 589.515V604.334H385.969V596.336H383.684V594.753H385.969V589.515H387.814ZM382.277 593.558C382.277 596.248 383.244 598.937 385.512 600.238L384.352 601.679C382.884 600.8 381.908 599.289 381.363 597.478C380.801 599.438 379.79 601.108 378.287 602.048L377.092 600.589C379.395 599.201 380.396 596.318 380.396 593.558V592.503H377.637V590.921H384.844V592.503H382.277V593.558ZM400.084 599.148C403.529 599.166 405.709 600.255 405.727 602.136C405.709 603.982 403.529 605.089 400.084 605.089C396.656 605.089 394.459 603.982 394.459 602.136C394.459 600.255 396.656 599.166 400.084 599.148ZM400.084 600.625C397.799 600.625 396.41 601.169 396.428 602.136C396.41 603.068 397.799 603.578 400.084 603.578C402.387 603.578 403.775 603.068 403.793 602.136C403.775 601.169 402.387 600.625 400.084 600.625ZM405.621 589.972V591.291C405.621 592.539 405.621 593.875 405.182 595.509L403.248 595.334C403.644 593.787 403.67 592.67 403.67 591.519H394.617V589.972H405.621ZM407.379 596.423V598.005H392.965V596.423H398.555V593.541H400.488V596.423H407.379Z" fill="white"/>
<circle cx="586.478" cy="343.662" r="100" fill="#3D6493"/>
<circle opacity="0.2" cx="586.597" cy="343.662" r="94" fill="#1A2A3E"/>
<path d="M547.04 336.609V337.84C547.04 339.07 547.04 340.476 546.653 342.357H548.815V343.939H534.296V342.357H544.685C545.054 340.643 545.089 339.334 545.089 338.174H536.089V336.609H547.04ZM547.022 345.785V351.533H536.036V345.785H547.022ZM537.952 347.314V349.951H545.089V347.314H537.952ZM564.337 343.06V344.66H560.979V346.646C562.008 347.138 562.57 347.877 562.579 348.843C562.562 350.689 560.505 351.726 557.077 351.726C553.614 351.726 551.54 350.689 551.54 348.843C551.54 347.85 552.138 347.103 553.228 346.611V344.66H549.853V343.06H564.337ZM557.077 345.978C557.789 345.978 558.439 346.022 559.028 346.101V344.66H555.196V346.084C555.768 346.022 556.392 345.978 557.077 345.978ZM557.077 347.455C554.757 347.455 553.509 347.929 553.526 348.843C553.509 349.758 554.757 350.215 557.077 350.215C559.345 350.215 560.61 349.758 560.628 348.843C560.61 347.929 559.345 347.455 557.077 347.455ZM557.077 336.117C560.575 336.117 562.79 337.259 562.808 339.158C562.79 341.039 560.575 342.164 557.077 342.164C553.579 342.164 551.347 341.039 551.347 339.158C551.347 337.259 553.579 336.117 557.077 336.117ZM557.077 337.646C554.757 337.646 553.368 338.174 553.386 339.158C553.368 340.125 554.757 340.652 557.077 340.652C559.397 340.652 560.786 340.125 560.786 339.158C560.786 338.174 559.397 337.646 557.077 337.646ZM572.616 337.435V350.162H570.331V337.435H572.616ZM577.134 344.572V350.162H574.884V340.617H577.028V342.234H577.151C577.591 341.162 578.558 340.494 579.981 340.494C581.968 340.494 583.269 341.795 583.251 344.08V350.162H581.019V344.431C581.019 343.148 580.333 342.392 579.155 342.392C577.96 342.392 577.134 343.183 577.134 344.572ZM585.396 350.162V340.617H587.646V350.162H585.396ZM586.538 339.263C585.835 339.263 585.237 338.718 585.237 338.033C585.237 337.365 585.835 336.82 586.538 336.82C587.259 336.82 587.839 337.365 587.839 338.033C587.839 338.718 587.259 339.263 586.538 339.263ZM594.554 340.617V342.34H592.673V347.297C592.673 348.211 593.13 348.404 593.692 348.404C593.956 348.404 594.396 348.386 594.677 348.369V350.197C594.413 350.25 593.974 350.285 593.411 350.285C591.724 350.285 590.423 349.459 590.44 347.666V342.34H589.069V340.617H590.44V338.332H592.673V340.617H594.554ZM596.276 350.162V340.617H598.526V350.162H596.276ZM597.419 339.263C596.716 339.263 596.118 338.718 596.118 338.033C596.118 337.365 596.716 336.82 597.419 336.82C598.14 336.82 598.72 337.365 598.72 338.033C598.72 338.718 598.14 339.263 597.419 339.263ZM600.231 347.472C600.231 345.328 602.007 344.695 603.782 344.59C604.441 344.546 605.812 344.466 606.226 344.449V343.693C606.226 342.744 605.61 342.199 604.503 342.199C603.501 342.199 602.886 342.656 602.71 343.341H600.548C600.706 341.724 602.165 340.494 604.556 340.494C606.366 340.494 608.458 341.232 608.458 343.781V350.162H606.313V348.843H606.243C605.821 349.652 604.925 350.355 603.431 350.355C601.603 350.355 600.231 349.353 600.231 347.472ZM602.394 347.455C602.394 348.281 603.062 348.703 604.011 348.703C605.364 348.703 606.243 347.806 606.243 346.734V345.943L604.134 346.084C603.062 346.172 602.394 346.611 602.394 347.455ZM615.331 340.617V342.34H613.45V347.297C613.45 348.211 613.907 348.404 614.47 348.404C614.733 348.404 615.173 348.386 615.454 348.369V350.197C615.19 350.25 614.751 350.285 614.188 350.285C612.501 350.285 611.2 349.459 611.218 347.666V342.34H609.847V340.617H611.218V338.332H613.45V340.617H615.331ZM617.054 350.162V340.617H619.304V350.162H617.054ZM618.196 339.263C617.493 339.263 616.896 338.718 616.896 338.033C616.896 337.365 617.493 336.82 618.196 336.82C618.917 336.82 619.497 337.365 619.497 338.033C619.497 338.718 618.917 339.263 618.196 339.263ZM629.974 340.617L626.563 350.162H624.103L620.692 340.617H623.083L625.28 347.718H625.386L627.601 340.617H629.974ZM635.282 350.355C632.399 350.355 630.642 348.439 630.642 345.451C630.642 342.498 632.435 340.494 635.159 340.494C637.497 340.494 639.519 341.953 639.519 345.31V346.013H632.856C632.883 347.639 633.841 348.597 635.3 348.597C636.284 348.597 636.952 348.175 637.233 347.613H639.431C639.026 349.265 637.497 350.355 635.282 350.355ZM632.874 344.484H637.374C637.356 343.183 636.495 342.234 635.194 342.234C633.841 342.234 632.944 343.262 632.874 344.484Z" fill="white"/>
<circle cx="100.716" cy="343.662" r="100" fill="#3D6493"/>
<circle opacity="0.2" cx="100.597" cy="343.662" r="94" fill="#1A2A3E"/>
<path d="M40.3262 325.336V341.226H38.4629V333.123H36.6699V340.418H34.877V325.634H36.6699V331.558H38.4629V325.336H40.3262ZM33.084 327.216V328.799H29.1113V335.865C30.8428 335.847 32.2666 335.759 33.875 335.461L34.0156 337.06C32.0996 337.447 30.4297 337.5 28.2148 337.517H27.1426V327.216H33.084ZM44.1406 335.461C43.3848 335.461 42.7695 334.845 42.7695 334.09C42.7695 333.351 43.3848 332.736 44.1406 332.736C44.8613 332.736 45.4941 333.351 45.4941 334.09C45.4941 334.845 44.8613 335.461 44.1406 335.461ZM61.5957 332.631V334.213H55.3027V335.531C58.1504 335.724 59.8203 336.709 59.8379 338.361C59.8203 340.189 57.7637 341.209 54.3359 341.209C50.873 341.209 48.7988 340.189 48.7988 338.361C48.7988 336.709 50.4863 335.716 53.3691 335.531V334.213H47.1113V332.631H61.5957ZM54.3359 337.008C52.0156 337.025 50.7676 337.482 50.7852 338.361C50.7676 339.24 52.0156 339.715 54.3359 339.715C56.6035 339.715 57.8691 339.24 57.8867 338.361C57.8691 337.482 56.6035 337.025 54.3359 337.008ZM60.2949 326.039V327.603H55.7246C56.0322 328.913 57.9307 330.091 60.9102 330.363L60.2246 331.91C57.3418 331.62 55.1973 330.468 54.3359 328.851C53.4746 330.46 51.3652 331.62 48.4824 331.91L47.8145 330.363C50.7324 330.091 52.6309 328.895 52.9648 327.603H48.4297V326.039H60.2949ZM77.1875 337.675V339.258H62.668V337.675H68.8906V334.002H70.8242V337.675H77.1875ZM70.877 327.463C70.877 329.871 73.2852 332.244 76.625 332.771L75.7812 334.388C73.0918 333.879 70.8945 332.341 69.8398 330.258C68.7852 332.332 66.6055 333.896 63.9336 334.388L63.0898 332.771C66.4121 332.244 68.7852 329.853 68.8027 327.463V326.302H70.877V327.463ZM91.4961 325.336V341.226H89.5273V325.336H91.4961ZM86.75 327.023C86.75 331.752 84.9219 335.777 79.3496 338.414L78.3301 336.849C82.4873 334.872 84.4209 332.182 84.7637 328.57H79.1387V327.023H86.75ZM98.1934 326.039C100.25 326.021 101.867 327.208 102.271 328.957H105.137V325.336H107.088V333.861H105.137V330.539H102.289C101.894 332.323 100.259 333.527 98.1934 333.527C95.75 333.527 93.9922 331.963 93.9922 329.765C93.9922 327.603 95.75 326.021 98.1934 326.039ZM98.1934 327.674C96.8223 327.674 95.8555 328.482 95.8555 329.765C95.8555 331.031 96.8223 331.875 98.1934 331.875C99.5293 331.875 100.479 331.031 100.496 329.765C100.479 328.482 99.5293 327.674 98.1934 327.674ZM98.5449 334.599V336.287H105.137V334.599H107.088V341.033H96.6113V334.599H98.5449ZM98.5449 339.451H105.137V337.799H98.5449V339.451ZM121.871 325.336V329.906H124.086V331.541H121.871V336.797H119.885V325.336H121.871ZM117.547 326.549C117.547 330.767 114.805 333.773 110.094 335.144L109.285 333.597C112.915 332.551 115.077 330.574 115.42 328.148H109.953V326.549H117.547ZM122.469 339.328V340.91H111.658V335.619H113.645V339.328H122.469ZM143.861 327.463V329.062H141.699V330.873H143.861V332.49H141.699V334.67H139.748V325.336H141.699V327.463H143.861ZM133.631 326.25C136.074 326.232 137.902 327.797 137.92 330.047C137.902 332.279 136.074 333.843 133.631 333.861C131.17 333.843 129.324 332.279 129.342 330.047C129.324 327.797 131.17 326.232 133.631 326.25ZM133.631 327.884C132.26 327.884 131.24 328.746 131.258 330.047C131.24 331.365 132.26 332.191 133.631 332.209C134.984 332.191 136.004 331.365 136.004 330.047C136.004 328.746 134.984 327.884 133.631 327.884ZM136.531 335.039C139.783 335.039 141.84 336.199 141.857 338.133C141.84 340.066 139.783 341.209 136.531 341.209C133.244 341.209 131.152 340.066 131.152 338.133C131.152 336.199 133.244 335.039 136.531 335.039ZM136.531 336.603C134.352 336.603 133.104 337.131 133.104 338.133C133.104 339.134 134.352 339.644 136.531 339.644C138.711 339.644 139.924 339.134 139.924 338.133C139.924 337.131 138.711 336.603 136.531 336.603ZM157.467 326.056V327.181C157.467 328.35 157.467 329.862 157.133 331.875H159.242V333.457H144.723V331.875H155.164C155.472 330.073 155.507 328.719 155.516 327.621H146.516V326.056H157.467ZM157.537 335.478V341.244H155.586V337.025H146.252V335.478H157.537ZM172.848 325.336V331.892H175.08V333.527H172.848V341.226H170.879V325.336H172.848ZM160.086 336.814C161.29 336.814 162.688 336.814 164.146 336.779V335.285C162.415 334.995 161.281 333.905 161.299 332.42C161.281 330.627 162.863 329.431 165.148 329.431C167.398 329.431 168.998 330.627 169.016 332.42C168.998 333.914 167.847 335.004 166.115 335.285V336.709C167.451 336.638 168.787 336.533 170.035 336.357L170.158 337.781C166.748 338.396 163.074 338.431 160.367 338.431L160.086 336.814ZM169.859 327.164V328.711H160.385V327.164H164.146V325.406H166.115V327.164H169.859ZM165.148 330.925C163.936 330.943 163.145 331.488 163.145 332.42C163.145 333.334 163.936 333.879 165.148 333.861C166.344 333.879 167.135 333.334 167.135 332.42C167.135 331.488 166.344 330.943 165.148 330.925ZM42.4971 348.867V350.431H34.71V348.867H37.6631V346.793H39.5967V348.867H42.4971ZM38.6299 351.275C40.6514 351.275 42.0928 352.804 42.0928 354.966C42.0928 357.164 40.6514 358.711 38.6299 358.711C36.626 358.711 35.1494 357.164 35.167 354.966C35.1494 352.804 36.626 351.275 38.6299 351.275ZM38.6299 352.892C37.5928 352.892 36.8721 353.718 36.8896 354.966C36.8721 356.25 37.5928 357.058 38.6299 357.041C39.6494 357.058 40.3701 356.25 40.3701 354.966C40.3701 353.718 39.6494 352.892 38.6299 352.892ZM48.4033 346.336V362.226H46.54V354.457H44.9932V361.506H43.165V346.67H44.9932V352.875H46.54V346.336H48.4033ZM64.8213 358.675V360.258H50.3018V358.675H56.5244V355.002H58.458V358.675H64.8213ZM58.5107 348.463C58.5107 350.871 60.9189 353.244 64.2588 353.771L63.415 355.388C60.7256 354.879 58.5283 353.341 57.4736 351.258C56.4189 353.332 54.2393 354.896 51.5674 355.388L50.7236 353.771C54.0459 353.244 56.4189 350.853 56.4365 348.463V347.302H58.5107V348.463ZM71.0088 347.443C73.5225 347.425 75.3682 349.025 75.3857 351.275C75.3682 353.543 73.5225 355.125 71.0088 355.125C68.5127 355.125 66.6494 353.543 66.6494 351.275C66.6494 349.025 68.5127 347.425 71.0088 347.443ZM71.0088 349.131C69.6201 349.131 68.583 349.957 68.583 351.275C68.583 352.611 69.6201 353.42 71.0088 353.42C72.415 353.42 73.4697 352.611 73.4697 351.275C73.4697 349.957 72.415 349.131 71.0088 349.131ZM79.0947 346.336V362.244H77.1436V346.336H79.0947ZM65.9287 357.322C68.7939 357.322 72.7666 357.287 76.1943 356.795L76.3525 358.218C72.7842 358.904 68.9697 358.922 66.1748 358.922L65.9287 357.322ZM91.3643 350.15C91.3467 352.98 92.7705 355.863 95.2314 357.041L94.0361 358.605C92.3135 357.735 91.0742 356.056 90.3975 354.035C89.7031 356.197 88.4023 357.99 86.583 358.904L85.3877 357.34C87.9365 356.127 89.3955 353.086 89.4131 350.15V347.619H91.3643V350.15ZM98.1318 346.336V352.558H100.575V354.228H98.1318V362.226H96.1807V346.336H98.1318ZM114.479 346.336V362.226H112.528V346.336H114.479ZM101.313 357.814C102.579 357.805 104.012 357.805 105.515 357.761V356.302C103.722 356.021 102.562 354.923 102.562 353.42C102.562 351.627 104.144 350.431 106.464 350.431C108.802 350.431 110.419 351.627 110.419 353.42C110.419 354.914 109.25 356.004 107.466 356.285V357.691C108.863 357.63 110.27 357.515 111.597 357.34L111.737 358.799C108.239 359.396 104.46 359.431 101.595 359.431L101.313 357.814ZM111.315 348.164V349.711H101.647V348.164H105.515V346.388H107.466V348.164H111.315ZM106.464 351.925C105.269 351.943 104.407 352.488 104.425 353.42C104.407 354.334 105.269 354.879 106.464 354.861C107.712 354.879 108.538 354.334 108.538 353.42C108.538 352.488 107.712 351.943 106.464 351.925ZM122.636 349.06C122.636 350.994 123.919 352.945 126.38 353.771L125.396 355.283C123.62 354.703 122.363 353.499 121.669 352.013C120.975 353.674 119.647 355.01 117.767 355.634L116.765 354.088C119.296 353.261 120.649 351.152 120.649 349.078V348.867H117.345V347.302H125.923V348.867H122.636V349.06ZM130.106 356.566V362.226H128.155V358.131H119.278V356.566H130.106ZM130.106 346.336V355.81H128.155V351.873H125.448V350.273H128.155V346.336H130.106ZM143.782 356.267C147.228 356.285 149.407 357.375 149.425 359.256C149.407 361.101 147.228 362.209 143.782 362.209C140.354 362.209 138.157 361.101 138.157 359.256C138.157 357.375 140.354 356.285 143.782 356.267ZM143.782 357.744C141.497 357.744 140.108 358.289 140.126 359.256C140.108 360.187 141.497 360.697 143.782 360.697C146.085 360.697 147.474 360.187 147.491 359.256C147.474 358.289 146.085 357.744 143.782 357.744ZM149.319 347.091V348.41C149.319 349.658 149.319 350.994 148.88 352.629L146.946 352.453C147.342 350.906 147.368 349.79 147.368 348.638H138.315V347.091H149.319ZM151.077 353.543V355.125H136.663V353.543H142.253V350.66H144.187V353.543H151.077ZM165.491 346.353V358.324H163.54V353.314H161.202V351.732H163.54V346.353H165.491ZM161.536 348.111V349.675H152.22V348.111H155.911V346.336H157.845V348.111H161.536ZM156.878 350.326C159.058 350.326 160.64 351.574 160.657 353.367C160.64 355.142 159.058 356.373 156.878 356.373C154.681 356.373 153.116 355.142 153.116 353.367C153.116 351.574 154.681 350.326 156.878 350.326ZM156.878 351.838C155.753 351.838 154.979 352.435 154.979 353.367C154.979 354.316 155.753 354.879 156.878 354.861C157.985 354.879 158.776 354.316 158.776 353.367C158.776 352.435 157.985 351.838 156.878 351.838ZM165.843 360.328V361.91H155.015V357.287H157.001V360.328H165.843Z" fill="white"/>
</svg>
