<svg width="740" height="247" viewBox="0 0 740 247" fill="none" xmlns="http://www.w3.org/2000/svg">
<path opacity="0.75" fill-rule="evenodd" clip-rule="evenodd" d="M493.56 33.3435C472.94 33.3435 453.501 28.2834 436.419 19.3371C417.293 7.14825 394.583 0.0859379 370.222 0.0859379C345.862 0.0859379 323.151 7.14818 304.026 19.337C286.944 28.2833 267.505 33.3435 246.885 33.3435C226.265 33.3435 206.826 28.2831 189.743 19.3365C170.618 7.14808 147.908 0.0860291 123.548 0.0860291C55.4304 0.0860291 0.210499 55.3059 0.210449 123.423V123.423C0.210449 191.541 55.4304 246.761 123.548 246.761C147.474 246.761 169.809 239.948 188.718 228.156H188.987C206.251 218.961 225.959 213.75 246.885 213.75C267.81 213.75 287.519 218.961 304.783 228.156H305.052C323.961 239.948 346.296 246.76 370.222 246.76C394.148 246.76 416.483 239.948 435.393 228.156H435.661C452.926 218.961 472.634 213.75 493.56 213.75C514.061 213.75 533.394 218.752 550.406 227.602C569.501 239.734 592.158 246.76 616.456 246.76C684.435 246.76 739.568 191.765 739.793 123.839C739.793 123.701 739.793 123.562 739.793 123.423C739.793 123.284 739.793 123.146 739.793 123.007C739.568 55.0812 684.435 0.0859379 616.456 0.0859379C591.393 0.0859379 568.075 7.56182 548.612 20.4053C532.041 28.6851 513.344 33.3435 493.56 33.3435Z" fill="#EFF9FF"/>
<circle cx="127.002" cy="123.423" r="100" fill="#A1D0F9"/>
<circle opacity="0.3" cx="127.002" cy="123.423" r="94" fill="#EBF5FE"/>
<path d="M91.1074 117.454V119.054H76.5879V117.454H82.8457V113.992H78.1875V106.327H89.4375V113.992H84.7793V117.454H91.1074ZM80.1035 107.892V112.462H87.5039V107.892H80.1035ZM106.646 113.007V114.572H92.1445V113.007H106.646ZM105.029 109.984V111.566H93.9199V105.73H104.889V107.277H95.8711V109.984H105.029ZM105.135 119.072V120.654H93.9375V115.96H95.8535V119.072H105.135ZM126.475 114.572V116.171H120.164V120.988H118.23V116.171H111.955V114.572H126.475ZM124.91 111.706V113.253H113.818V105.783H124.734V107.329H115.752V108.736H124.383V110.247H115.752V111.706H124.91ZM133.225 109.615C133.225 112.076 134.684 114.87 137.197 116.031L136.107 117.577C134.314 116.734 132.987 115.029 132.275 113.042C131.555 115.222 130.166 117.085 128.338 117.964L127.195 116.435C129.727 115.24 131.256 112.251 131.273 109.615V108.279H127.811V106.661H136.547V108.279H133.225V109.615ZM139.975 105.097V111.285H142.418V112.919H139.975V120.988H138.023V105.097H139.975ZM160.576 105.097V121.005H158.607V105.097H160.576ZM152.016 106.257C154.406 106.257 156.146 108.437 156.164 111.865C156.146 115.327 154.406 117.49 152.016 117.49C149.607 117.49 147.867 115.327 147.867 111.865C147.867 108.437 149.607 106.257 152.016 106.257ZM152.016 108.015C150.662 108.015 149.748 109.439 149.748 111.865C149.748 114.308 150.662 115.732 152.016 115.732C153.352 115.732 154.266 114.308 154.266 111.865C154.266 109.439 153.352 108.015 152.016 108.015ZM170.666 107.628V109.193H162.879V107.628H165.832V105.554H167.766V107.628H170.666ZM166.799 110.036C168.82 110.036 170.262 111.566 170.262 113.728C170.262 115.925 168.82 117.472 166.799 117.472C164.795 117.472 163.318 115.925 163.336 113.728C163.318 111.566 164.795 110.036 166.799 110.036ZM166.799 111.654C165.762 111.654 165.041 112.48 165.059 113.728C165.041 115.011 165.762 115.82 166.799 115.802C167.818 115.82 168.539 115.011 168.539 113.728C168.539 112.48 167.818 111.654 166.799 111.654ZM176.572 105.097V120.988H174.709V113.218H173.162V120.267H171.334V105.431H173.162V111.636H174.709V105.097H176.572ZM73.582 126.097V129.999H75.7793V131.599H73.582V135.378H71.6133V126.097H73.582ZM68.3965 135.677C71.6484 135.677 73.7051 136.837 73.7227 138.806C73.7051 140.81 71.6484 141.97 68.3965 141.97C65.1094 141.97 63.0176 140.81 63.0176 138.806C63.0176 136.837 65.1094 135.677 68.3965 135.677ZM68.3965 137.242C66.2168 137.242 64.9336 137.786 64.9512 138.806C64.9336 139.843 66.2168 140.406 68.3965 140.406C70.541 140.406 71.8242 139.843 71.8242 138.806C71.8242 137.786 70.541 137.242 68.3965 137.242ZM68.7656 127.222V128.804H63.5801V132.794C66.6211 132.785 68.3174 132.698 70.1895 132.302L70.3828 133.867C68.3262 134.306 66.4453 134.376 62.9297 134.376H61.6465V127.222H68.7656ZM82.2656 129.911C82.248 132.742 83.6719 135.624 86.1328 136.802L84.9375 138.367C83.2148 137.496 81.9756 135.818 81.2988 133.796C80.6045 135.958 79.3037 137.751 77.4844 138.665L76.2891 137.101C78.8379 135.888 80.2969 132.847 80.3145 129.911V127.38H82.2656V129.911ZM89.0332 126.097V132.32H91.4766V133.99H89.0332V141.988H87.082V126.097H89.0332ZM97.8398 130.615C97.8398 133.076 99.2988 135.87 101.812 137.031L100.723 138.577C98.9297 137.734 97.6025 136.029 96.8906 134.042C96.1699 136.222 94.7812 138.085 92.9531 138.964L91.8105 137.435C94.3418 136.24 95.8711 133.251 95.8887 130.615V129.279H92.4258V127.661H101.162V129.279H97.8398V130.615ZM104.59 126.097V132.285H107.033V133.919H104.59V141.988H102.639V126.097H104.59ZM120.041 127.468V134.974H112.518V127.468H120.041ZM114.434 129.033V133.427H118.125V129.033H114.434ZM124.506 126.097V130.755H126.721V132.39H124.506V137.699H122.555V126.097H124.506ZM125.139 140.089V141.671H114.328V136.574H116.279V140.089H125.139ZM140.713 126.712V128.259H136.125C136.362 129.613 138.313 130.852 141.328 131.16L140.607 132.689C137.751 132.381 135.615 131.23 134.754 129.613C133.893 131.23 131.783 132.381 128.918 132.689L128.232 131.16C131.212 130.852 133.137 129.604 133.4 128.259H128.848V126.712H140.713ZM142.014 133.919V135.484H127.529V133.919H133.787V131.722H135.721V133.919H142.014ZM140.238 136.767V141.988H138.287V138.331H129.129V136.767H140.238ZM153.615 134.605V137.171C154.995 137.101 156.384 136.978 157.693 136.785L157.852 138.226C154.283 138.876 150.469 138.911 147.674 138.911L147.428 137.329C148.667 137.321 150.126 137.312 151.664 137.259V134.605H153.615ZM157.043 128.048V129.63H153.65C153.738 131.327 155.083 132.856 157.482 133.462L156.586 134.992C154.705 134.482 153.36 133.383 152.648 131.968C151.945 133.462 150.618 134.605 148.729 135.115L147.797 133.638C150.196 132.979 151.515 131.414 151.629 129.63H148.271V128.048H151.664V126.238H153.615V128.048H157.043ZM160.594 126.097V142.005H158.643V126.097H160.594ZM177.416 135.044V136.661H171.088V141.988H169.154V136.661H162.896V135.044H177.416ZM170.121 126.66C173.496 126.677 175.852 128.048 175.852 130.228C175.852 132.39 173.496 133.743 170.121 133.743C166.729 133.743 164.408 132.39 164.426 130.228C164.408 128.048 166.729 126.677 170.121 126.66ZM170.121 128.242C167.871 128.242 166.412 128.98 166.43 130.228C166.412 131.458 167.871 132.197 170.121 132.197C172.371 132.197 173.83 131.458 173.83 130.228C173.83 128.98 172.371 128.242 170.121 128.242ZM184.254 128.91C184.254 131.019 185.52 133.076 187.98 133.919L186.908 135.449C185.194 134.798 183.964 133.559 183.305 132.003C182.61 133.743 181.318 135.123 179.455 135.818L178.418 134.271C180.967 133.41 182.268 131.212 182.285 128.892V127.081H184.254V128.91ZM191.777 126.115V137.91H189.826V131.212H186.662V129.613H189.826V126.115H191.777ZM192.129 140.089V141.671H181.301V136.626H183.287V140.089H192.129Z" fill="#111111"/>
<circle cx="369.912" cy="123.423" r="97" fill="#FCFEFF" stroke="#3399F3" stroke-width="6"/>
<path d="M308.371 114.572V116.171H302.061V120.988H300.127V116.171H293.852V114.572H308.371ZM306.807 111.706V113.253H295.715V105.783H306.631V107.329H297.648V108.736H306.279V110.247H297.648V111.706H306.807ZM315.121 109.615C315.121 112.076 316.58 114.87 319.094 116.031L318.004 117.577C316.211 116.734 314.884 115.029 314.172 113.042C313.451 115.222 312.062 117.085 310.234 117.964L309.092 116.435C311.623 115.24 313.152 112.251 313.17 109.615V108.279H309.707V106.661H318.443V108.279H315.121V109.615ZM321.871 105.097V111.285H324.314V112.919H321.871V120.988H319.92V105.097H321.871ZM330.678 109.615C330.678 112.076 332.137 114.87 334.65 116.031L333.561 117.577C331.768 116.734 330.44 115.029 329.729 113.042C329.008 115.222 327.619 117.085 325.791 117.964L324.648 116.435C327.18 115.24 328.709 112.251 328.727 109.615V108.279H325.264V106.661H334V108.279H330.678V109.615ZM337.428 105.097V111.285H339.871V112.919H337.428V120.988H335.477V105.097H337.428ZM350.629 107.382C350.611 109.544 351.877 111.513 354.373 112.304L353.318 113.833C351.587 113.227 350.374 112.076 349.697 110.564C348.994 112.295 347.667 113.658 345.742 114.326L344.705 112.743C347.342 111.882 348.66 109.755 348.66 107.47V105.958H350.629V107.382ZM358.117 105.097V114.449H356.166V109.773H353.002V108.173H356.166V105.097H358.117ZM352.738 114.87C356.113 114.87 358.17 115.995 358.17 117.929C358.17 119.863 356.113 120.97 352.738 120.97C349.381 120.97 347.324 119.863 347.342 117.929C347.324 115.995 349.381 114.87 352.738 114.87ZM352.738 116.382C350.523 116.382 349.275 116.927 349.275 117.929C349.275 118.896 350.523 119.441 352.738 119.441C354.953 119.441 356.219 118.896 356.219 117.929C356.219 116.927 354.953 116.382 352.738 116.382ZM375.062 107.576V109.175H372.9V110.986H375.062V112.585H372.9V115.24H370.949V105.097H372.9V107.576H375.062ZM367.768 115.38C371.02 115.38 373.076 116.417 373.076 118.175C373.076 119.915 371.02 120.97 367.768 120.97C364.463 120.97 362.441 119.915 362.459 118.175C362.441 116.417 364.463 115.38 367.768 115.38ZM367.768 116.874C365.588 116.874 364.375 117.296 364.393 118.175C364.375 119.019 365.588 119.493 367.768 119.493C369.912 119.493 371.125 119.019 371.125 118.175C371.125 117.296 369.912 116.874 367.768 116.874ZM369.807 106.714V108.243H360.385V106.714H364.129V104.992H366.08V106.714H369.807ZM365.096 108.876C367.398 108.876 368.963 110.019 368.98 111.724C368.963 113.429 367.398 114.554 365.096 114.554C362.775 114.554 361.193 113.429 361.193 111.724C361.193 110.019 362.775 108.876 365.096 108.876ZM365.096 110.318C363.883 110.318 363.092 110.845 363.092 111.724C363.092 112.585 363.883 113.077 365.096 113.077C366.309 113.077 367.117 112.585 367.117 111.724C367.117 110.845 366.309 110.318 365.096 110.318ZM379.018 118.175L377.541 123.097H375.871L376.785 118.175H379.018ZM399.285 114.572V116.171H392.975V120.988H391.041V116.171H384.766V114.572H399.285ZM397.721 111.706V113.253H386.629V105.783H397.545V107.329H388.562V108.736H397.193V110.247H388.562V111.706H397.721ZM406.035 109.615C406.035 112.076 407.494 114.87 410.008 116.031L408.918 117.577C407.125 116.734 405.798 115.029 405.086 113.042C404.365 115.222 402.977 117.085 401.148 117.964L400.006 116.435C402.537 115.24 404.066 112.251 404.084 109.615V108.279H400.621V106.661H409.357V108.279H406.035V109.615ZM412.785 105.097V111.285H415.229V112.919H412.785V120.988H410.834V105.097H412.785ZM429.572 105.097V120.988H427.709V112.884H425.916V120.179H424.123V105.396H425.916V111.32H427.709V105.097H429.572ZM422.33 106.978V108.56H418.357V115.626C420.089 115.609 421.513 115.521 423.121 115.222L423.262 116.822C421.346 117.208 419.676 117.261 417.461 117.279H416.389V106.978H422.33ZM437.078 107.628C437.078 109.632 438.379 111.513 440.822 112.286L439.768 113.816C438.054 113.236 436.823 112.076 436.146 110.599C435.443 112.286 434.16 113.614 432.332 114.255L431.277 112.726C433.844 111.829 435.109 109.72 435.127 107.452V105.941H437.078V107.628ZM443.986 105.097V108.964H446.201V110.581H443.986V114.607H442.035V105.097H443.986ZM438.818 114.958C442.105 114.941 444.127 116.066 444.145 117.947C444.127 119.863 442.105 120.97 438.818 120.97C435.496 120.97 433.439 119.863 433.439 117.947C433.439 116.066 435.496 114.941 438.818 114.958ZM438.818 116.488C436.639 116.488 435.391 117.015 435.391 117.947C435.391 118.931 436.639 119.423 438.818 119.423C440.998 119.423 442.211 118.931 442.211 117.947C442.211 117.015 440.998 116.488 438.818 116.488ZM310.278 127.081V133.691H302.614V127.081H310.278ZM304.548 128.628V132.161H308.345V128.628H304.548ZM315.007 126.097V135.15H313.073V126.097H315.007ZM315.341 136.081V137.558H310.806C310.99 138.788 312.897 140.142 315.938 140.441L315.271 141.935C312.695 141.671 310.744 140.652 309.786 139.333C308.793 140.669 306.824 141.654 304.231 141.935L303.563 140.441C306.604 140.177 308.556 138.824 308.731 137.558H304.214V136.081H308.784V134.693H310.753V136.081H315.341ZM336.136 135.572V137.171H329.825V141.988H327.892V137.171H321.616V135.572H336.136ZM334.571 132.706V134.253H323.479V126.783H334.396V128.329H325.413V129.736H334.044V131.247H325.413V132.706H334.571ZM342.886 130.615C342.886 133.076 344.345 135.87 346.858 137.031L345.769 138.577C343.976 137.734 342.648 136.029 341.937 134.042C341.216 136.222 339.827 138.085 337.999 138.964L336.856 137.435C339.388 136.24 340.917 133.251 340.935 130.615V129.279H337.472V127.661H346.208V129.279H342.886V130.615ZM349.636 126.097V132.285H352.079V133.919H349.636V141.988H347.685V126.097H349.636ZM369.552 126.097V130.562H371.784V132.179H369.552V137.593H367.601V126.097H369.552ZM364.806 127.415V128.98H359.62V133.304C362.608 133.313 364.27 133.207 366.159 132.812L366.37 134.394C364.296 134.798 362.433 134.904 358.97 134.904H357.687V127.415H364.806ZM370.185 140.089V141.671H359.374V136.38H361.325V140.089H370.185ZM386.286 126.097V141.988H384.423V126.097H386.286ZM382.999 126.484V141.232H381.136V135.923H378.657V134.324H381.136V131.968H378.938C378.191 134.605 376.53 136.872 373.56 138.63L372.417 137.242C375.713 135.299 377.225 132.812 377.515 129.613H373.261V128.031H379.448C379.448 128.83 379.396 129.613 379.29 130.368H381.136V126.484H382.999ZM397.993 131.142C397.993 133.497 399.329 136.064 401.772 137.224L400.683 138.701C398.969 137.901 397.721 136.327 397.062 134.464C396.358 136.468 395.049 138.164 393.229 138.982L392.157 137.47C394.653 136.345 396.06 133.638 396.06 131.142V130.316H392.667V128.751H396.06V126.431H398.011V128.751H401.351V130.316H397.993V131.142ZM404.849 126.097V132.39H407.292V134.025H404.849V141.988H402.897V126.097H404.849ZM421.267 126.097V134.306H419.315V132.583H416.116V133.796H408.681V126.8H410.632V128.804H414.183V126.8H416.116V128.206H419.315V126.097H421.267ZM421.267 134.956V139.035H412.759V140.247H421.776V141.794H410.808V137.593H419.315V136.486H410.79V134.956H421.267ZM410.632 132.249H414.183V130.298H410.632V132.249ZM416.116 131.089H419.315V129.683H416.116V131.089ZM436.085 126.097V132.654H438.317V134.288H436.085V141.988H434.116V126.097H436.085ZM423.323 137.576C424.527 137.576 425.925 137.576 427.384 137.54V136.046C425.652 135.756 424.519 134.666 424.536 133.181C424.519 131.388 426.101 130.193 428.386 130.193C430.636 130.193 432.235 131.388 432.253 133.181C432.235 134.675 431.084 135.765 429.353 136.046V137.47C430.688 137.4 432.024 137.294 433.272 137.118L433.396 138.542C429.985 139.158 426.312 139.193 423.604 139.193L423.323 137.576ZM433.097 127.925V129.472H423.622V127.925H427.384V126.167H429.353V127.925H433.097ZM428.386 131.687C427.173 131.704 426.382 132.249 426.382 133.181C426.382 134.095 427.173 134.64 428.386 134.622C429.581 134.64 430.372 134.095 430.372 133.181C430.372 132.249 429.581 131.704 428.386 131.687Z" fill="#111111"/>
<circle cx="612.822" cy="123.423" r="100" fill="#3D6493"/>
<circle opacity="0.2" cx="612.822" cy="123.423" r="94" fill="#1A2A3E"/>
<path d="M570.257 91.2435C570.257 92.7552 571.663 94.2318 574.159 94.7591L573.298 96.2357C571.417 95.8226 570.046 94.8646 569.308 93.599C568.596 94.9964 567.216 96.0511 565.282 96.5169L564.438 95.0228C566.935 94.4251 568.306 92.8783 568.306 91.2435V91.0853H564.983V89.5208H568.306V88.0267H570.274V89.5208H573.579V91.0853H570.257V91.2435ZM577.851 88.097V96.3763H575.899V93.4583H573.14V91.8939H575.899V88.097H577.851ZM577.851 97.0091V101.105H569.343V102.335H578.36V103.847H567.392V99.6634H575.899V98.5208H567.374V97.0091H577.851ZM593.425 88.097V104.005H591.474V95.3216H588.415V93.722H591.474V88.097H593.425ZM585.937 92.3158C585.937 95.058 587.413 97.9759 589.979 99.0833L588.819 100.648C586.974 99.7689 585.655 98.0023 584.97 95.9017C584.258 98.1429 582.913 100.033 581.067 100.964L579.89 99.4349C582.438 98.2396 583.933 95.2162 583.95 92.3158V91.2611H580.54V89.6615H589.347V91.2611H585.937V92.3158ZM608.19 88.1146V93.1068H610.405V94.724H608.19V99.9798H606.239V88.1146H608.19ZM605.097 89.8724V91.4369H595.675V89.8724H599.419V88.097H601.37V89.8724H605.097ZM600.386 92.0872C602.671 92.0872 604.253 93.3001 604.271 95.1283C604.253 96.9388 602.671 98.1341 600.386 98.1341C598.083 98.1341 596.483 96.9388 596.483 95.1283C596.483 93.3001 598.083 92.0872 600.386 92.0872ZM600.386 93.599C599.173 93.599 598.382 94.1615 598.382 95.1283C598.382 96.0775 599.173 96.64 600.386 96.6224C601.599 96.64 602.407 96.0775 602.407 95.1283C602.407 94.1615 601.599 93.599 600.386 93.599ZM608.823 102.089V103.671H598.013V99.0482H599.964V102.089H608.823ZM628.722 88.097V104.005H626.788V88.097H628.722ZM623.835 89.4857V95.4447H618.368V98.6439C620.873 98.6263 623.035 98.5033 625.505 98.0814L625.681 99.681C622.974 100.156 620.601 100.243 617.753 100.243H616.364V93.8978H621.849V91.0677H616.347V89.4857H623.835ZM639.251 90.2767C639.251 92.7376 641.659 95.1986 644.981 95.7787L644.103 97.4134C641.439 96.8509 639.26 95.2425 638.231 93.1068C637.177 95.2249 634.997 96.8421 632.343 97.4134L631.481 95.7787C634.769 95.181 637.159 92.7201 637.177 90.2767V89.099H639.251V90.2767ZM645.562 100.349V101.966H631.042V100.349H645.562ZM659.483 89.5736V91.472C659.483 93.7747 659.483 95.972 658.78 99.3294L656.829 99.1537C657.154 97.765 657.339 96.5433 657.444 95.4095L648.075 95.9017L647.812 94.3197L657.532 93.9505C657.567 93.098 657.567 92.2806 657.567 91.472V91.1556H648.286V89.5736H659.483ZM661.083 100.367V101.966H646.599V100.367H661.083ZM581.199 110.275V111.224C581.182 112.314 581.182 113.878 580.812 115.9L578.879 115.724C579.187 114.08 579.248 112.868 579.283 111.892H573.096V110.275H581.199ZM577.191 113.896V117.06C578.835 116.998 580.522 116.875 582.061 116.656L582.166 118.062C578.861 118.66 575.117 118.712 572.322 118.73L572.146 117.165C573.087 117.157 574.142 117.148 575.258 117.13V113.896H577.191ZM584.996 109.097V114.054H587.053V115.689H584.996V120.997H582.992V109.097H584.996ZM585.506 123.089V124.671H574.52V119.943H576.488V123.089H585.506ZM601.115 109.097V125.005H599.182V109.097H601.115ZM596.229 110.486V116.445H590.762V119.644C593.267 119.626 595.429 119.503 597.898 119.081L598.074 120.681C595.367 121.156 592.994 121.243 590.146 121.243H588.758V114.898H594.242V112.068H588.74V110.486H596.229ZM617.146 109.097V124.988H615.266V109.097H617.146ZM613.877 109.378V124.214H612.014V116.656H610.502C610.317 119.749 608.99 121.665 607.021 121.648C604.947 121.665 603.594 119.468 603.594 115.97C603.594 112.472 604.947 110.31 607.021 110.31C608.946 110.31 610.256 112.103 610.484 115.074H612.014V109.378H613.877ZM607.021 112.156C606.02 112.138 605.387 113.492 605.404 115.97C605.387 118.449 606.02 119.802 607.021 119.785C608.076 119.802 608.709 118.449 608.709 115.97C608.709 113.492 608.076 112.138 607.021 112.156ZM628.414 110.204C630.928 110.187 632.773 111.786 632.791 114.036C632.773 116.304 630.928 117.886 628.414 117.886C625.918 117.886 624.055 116.304 624.055 114.036C624.055 111.786 625.918 110.187 628.414 110.204ZM628.414 111.892C627.025 111.892 625.988 112.718 625.988 114.036C625.988 115.372 627.025 116.181 628.414 116.181C629.82 116.181 630.875 115.372 630.875 114.036C630.875 112.718 629.82 111.892 628.414 111.892ZM636.5 109.097V125.005H634.549V109.097H636.5ZM623.334 120.083C626.199 120.083 630.172 120.048 633.6 119.556L633.758 120.98C630.189 121.665 626.375 121.683 623.58 121.683L623.334 120.083ZM651.354 109.115V114.107H653.568V115.724H651.354V120.98H649.402V109.115H651.354ZM648.26 110.872V112.437H638.838V110.872H642.582V109.097H644.533V110.872H648.26ZM643.549 113.087C645.834 113.087 647.416 114.3 647.434 116.128C647.416 117.939 645.834 119.134 643.549 119.134C641.246 119.134 639.646 117.939 639.646 116.128C639.646 114.3 641.246 113.087 643.549 113.087ZM643.549 114.599C642.336 114.599 641.545 115.161 641.545 116.128C641.545 117.077 642.336 117.64 643.549 117.622C644.762 117.64 645.57 117.077 645.57 116.128C645.57 115.161 644.762 114.599 643.549 114.599ZM651.986 123.089V124.671H641.176V120.048H643.127V123.089H651.986ZM586.824 139.572V141.171H580.514V145.988H578.58V141.171H572.305V139.572H586.824ZM585.26 136.706V138.253H574.168V130.783H585.084V132.329H576.102V133.736H584.732V135.247H576.102V136.706H585.26ZM593.574 134.615C593.574 137.076 595.033 139.87 597.547 141.031L596.457 142.577C594.664 141.734 593.337 140.029 592.625 138.042C591.904 140.222 590.516 142.085 588.688 142.964L587.545 141.435C590.076 140.24 591.605 137.251 591.623 134.615V133.279H588.16V131.661H596.896V133.279H593.574V134.615ZM600.324 130.097V136.285H602.768V137.919H600.324V145.988H598.373V130.097H600.324ZM609.131 134.615C609.131 137.076 610.59 139.87 613.104 141.031L612.014 142.577C610.221 141.734 608.894 140.029 608.182 138.042C607.461 140.222 606.072 142.085 604.244 142.964L603.102 141.435C605.633 140.24 607.162 137.251 607.18 134.615V133.279H603.717V131.661H612.453V133.279H609.131V134.615ZM615.881 130.097V136.285H618.324V137.919H615.881V145.988H613.93V130.097H615.881ZM631.543 131.415C631.543 133.419 633.775 135.441 637.168 135.88L636.395 137.462C633.696 137.058 631.552 135.731 630.523 133.929C629.478 135.731 627.342 137.058 624.67 137.462L623.896 135.88C627.254 135.441 629.486 133.419 629.486 131.415V130.607H631.543V131.415ZM637.748 138.833V140.451H631.438V145.988H629.504V140.451H623.264V138.833H637.748ZM652.057 140.24V145.988H650.088V141.822H641.211V140.24H652.057ZM652.057 130.097V139.466H650.088V130.097H652.057ZM643.391 131.011C645.834 130.993 647.662 132.593 647.662 134.826C647.662 137.093 645.834 138.675 643.391 138.675C640.93 138.675 639.102 137.093 639.102 134.826C639.102 132.593 640.93 130.993 643.391 131.011ZM643.391 132.663C642.002 132.681 641 133.507 641.018 134.826C641 136.179 642.002 137.023 643.391 137.005C644.762 137.023 645.746 136.179 645.746 134.826C645.746 133.507 644.762 132.681 643.391 132.663ZM602.759 151.818V152.943C602.759 154.112 602.759 155.623 602.425 157.636H604.534V159.218H590.015V157.636H600.456C600.764 155.834 600.799 154.481 600.808 153.382H591.808V151.818H602.759ZM602.829 161.24V167.005H600.878V162.786H591.544V161.24H602.829ZM619.247 151.097V166.988H617.384V158.884H615.591V166.179H613.798V151.396H615.591V157.32H617.384V151.097H619.247ZM612.005 152.978V154.56H608.032V161.626C609.764 161.609 611.188 161.521 612.796 161.222L612.937 162.822C611.021 163.208 609.351 163.261 607.136 163.279H606.063V152.978H612.005ZM633.696 151.097V157.654H635.929V159.288H633.696V166.988H631.728V151.097H633.696ZM620.935 162.576C622.139 162.576 623.536 162.576 624.995 162.54V161.046C623.264 160.756 622.13 159.666 622.147 158.181C622.13 156.388 623.712 155.193 625.997 155.193C628.247 155.193 629.847 156.388 629.864 158.181C629.847 159.675 628.695 160.765 626.964 161.046V162.47C628.3 162.4 629.636 162.294 630.884 162.118L631.007 163.542C627.597 164.158 623.923 164.193 621.216 164.193L620.935 162.576ZM630.708 152.925V154.472H621.233V152.925H624.995V151.167H626.964V152.925H630.708ZM625.997 156.687C624.784 156.704 623.993 157.249 623.993 158.181C623.993 159.095 624.784 159.64 625.997 159.622C627.192 159.64 627.983 159.095 627.983 158.181C627.983 157.249 627.192 156.704 625.997 156.687Z" fill="#FCFEFF"/>
<path fill-rule="evenodd" clip-rule="evenodd" d="M242.27 105.746L258.18 121.656C259.156 122.632 259.156 124.215 258.18 125.191L242.27 141.101C241.293 142.077 239.71 142.077 238.734 141.101C237.758 140.125 237.758 138.542 238.734 137.565L252.876 123.423L238.734 109.281C237.758 108.305 237.758 106.722 238.734 105.746C239.71 104.769 241.293 104.769 242.27 105.746Z" fill="#3399F3"/>
<path fill-rule="evenodd" clip-rule="evenodd" d="M485.18 105.746L501.09 121.656C502.066 122.632 502.066 124.215 501.09 125.191L485.18 141.101C484.204 142.077 482.621 142.077 481.644 141.101C480.668 140.125 480.668 138.542 481.644 137.565L495.786 123.423L481.644 109.281C480.668 108.305 480.668 106.722 481.644 105.746C482.621 104.769 484.204 104.769 485.18 105.746Z" fill="#3399F3"/>
</svg>
