<svg width="1143" height="260" viewBox="0 0 1143 260" fill="none" xmlns="http://www.w3.org/2000/svg">
<rect opacity="0.5" x="307.058" y="109.424" width="240" height="150" rx="10" fill="#ECF0F4"/>
<rect opacity="0.03" x="313.058" y="115.718" width="228" height="138" rx="10" fill="#1A2A3E"/>
<path d="M321.902 144.977C320.812 144.977 319.916 144.081 319.916 142.973C319.916 141.883 320.812 140.987 321.902 140.987C323.01 140.987 323.906 141.883 323.906 142.973C323.906 144.081 323.01 144.977 321.902 144.977ZM344.947 135.098V150.848H343.348V135.098H344.947ZM341.783 135.397V150.075H340.201V144.995H337.916C337.354 146.559 336.308 147.464 334.963 147.456C332.906 147.473 331.57 145.311 331.57 141.901C331.57 138.491 332.906 136.346 334.963 136.364C336.308 136.355 337.345 137.251 337.916 138.807H340.201V135.397H341.783ZM334.963 137.928C333.803 137.928 333.1 139.387 333.1 141.901C333.1 144.415 333.803 145.874 334.963 145.874C336.123 145.874 336.861 144.415 336.861 141.901C336.861 139.387 336.123 137.928 334.963 137.928ZM338.268 140.161C338.347 140.697 338.391 141.277 338.391 141.901C338.391 142.516 338.347 143.096 338.268 143.624H340.201V140.161H338.268ZM359.994 135.098V150.883H358.324V135.098H359.994ZM349.5 136.417V140.459H353.736V136.417H355.389V147.104H347.83V136.417H349.5ZM349.5 145.733H353.736V141.778H349.5V145.733ZM370.646 136.083C370.646 140.09 367.904 142.938 363.334 144.221L362.648 142.92C366.278 141.901 368.537 139.932 368.871 137.454H363.475V136.083H370.646ZM375.639 135.116V144.028H373.969V140.442H370.717V139.053H373.969V135.116H375.639ZM375.639 144.678V150.637H365.338V144.678H375.639ZM366.973 146.014V149.301H373.986V146.014H366.973ZM390.844 143.167V144.502H386.08V147.579H392.479V148.95H378.064V147.579H384.41V144.502H379.875V136.311H390.686V137.682H381.562V139.704H390.352V141.022H381.562V143.167H390.844ZM321.902 171.977C320.812 171.977 319.916 171.081 319.916 169.973C319.916 168.883 320.812 167.987 321.902 167.987C323.01 167.987 323.906 168.883 323.906 169.973C323.906 171.081 323.01 171.977 321.902 171.977ZM344.525 162.116V173.647H342.855V167.723H339.85V166.37H342.855V162.116H344.525ZM344.947 176.161V177.514H334.295V172.61H335.965V176.161H344.947ZM337.037 165.297C337.037 167.266 338.461 169.235 340.834 170.026L339.973 171.362C338.206 170.738 336.896 169.472 336.211 167.917C335.525 169.648 334.146 171.045 332.273 171.713L331.412 170.36C333.838 169.534 335.332 167.459 335.332 165.297V164.682H331.922V163.311H340.412V164.682H337.037V165.297ZM361.611 164.506V165.877H359.326V167.829H361.611V169.217H359.326V171.678H357.656V162.116H359.326V164.506H361.611ZM354.756 163.03V167.53H349.271V169.551C352.005 169.542 353.938 169.446 356.232 169.059L356.408 170.413C353.965 170.834 351.891 170.922 348.867 170.922H347.602V166.229H353.121V164.383H347.584V163.03H354.756ZM359.326 172.469V177.831H357.656V173.823H348.92V172.469H359.326ZM365.338 175.141L363.932 179.993H362.438L363.369 175.141H365.338ZM384.533 162.098V177.848H382.863V162.098H384.533ZM371.596 173.559C372.888 173.55 374.373 173.542 375.92 173.489V171.924C374.074 171.687 372.879 170.606 372.896 169.059C372.879 167.284 374.426 166.106 376.711 166.106C379.014 166.106 380.596 167.284 380.596 169.059C380.596 170.588 379.4 171.661 377.572 171.907V173.436C379.031 173.375 380.508 173.26 381.896 173.084L382.02 174.333C378.521 174.913 374.707 174.948 371.824 174.948L371.596 173.559ZM381.545 163.979V165.315H371.93V163.979H375.92V162.133H377.59V163.979H381.545ZM376.711 167.407C375.393 167.407 374.461 168.057 374.479 169.059C374.461 170.061 375.393 170.676 376.711 170.676C378.064 170.676 378.996 170.061 378.996 169.059C378.996 168.057 378.064 167.407 376.711 167.407ZM400.6 162.098V177.848H399.018V162.098H400.6ZM397.383 162.502V177.075H395.801V171.713H393.111V170.342H395.801V167.776H393.375C392.61 170.421 390.932 172.715 387.961 174.491L386.977 173.295C390.316 171.309 391.925 168.664 392.215 165.42H387.75V164.049H393.867C393.867 164.858 393.806 165.64 393.674 166.405H395.801V162.502H397.383ZM405.451 175.141L404.045 179.993H402.551L403.482 175.141H405.451ZM414.047 162.907V165.209H417.984V162.907H419.637V165.877H423.082V162.098H424.752V170.694H423.082V167.266H419.637V170.167H412.377V162.907H414.047ZM414.047 168.813H417.984V166.51H414.047V168.813ZM416.139 171.432V173.208H423.082V171.432H424.734V177.62H414.486V171.432H416.139ZM416.139 176.266H423.082V174.508H416.139V176.266ZM441.574 169.217V170.465H437.795V171.731H439.799V175.194H430.553V176.512H440.291V177.69H428.883V174.086H438.146V172.926H428.865V171.731H430.957V170.465H427.16V169.217H441.574ZM439.764 162.502V165.895H430.658V167.055H440.027V168.233H429.006V164.788H438.094V163.663H428.971V162.502H439.764ZM432.609 171.731H436.143V170.465H432.609V171.731ZM460.172 162.098V170.202H458.52V162.098H460.172ZM460.189 170.958V174.895H451.506V176.354H460.717V177.69H449.889V173.629H458.537V172.276H449.836V170.958H460.189ZM452.859 163.733C452.842 165.842 454.371 167.758 456.779 168.514L455.953 169.815C454.116 169.217 452.736 167.969 452.033 166.37C451.312 168.092 449.906 169.463 448.025 170.114L447.182 168.795C449.643 167.969 451.154 165.913 451.154 163.733V162.52H452.859V163.733ZM468.152 166.106C468.135 168.901 469.752 171.749 472.107 172.891L471.07 174.227C469.356 173.339 468.029 171.573 467.344 169.463C466.632 171.713 465.252 173.594 463.459 174.526L462.422 173.172C464.848 172.012 466.482 168.989 466.482 166.106V163.417H468.152V166.106ZM474.955 162.098V168.374H477.486V169.797H474.955V177.848H473.285V162.098H474.955ZM321.902 198.977C320.812 198.977 319.916 198.081 319.916 196.973C319.916 195.883 320.812 194.987 321.902 194.987C323.01 194.987 323.906 195.883 323.906 196.973C323.906 198.081 323.01 198.977 321.902 198.977ZM337.037 191.893C337.037 193.879 338.461 195.831 340.834 196.639L339.973 197.94C338.206 197.325 336.896 196.068 336.211 194.512C335.525 196.244 334.146 197.632 332.273 198.292L331.412 196.973C333.838 196.147 335.332 194.038 335.332 191.911V191.471H331.922V190.118H340.412V191.471H337.037V191.893ZM344.525 199.311V204.848H342.855V200.665H333.855V199.311H344.525ZM344.525 189.098V198.52H342.855V194.477H339.938V193.106H342.855V189.098H344.525ZM360.082 189.098V198.467H358.412V194.477H355.477V193.106H358.412V189.098H360.082ZM354.809 198.907C358.113 198.907 360.135 199.997 360.135 201.877C360.135 203.758 358.113 204.831 354.809 204.848C351.504 204.831 349.465 203.758 349.482 201.877C349.465 199.997 351.504 198.907 354.809 198.907ZM354.809 200.208C352.506 200.208 351.135 200.805 351.135 201.877C351.135 202.932 352.506 203.547 354.809 203.53C357.111 203.547 358.482 202.932 358.482 201.877C358.482 200.805 357.111 200.208 354.809 200.208ZM352.594 191.875C352.594 193.879 354.018 195.813 356.391 196.622L355.529 197.94C353.763 197.325 352.462 196.068 351.785 194.512C351.091 196.279 349.711 197.694 347.83 198.379L346.951 197.043C349.395 196.2 350.889 194.073 350.889 191.893V191.542H347.479V190.188H355.969V191.542H352.594V191.875ZM379.172 189.098V195.374H381.615V196.762H379.172V204.831H377.502V189.098H379.172ZM375.059 190.75C375.041 195.303 373.037 199.364 367.852 201.93L366.92 200.629C370.866 198.661 373.011 195.813 373.354 192.139H367.711V190.75H375.059ZM395.502 189.098V204.848H393.832V189.098H395.502ZM388.383 194.161C388.383 196.674 390.053 199.241 392.496 200.278L391.582 201.561C389.771 200.77 388.321 199.135 387.592 197.149C386.88 199.25 385.456 200.999 383.619 201.825L382.688 200.542C385.131 199.452 386.748 196.797 386.748 194.161V193.124H383.162V191.788H386.73V189.415H388.383V191.788H391.916V193.124H388.383V194.161ZM407.877 191.981C407.877 194.09 409.354 196.077 411.744 196.885L410.883 198.204C409.116 197.58 407.807 196.323 407.104 194.741C406.418 196.507 405.064 197.887 403.219 198.573L402.287 197.254C404.783 196.393 406.225 194.284 406.225 191.928V190.065H407.877V191.981ZM414.785 189.081V193.827H417.07V195.25H414.785V200.7H413.115V189.081H414.785ZM415.471 203.161V204.514H404.818V199.575H406.523V203.161H415.471ZM431.098 189.098V198.467H429.428V194.477H426.492V193.106H429.428V189.098H431.098ZM425.824 198.907C429.129 198.907 431.15 199.997 431.15 201.877C431.15 203.758 429.129 204.831 425.824 204.848C422.52 204.831 420.48 203.758 420.498 201.877C420.48 199.997 422.52 198.907 425.824 198.907ZM425.824 200.208C423.521 200.208 422.15 200.805 422.15 201.877C422.15 202.932 423.521 203.547 425.824 203.53C428.127 203.547 429.498 202.932 429.498 201.877C429.498 200.805 428.127 200.208 425.824 200.208ZM423.609 191.875C423.609 193.879 425.033 195.813 427.406 196.622L426.545 197.94C424.778 197.325 423.478 196.068 422.801 194.512C422.106 196.279 420.727 197.694 418.846 198.379L417.967 197.043C420.41 196.2 421.904 194.073 421.904 191.893V191.542H418.494V190.188H426.984V191.542H423.609V191.875ZM446.232 190.1V196.569H438.744V190.1H446.232ZM440.379 191.436V195.268H444.58V191.436H440.379ZM450.961 189.098V198.098H449.309V189.098H450.961ZM451.33 199.118V200.383H446.725C446.839 201.754 449.027 203.187 451.893 203.512L451.33 204.795C448.86 204.505 446.83 203.442 445.881 202.053C444.914 203.459 442.84 204.488 440.361 204.795L439.781 203.512C442.646 203.24 444.888 201.79 445.002 200.383H440.414V199.118H445.037V197.641H446.689V199.118H451.33ZM345.668 225.555V226.926H339.27V231.848H337.617V226.926H331.254V225.555H345.668ZM344.068 222.76V224.096H333.152V216.801H343.893V218.137H334.787V219.754H343.541V221.055H334.787V222.76H344.068ZM352.312 220.739C352.312 223.235 353.947 226.012 356.338 227.137L355.389 228.438C353.622 227.585 352.225 225.81 351.521 223.745C350.792 226.003 349.315 227.946 347.514 228.842L346.529 227.524C348.92 226.381 350.66 223.411 350.66 220.739V219.069H347.109V217.68H355.74V219.069H352.312V220.739ZM359.098 216.098V222.338H361.629V223.745H359.098V231.848H357.428V216.098H359.098ZM374.918 217.083V218.471C374.918 219.965 374.918 221.583 374.479 223.833H376.746V225.204H370.365V231.866H368.678V225.204H362.385V223.833H372.791C373.266 221.591 373.266 219.939 373.266 218.471V218.454H364.143V217.083H374.918ZM392.355 228.508V229.879H377.941V228.508H384.305V224.782H385.975V228.508H392.355ZM385.992 218.963C385.992 221.372 388.717 223.516 391.723 223.991L391.055 225.309C388.515 224.826 386.168 223.349 385.148 221.284C384.12 223.375 381.791 224.896 379.295 225.379L378.609 224.061C381.545 223.569 384.252 221.372 384.252 218.963V218.823H379.137V217.452H391.107V218.823H385.992V218.963ZM411.023 216.098V224.114H409.354V222.602H405.363V221.301H409.354V219.596H405.557C404.581 222.04 402.208 223.648 398.719 224.465L398.139 223.094C401.918 222.259 403.966 220.51 404.238 218.19H398.965V216.819H406.066C406.066 217.329 406.022 217.812 405.943 218.278H409.354V216.098H411.023ZM411.023 224.782V228.772H402.41V230.354H411.498V231.69H400.758V227.506H409.354V226.1H400.723V224.782H411.023ZM426.58 216.098V225.467H424.91V221.477H421.975V220.106H424.91V216.098H426.58ZM421.307 225.907C424.611 225.907 426.633 226.997 426.633 228.877C426.633 230.758 424.611 231.831 421.307 231.848C418.002 231.831 415.963 230.758 415.98 228.877C415.963 226.997 418.002 225.907 421.307 225.907ZM421.307 227.208C419.004 227.208 417.633 227.805 417.633 228.877C417.633 229.932 419.004 230.547 421.307 230.53C423.609 230.547 424.98 229.932 424.98 228.877C424.98 227.805 423.609 227.208 421.307 227.208ZM419.092 218.875C419.092 220.879 420.516 222.813 422.889 223.622L422.027 224.94C420.261 224.325 418.96 223.068 418.283 221.512C417.589 223.279 416.209 224.694 414.328 225.379L413.449 224.043C415.893 223.2 417.387 221.073 417.387 218.893V218.542H413.977V217.188H422.467V218.542H419.092V218.875Z" fill="#111111"/>
<path fill-rule="evenodd" clip-rule="evenodd" d="M865.376 0.363901H1101.52L1142.05 50.2357L1104.93 95.4693H867.48L900.178 55.6252L905.257 49.4359L900.474 43.5509L865.376 0.363901ZM838.807 0.363901H830.166L829.569 0.362305V0.363898L577.192 0.362442L612.291 43.5509L617.074 49.4359L611.995 55.6252L579.298 95.4693H829.798H842.217L879.337 50.2357L838.807 0.363901ZM289.347 0.362376L550.624 0.363884L591.155 50.2357L554.035 95.4693H553.33H291.453L324.15 55.6252L329.229 49.4359L324.446 43.5509L289.347 0.362376ZM262.779 0.363816L0.814061 0.362305L0.65625 95.4684L266.189 95.4693L303.31 50.2357L262.779 0.363816Z" fill="#3D6493"/>
<rect opacity="0.5" x="19.0576" y="109.424" width="240" height="93" rx="10" fill="#ECF0F4"/>
<rect opacity="0.03" x="25.0576" y="115.424" width="228" height="81" rx="10" fill="#1A2A3E"/>
<path d="M33.9023 144.047C32.8125 144.047 31.916 143.15 31.916 142.043C31.916 140.953 32.8125 140.057 33.9023 140.057C35.0098 140.057 35.9062 140.953 35.9062 142.043C35.9062 143.15 35.0098 144.047 33.9023 144.047ZM57.791 143.625V144.996H51.3926V149.918H49.7402V144.996H43.377V143.625H57.791ZM56.1914 140.83V142.166H45.2754V134.871H56.0156V136.207H46.9102V137.824H55.6641V139.125H46.9102V140.83H56.1914ZM64.4355 138.809C64.4355 141.305 66.0703 144.082 68.4609 145.207L67.5117 146.508C65.7451 145.655 64.3477 143.88 63.6445 141.814C62.915 144.073 61.4385 146.016 59.6367 146.912L58.6523 145.594C61.043 144.451 62.7832 141.48 62.7832 138.809V137.139H59.2324V135.75H67.8633V137.139H64.4355V138.809ZM71.2207 134.168V140.408H73.752V141.814H71.2207V149.918H69.5508V134.168H71.2207ZM88.0254 134.168V149.918H86.4258V141.779H84.3867V149.109H82.8574V134.484H84.3867V140.408H86.4258V134.168H88.0254ZM80.9414 136.066V137.42H76.7051V144.715C78.6387 144.697 80.0977 144.609 81.7852 144.293L81.9082 145.664C80.0098 146.051 78.3926 146.121 76.0898 146.139H75.0352V136.066H80.9414ZM95.4961 136.682C95.4961 138.756 96.9375 140.672 99.293 141.445L98.3965 142.764C96.6738 142.157 95.3818 140.927 94.7051 139.371C94.0107 141.138 92.6748 142.518 90.8379 143.203L89.9414 141.867C92.4023 140.988 93.8262 138.896 93.8438 136.541V134.994H95.4961V136.682ZM102.439 134.168V138.123H104.725V139.529H102.439V143.678H100.77V134.168H102.439ZM97.3594 144.047C100.594 144.047 102.58 145.119 102.58 146.965C102.58 148.828 100.594 149.9 97.3594 149.883C94.0898 149.9 92.0684 148.828 92.0684 146.965C92.0684 145.119 94.0898 144.047 97.3594 144.047ZM97.3594 145.365C95.0742 145.365 93.7207 145.963 93.7383 146.965C93.7207 148.002 95.0742 148.564 97.3594 148.582C99.627 148.564 100.945 148.002 100.945 146.965C100.945 145.963 99.627 145.365 97.3594 145.365ZM117.662 139.055C117.539 137.877 116.502 137.191 115.043 137.191C113.479 137.191 112.494 137.982 112.494 139.072C112.494 140.285 113.812 140.742 114.814 140.988L116.045 141.322C117.68 141.709 119.701 142.605 119.719 144.908C119.701 147.053 117.996 148.635 114.99 148.635C112.143 148.635 110.35 147.211 110.227 144.891H112.16C112.283 146.279 113.496 146.947 114.99 146.947C116.607 146.947 117.785 146.121 117.803 144.873C117.785 143.766 116.748 143.309 115.395 142.957L113.883 142.553C111.844 141.99 110.561 140.953 110.561 139.178C110.561 136.98 112.529 135.521 115.096 135.521C117.68 135.521 119.49 136.998 119.543 139.055H117.662ZM125.748 148.617C122.936 148.617 121.213 146.684 121.213 143.713C121.213 140.777 122.971 138.756 125.625 138.756C127.805 138.756 129.861 140.109 129.861 143.555V144.223H123.076C123.129 146.033 124.192 147.07 125.766 147.07C126.838 147.07 127.523 146.613 127.84 146.033H129.738C129.316 147.58 127.84 148.617 125.748 148.617ZM123.094 142.816H128.016C128.016 141.357 127.084 140.303 125.643 140.303C124.14 140.303 123.164 141.463 123.094 142.816ZM131.285 145.734C131.285 143.555 133.131 142.992 134.854 142.869C135.486 142.825 136.919 142.746 137.367 142.729L137.35 141.973C137.35 140.9 136.699 140.268 135.416 140.268C134.309 140.268 133.641 140.777 133.447 141.48H131.584C131.76 139.898 133.236 138.756 135.486 138.756C136.998 138.756 139.23 139.318 139.23 142.078V148.424H137.402V147.123H137.332C136.963 147.844 136.084 148.635 134.502 148.635C132.691 148.635 131.285 147.598 131.285 145.734ZM133.113 145.752C133.113 146.666 133.869 147.141 134.924 147.141C136.453 147.141 137.367 146.121 137.367 144.979V144.1L135.117 144.258C133.887 144.346 133.113 144.803 133.113 145.752ZM141.498 148.424V138.879H143.309V140.391H143.414C143.766 139.371 144.715 138.738 145.84 138.738C146.068 138.738 146.438 138.756 146.631 138.773V140.566C146.473 140.531 146.033 140.461 145.646 140.461C144.346 140.461 143.379 141.357 143.379 142.605V148.424H141.498ZM151.764 148.617C148.986 148.617 147.299 146.561 147.299 143.695C147.299 140.777 149.039 138.756 151.729 138.756C153.908 138.756 155.49 140.039 155.684 141.973H153.855C153.662 141.076 152.941 140.32 151.764 140.32C150.217 140.32 149.18 141.604 149.18 143.643C149.18 145.734 150.199 147.018 151.764 147.018C152.818 147.018 153.627 146.438 153.855 145.4H155.684C155.473 147.246 154.014 148.617 151.764 148.617ZM159.34 142.764V148.424H157.459V135.697H159.305V140.443H159.428C159.885 139.406 160.764 138.756 162.258 138.756C164.227 138.756 165.527 139.969 165.527 142.359V148.424H163.646V142.588C163.646 141.182 162.891 140.373 161.625 140.373C160.307 140.373 159.34 141.234 159.34 142.764ZM33.9023 171.047C32.8125 171.047 31.916 170.15 31.916 169.043C31.916 167.953 32.8125 167.057 33.9023 167.057C35.0098 167.057 35.9062 167.953 35.9062 169.043C35.9062 170.15 35.0098 171.047 33.9023 171.047ZM51.5332 162.152C51.5332 166.16 48.791 169.008 44.2207 170.291L43.5352 168.99C47.165 167.971 49.4238 166.002 49.7578 163.523H44.3613V162.152H51.5332ZM56.5254 161.186V170.098H54.8555V166.512H51.6035V165.123H54.8555V161.186H56.5254ZM56.5254 170.748V176.707H46.2246V170.748H56.5254ZM47.8594 172.084V175.371H54.873V172.084H47.8594ZM71.7305 169.236V170.572H66.9668V173.648H73.3652V175.02H58.9512V173.648H65.2969V170.572H60.7617V162.381H71.5723V163.752H62.4492V165.773H71.2383V167.092H62.4492V169.236H71.7305ZM88.0254 161.168V176.918H86.4258V168.779H84.3867V176.109H82.8574V161.484H84.3867V167.408H86.4258V161.168H88.0254ZM80.9414 163.066V164.42H76.7051V171.715C78.6387 171.697 80.0977 171.609 81.7852 171.293L81.9082 172.664C80.0098 173.051 78.3926 173.121 76.0898 173.139H75.0352V163.066H80.9414ZM95.4961 163.682C95.4961 165.756 96.9375 167.672 99.293 168.445L98.3965 169.764C96.6738 169.157 95.3818 167.927 94.7051 166.371C94.0107 168.138 92.6748 169.518 90.8379 170.203L89.9414 168.867C92.4023 167.988 93.8262 165.896 93.8438 163.541V161.994H95.4961V163.682ZM102.439 161.168V165.123H104.725V166.529H102.439V170.678H100.77V161.168H102.439ZM97.3594 171.047C100.594 171.047 102.58 172.119 102.58 173.965C102.58 175.828 100.594 176.9 97.3594 176.883C94.0898 176.9 92.0684 175.828 92.0684 173.965C92.0684 172.119 94.0898 171.047 97.3594 171.047ZM97.3594 172.365C95.0742 172.365 93.7207 172.963 93.7383 173.965C93.7207 175.002 95.0742 175.564 97.3594 175.582C99.627 175.564 100.945 175.002 100.945 173.965C100.945 172.963 99.627 172.365 97.3594 172.365ZM115.57 164.051C115.57 166.178 116.994 168.252 119.367 169.078L118.453 170.379C116.73 169.72 115.447 168.419 114.779 166.775C114.094 168.604 112.749 170.045 110.895 170.748L109.998 169.43C112.441 168.551 113.9 166.371 113.918 163.998V162.135H115.57V164.051ZM123.146 161.186V172.928H121.477V166.143H118.154V164.771H121.477V161.186H123.146ZM123.498 175.23V176.584H112.863V171.609H114.551V175.23H123.498ZM138.703 161.168V170.537H137.033V166.547H134.098V165.176H137.033V161.168H138.703ZM133.43 170.977C136.734 170.977 138.756 172.066 138.756 173.947C138.756 175.828 136.734 176.9 133.43 176.918C130.125 176.9 128.086 175.828 128.104 173.947C128.086 172.066 130.125 170.977 133.43 170.977ZM133.43 172.277C131.127 172.277 129.756 172.875 129.756 173.947C129.756 175.002 131.127 175.617 133.43 175.6C135.732 175.617 137.104 175.002 137.104 173.947C137.104 172.875 135.732 172.277 133.43 172.277ZM131.215 163.945C131.215 165.949 132.639 167.883 135.012 168.691L134.15 170.01C132.384 169.395 131.083 168.138 130.406 166.582C129.712 168.349 128.332 169.764 126.451 170.449L125.572 169.113C128.016 168.27 129.51 166.143 129.51 163.963V163.611H126.1V162.258H134.59V163.611H131.215V163.945Z" fill="#111111"/>
<path d="M95.4468 49.8066V52.5488H87.2671V58.666H83.8921V52.5488H75.7827V49.8066H95.4468ZM93.4077 45.7988V48.4473H78.1968V37.9707H93.1733V40.6191H81.5015V41.9082H92.728V44.4863H81.5015V45.7988H93.4077ZM104.705 42.7754C104.681 46.0098 106.181 49.7832 109.861 51.4473L107.986 54.0957C105.619 53.041 104.001 50.9668 103.064 48.5176C102.115 51.2363 100.427 53.5098 97.9546 54.6582L96.0093 51.9863C99.7358 50.252 101.283 46.291 101.283 42.7754V41.9316H96.8999V39.1895H108.876V41.9316H104.705V42.7754ZM113.611 37.1504V45.2129H116.658V48.002H113.611V58.666H110.236V37.1504H113.611ZM135.947 37.1504V58.666H132.759V48.0254H131.025V57.6348H127.955V37.4785H131.025V45.3535H132.759V37.1504H135.947ZM125.845 39.6113V42.3066H121.228V51.0957C123.08 51.0723 124.826 50.9668 126.783 50.627L127.017 53.3457C124.369 53.8613 122.048 53.9316 119.376 53.9316H117.83V39.6113H125.845ZM146.072 40.5254C146.072 43.0098 147.361 45.4473 150.853 46.502L149.072 49.1035C146.833 48.4004 145.31 47.0293 144.408 45.2598C143.482 47.3105 141.876 48.916 139.462 49.7129L137.634 47.0879C141.337 45.8691 142.673 43.0332 142.673 40.1738V38.3223H146.072V40.5254ZM155.166 37.1504V42.002H157.955V44.791H155.166V49.8066H151.791V37.1504H155.166ZM148.064 50.2051C152.541 50.2051 155.376 51.7754 155.376 54.4238C155.376 57.1191 152.541 58.6895 148.064 58.666C143.494 58.6895 140.634 57.1191 140.634 54.4238C140.634 51.7754 143.494 50.2051 148.064 50.2051ZM148.064 52.8301C145.392 52.8301 143.986 53.3691 144.009 54.4238C143.986 55.5488 145.392 56.041 148.064 56.041C150.712 56.041 152.048 55.5488 152.048 54.4238C152.048 53.3691 150.712 52.8301 148.064 52.8301ZM162.666 38.1348V40.5254H166.486V38.1348H169.861V47.5332H159.337V38.1348H162.666ZM162.666 44.9082H166.486V43.0332H162.666V44.9082ZM175.908 37.1504V41.1816H178.697V43.9004H175.908V48.0488H172.533V37.1504H175.908ZM175.908 48.7754V54.8223H164.822V55.9004H176.47V58.5488H161.494V52.4316H172.533V51.3535H161.47V48.7754H175.908ZM196.931 37.9707V39.4707C196.931 40.7598 196.931 42.4473 196.556 44.4629H199.181V47.0645H190.978V48.8457H196.791V54.7988H185.072V55.9473H197.376V58.5254H181.72V52.5254H193.462V51.4473H181.697V48.8457H187.65V47.0645H179.517V44.4629H193.158C193.451 42.9277 193.533 41.6973 193.556 40.5957H181.884V37.9707H196.931Z" fill="#FCFEFF"/>
<path d="M401.538 37.1504V58.666H398.116V37.1504H401.538ZM395.069 39.377C395.069 46.0098 392.96 51.4004 385.132 55.0801L383.374 52.4082C388.847 49.8184 391.144 46.6426 391.624 42.002H384.593V39.377H395.069ZM410.14 38.041C412.847 38.041 415.026 39.5879 415.671 41.8379H418.976V37.1504H422.327V48.7285H418.976V44.4863H415.694C415.062 46.8066 412.858 48.377 410.14 48.377C406.812 48.377 404.351 46.1973 404.374 43.1738C404.351 40.2207 406.812 38.041 410.14 38.041ZM410.14 40.8301C408.616 40.8301 407.562 41.6973 407.562 43.1738C407.562 44.6738 408.616 45.541 410.14 45.541C411.593 45.541 412.647 44.6738 412.647 43.1738C412.647 41.6973 411.593 40.8301 410.14 40.8301ZM411.147 49.6191V51.4707H418.976V49.6191H422.327V58.4316H407.843V49.6191H411.147ZM411.147 55.7129H418.976V54.0488H411.147V55.7129ZM441.921 37.1504V45.2363H444.804V48.002H441.921V58.5957H438.546V37.1504H441.921ZM436.108 39.3066C436.108 45.8457 433.718 51.4238 426.405 55.0098L424.507 52.4316C429.44 49.959 432.089 46.748 432.687 42.0723H425.796V39.3066H436.108ZM463.647 37.1504V58.666H460.272V37.1504H463.647ZM454.155 43.8066C454.155 46.7598 455.679 50.2988 459.358 51.7988L457.554 54.377C455.128 53.4043 453.476 51.4473 452.515 49.1035C451.554 51.5996 449.866 53.6973 447.382 54.7051L445.601 52.1035C449.257 50.5332 450.78 46.9238 450.78 43.8066V43.2676H446.374V40.5957H450.78V37.666H454.132V40.5957H458.444V43.2676H454.155V43.8066ZM483.687 38.5098V41.2051H482.046V46.5488C482.679 46.5137 483.3 46.4551 483.897 46.3848L484.015 48.8457C480.03 49.5254 475.413 49.6191 472.038 49.6191L471.687 46.9004L473.819 46.877V41.2051H472.226V38.5098H483.687ZM489.921 37.1504V50.252H486.569V47.2754H484.249V44.6035H486.569V43.1738H484.249V40.5254H486.569V37.1504H489.921ZM482.491 50.5566C487.179 50.5566 489.968 52.0332 489.991 54.6582C489.968 57.166 487.179 58.6895 482.491 58.666C477.851 58.6895 475.062 57.166 475.062 54.6582C475.062 52.0332 477.851 50.5566 482.491 50.5566ZM482.491 53.1113C479.772 53.1113 478.413 53.5801 478.413 54.6582C478.413 55.666 479.772 56.1113 482.491 56.1348C485.233 56.1113 486.616 55.666 486.64 54.6582C486.616 53.5801 485.233 53.1113 482.491 53.1113ZM477.077 46.8066L478.835 46.7598V41.2051H477.077V46.8066ZM509.515 37.1504V45.2363H512.397V48.002H509.515V58.5957H506.14V37.1504H509.515ZM503.702 39.3066C503.702 45.8457 501.312 51.4238 493.999 55.0098L492.101 52.4316C497.034 49.959 499.683 46.748 500.28 42.0723H493.39V39.3066H503.702Z" fill="#FCFEFF"/>
<rect opacity="0.5" x="595.058" y="109.424" width="240" height="120" rx="10" fill="#ECF0F4"/>
<rect opacity="0.03" x="601.058" y="115.424" width="228" height="108" rx="10" fill="#1A2A3E"/>
<path d="M609.902 144.047C608.812 144.047 607.916 143.15 607.916 142.043C607.916 140.953 608.812 140.057 609.902 140.057C611.01 140.057 611.906 140.953 611.906 142.043C611.906 143.15 611.01 144.047 609.902 144.047ZM633.791 143.625V144.996H627.393V149.918H625.74V144.996H619.377V143.625H633.791ZM632.191 140.83V142.166H621.275V134.871H632.016V136.207H622.91V137.824H631.664V139.125H622.91V140.83H632.191ZM640.436 138.809C640.436 141.305 642.07 144.082 644.461 145.207L643.512 146.508C641.745 145.655 640.348 143.88 639.645 141.814C638.915 144.073 637.438 146.016 635.637 146.912L634.652 145.594C637.043 144.451 638.783 141.48 638.783 138.809V137.139H635.232V135.75H643.863V137.139H640.436V138.809ZM647.221 134.168V140.408H649.752V141.814H647.221V149.918H645.551V134.168H647.221ZM663.568 134.186V143.098H661.898V134.186H663.568ZM663.568 143.941V149.725H653.215V143.941H663.568ZM654.867 145.277V148.371H661.934V145.277H654.867ZM656.238 136.312C656.221 138.439 657.75 140.355 660.141 141.164L659.314 142.447C657.486 141.841 656.115 140.593 655.395 138.967C654.691 140.698 653.294 142.078 651.404 142.746L650.578 141.428C653.039 140.602 654.533 138.51 654.533 136.312V134.783H656.238V136.312ZM671.197 135.293C673.693 135.275 675.469 136.822 675.486 139.037C675.469 141.252 673.693 142.799 671.197 142.799C668.719 142.799 666.891 141.252 666.908 139.037C666.891 136.822 668.719 135.275 671.197 135.293ZM671.197 136.734C669.668 136.734 668.543 137.648 668.561 139.037C668.543 140.426 669.668 141.34 671.197 141.34C672.727 141.34 673.852 140.426 673.852 139.037C673.852 137.648 672.727 136.734 671.197 136.734ZM679.09 134.168V149.953H677.42V134.168H679.09ZM666.152 145.172C669.018 145.172 672.99 145.137 676.436 144.645L676.559 145.857C672.99 146.543 669.176 146.561 666.363 146.561L666.152 145.172ZM686.789 134.889C689.162 134.889 690.885 136.207 690.885 138.158C690.885 140.092 689.162 141.428 686.789 141.41C684.416 141.428 682.729 140.092 682.729 138.158C682.729 136.207 684.416 134.889 686.789 134.889ZM686.789 136.242C685.365 136.242 684.328 136.998 684.346 138.158C684.328 139.301 685.365 140.057 686.789 140.039C688.248 140.057 689.285 139.301 689.285 138.158C689.285 136.998 688.248 136.242 686.789 136.242ZM694.717 134.186V149.918H693.064V134.186H694.717ZM681.604 142.641C684.504 142.641 688.529 142.57 691.975 142.061L692.098 143.309C690.665 143.581 689.171 143.748 687.721 143.854V149.426H686.051V143.941C684.521 144.012 683.08 144.021 681.832 144.029L681.604 142.641ZM710.273 134.186V146.121H708.604V144.609H705.439V143.432H708.604V134.186H710.273ZM710.66 148.23V149.584H699.287V144.961H700.939V148.23H710.66ZM697.107 141.375C700.025 141.357 703.945 141.322 707.303 140.9L707.408 142.096C706.063 142.315 704.648 142.465 703.26 142.553V145.629H701.59V142.641C700.061 142.711 698.593 142.72 697.318 142.711L697.107 141.375ZM702.258 134.783C704.561 134.783 706.16 135.891 706.16 137.561C706.16 139.23 704.561 140.303 702.258 140.303C699.92 140.303 698.338 139.23 698.338 137.561C698.338 135.891 699.92 134.783 702.258 134.783ZM702.258 136.031C700.852 136.014 699.902 136.611 699.92 137.561C699.902 138.492 700.852 139.072 702.258 139.072C703.611 139.072 704.561 138.492 704.578 137.561C704.561 136.611 703.611 136.014 702.258 136.031ZM725.76 134.168V149.918H724.09V134.168H725.76ZM712.822 145.629C714.114 145.62 715.6 145.611 717.146 145.559V143.994C715.301 143.757 714.105 142.676 714.123 141.129C714.105 139.354 715.652 138.176 717.938 138.176C720.24 138.176 721.822 139.354 721.822 141.129C721.822 142.658 720.627 143.73 718.799 143.977V145.506C720.258 145.444 721.734 145.33 723.123 145.154L723.246 146.402C719.748 146.982 715.934 147.018 713.051 147.018L712.822 145.629ZM722.771 136.049V137.385H713.156V136.049H717.146V134.203H718.816V136.049H722.771ZM717.938 139.477C716.619 139.477 715.688 140.127 715.705 141.129C715.688 142.131 716.619 142.746 717.938 142.746C719.291 142.746 720.223 142.131 720.223 141.129C720.223 140.127 719.291 139.477 717.938 139.477ZM609.902 171.047C608.812 171.047 607.916 170.15 607.916 169.043C607.916 167.953 608.812 167.057 609.902 167.057C611.01 167.057 611.906 167.953 611.906 169.043C611.906 170.15 611.01 171.047 609.902 171.047ZM624.879 165.809C624.879 168.305 626.514 171.082 628.904 172.207L627.955 173.508C626.188 172.655 624.791 170.88 624.088 168.814C623.358 171.073 621.882 173.016 620.08 173.912L619.096 172.594C621.486 171.451 623.227 168.48 623.227 165.809V164.139H619.676V162.75H628.307V164.139H624.879V165.809ZM631.664 161.168V167.408H634.195V168.814H631.664V176.918H629.994V161.168H631.664ZM647.537 161.959V163.154C647.537 164.394 647.537 165.8 647.133 167.707H649.365V169.078H634.951V167.707H645.445C645.867 165.87 645.885 164.525 645.885 163.33H636.762V161.959H647.537ZM647.555 171.082V176.725H636.709V171.082H647.555ZM638.344 172.4V175.371H645.902V172.4H638.344ZM660.738 163.682C660.738 165.633 662.268 167.461 664.693 168.164L663.85 169.465C662.013 168.911 660.624 167.707 659.912 166.16C659.2 167.812 657.794 169.122 655.904 169.746L655.061 168.428C657.504 167.672 659.033 165.756 659.051 163.682V163.506H655.518V162.152H664.201V163.506H660.738V163.682ZM667.963 161.168V169.693H666.293V161.168H667.963ZM659.297 170.432V172.189H666.311V170.432H667.963V176.725H657.662V170.432H659.297ZM659.297 175.371H666.311V173.508H659.297V175.371ZM683.889 161.168V171.1H682.307V166.705H680.479V170.555H678.914V161.467H680.479V165.334H682.307V161.168H683.889ZM678.334 162.961V164.279H670.371V162.961H673.553V161.291H675.205V162.961H678.334ZM674.361 165.018C676.365 165.018 677.771 166.09 677.771 167.725C677.771 169.359 676.365 170.432 674.361 170.432C672.393 170.432 670.986 169.359 670.986 167.725C670.986 166.09 672.393 165.018 674.361 165.018ZM674.361 166.248C673.254 166.248 672.48 166.828 672.48 167.725C672.48 168.621 673.254 169.219 674.361 169.219C675.504 169.219 676.26 168.621 676.26 167.725C676.26 166.828 675.504 166.248 674.361 166.248ZM678.615 171.328C681.955 171.328 683.959 172.33 683.977 174.123C683.959 175.881 681.955 176.9 678.615 176.883C675.275 176.9 673.271 175.881 673.289 174.123C673.271 172.33 675.275 171.328 678.615 171.328ZM678.615 172.611C676.277 172.611 674.924 173.139 674.941 174.123C674.924 175.072 676.277 175.617 678.615 175.6C680.971 175.617 682.289 175.072 682.307 174.123C682.289 173.139 680.971 172.611 678.615 172.611ZM609.902 198.047C608.812 198.047 607.916 197.15 607.916 196.043C607.916 194.953 608.812 194.057 609.902 194.057C611.01 194.057 611.906 194.953 611.906 196.043C611.906 197.15 611.01 198.047 609.902 198.047ZM632.525 188.186V197.502H630.855V195.586H626.883V194.215H630.855V192.299H627.041C626.03 194.83 623.666 196.614 620.256 197.59L619.588 196.289C623.314 195.217 625.494 193.222 625.793 190.682H620.396V189.311H627.604C627.604 189.891 627.542 190.453 627.445 190.98H630.855V188.186H632.525ZM627.34 197.678C630.521 197.678 632.613 198.838 632.631 200.754C632.613 202.67 630.521 203.848 627.34 203.848C624.105 203.848 622.031 202.67 622.031 200.754C622.031 198.838 624.105 197.678 627.34 197.678ZM627.34 198.996C625.09 198.996 623.684 199.629 623.684 200.754C623.684 201.861 625.09 202.512 627.34 202.512C629.555 202.512 630.943 201.861 630.961 200.754C630.943 199.629 629.555 198.996 627.34 198.996ZM639.311 189.082C640.62 189.073 641.736 189.565 642.475 190.383H646.412V188.168H648.082V197.467H646.412V195.34H642.457C641.728 196.148 640.611 196.632 639.311 196.623C636.938 196.641 635.18 195.059 635.18 192.861C635.18 190.646 636.938 189.064 639.311 189.082ZM639.311 190.523C637.834 190.506 636.779 191.455 636.779 192.861C636.779 194.232 637.834 195.217 639.311 195.199C640.752 195.217 641.807 194.232 641.807 192.861C641.807 191.455 640.752 190.506 639.311 190.523ZM642.809 197.818C646.078 197.818 648.135 198.926 648.135 200.859C648.135 202.775 646.078 203.9 642.809 203.883C639.521 203.9 637.465 202.775 637.482 200.859C637.465 198.926 639.521 197.818 642.809 197.818ZM642.809 199.102C640.506 199.102 639.1 199.734 639.117 200.859C639.1 201.949 640.506 202.564 642.809 202.564C645.129 202.564 646.5 201.949 646.5 200.859C646.5 199.734 645.129 199.102 642.809 199.102ZM643.23 191.719C643.345 192.07 643.406 192.457 643.406 192.861C643.406 193.248 643.345 193.626 643.248 193.969H646.412V191.719H643.23ZM663.674 189.363V190.242C663.656 191.297 663.656 192.861 663.27 194.9L661.617 194.742C661.96 192.993 662.013 191.728 662.039 190.734H655.729V189.363H663.674ZM659.648 192.896V196.148C661.336 196.096 663.076 195.973 664.658 195.744L664.764 196.957C661.477 197.537 657.715 197.59 654.938 197.607L654.779 196.254C655.746 196.245 656.845 196.236 657.996 196.201V192.896H659.648ZM667.365 188.168V193.178H669.527V194.584H667.365V199.998H665.66V188.168H667.365ZM667.875 202.23V203.584H657.17V198.926H658.84V202.23H667.875ZM683.537 188.168V203.953H681.867V188.168H683.537ZM678.721 189.592V195.34H673.061V198.785C675.609 198.776 677.842 198.662 680.479 198.223L680.637 199.594C677.842 200.068 675.469 200.174 672.691 200.174H671.355V194.004H677.016V190.945H671.338V189.592H678.721ZM698.725 189.17V195.639H691.236V189.17H698.725ZM692.871 190.506V194.338H697.072V190.506H692.871ZM703.453 188.168V197.168H701.801V188.168H703.453ZM703.822 198.188V199.453H699.217C699.331 200.824 701.52 202.257 704.385 202.582L703.822 203.865C701.353 203.575 699.322 202.512 698.373 201.123C697.406 202.529 695.332 203.558 692.854 203.865L692.273 202.582C695.139 202.31 697.38 200.859 697.494 199.453H692.906V198.188H697.529V196.711H699.182V198.188H703.822ZM724.758 196.061V197.414H718.518V200.473H716.83V197.414H710.344V196.061H724.758ZM723.158 202.213V203.584H712.154V198.961H713.824V202.213H723.158ZM717.533 188.537C720.926 188.537 723.123 189.768 723.123 191.736C723.123 193.705 720.926 194.918 717.533 194.918C714.158 194.918 711.926 193.705 711.926 191.736C711.926 189.768 714.158 188.537 717.533 188.537ZM717.533 189.873C715.23 189.873 713.701 190.576 713.719 191.736C713.701 192.879 715.23 193.564 717.533 193.564C719.854 193.564 721.365 192.879 721.365 191.736C721.365 190.576 719.854 189.873 717.533 189.873ZM730.277 189.082C731.587 189.073 732.703 189.565 733.441 190.383H737.379V188.168H739.049V197.467H737.379V195.34H733.424C732.694 196.148 731.578 196.632 730.277 196.623C727.904 196.641 726.146 195.059 726.146 192.861C726.146 190.646 727.904 189.064 730.277 189.082ZM730.277 190.523C728.801 190.506 727.746 191.455 727.746 192.861C727.746 194.232 728.801 195.217 730.277 195.199C731.719 195.217 732.773 194.232 732.773 192.861C732.773 191.455 731.719 190.506 730.277 190.523ZM733.775 197.818C737.045 197.818 739.102 198.926 739.102 200.859C739.102 202.775 737.045 203.9 733.775 203.883C730.488 203.9 728.432 202.775 728.449 200.859C728.432 198.926 730.488 197.818 733.775 197.818ZM733.775 199.102C731.473 199.102 730.066 199.734 730.084 200.859C730.066 201.949 731.473 202.564 733.775 202.564C736.096 202.564 737.467 201.949 737.467 200.859C737.467 199.734 736.096 199.102 733.775 199.102ZM734.197 191.719C734.312 192.07 734.373 192.457 734.373 192.861C734.373 193.248 734.312 193.626 734.215 193.969H737.379V191.719H734.197ZM751.67 192.809C751.67 195.445 753.393 198.17 755.818 199.207L754.904 200.508C753.05 199.69 751.573 197.959 750.844 195.85C750.114 198.1 748.629 200.016 746.801 200.912L745.834 199.594C748.207 198.486 749.965 195.516 749.982 192.809V191.139H746.379V189.75H755.256V191.139H751.67V192.809ZM758.912 188.168V203.918H757.242V188.168H758.912ZM774.521 188.186V200.121H772.852V198.609H769.688V197.432H772.852V188.186H774.521ZM774.908 202.23V203.584H763.535V198.961H765.188V202.23H774.908ZM761.355 195.375C764.273 195.357 768.193 195.322 771.551 194.9L771.656 196.096C770.312 196.315 768.896 196.465 767.508 196.553V199.629H765.838V196.641C764.309 196.711 762.841 196.72 761.566 196.711L761.355 195.375ZM766.506 188.783C768.809 188.783 770.408 189.891 770.408 191.561C770.408 193.23 768.809 194.303 766.506 194.303C764.168 194.303 762.586 193.23 762.586 191.561C762.586 189.891 764.168 188.783 766.506 188.783ZM766.506 190.031C765.1 190.014 764.15 190.611 764.168 191.561C764.15 192.492 765.1 193.072 766.506 193.072C767.859 193.072 768.809 192.492 768.826 191.561C768.809 190.611 767.859 190.014 766.506 190.031Z" fill="#111111"/>
<path d="M680.263 49.8066V52.5488H672.083V58.666H668.708V52.5488H660.599V49.8066H680.263ZM678.224 45.7988V48.4473H663.013V37.9707H677.99V40.6191H666.318V41.9082H677.544V44.4863H666.318V45.7988H678.224ZM689.521 42.7754C689.498 46.0098 690.998 49.7832 694.677 51.4473L692.802 54.0957C690.435 53.041 688.818 50.9668 687.88 48.5176C686.931 51.2363 685.244 53.5098 682.771 54.6582L680.826 51.9863C684.552 50.252 686.099 46.291 686.099 42.7754V41.9316H681.716V39.1895H693.693V41.9316H689.521V42.7754ZM698.427 37.1504V45.2129H701.474V48.002H698.427V58.666H695.052V37.1504H698.427ZM720.177 38.2754V40.9473H716.099C716.345 43.0215 717.81 45.0957 721.091 45.9395L719.404 48.5879C716.99 47.9082 715.337 46.5137 714.388 44.7441C713.404 46.666 711.705 48.1895 709.185 48.9395L707.474 46.3145C710.861 45.377 712.349 43.1621 712.607 40.9473H708.388V38.2754H720.177ZM725.544 37.1504V48.8223H722.169V37.1504H725.544ZM714.341 49.666V51.4941H722.169V49.666H725.544V58.4316H711.037V49.666H714.341ZM714.341 55.7363H722.169V54.0957H714.341V55.7363ZM746.755 37.1504V50.6035H743.544V45.0488H742.208V49.9004H739.044V37.5488H742.208V42.3066H743.544V37.1504H746.755ZM738.505 39.2598V41.8613H728.099V39.2598H731.638V37.3613H734.99V39.2598H738.505ZM733.326 42.4473C736.068 42.4473 738.06 43.9707 738.06 46.2207C738.06 48.4473 736.068 49.9707 733.326 49.9707C730.654 49.9707 728.662 48.4473 728.662 46.2207C728.662 43.9707 730.654 42.4473 733.326 42.4473ZM733.326 44.8613C732.341 44.8379 731.685 45.3301 731.685 46.2207C731.685 47.1113 732.341 47.6035 733.326 47.6035C734.333 47.6035 735.013 47.1113 735.013 46.2207C735.013 45.3301 734.333 44.8379 733.326 44.8613ZM739.326 50.7441C744.013 50.7441 746.849 52.1973 746.873 54.7051C746.849 57.2363 744.013 58.6895 739.326 58.666C734.685 58.6895 731.802 57.2363 731.826 54.7051C731.802 52.1973 734.685 50.7441 739.326 50.7441ZM739.326 53.252C736.56 53.252 735.177 53.6973 735.201 54.7051C735.177 55.6895 736.56 56.1348 739.326 56.1348C742.138 56.1348 743.451 55.6895 743.474 54.7051C743.451 53.6973 742.138 53.252 739.326 53.252ZM753.81 54.6348L751.724 61.4082H748.982L750.107 54.6348H753.81ZM772.537 38.6738V40.1035C772.537 41.627 772.537 43.7598 772.068 46.3848L768.763 46.0801C769.103 44.1699 769.197 42.6699 769.232 41.416H761.357V38.6738H772.537ZM767.24 43.7129V47.6738C769.314 47.5801 771.423 47.416 773.38 47.1348L773.544 49.5488C769.091 50.3926 764.099 50.4629 760.396 50.4629L760.115 47.8145C761.251 47.8145 762.529 47.8145 763.888 47.791V43.7129H767.24ZM777.904 37.1504V43.5723H780.341V46.3613H777.904V53.2285H774.435V37.1504H777.904ZM778.56 55.6191V58.3145H763.208V51.7988H766.607V55.6191H778.56ZM799.279 37.1504V58.7129H795.927V37.1504H799.279ZM792.576 38.9082V47.3926H785.802V50.9551C788.978 50.9316 791.626 50.7676 794.568 50.2754L794.849 52.9941C791.451 53.6035 788.287 53.7441 784.279 53.7441H782.31V44.7441H789.13V41.6035H782.31V38.9082H792.576Z" fill="#FCFEFF"/>
<rect opacity="0.5" x="883.058" y="109.424" width="240" height="93" rx="10" fill="#ECF0F4"/>
<rect opacity="0.03" x="889.058" y="115.424" width="228" height="81" rx="10" fill="#1A2A3E"/>
<path d="M897.902 144.047C896.812 144.047 895.916 143.15 895.916 142.043C895.916 140.953 896.812 140.057 897.902 140.057C899.01 140.057 899.906 140.953 899.906 142.043C899.906 143.15 899.01 144.047 897.902 144.047ZM908.115 148.424V135.697H916.096V137.367H910.049V141.217H915.674V142.869H910.049V146.754H916.166V148.424H908.115ZM919.805 138.879L921.896 142.588L924.006 138.879H926.062L923.092 143.643L926.08 148.424H924.041L921.896 144.855L919.77 148.424H917.713L920.666 143.643L917.73 138.879H919.805ZM927.768 148.424V138.879H929.648V148.424H927.768ZM928.717 137.402C928.066 137.402 927.521 136.91 927.521 136.295C927.521 135.68 928.066 135.188 928.717 135.188C929.35 135.188 929.895 135.68 929.895 136.295C929.895 136.91 929.35 137.402 928.717 137.402ZM936.398 138.879V140.373H934.447V145.611C934.447 146.684 934.992 146.877 935.59 146.895C935.854 146.895 936.275 146.859 936.539 146.842V148.477C936.275 148.512 935.871 148.547 935.361 148.547C933.885 148.547 932.566 147.738 932.584 145.998V140.373H931.178V138.879H932.584V136.594H934.447V138.879H936.398ZM955.189 134.186V145.717H953.52V139.793H950.514V138.439H953.52V134.186H955.189ZM955.611 148.23V149.584H944.959V144.68H946.629V148.23H955.611ZM947.701 137.367C947.701 139.336 949.125 141.305 951.498 142.096L950.637 143.432C948.87 142.808 947.561 141.542 946.875 139.986C946.189 141.718 944.81 143.115 942.938 143.783L942.076 142.43C944.502 141.604 945.996 139.529 945.996 137.367V136.752H942.586V135.381H951.076V136.752H947.701V137.367ZM972.275 136.576V137.947H969.99V139.898H972.275V141.287H969.99V143.748H968.32V134.186H969.99V136.576H972.275ZM965.42 135.1V139.6H959.936V141.621C962.669 141.612 964.603 141.516 966.896 141.129L967.072 142.482C964.629 142.904 962.555 142.992 959.531 142.992H958.266V138.299H963.785V136.453H958.248V135.1H965.42ZM969.99 144.539V149.9H968.32V145.893H959.584V144.539H969.99ZM985.635 135.557C985.617 137.648 988.184 139.617 991.277 140.021L990.627 141.393C988.052 140.979 985.784 139.644 984.773 137.789C983.736 139.652 981.478 140.979 978.92 141.393L978.252 140.021C981.346 139.617 983.877 137.666 983.895 135.557V134.695H985.635V135.557ZM991.928 142.939V144.311H985.529V149.918H983.895V144.311H977.566V142.939H991.928ZM1006.18 134.186V142.869H1004.51V134.186H1006.18ZM1001.16 134.924V139.318H995.584V141.182C998.335 141.164 1000.37 141.094 1002.76 140.707L1002.97 142.061C1000.4 142.482 998.238 142.553 995.268 142.57H993.949V138.018H999.504V136.277H993.914V134.924H1001.16ZM997.518 143.607V145.312H1004.53V143.607H1006.18V149.725H995.848V143.607H997.518ZM997.518 148.371H1004.53V146.631H997.518V148.371ZM1021.39 135.17V141.639H1013.9V135.17H1021.39ZM1015.54 136.506V140.338H1019.74V136.506H1015.54ZM1026.12 134.168V143.168H1024.46V134.168H1026.12ZM1026.49 144.188V145.453H1021.88C1022 146.824 1024.18 148.257 1027.05 148.582L1026.49 149.865C1024.02 149.575 1021.99 148.512 1021.04 147.123C1020.07 148.529 1018 149.558 1015.52 149.865L1014.94 148.582C1017.8 148.31 1020.04 146.859 1020.16 145.453H1015.57V144.188H1020.19V142.711H1021.85V144.188H1026.49ZM1046.07 134.168V142.271H1044.42V134.168H1046.07ZM1046.09 143.027V146.965H1037.4V148.424H1046.61V149.76H1035.79V145.699H1044.43V144.346H1035.73V143.027H1046.09ZM1038.76 135.803C1038.74 137.912 1040.27 139.828 1042.68 140.584L1041.85 141.885C1040.01 141.287 1038.63 140.039 1037.93 138.439C1037.21 140.162 1035.8 141.533 1033.92 142.184L1033.08 140.865C1035.54 140.039 1037.05 137.982 1037.05 135.803V134.59H1038.76V135.803ZM1062.01 134.168V144.1H1060.43V139.705H1058.6V143.555H1057.04V134.467H1058.6V138.334H1060.43V134.168H1062.01ZM1056.46 135.961V137.279H1048.49V135.961H1051.68V134.291H1053.33V135.961H1056.46ZM1052.48 138.018C1054.49 138.018 1055.89 139.09 1055.89 140.725C1055.89 142.359 1054.49 143.432 1052.48 143.432C1050.52 143.432 1049.11 142.359 1049.11 140.725C1049.11 139.09 1050.52 138.018 1052.48 138.018ZM1052.48 139.248C1051.38 139.248 1050.6 139.828 1050.6 140.725C1050.6 141.621 1051.38 142.219 1052.48 142.219C1053.63 142.219 1054.38 141.621 1054.38 140.725C1054.38 139.828 1053.63 139.248 1052.48 139.248ZM1056.74 144.328C1060.08 144.328 1062.08 145.33 1062.1 147.123C1062.08 148.881 1060.08 149.9 1056.74 149.883C1053.4 149.9 1051.39 148.881 1051.41 147.123C1051.39 145.33 1053.4 144.328 1056.74 144.328ZM1056.74 145.611C1054.4 145.611 1053.05 146.139 1053.06 147.123C1053.05 148.072 1054.4 148.617 1056.74 148.6C1059.09 148.617 1060.41 148.072 1060.43 147.123C1060.41 146.139 1059.09 145.611 1056.74 145.611Z" fill="#111111"/>
<path d="M972.217 49.8066V52.5488H964.038V58.666H960.663V52.5488H952.553V49.8066H972.217ZM970.178 45.7988V48.4473H954.967V37.9707H969.944V40.6191H958.272V41.9082H969.499V44.4863H958.272V45.7988H970.178ZM981.475 42.7754C981.452 46.0098 982.952 49.7832 986.631 51.4473L984.756 54.0957C982.389 53.041 980.772 50.9668 979.834 48.5176C978.885 51.2363 977.198 53.5098 974.725 54.6582L972.78 51.9863C976.506 50.252 978.053 46.291 978.053 42.7754V41.9316H973.67V39.1895H985.647V41.9316H981.475V42.7754ZM990.381 37.1504V45.2129H993.428V48.002H990.381V58.666H987.006V37.1504H990.381ZM1000.15 56.416V39.4473H1011.9V42.7051H1004.14V46.291H1011.29V49.5488H1004.14V53.1582H1011.92V56.416H1000.15ZM1017.78 43.6895L1019.94 47.9316L1022.14 43.6895H1026.15L1022.56 50.041L1026.26 56.416H1022.3L1019.94 52.1504L1017.62 56.416H1013.58L1017.31 50.041L1013.77 43.6895H1017.78ZM1027.95 56.416V43.6895H1031.91V56.416H1027.95ZM1029.94 42.166C1028.82 42.166 1027.9 41.3223 1027.9 40.2676C1027.9 39.2129 1028.82 38.3691 1029.94 38.3691C1031.07 38.3691 1032.01 39.2129 1032.01 40.2676C1032.01 41.3223 1031.07 42.166 1029.94 42.166ZM1041.55 43.6895V46.5957H1039.23V52.4316C1039.23 53.2285 1039.62 53.4629 1040.3 53.4863C1040.63 53.5098 1041.26 53.4629 1041.71 53.4395V56.4629C1041.33 56.5098 1040.68 56.6035 1039.74 56.6035C1036.95 56.6035 1035.26 55.4551 1035.29 52.877V46.5957H1033.58V43.6895H1035.29V40.6426H1039.23V43.6895H1041.55Z" fill="#FCFEFF"/>
</svg>
