<svg width="941" height="409" viewBox="0 0 941 409" fill="none" xmlns="http://www.w3.org/2000/svg">
<rect x="0.847656" y="308.206" width="220" height="100" rx="10" fill="#3D6493"/>
<rect opacity="0.2" x="6.84766" y="314.206" width="208" height="88" rx="10" fill="#1A2A3E"/>
<path d="M47.6495 351.332C47.626 354.125 49.3864 356.777 52.7194 357.857L51.3581 359.923C48.9991 359.125 47.3326 357.529 46.4055 355.486C45.4549 357.74 43.7062 359.5 41.2417 360.369L39.7864 358.303C43.2837 357.176 45.0206 354.313 45.0206 351.308V348.891H47.6495V351.332ZM56.7801 347.576V353.843H59.7375V356.05H56.7801V363.162H54.1747V347.576H56.7801ZM57.6251 366.26V368.373H43.1898V361.636H45.8656V366.26H57.6251ZM66.7087 348.515C69.4549 348.492 71.6143 350.076 72.1542 352.412H75.9801V347.576H78.5855V358.96H75.9801V354.524H72.1777C71.6495 356.907 69.4667 358.514 66.7087 358.514C63.4461 358.514 61.0989 356.425 61.0989 353.491C61.0989 350.604 63.4461 348.492 66.7087 348.515ZM66.7087 350.698C64.8779 350.698 63.5869 351.778 63.5869 353.491C63.5869 355.181 64.8779 356.308 66.7087 356.308C68.4926 356.308 69.7601 355.181 69.7835 353.491C69.7601 351.778 68.4926 350.698 66.7087 350.698ZM67.1781 359.946V362.199H75.9801V359.946H78.5855V368.537H64.5962V359.946H67.1781ZM67.1781 366.424H75.9801V364.218H67.1781V366.424ZM100.954 360.228V362.364H92.5278V368.795H89.9459V362.364H81.5664V360.228H100.954ZM98.8652 356.402V358.467H84.0545V348.492H98.6305V350.557H86.6364V352.435H98.1611V354.454H86.6364V356.402H98.8652ZM109.967 353.609C109.967 356.895 111.916 360.627 115.272 362.176L113.817 364.242C111.423 363.115 109.651 360.838 108.7 358.186C107.738 361.096 105.883 363.584 103.442 364.758L101.917 362.716C105.297 361.12 107.339 357.13 107.362 353.609V351.825H102.738V349.665H114.404V351.825H109.967V353.609ZM118.981 347.576V355.839H122.243V358.021H118.981V368.795H116.375V347.576H118.981ZM130.74 353.609C130.74 356.895 132.688 360.627 136.045 362.176L134.59 364.242C132.195 363.115 130.423 360.838 129.473 358.186C128.51 361.096 126.656 363.584 124.215 364.758L122.689 362.716C126.069 361.12 128.111 357.13 128.135 353.609V351.825H123.511V349.665H135.176V351.825H130.74V353.609ZM139.753 347.576V355.839H143.016V358.021H139.753V368.795H137.148V347.576H139.753ZM145.175 360.228C145.175 355.815 146.49 352.13 148.696 348.985H151.513C149.893 351.308 148.274 356.026 148.274 360.228C148.274 364.429 149.893 369.147 151.513 371.494H148.696C146.49 368.326 145.175 364.664 145.175 360.228ZM163.014 354.383C162.873 352.928 161.629 352.083 159.798 352.083C157.874 352.083 156.7 353.022 156.7 354.289C156.7 355.721 158.202 356.308 159.611 356.637L161.207 357.059C163.742 357.646 166.183 358.984 166.183 361.941C166.183 364.922 163.836 366.964 159.751 366.964C155.785 366.964 153.297 365.063 153.156 361.707H156.16C156.301 363.49 157.803 364.359 159.728 364.359C161.747 364.359 163.131 363.373 163.131 361.918C163.131 360.58 161.887 360.017 160.057 359.547L158.132 359.054C155.339 358.327 153.602 356.918 153.602 354.477C153.602 351.473 156.278 349.478 159.845 349.478C163.46 349.478 165.901 351.52 165.948 354.383H163.014ZM171.769 349.712V366.706H168.718V349.712H171.769ZM180.383 360.228C180.383 364.664 179.069 368.326 176.862 371.494H174.046C175.665 369.147 177.285 364.429 177.285 360.228C177.285 356.026 175.665 351.308 174.046 348.985H176.862C179.069 352.13 180.383 355.815 180.383 360.228Z" fill="#FCFEFF"/>
<rect x="0.847656" y="128.206" width="220" height="100" rx="10" fill="#A1D0F9"/>
<rect opacity="0.3" x="6.84766" y="134.206" width="208" height="88" rx="10" fill="#EBF5FE"/>
<path d="M67.3776 167.576V183.631H64.8896V167.576H67.3776ZM63.1527 167.952V182.974H60.6882V175.651H58.4348V179.829H50.0554V169.243H52.5199V172.599H56.0172V169.243H58.4348V173.538H60.6882V167.952H63.1527ZM52.5199 177.716H56.0172V174.595H52.5199V177.716ZM67.9644 186.26V188.373H53.1771V181.495H55.7825V186.26H67.9644ZM87.7982 167.576V188.819H85.1928V177.974H81.0853V175.862H85.1928V167.576H87.7982ZM77.7522 174.313C77.7288 177.529 79.6535 180.955 83.01 182.434L81.6016 184.429C79.1723 183.397 77.4119 181.272 76.4848 178.726C75.5459 181.425 73.7972 183.69 71.3679 184.781L69.9596 182.763C73.2691 181.261 75.1469 177.646 75.1469 174.313V173.21H70.5933V171.121H75.1703V168.022H77.7757V171.121H82.2119V173.21H77.7522V174.313ZM110.143 180.228V182.364H101.717V188.795H99.1352V182.364H90.7557V180.228H110.143ZM108.054 176.402V178.467H93.2437V168.492H107.82V170.557H95.8256V172.435H107.35V174.454H95.8256V176.402H108.054ZM119.157 173.609C119.157 176.895 121.105 180.627 124.461 182.176L123.006 184.242C120.612 183.115 118.84 180.838 117.889 178.186C116.927 181.096 115.073 183.584 112.632 184.758L111.106 182.716C114.486 181.12 116.528 177.13 116.551 173.609V171.825H111.927V169.665H123.593V171.825H119.157V173.609ZM128.17 167.576V175.839H131.433V178.021H128.17V188.795H125.565V167.576H128.17ZM151.712 184.101V186.237H132.324V184.101H140.704V179.219H143.309V184.101H151.712ZM150.046 169.29V171.426H143.356C143.438 174.477 146.584 177.282 150.938 177.928L149.905 179.993C146.314 179.336 143.38 177.446 142.018 174.806C140.645 177.482 137.735 179.441 134.202 180.11L133.169 178.045C137.406 177.329 140.528 174.477 140.61 171.426H133.944V169.29H150.046ZM169.833 167.576V172.811H172.79V174.97H169.833V179.97H167.227V167.576H169.833ZM158.707 180.815V182.645H167.227V180.815H169.833V188.537H156.125V180.815H158.707ZM158.707 186.471H167.227V184.664H158.707V186.471ZM165.702 169.548V171.637H153.121V169.548H158.12V167.412H160.725V169.548H165.702ZM159.411 172.365C162.486 172.365 164.575 173.843 164.598 176.097C164.575 178.35 162.486 179.829 159.411 179.829C156.313 179.829 154.2 178.35 154.2 176.097C154.2 173.843 156.313 172.365 159.411 172.365ZM159.411 174.289C157.792 174.289 156.735 174.97 156.735 176.097C156.735 177.247 157.792 177.904 159.411 177.904C161.031 177.904 162.11 177.247 162.11 176.097C162.11 174.97 161.031 174.289 159.411 174.289Z" fill="#1A2A3E"/>
<rect opacity="0.5" x="360.848" y="128.206" width="220" height="100" rx="10" fill="#ECF0F4"/>
<rect opacity="0.03" x="366.848" y="134.206" width="208" height="88" rx="10" fill="#1A2A3E"/>
<path d="M413.975 172.271V169.712H427.518V172.271H422.284V186.706H419.233V172.271H413.975ZM427.448 183.115C427.448 180.251 429.819 179.406 432.189 179.265C433.07 179.207 434.9 179.101 435.452 179.078V178.068C435.452 176.801 434.63 176.073 433.152 176.073C431.814 176.073 430.992 176.684 430.758 177.599H427.871C428.082 175.44 430.03 173.796 433.222 173.796C435.64 173.796 438.433 174.782 438.433 178.186V186.706H435.569V184.946H435.475C434.912 186.025 433.715 186.964 431.72 186.964C429.279 186.964 427.448 185.626 427.448 183.115ZM430.335 183.091C430.335 184.195 431.227 184.758 432.495 184.758C434.302 184.758 435.475 183.561 435.475 182.129V181.073L432.659 181.261C431.227 181.378 430.335 181.965 430.335 183.091ZM441.25 186.706V173.961H444.16V176.073H444.301C444.747 174.618 445.991 173.773 447.446 173.773C447.775 173.773 448.244 173.796 448.526 173.843V176.613C448.268 176.519 447.634 176.425 447.141 176.425C445.475 176.425 444.254 177.575 444.254 179.195V186.706H441.25ZM455.45 191.753C452.07 191.753 449.934 190.25 449.723 187.856H452.704C452.915 188.959 453.971 189.499 455.497 189.499C457.281 189.499 458.454 188.725 458.454 186.847V184.406H458.314C457.844 185.345 456.835 186.518 454.629 186.518C451.695 186.518 449.371 184.382 449.371 180.228C449.371 176.026 451.695 173.796 454.652 173.796C456.905 173.796 457.844 175.134 458.314 176.05H458.454V173.961H461.412V186.917C461.412 190.18 458.9 191.753 455.45 191.753ZM455.45 184.171C457.375 184.171 458.478 182.716 458.478 180.275C458.478 177.857 457.398 176.238 455.45 176.238C453.455 176.238 452.422 177.951 452.422 180.275C452.422 182.622 453.478 184.171 455.45 184.171ZM469.932 186.964C466.083 186.964 463.736 184.406 463.736 180.416C463.736 176.472 466.13 173.796 469.768 173.796C472.89 173.796 475.589 175.745 475.589 180.228V181.167H466.693C466.728 183.338 468.008 184.617 469.956 184.617C471.27 184.617 472.162 184.054 472.538 183.303H475.472C474.932 185.509 472.89 186.964 469.932 186.964ZM466.717 179.125H472.725C472.702 177.388 471.552 176.12 469.815 176.12C468.008 176.12 466.81 177.493 466.717 179.125ZM484.274 173.961V176.261H481.762V182.88C481.762 184.101 482.372 184.359 483.123 184.359C483.476 184.359 484.062 184.335 484.438 184.312V186.753C484.086 186.823 483.499 186.87 482.748 186.87C480.495 186.87 478.758 185.767 478.781 183.373V176.261H476.95V173.961H478.781V170.909H481.762V173.961H484.274ZM503.873 175.44C503.521 173.397 501.878 172.224 499.812 172.224C497.019 172.224 495.071 174.36 495.071 178.209C495.071 182.106 497.042 184.195 499.812 184.195C501.831 184.195 503.474 183.068 503.873 181.073H506.947C506.478 184.335 503.802 186.941 499.765 186.941C495.282 186.941 491.996 183.678 491.996 178.209C491.996 172.717 495.329 169.478 499.765 169.478C503.521 169.478 506.431 171.661 506.947 175.44H503.873ZM514.998 186.964C511.29 186.964 508.896 184.335 508.896 180.392C508.896 176.425 511.29 173.796 514.998 173.796C518.73 173.796 521.101 176.425 521.101 180.392C521.101 184.335 518.73 186.964 514.998 186.964ZM515.022 184.57C517.064 184.57 518.073 182.716 518.073 180.369C518.073 178.045 517.064 176.167 515.022 176.167C512.933 176.167 511.924 178.045 511.924 180.369C511.924 182.716 512.933 184.57 515.022 184.57ZM525.279 186.894C524.27 186.894 523.448 186.072 523.448 185.063C523.448 184.077 524.27 183.256 525.279 183.256C526.241 183.256 527.086 184.077 527.086 185.063C527.086 186.072 526.241 186.894 525.279 186.894Z" fill="#1A2A3E"/>
<path d="M290.32 162.354V163.954H284.01V168.771H282.076V163.954H275.801V162.354H290.32ZM288.756 159.489V161.036H277.664V153.565H288.58V155.112H279.598V156.519H288.229V158.03H279.598V159.489H288.756ZM297.07 157.397C297.07 159.858 298.529 162.653 301.043 163.813L299.953 165.36C298.16 164.517 296.833 162.812 296.121 160.825C295.4 163.005 294.012 164.868 292.184 165.747L291.041 164.218C293.572 163.022 295.102 160.034 295.119 157.397V156.062H291.656V154.444H300.393V156.062H297.07V157.397ZM303.82 152.88V159.067H306.264V160.702H303.82V168.771H301.869V152.88H303.82Z" fill="#1A2A3E"/>
<path d="M350.848 178.206L345.848 175.319V181.093L350.848 178.206ZM230.848 178.706L346.348 178.706V177.706L230.848 177.706V178.706Z" fill="#3399F3"/>
<path d="M615.973 109.88V125.771H614.092V117.632H612.404V124.997H610.559V110.161H612.404V116.015H614.092V109.88H615.973ZM608.994 111.603V121.675H602.754V111.603H608.994ZM604.582 113.149V120.128H607.166V113.149H604.582ZM630.352 109.88V113.712H632.566V115.347H630.352V119.144H628.4V109.88H630.352ZM625.922 110.812C625.922 114.978 623.215 117.843 618.469 119.056L617.66 117.562C621.378 116.604 623.487 114.705 623.83 112.394H618.451V110.812H625.922ZM630.352 119.812V125.771H628.4V121.376H619.77V119.812H630.352Z" fill="#1A2A3E"/>
<rect x="720.032" y="0.206055" width="220" height="100" rx="10" fill="#3D6493"/>
<rect opacity="0.2" x="726.032" y="6.20605" width="208" height="88" rx="10" fill="#1A2A3E"/>
<path d="M771.946 39.5764V60.7951H769.317V39.5764H771.946ZM765.609 41.8297C765.609 48.1437 763.168 53.5188 755.727 57.0395L754.366 54.9505C759.917 52.31 762.499 48.7188 762.957 43.8953H755.446V41.8297H765.609ZM786.851 41.1491V42.4165C786.828 43.8718 786.828 45.9608 786.335 48.6601L783.753 48.4254C784.163 46.2307 784.246 44.6112 784.293 43.3085H776.03V41.1491H786.851ZM781.499 45.9843V50.2092C783.694 50.1271 785.947 49.9628 788.001 49.6694L788.142 51.5471C783.729 52.3452 778.73 52.4156 774.998 52.4391L774.763 50.35C776.019 50.3383 777.427 50.3266 778.917 50.3031V45.9843H781.499ZM791.921 39.5764V46.1955H794.667V48.3784H791.921V55.4669H789.245V39.5764H791.921ZM792.602 58.2601V60.3726H777.932V54.0586H780.561V58.2601H792.602ZM815.135 52.2278V54.3637H806.708V60.7951H804.126V54.3637H795.747V52.2278H815.135ZM813.046 48.4019V50.4674H798.235V40.4918H812.811V42.5574H800.817V44.4351H812.341V46.4537H800.817V48.4019H813.046ZM824.148 45.6087C824.148 48.8948 826.096 52.6268 829.453 54.176L827.997 56.2415C825.603 55.1149 823.831 52.8381 822.88 50.1857C821.918 53.0963 820.064 55.5843 817.623 56.7579L816.097 54.7158C819.477 53.1197 821.519 49.1295 821.542 45.6087V43.8249H816.919V41.6654H828.584V43.8249H824.148V45.6087ZM833.161 39.5764V47.8386H836.424V50.0214H833.161V60.7951H830.556V39.5764H833.161ZM844.921 45.6087C844.921 48.8948 846.869 52.6268 850.225 54.176L848.77 56.2415C846.376 55.1149 844.604 52.8381 843.653 50.1857C842.691 53.0963 840.836 55.5843 838.395 56.7579L836.87 54.7158C840.25 53.1197 842.292 49.1295 842.315 45.6087V43.8249H837.691V41.6654H849.357V43.8249H844.921V45.6087ZM853.934 39.5764V47.8386H857.196V50.0214H853.934V60.7951H851.328V39.5764H853.934ZM865.74 40.9143L860.271 61.2645H857.642L863.135 40.9143H865.74ZM884.471 39.5764V55.1383H881.865V47.5099H878.532V45.4209H881.865V39.5764H884.471ZM878.626 41.3368V43.4493H876.748V49.6928C877.664 49.6224 878.568 49.5403 879.424 49.4346L879.589 51.3124C875.411 52.04 870.599 52.1339 867.008 52.1339L866.726 49.9745L869.12 49.951V43.4493H867.266V41.3368H878.626ZM885.011 58.2601V60.3726H870.528V53.8004H873.157V58.2601H885.011ZM871.655 49.9276C872.5 49.9041 873.357 49.8806 874.213 49.8337V43.4493H871.655V49.9276ZM904.704 49.5285V51.6175H889.822V41.4307H904.539V43.5432H892.404V49.5285H904.704ZM906.863 55.9364V58.0958H887.475V55.9364H906.863Z" fill="#FCFEFF"/>
<path d="M710.032 52.7061L705.032 49.8193V55.5928L710.032 52.7061ZM650.032 53.2061L705.532 53.2061V52.2061L650.032 52.2061V53.2061Z" fill="#3399F3"/>
<rect x="720.848" y="128.206" width="220" height="100" rx="10" fill="#3D6493"/>
<rect opacity="0.2" x="726.848" y="134.206" width="208" height="88" rx="10" fill="#1A2A3E"/>
<path d="M772.926 170.956V173.045H762.528V170.956H766.471V168.187H769.053V170.956H772.926ZM767.762 174.172C770.461 174.172 772.386 176.214 772.386 179.101C772.386 182.035 770.461 184.101 767.762 184.101C765.086 184.101 763.115 182.035 763.138 179.101C763.115 176.214 765.086 174.172 767.762 174.172ZM767.762 176.331C766.377 176.331 765.415 177.435 765.438 179.101C765.415 180.815 766.377 181.894 767.762 181.871C769.124 181.894 770.086 180.815 770.086 179.101C770.086 177.435 769.124 176.331 767.762 176.331ZM780.813 167.576V188.795H778.325V178.42H776.259V187.833H773.818V168.022H776.259V176.308H778.325V167.576H780.813ZM790.225 168.891C793.581 168.891 796.046 171.003 796.069 174.008C796.046 176.625 794.203 178.538 791.539 179.007V182.106C793.429 182.012 795.342 181.847 797.149 181.589L797.36 183.467C792.596 184.359 787.502 184.406 783.77 184.406L783.441 182.27C785.061 182.27 786.951 182.27 788.934 182.199V179.007C786.27 178.55 784.404 176.625 784.404 174.008C784.404 171.003 786.892 168.891 790.225 168.891ZM790.225 171.144C788.371 171.144 786.986 172.224 786.986 174.008C786.986 175.768 788.371 176.895 790.225 176.895C792.103 176.895 793.511 175.768 793.511 174.008C793.511 172.224 792.103 171.144 790.225 171.144ZM801.022 167.576V188.819H798.417V167.576H801.022ZM811.772 168.914L806.303 189.264H803.674L809.167 168.914H811.772ZM829.752 168.539V170.158C829.752 171.743 829.752 173.562 829.306 175.932H832.122V178.045H823.696V181.354H829.799V188.795H827.193V183.443H814.706V181.354H821.09V178.045H812.734V175.932H826.677C827.099 173.761 827.146 172.107 827.146 170.628H815.129V168.539H829.752ZM851.721 167.576V188.795H849.21V178.068H846.863V187.715H844.422V167.975H846.863V175.932H849.21V167.576H851.721ZM837.051 170.018V181.214C838.882 181.178 840.889 181.026 843.107 180.58L843.365 182.857C840.502 183.373 838.084 183.514 835.831 183.514H834.422V170.018H837.051ZM877.705 167.576V188.795H875.076V167.576H877.705ZM871.367 169.83C871.367 176.144 868.926 181.519 861.486 185.04L860.124 182.951C865.675 180.31 868.257 176.719 868.715 171.895H861.204V169.83H871.367ZM886.648 168.515C889.394 168.492 891.553 170.076 892.093 172.412H895.919V167.576H898.524V178.96H895.919V174.524H892.116C891.588 176.907 889.405 178.514 886.648 178.514C883.385 178.514 881.038 176.425 881.038 173.491C881.038 170.604 883.385 168.492 886.648 168.515ZM886.648 170.698C884.817 170.698 883.526 171.778 883.526 173.491C883.526 175.181 884.817 176.308 886.648 176.308C888.431 176.308 889.699 175.181 889.722 173.491C889.699 171.778 888.431 170.698 886.648 170.698ZM887.117 179.946V182.199H895.919V179.946H898.524V188.537H884.535V179.946H887.117ZM887.117 186.424H895.919V184.218H887.117V186.424Z" fill="#FCFEFF"/>
<path d="M710.848 178.206L705.848 175.319L705.848 181.093L710.848 178.206ZM590.848 178.706L706.348 178.706L706.348 177.706L590.848 177.706L590.848 178.706Z" fill="#3399F3"/>
<rect x="720.032" y="256.206" width="220" height="100" rx="10" fill="#3D6493"/>
<rect opacity="0.2" x="726.032" y="262.206" width="208" height="88" rx="10" fill="#1A2A3E"/>
<path d="M758.825 297.712H762.581L767.627 310.059H767.839L772.885 297.712H776.641V314.706H773.707V303.017H773.542L768.825 314.659H766.642L761.924 302.97H761.783V314.706H758.825V297.712ZM779.058 311.115C779.058 308.251 781.429 307.406 783.8 307.265C784.68 307.207 786.511 307.101 787.062 307.078V306.068C787.062 304.801 786.241 304.073 784.762 304.073C783.424 304.073 782.603 304.684 782.368 305.599H779.481C779.692 303.44 781.64 301.796 784.832 301.796C787.25 301.796 790.043 302.782 790.043 306.186V314.706H787.18V312.946H787.086C786.522 314.025 785.325 314.964 783.33 314.964C780.889 314.964 779.058 313.626 779.058 311.115ZM781.945 311.091C781.945 312.195 782.837 312.758 784.105 312.758C785.912 312.758 787.086 311.561 787.086 310.129V309.073L784.269 309.261C782.837 309.378 781.945 309.965 781.945 311.091ZM795.864 307.242V314.706H792.86V301.961H795.723V304.12H795.888C796.474 302.688 797.765 301.796 799.667 301.796C802.319 301.796 804.056 303.533 804.032 306.585V314.706H801.051V307.054C801.051 305.341 800.136 304.331 798.563 304.331C796.967 304.331 795.864 305.388 795.864 307.242ZM806.309 311.115C806.309 308.251 808.68 307.406 811.051 307.265C811.931 307.207 813.762 307.101 814.313 307.078V306.068C814.313 304.801 813.492 304.073 812.013 304.073C810.675 304.073 809.853 304.684 809.619 305.599H806.732C806.943 303.44 808.891 301.796 812.083 301.796C814.501 301.796 817.294 302.782 817.294 306.186V314.706H814.43V312.946H814.337C813.773 314.025 812.576 314.964 810.581 314.964C808.14 314.964 806.309 313.626 806.309 311.115ZM809.196 311.091C809.196 312.195 810.088 312.758 811.356 312.758C813.163 312.758 814.337 311.561 814.337 310.129V309.073L811.52 309.261C810.088 309.378 809.196 309.965 809.196 311.091ZM825.674 319.753C822.294 319.753 820.158 318.25 819.946 315.856H822.927C823.139 316.959 824.195 317.499 825.72 317.499C827.504 317.499 828.678 316.725 828.678 314.847V312.406H828.537C828.068 313.345 827.058 314.518 824.852 314.518C821.918 314.518 819.594 312.382 819.594 308.228C819.594 304.026 821.918 301.796 824.875 301.796C827.129 301.796 828.068 303.134 828.537 304.05H828.678V301.961H831.635V314.917C831.635 318.18 829.124 319.753 825.674 319.753ZM825.674 312.171C827.598 312.171 828.701 310.716 828.701 308.275C828.701 305.857 827.622 304.238 825.674 304.238C823.678 304.238 822.646 305.951 822.646 308.275C822.646 310.622 823.702 312.171 825.674 312.171ZM840.156 314.964C836.306 314.964 833.959 312.406 833.959 308.416C833.959 304.472 836.353 301.796 839.991 301.796C843.113 301.796 845.812 303.745 845.812 308.228V309.167H836.917C836.952 311.338 838.231 312.617 840.179 312.617C841.494 312.617 842.386 312.054 842.761 311.303H845.695C845.155 313.509 843.113 314.964 840.156 314.964ZM836.94 307.125H842.949C842.925 305.388 841.775 304.12 840.038 304.12C838.231 304.12 837.034 305.493 836.94 307.125ZM848.136 314.706V301.961H851V304.12H851.164C851.68 302.665 852.971 301.796 854.661 301.796C856.398 301.796 857.619 302.665 858.112 304.12H858.253C858.816 302.712 860.224 301.796 862.078 301.796C864.402 301.796 866.045 303.299 866.045 306.139V314.706H863.064V306.608C863.064 305.012 862.102 304.308 860.881 304.308C859.403 304.308 858.558 305.317 858.558 306.749V314.706H855.647V306.491C855.647 305.176 854.755 304.308 853.488 304.308C852.197 304.308 851.141 305.364 851.141 306.96V314.706H848.136ZM874.566 314.964C870.716 314.964 868.369 312.406 868.369 308.416C868.369 304.472 870.763 301.796 874.401 301.796C877.523 301.796 880.222 303.745 880.222 308.228V309.167H871.326C871.362 311.338 872.641 312.617 874.589 312.617C875.903 312.617 876.795 312.054 877.171 311.303H880.105C879.565 313.509 877.523 314.964 874.566 314.964ZM871.35 307.125H877.359C877.335 305.388 876.185 304.12 874.448 304.12C872.641 304.12 871.444 305.493 871.35 307.125ZM885.55 307.242V314.706H882.546V301.961H885.41V304.12H885.574C886.161 302.688 887.452 301.796 889.353 301.796C892.005 301.796 893.742 303.533 893.719 306.585V314.706H890.738V307.054C890.738 305.341 889.822 304.331 888.25 304.331C886.654 304.331 885.55 305.388 885.55 307.242ZM902.943 301.961V304.261H900.432V310.88C900.432 312.101 901.042 312.359 901.793 312.359C902.145 312.359 902.732 312.335 903.107 312.312V314.753C902.755 314.823 902.169 314.87 901.417 314.87C899.164 314.87 897.427 313.767 897.451 311.373V304.261H895.62V301.961H897.451V298.909H900.432V301.961H902.943Z" fill="#FCFEFF"/>
<path d="M710.032 308.706L705.032 305.819V311.593L710.032 308.706ZM650.032 309.206H705.532V308.206H650.032V309.206Z" fill="#3399F3"/>
<path d="M365.786 316.897V326.179H363.835V324.421H360.056V322.839H363.835V321.134H360.214C359.203 323.665 356.892 325.432 353.429 326.39L352.638 324.843C356.355 323.832 358.333 321.951 358.649 319.587H353.481V318.005H360.776C360.776 318.559 360.732 319.086 360.636 319.587H363.835V316.897H365.786ZM360.53 326.354C363.747 326.354 365.892 327.567 365.892 329.519C365.892 331.47 363.747 332.683 360.53 332.683C357.278 332.683 355.134 331.47 355.134 329.519C355.134 327.567 357.278 326.354 360.53 326.354ZM360.53 327.884C358.386 327.884 357.085 328.464 357.085 329.519C357.085 330.556 358.386 331.136 360.53 331.136C362.622 331.136 363.94 330.556 363.94 329.519C363.94 328.464 362.622 327.884 360.53 327.884ZM372.448 317.776C373.731 317.776 374.839 318.251 375.595 319.042H379.392V316.88H381.343V326.231H379.392V324.21H375.595C374.839 325.001 373.723 325.467 372.448 325.458C370.058 325.476 368.247 323.858 368.247 321.626C368.247 319.376 370.058 317.776 372.448 317.776ZM372.448 319.446C371.077 319.446 370.11 320.29 370.11 321.626C370.11 322.927 371.077 323.806 372.448 323.806C373.767 323.806 374.733 322.927 374.751 321.626C374.733 320.29 373.767 319.446 372.448 319.446ZM375.964 326.565C379.304 326.565 381.396 327.708 381.396 329.659C381.396 331.61 379.304 332.753 375.964 332.753C372.642 332.753 370.55 331.61 370.567 329.659C370.55 327.708 372.642 326.565 375.964 326.565ZM375.964 328.06C373.749 328.06 372.466 328.622 372.483 329.659C372.466 330.661 373.749 331.224 375.964 331.224C378.214 331.224 379.479 330.661 379.479 329.659C379.479 328.622 378.214 328.06 375.964 328.06ZM376.474 320.606C376.562 320.932 376.614 321.266 376.614 321.626C376.614 321.978 376.562 322.312 376.491 322.628H379.392V320.606H376.474ZM389.306 320.149C389.306 321.872 390.589 323.56 393.085 324.245L392.188 325.757C390.36 325.265 389.06 324.192 388.356 322.821C387.653 324.333 386.326 325.502 384.437 326.038L383.505 324.526C386.019 323.823 387.354 322.048 387.354 320.149V320.114H384.032V318.567H387.354V316.81H389.323V318.567H392.628V320.114H389.306V320.149ZM396.126 316.88V320.712H398.341V322.329H396.126V326.231H394.175V316.88H396.126ZM396.126 326.899V332.577H385.86V326.899H396.126ZM387.794 328.446V330.995H394.192V328.446H387.794ZM403.491 318.04C404.933 318.04 406.119 318.84 406.831 320.237H410.54V316.88H412.474V332.788H410.54V326.776H406.972C406.286 328.358 405.029 329.272 403.491 329.272C401.101 329.272 399.413 327.11 399.413 323.647C399.413 320.22 401.101 318.04 403.491 318.04ZM403.491 319.798C402.173 319.798 401.276 321.222 401.294 323.647C401.276 326.091 402.173 327.515 403.491 327.515C404.81 327.515 405.688 326.091 405.706 323.647C405.688 321.222 404.81 319.798 403.491 319.798ZM407.376 321.837C407.49 322.391 407.552 322.997 407.552 323.647C407.552 324.201 407.508 324.711 407.429 325.194H410.54V321.837H407.376ZM420.437 317.882L416.341 333.122H414.372L418.485 317.882H420.437ZM426.343 317.583C428.751 317.565 430.509 318.937 430.509 320.923C430.509 322.874 428.751 324.263 426.343 324.245C423.952 324.263 422.212 322.874 422.212 320.923C422.212 318.937 423.952 317.565 426.343 317.583ZM426.343 319.165C425.042 319.147 424.093 319.833 424.11 320.923C424.093 321.995 425.042 322.646 426.343 322.646C427.696 322.646 428.646 321.995 428.646 320.923C428.646 319.833 427.696 319.147 426.343 319.165ZM434.446 316.897V332.753H432.513V316.897H434.446ZM421.175 325.335C424.04 325.335 428.048 325.282 431.476 324.772L431.616 326.214C430.245 326.478 428.821 326.645 427.433 326.741V332.278H425.464V326.864C423.996 326.926 422.616 326.935 421.421 326.952L421.175 325.335ZM449.95 316.897V325.897H447.981V316.897H449.95ZM449.95 326.671V332.577H439.403V326.671H449.95ZM441.337 328.218V330.995H448.034V328.218H441.337ZM441.284 317.653C443.728 317.653 445.556 319.2 445.556 321.45C445.556 323.63 443.728 325.212 441.284 325.212C438.823 325.212 436.995 323.63 436.995 321.45C436.995 319.2 438.823 317.653 441.284 317.653ZM441.284 319.306C439.896 319.306 438.894 320.132 438.911 321.45C438.894 322.733 439.896 323.56 441.284 323.56C442.655 323.56 443.64 322.733 443.64 321.45C443.64 320.132 442.655 319.306 441.284 319.306Z" fill="#1A2A3E"/>
<path d="M230.848 358.206H470.568" stroke="#3399F3" stroke-linecap="round" stroke-linejoin="round"/>
<path d="M650.032 52.7061L650.032 308.706" stroke="#3399F3" stroke-linecap="round" stroke-linejoin="round"/>
<path d="M470.068 358.206C470.068 358.482 470.292 358.706 470.568 358.706C470.845 358.706 471.068 358.482 471.068 358.206L470.068 358.206ZM470.568 238.206L467.682 243.206L473.455 243.206L470.568 238.206ZM471.068 358.206L471.068 242.706L470.068 242.706L470.068 358.206L471.068 358.206Z" fill="#3399F3"/>
</svg>
