<svg width="905" height="674" viewBox="0 0 905 674" fill="none" xmlns="http://www.w3.org/2000/svg">
<path d="M99.1572 603.193C99.1572 604.573 100.277 605.693 101.657 605.693C103.038 605.693 104.157 604.573 104.157 603.193L99.1572 603.193ZM103.425 1.42499C102.449 0.448669 100.866 0.448669 99.8894 1.42499L83.9795 17.3349C83.0032 18.3112 83.0032 19.8941 83.9795 20.8704C84.9558 21.8467 86.5388 21.8467 87.5151 20.8704L101.657 6.72827L115.799 20.8704C116.776 21.8467 118.359 21.8467 119.335 20.8704C120.311 19.8941 120.311 18.3112 119.335 17.3349L103.425 1.42499ZM104.157 603.193L104.157 3.19275L99.1572 3.19275L99.1572 603.193L104.157 603.193Z" fill="black"/>
<path d="M101.657 600.693C100.277 600.693 99.1572 601.812 99.1572 603.193C99.1572 604.573 100.277 605.693 101.657 605.693V600.693ZM903.425 604.961C904.401 603.984 904.401 602.401 903.425 601.425L887.515 585.515C886.539 584.539 884.956 584.539 883.98 585.515C883.003 586.491 883.003 588.074 883.98 589.051L898.122 603.193L883.98 617.335C883.003 618.311 883.003 619.894 883.98 620.87C884.956 621.847 886.539 621.847 887.515 620.87L903.425 604.961ZM101.657 605.693L901.657 605.693V600.693L101.657 600.693V605.693Z" fill="black"/>
<rect opacity="0.5" x="166.189" y="250.867" width="400" height="300" rx="10" fill="#ECF0F4"/>
<rect opacity="0.03" x="172.189" y="256.867" width="388" height="288" rx="10" fill="#1A2A3E"/>
<rect x="301.657" y="50.1261" width="220" height="150" rx="10" fill="#3D6493"/>
<rect opacity="0.2" x="307.657" y="56.1261" width="208" height="138" rx="10" fill="#1A2A3E"/>
<path d="M351.628 114.52V130.011H348.999V114.52H351.628ZM352.215 133.18V135.293H337.592V128.533H340.22V133.18H352.215ZM341.863 117.759C341.863 120.717 343.6 123.51 346.957 124.636L345.619 126.702C343.201 125.857 341.476 124.167 340.549 122.007C339.587 124.319 337.838 126.174 335.338 127.077L333.977 125.012C337.427 123.791 339.164 120.81 339.164 117.759V115.694H341.863V117.759ZM362.308 119.59C362.284 123.369 364.185 127.218 367.471 128.791L365.875 130.88C363.575 129.718 361.92 127.476 361.017 124.777C360.089 127.664 358.352 130.058 355.923 131.279L354.327 129.19C357.73 127.57 359.679 123.51 359.702 119.59V116.21H362.308V119.59ZM371.344 114.496V122.806H374.607V125.035H371.344V135.715H368.739V114.496H371.344ZM381.39 115.435C384.136 115.412 386.296 116.996 386.836 119.332H390.662V114.496H393.267V125.88H390.662V121.444H386.859C386.331 123.827 384.148 125.434 381.39 125.434C378.128 125.434 375.78 123.345 375.78 120.411C375.78 117.524 378.128 115.412 381.39 115.435ZM381.39 117.618C379.559 117.618 378.268 118.698 378.268 120.411C378.268 122.101 379.559 123.228 381.39 123.228C383.174 123.228 384.442 122.101 384.465 120.411C384.442 118.698 383.174 117.618 381.39 117.618ZM381.86 126.866V129.119H390.662V126.866H393.267V135.457H379.278V126.866H381.86ZM381.86 133.344H390.662V131.138H381.86V133.344ZM418.851 115.365V122.735H412.936V124.965H421.316V127.077H401.975V124.965H410.308V122.735H404.416V115.365H418.851ZM406.951 117.407V120.67H416.269V117.407H406.951ZM418.945 128.861V135.715H416.34V130.927H404.111V128.861H418.945ZM442.136 131.162V133.274H422.748V131.162H427.771V126.796H424.414V124.683H427.395V118.393H424.344V116.304H440.446V118.393H437.347V124.683H440.375V126.796H437.019V131.162H442.136ZM430.001 124.683H434.765V118.393H430.001V124.683ZM430.376 131.162H434.413V126.796H430.376V131.162ZM456.148 115.435C459.364 115.412 461.711 117.243 461.711 119.895C461.711 122.5 459.364 124.355 456.148 124.331C452.956 124.355 450.632 122.5 450.632 119.895C450.632 117.243 452.956 115.412 456.148 115.435ZM456.148 117.548C454.411 117.524 453.144 118.44 453.167 119.895C453.144 121.327 454.411 122.195 456.148 122.195C457.956 122.195 459.223 121.327 459.223 119.895C459.223 118.44 457.956 117.524 456.148 117.548ZM466.969 114.52V135.692H464.387V114.52H466.969ZM449.248 125.786C453.073 125.786 458.425 125.716 463.002 125.035L463.19 126.96C461.359 127.312 459.458 127.535 457.604 127.664V135.058H454.975V127.829C453.015 127.911 451.172 127.922 449.576 127.946L449.248 125.786ZM487.624 114.496V135.715H485.019V114.496H487.624ZM478.141 121.233C478.141 124.472 480.113 127.922 483.54 129.354L482.108 131.349C479.667 130.328 477.848 128.204 476.874 125.646C475.923 128.357 474.093 130.622 471.616 131.701L470.208 129.683C473.588 128.181 475.536 124.613 475.536 121.233V120.13H470.865V118.041H475.536V114.942H478.118V118.041H482.695V120.13H478.141V121.233Z" fill="#FCFEFF"/>
<rect x="621.957" y="154.142" width="200" height="160" rx="10" fill="#A1D0F9"/>
<rect opacity="0.3" x="627.957" y="160.142" width="188" height="148" rx="10" fill="#EBF5FE"/>
<path d="M677.196 213.707V211.149H690.739V213.707H685.505V228.142H682.454V213.707H677.196ZM696.701 228.401C692.993 228.401 690.599 225.772 690.599 221.829C690.599 217.862 692.993 215.233 696.701 215.233C700.433 215.233 702.804 217.862 702.804 221.829C702.804 225.772 700.433 228.401 696.701 228.401ZM696.725 226.007C698.767 226.007 699.776 224.152 699.776 221.805C699.776 219.481 698.767 217.604 696.725 217.604C694.636 217.604 693.626 219.481 693.626 221.805C693.626 224.152 694.636 226.007 696.725 226.007ZM705.128 232.931V215.397H708.062V217.486H708.249C708.719 216.571 709.658 215.233 711.911 215.233C714.845 215.233 717.169 217.533 717.169 221.782C717.169 225.983 714.915 228.377 711.911 228.377C709.705 228.377 708.719 227.063 708.249 226.124H708.132V232.931H705.128ZM708.062 221.758C708.062 224.246 709.141 225.913 711.09 225.913C713.061 225.913 714.117 224.176 714.117 221.758C714.117 219.387 713.085 217.674 711.09 217.674C709.141 217.674 708.062 219.294 708.062 221.758ZM724.609 213.707V211.149H738.153V213.707H732.918V228.142H729.867V213.707H724.609ZM740.406 228.142V215.397H743.41V228.142H740.406ZM741.932 213.59C740.993 213.59 740.195 212.862 740.195 211.947C740.195 211.055 740.993 210.327 741.932 210.327C742.894 210.327 743.669 211.055 743.669 211.947C743.669 212.862 742.894 213.59 741.932 213.59ZM751.931 228.401C748.081 228.401 745.734 225.842 745.734 221.852C745.734 217.909 748.128 215.233 751.766 215.233C754.888 215.233 757.587 217.181 757.587 221.664V222.603H748.692C748.727 224.774 750.006 226.053 751.954 226.053C753.269 226.053 754.161 225.49 754.536 224.739H757.47C756.93 226.945 754.888 228.401 751.931 228.401ZM748.715 220.561H754.724C754.7 218.824 753.55 217.557 751.813 217.557C750.006 217.557 748.809 218.93 748.715 220.561ZM759.911 228.142V215.397H762.822V217.51H762.962C763.408 216.054 764.652 215.209 766.108 215.209C766.436 215.209 766.906 215.233 767.187 215.28V218.05C766.929 217.956 766.296 217.862 765.803 217.862C764.136 217.862 762.916 219.012 762.916 220.631V228.142H759.911ZM709.763 238.013V259.231H707.275V248.411H704.881V258.152H702.487V238.412H704.881V246.322H707.275V238.013H709.763ZM700.093 240.524V242.637H694.788V252.073C697.1 252.049 699.001 251.932 701.149 251.533L701.337 253.669C698.779 254.185 696.549 254.255 693.591 254.279H692.159V240.524H700.093ZM724.175 240.125V242.191H712.322V240.125H717.063V237.825H719.669V240.125H724.175ZM718.331 243.036C721.218 243.036 723.283 244.632 723.307 247.003C723.283 249.35 721.218 250.922 718.331 250.922C715.444 250.922 713.402 249.35 713.425 247.003C713.402 244.632 715.444 243.036 718.331 243.036ZM718.331 244.984C716.828 244.984 715.843 245.735 715.866 247.003C715.843 248.247 716.828 248.974 718.331 248.974C719.833 248.974 720.866 248.247 720.866 247.003C720.866 245.735 719.833 244.984 718.331 244.984ZM730.043 238.013V251.603H727.438V249.115H724.292V247.026H727.438V244.937H724.316V242.825H727.438V238.013H730.043ZM722.908 251.838C727.391 251.838 730.16 253.199 730.16 255.523C730.16 257.823 727.391 259.208 722.908 259.208C718.425 259.208 715.655 257.823 715.655 255.523C715.655 253.199 718.425 251.838 722.908 251.838ZM722.908 253.833C720.044 253.833 718.401 254.396 718.401 255.523C718.401 256.626 720.044 257.213 722.908 257.213C725.748 257.213 727.367 256.626 727.367 255.523C727.367 254.396 725.748 253.833 722.908 253.833ZM740.629 243.106C740.605 246.885 742.507 250.735 745.793 252.307L744.197 254.396C741.896 253.234 740.242 250.993 739.338 248.294C738.411 251.181 736.674 253.575 734.245 254.795L732.648 252.706C736.052 251.087 738 247.026 738.024 243.106V239.726H740.629V243.106ZM749.666 238.013V246.322H752.928V248.552H749.666V259.231H747.06V238.013H749.666Z" fill="#1A2A3E"/>
<path d="M314.656 380.367V363.373H325.547V365.931H317.708V370.579H324.796V373.137H317.708V380.367H314.656ZM332.612 380.625C328.904 380.625 326.51 377.996 326.51 374.053C326.51 370.086 328.904 367.457 332.612 367.457C336.344 367.457 338.715 370.086 338.715 374.053C338.715 377.996 336.344 380.625 332.612 380.625ZM332.636 378.231C334.678 378.231 335.687 376.376 335.687 374.029C335.687 371.705 334.678 369.828 332.636 369.828C330.547 369.828 329.538 371.705 329.538 374.029C329.538 376.376 330.547 378.231 332.636 378.231ZM344.043 363.373V380.367H341.039V363.373H344.043ZM349.911 363.373V380.367H346.907V363.373H349.911ZM358.338 380.625C354.629 380.625 352.235 377.996 352.235 374.053C352.235 370.086 354.629 367.457 358.338 367.457C362.07 367.457 364.44 370.086 364.44 374.053C364.44 377.996 362.07 380.625 358.338 380.625ZM358.361 378.231C360.403 378.231 361.412 376.376 361.412 374.029C361.412 371.705 360.403 369.828 358.361 369.828C356.272 369.828 355.263 371.705 355.263 374.029C355.263 376.376 356.272 378.231 358.361 378.231ZM369.064 380.367L365.45 367.621H368.501L370.754 376.588H370.872L373.148 367.621H376.176L378.477 376.541H378.594L380.824 367.621H383.875L380.26 380.367H377.139L374.744 371.729H374.58L372.186 380.367H369.064ZM391.081 380.625C387.232 380.625 384.884 378.066 384.884 374.076C384.884 370.133 387.278 367.457 390.917 367.457C394.038 367.457 396.738 369.405 396.738 373.888V374.827H387.842C387.877 376.998 389.156 378.278 391.104 378.278C392.419 378.278 393.311 377.714 393.686 376.963H396.62C396.08 379.17 394.038 380.625 391.081 380.625ZM387.865 372.785H393.874C393.851 371.048 392.701 369.781 390.964 369.781C389.156 369.781 387.959 371.154 387.865 372.785ZM399.061 380.367V367.621H401.972V369.734H402.113C402.559 368.279 403.803 367.434 405.258 367.434C405.587 367.434 406.056 367.457 406.338 367.504V370.274C406.08 370.18 405.446 370.086 404.953 370.086C403.286 370.086 402.066 371.236 402.066 372.856V380.367H399.061ZM415.351 371.259C415.163 370.297 414.365 369.687 413.098 369.687C411.807 369.687 410.868 370.321 410.891 371.189C410.868 371.846 411.408 372.339 412.699 372.644L414.858 373.09C417.276 373.63 418.426 374.733 418.449 376.564C418.426 378.958 416.337 380.625 413.004 380.625C409.765 380.625 407.84 379.17 407.535 376.728H410.586C410.774 377.808 411.619 378.348 413.004 378.348C414.436 378.348 415.398 377.761 415.398 376.822C415.398 376.095 414.811 375.625 413.544 375.344L411.502 374.898C409.131 374.428 407.91 373.184 407.91 371.353C407.91 369.006 409.929 367.457 413.051 367.457C416.102 367.457 417.98 368.936 418.191 371.259H415.351ZM309.328 396.269C309.328 399.555 311.276 403.287 314.633 404.836L313.178 406.902C310.783 405.775 309.011 403.499 308.061 400.846C307.098 403.757 305.244 406.245 302.803 407.418L301.277 405.376C304.657 403.78 306.699 399.79 306.723 396.269V394.485H302.099V392.326H313.764V394.485H309.328V396.269ZM318.341 390.237V398.499H321.604V400.682H318.341V411.456H315.736V390.237H318.341ZM330.101 393.992C330.077 396.786 331.838 399.438 335.171 400.518L333.809 402.583C331.451 401.785 329.784 400.189 328.857 398.147C327.906 400.4 326.158 402.161 323.693 403.029L322.238 400.964C325.735 399.837 327.472 396.973 327.472 393.969V391.551H330.101V393.992ZM339.231 390.237V396.504H342.189V398.71H339.231V405.822H336.626V390.237H339.231ZM340.076 408.921V411.033H325.641V404.297H328.317V408.921H340.076ZM362.633 400.729V402.818H354.441V406.714H351.789V402.818H343.245V400.729H362.633ZM360.497 408.897V411.033H345.616V404.743H348.245V408.897H360.497ZM352.916 390.706C357.493 390.706 360.52 392.373 360.52 395.049C360.52 397.725 357.493 399.368 352.916 399.368C348.339 399.368 345.311 397.725 345.311 395.049C345.311 392.373 348.339 390.706 352.916 390.706ZM352.916 392.772C350.005 392.772 348.104 393.593 348.127 395.049C348.104 396.457 350.005 397.279 352.916 397.279C355.85 397.279 357.727 396.457 357.727 395.049C357.727 393.593 355.85 392.772 352.916 392.772ZM383.382 400.447V402.536H364.041V400.447H368.548V397.748C366.952 397.079 366.036 396.011 366.036 394.626C366.036 392.091 369.017 390.589 373.688 390.589C378.359 390.589 381.317 392.091 381.34 394.626C381.328 396.023 380.413 397.091 378.805 397.748V400.447H383.382ZM373.688 403.827C378.265 403.804 381.011 405.165 381.035 407.606C381.011 410.071 378.265 411.409 373.688 411.409C369.064 411.409 366.295 410.071 366.295 407.606C366.295 405.165 369.064 403.804 373.688 403.827ZM373.688 405.799C370.59 405.799 368.923 406.409 368.947 407.606C368.923 408.803 370.59 409.437 373.688 409.437C376.716 409.437 378.406 408.803 378.43 407.606C378.406 406.409 376.716 405.799 373.688 405.799ZM373.688 392.608C370.543 392.608 368.736 393.312 368.759 394.626C368.736 395.917 370.543 396.598 373.688 396.598C376.81 396.598 378.641 395.917 378.641 394.626C378.641 393.312 376.81 392.608 373.688 392.608ZM371.177 400.447H376.2V398.429C375.437 398.534 374.592 398.593 373.688 398.593C372.785 398.593 371.94 398.534 371.177 398.429V400.447ZM392.395 395.33C392.372 399.109 394.273 402.959 397.559 404.531L395.963 406.62C393.663 405.459 392.008 403.217 391.104 400.518C390.177 403.405 388.44 405.799 386.011 407.019L384.415 404.93C387.818 403.311 389.767 399.25 389.79 395.33V391.95H392.395V395.33ZM401.432 390.237V398.546H404.695V400.776H401.432V411.456H398.827V390.237H401.432ZM422.604 391.551V400.377H412.37V391.551H422.604ZM414.952 393.617V398.335H420.022V393.617H414.952ZM428.918 390.237V402.325H426.336V390.237H428.918ZM429.364 403.569V405.541H423.308C423.554 407.184 426.101 408.991 430.162 409.39L429.27 411.385C425.831 411.033 423.226 409.672 421.947 407.911C420.62 409.695 417.992 411.01 414.529 411.385L413.637 409.39C417.698 409.038 420.303 407.231 420.538 405.541H414.506V403.569H420.609V401.715H423.237V403.569H429.364ZM334.326 431.888V434.024H325.899V440.456H323.317V434.024H314.938V431.888H334.326ZM332.237 428.062V430.128H317.426V420.152H332.002V422.218H320.008V424.096H331.533V426.114H320.008V428.062H332.237ZM343.339 425.269C343.339 428.555 345.287 432.287 348.644 433.836L347.188 435.902C344.794 434.775 343.022 432.499 342.072 429.846C341.109 432.757 339.255 435.245 336.814 436.418L335.288 434.376C338.668 432.78 340.71 428.79 340.734 425.269V423.485H336.11V421.326H347.775V423.485H343.339V425.269ZM352.352 419.237V427.499H355.615V429.682H352.352V440.456H349.747V419.237H352.352ZM364.112 425.269C364.112 428.555 366.06 432.287 369.416 433.836L367.961 435.902C365.567 434.775 363.795 432.499 362.844 429.846C361.882 432.757 360.028 435.245 357.587 436.418L356.061 434.376C359.441 432.78 361.483 428.79 361.506 425.269V423.485H356.882V421.326H368.548V423.485H364.112V425.269ZM373.125 419.237V427.499H376.388V429.682H373.125V440.456H370.52V419.237H373.125ZM396.644 429.846V431.935H388.452V435.832H385.87V431.935H377.256V429.846H396.644ZM394.156 420.199V427.875H379.721V420.199H394.156ZM382.256 422.241V425.833H391.574V422.241H382.256ZM394.508 437.921V440.033H379.603V433.883H382.209V437.921H394.508ZM405.634 424.33C405.61 428.109 407.511 431.959 410.797 433.531L409.201 435.62C406.901 434.459 405.246 432.217 404.343 429.518C403.415 432.405 401.679 434.799 399.249 436.019L397.653 433.93C401.057 432.311 403.005 428.25 403.028 424.33V420.95H405.634V424.33ZM414.67 419.237V427.546H417.933V429.776H414.67V440.456H412.065V419.237H414.67Z" fill="#1A2A3E"/>
<path d="M2.01089 55.2694V38.2757H5.06224V45.4816H12.9723V38.2757H16.0471V55.2694H12.9723V48.0401H5.06224V55.2694H2.01089ZM19.0515 55.2694V42.5242H22.0559V55.2694H19.0515ZM20.5772 40.7168C19.6383 40.7168 18.8403 39.9892 18.8403 39.0738C18.8403 38.1818 19.6383 37.4542 20.5772 37.4542C21.5395 37.4542 22.3141 38.1818 22.3141 39.0738C22.3141 39.9892 21.5395 40.7168 20.5772 40.7168ZM30.4823 60.3159C27.1024 60.3159 24.9664 58.8137 24.7552 56.4195H27.7361C27.9474 57.5227 29.0036 58.0626 30.5293 58.0626C32.3131 58.0626 33.4867 57.288 33.4867 55.4102V52.9692H33.3459C32.8765 53.908 31.8672 55.0816 29.6608 55.0816C26.7268 55.0816 24.4031 52.9457 24.4031 48.7912C24.4031 44.5897 26.7268 42.3599 29.6843 42.3599C31.9376 42.3599 32.8765 43.6977 33.3459 44.6132H33.4867V42.5242H36.4442V55.4807C36.4442 58.7433 33.9327 60.3159 30.4823 60.3159ZM30.4823 52.7344C32.407 52.7344 33.5102 51.2792 33.5102 48.8381C33.5102 46.4205 32.4305 44.8009 30.4823 44.8009C28.4872 44.8009 27.4545 46.5144 27.4545 48.8381C27.4545 51.1853 28.5107 52.7344 30.4823 52.7344ZM42.3122 47.8053V55.2694H39.3078V38.2757H42.2418V44.6836H42.4061C42.9929 43.2518 44.2134 42.3599 46.1851 42.3599C48.8374 42.3599 50.5743 44.0733 50.5743 47.1481V55.2694H47.5934V47.6176C47.5934 45.8806 46.6545 44.8948 45.0819 44.8948C43.4623 44.8948 42.3122 45.9511 42.3122 47.8053Z" fill="#1A2A3E"/>
<path d="M12.1043 297.276H15.8598L20.9063 309.622H21.1175L26.164 297.276H29.9195V314.269H26.9855V302.58H26.8212L22.1033 314.222H19.9205L15.2026 302.533H15.0618V314.269H12.1043V297.276ZM32.9239 314.269V301.524H35.9283V314.269H32.9239ZM34.4496 299.717C33.5107 299.717 32.7127 298.989 32.7127 298.074C32.7127 297.182 33.5107 296.454 34.4496 296.454C35.4119 296.454 36.1865 297.182 36.1865 298.074C36.1865 298.989 35.4119 299.717 34.4496 299.717ZM43.5332 314.504C40.5288 314.504 38.2755 312.11 38.2755 307.909C38.2755 303.66 40.5992 301.36 43.5567 301.36C45.81 301.36 46.7489 302.698 47.1948 303.613H47.3122V297.276H50.2931V314.269H47.3591V312.251H47.1948C46.7254 313.19 45.7396 314.504 43.5332 314.504ZM44.3547 312.04C46.2794 312.04 47.3826 310.373 47.3826 307.885C47.3826 305.42 46.3029 303.801 44.3547 303.801C42.3596 303.801 41.3268 305.514 41.3268 307.885C41.3268 310.303 42.3831 312.04 44.3547 312.04Z" fill="#1A2A3E"/>
<path d="M7.28058 573.269V556.276H10.3319V570.687H17.8429V573.269H7.28058ZM25.706 573.528C21.9975 573.528 19.6033 570.899 19.6033 566.955C19.6033 562.989 21.9975 560.36 25.706 560.36C29.4381 560.36 31.8087 562.989 31.8087 566.955C31.8087 570.899 29.4381 573.528 25.706 573.528ZM25.7295 571.133C27.7716 571.133 28.7809 569.279 28.7809 566.932C28.7809 564.608 27.7716 562.731 25.7295 562.731C23.6405 562.731 22.6312 564.608 22.6312 566.932C22.6312 569.279 23.6405 571.133 25.7295 571.133ZM36.4327 573.269L32.818 560.524H35.8694L38.1227 569.49H38.2401L40.5168 560.524H43.5447L45.845 569.443H45.9623L48.1921 560.524H51.2435L47.6288 573.269H44.5071L42.1129 564.632H41.9486L39.5545 573.269H36.4327Z" fill="#1A2A3E"/>
<path d="M133.718 667.327V650.334H136.769V664.745H144.28V667.327H133.718ZM152.143 667.586C148.434 667.586 146.04 664.957 146.04 661.013C146.04 657.047 148.434 654.418 152.143 654.418C155.875 654.418 158.246 657.047 158.246 661.013C158.246 664.957 155.875 667.586 152.143 667.586ZM152.167 665.191C154.209 665.191 155.218 663.337 155.218 660.99C155.218 658.666 154.209 656.788 152.167 656.788C150.078 656.788 149.068 658.666 149.068 660.99C149.068 663.337 150.078 665.191 152.167 665.191ZM162.87 667.327L159.255 654.582H162.306L164.56 663.548H164.677L166.954 654.582H169.982L172.282 663.501H172.399L174.629 654.582H177.681L174.066 667.327H170.944L168.55 658.69H168.386L165.991 667.327H162.87Z" fill="#1A2A3E"/>
<path d="M815.445 667.327V650.334H818.497V657.54H826.407V650.334H829.482V667.327H826.407V660.098H818.497V667.327H815.445ZM832.486 667.327V654.582H835.49V667.327H832.486ZM834.012 652.775C833.073 652.775 832.275 652.047 832.275 651.132C832.275 650.24 833.073 649.512 834.012 649.512C834.974 649.512 835.749 650.24 835.749 651.132C835.749 652.047 834.974 652.775 834.012 652.775ZM843.917 672.374C840.537 672.374 838.401 670.872 838.19 668.478H841.171C841.382 669.581 842.438 670.121 843.964 670.121C845.748 670.121 846.921 669.346 846.921 667.468V665.027H846.78C846.311 665.966 845.302 667.14 843.095 667.14C840.161 667.14 837.838 665.004 837.838 660.849C837.838 656.648 840.161 654.418 843.119 654.418C845.372 654.418 846.311 655.756 846.78 656.671H846.921V654.582H849.879V667.539C849.879 670.801 847.367 672.374 843.917 672.374ZM843.917 664.792C845.842 664.792 846.945 663.337 846.945 660.896C846.945 658.478 845.865 656.859 843.917 656.859C841.922 656.859 840.889 658.572 840.889 660.896C840.889 663.243 841.945 664.792 843.917 664.792ZM855.747 659.863V667.327H852.742V650.334H855.676V656.742H855.841C856.427 655.31 857.648 654.418 859.62 654.418C862.272 654.418 864.009 656.131 864.009 659.206V667.327H861.028V659.676C861.028 657.939 860.089 656.953 858.516 656.953C856.897 656.953 855.747 658.009 855.747 659.863Z" fill="#1A2A3E"/>
</svg>
