<svg width="941" height="525" viewBox="0 0 941 525" fill="none" xmlns="http://www.w3.org/2000/svg">
<rect x="720.848" y="64.0908" width="220" height="100" rx="10" fill="#3D6493"/>
<rect opacity="0.2" x="726.848" y="70.0908" width="208" height="88" rx="10" fill="#1A2A3E"/>
<path d="M816.002 105.597V122.591H812.95V105.597H816.002ZM819.17 122.591V105.597H825.555C829.451 105.597 831.54 107.968 831.54 111.23C831.54 114.493 829.428 116.84 825.508 116.84H822.222V122.591H819.17ZM822.222 114.329H825.085C827.386 114.329 828.418 113.038 828.418 111.23C828.418 109.4 827.386 108.156 825.085 108.156H822.222V114.329ZM849.167 114.094C849.167 119.586 845.834 122.826 841.375 122.826C836.915 122.826 833.582 119.563 833.582 114.094C833.582 108.602 836.915 105.362 841.375 105.362C845.834 105.362 849.167 108.602 849.167 114.094ZM846.093 114.094C846.093 110.221 844.145 108.109 841.375 108.109C838.605 108.109 836.657 110.221 836.657 114.094C836.657 117.967 838.605 120.079 841.375 120.079C844.145 120.079 846.093 117.967 846.093 114.094Z" fill="#FCFEFF"/>
<rect x="720.848" y="184.091" width="220" height="100" rx="10" fill="#3D6493"/>
<rect opacity="0.2" x="726.848" y="190.091" width="208" height="88" rx="10" fill="#1A2A3E"/>
<path d="M763.601 227.217C763.577 230.01 765.338 232.662 768.671 233.742L767.309 235.807C764.95 235.009 763.284 233.413 762.357 231.371C761.406 233.625 759.657 235.385 757.193 236.253L755.737 234.188C759.235 233.061 760.972 230.198 760.972 227.193V224.776H763.601V227.217ZM772.731 223.461V229.728H775.689V231.935H772.731V239.047H770.126V223.461H772.731ZM773.576 242.145V244.257H759.141V237.521H761.817V242.145H773.576ZM782.66 224.4C785.406 224.377 787.565 225.961 788.105 228.296H791.931V223.461H794.537V234.845H791.931V230.409H788.129C787.601 232.791 785.418 234.399 782.66 234.399C779.397 234.399 777.05 232.31 777.05 229.376C777.05 226.489 779.397 224.377 782.66 224.4ZM782.66 226.583C780.829 226.583 779.538 227.663 779.538 229.376C779.538 231.066 780.829 232.193 782.66 232.193C784.444 232.193 785.711 231.066 785.735 229.376C785.711 227.663 784.444 226.583 782.66 226.583ZM783.129 235.831V238.084H791.931V235.831H794.537V244.422H780.547V235.831H783.129ZM783.129 242.309H791.931V240.103H783.129V242.309ZM816.905 236.113V238.249H808.479V244.68H805.897V238.249H797.518V236.113H816.905ZM814.816 232.287V234.352H800.006V224.377H814.582V226.442H802.587V228.32H814.112V230.338H802.587V232.287H814.816ZM825.919 229.493C825.919 232.78 827.867 236.512 831.223 238.061L829.768 240.126C827.374 239 825.602 236.723 824.651 234.071C823.689 236.981 821.834 239.469 819.393 240.643L817.868 238.601C821.248 237.005 823.29 233.014 823.313 229.493V227.71H818.689V225.55H830.355V227.71H825.919V229.493ZM834.932 223.461V231.723H838.194V233.906H834.932V244.68H832.326V223.461H834.932ZM846.691 229.493C846.691 232.78 848.639 236.512 851.996 238.061L850.541 240.126C848.146 239 846.374 236.723 845.424 234.071C844.461 236.981 842.607 239.469 840.166 240.643L838.64 238.601C842.02 237.005 844.062 233.014 844.086 229.493V227.71H839.462V225.55H851.127V227.71H846.691V229.493ZM855.704 223.461V231.723H858.967V233.906H855.704V244.68H853.099V223.461H855.704ZM883.237 223.485V238.812H880.608V223.485H883.237ZM883.824 242.145V244.257H869.201V237.263H871.83V242.145H883.824ZM871.665 224.87C874.881 224.87 877.369 227.099 877.369 230.174C877.369 233.319 874.881 235.502 871.665 235.502C868.426 235.502 865.938 233.319 865.938 230.174C865.938 227.099 868.426 224.87 871.665 224.87ZM871.665 227.146C869.858 227.146 868.473 228.343 868.497 230.174C868.473 232.052 869.858 233.226 871.665 233.226C873.426 233.226 874.811 232.052 874.811 230.174C874.811 228.343 873.426 227.146 871.665 227.146ZM897.391 225.222C897.391 227.897 900.372 230.597 904.902 231.183L903.869 233.296C900.266 232.756 897.402 230.984 896.029 228.578C894.633 230.984 891.781 232.756 888.213 233.296L887.18 231.183C891.663 230.597 894.644 227.897 894.644 225.222V224.142H897.391V225.222ZM905.676 235.127V237.286H897.25V244.68H894.668V237.286H886.335V235.127H905.676Z" fill="#FCFEFF"/>
<rect x="720.848" y="304.091" width="220" height="100" rx="10" fill="#3D6493"/>
<rect opacity="0.2" x="726.848" y="310.091" width="208" height="88" rx="10" fill="#1A2A3E"/>
<path d="M768.049 343.461V364.68H765.42V343.461H768.049ZM761.711 345.715C761.711 352.028 759.27 357.404 751.829 360.924L750.468 358.835C756.019 356.195 758.601 352.604 759.059 347.78H751.548V345.715H761.711ZM781.991 345.292V347.428H774.621V351.207H781.615V353.272H774.621V357.638C777.883 357.615 780.43 357.497 783.399 357.005L783.634 359.117C780.371 359.633 777.531 359.751 773.729 359.751H771.968V345.292H781.991ZM787.718 343.461V351.676H790.981V353.859H787.718V364.68H785.113V343.461H787.718ZM811.237 356.113V358.249H802.81V364.68H800.229V358.249H791.849V356.113H811.237ZM809.148 352.287V354.352H794.337V344.377H808.913V346.442H796.919V348.32H808.444V350.338H796.919V352.287H809.148ZM820.25 349.493C820.25 352.78 822.198 356.512 825.555 358.061L824.099 360.126C821.705 359 819.933 356.723 818.983 354.071C818.02 356.981 816.166 359.469 813.725 360.643L812.199 358.601C815.579 357.005 817.621 353.014 817.645 349.493V347.71H813.021V345.55H824.686V347.71H820.25V349.493ZM829.263 343.461V351.723H832.526V353.906H829.263V364.68H826.658V343.461H829.263ZM841.023 349.493C841.023 352.78 842.971 356.512 846.327 358.061L844.872 360.126C842.478 359 840.706 356.723 839.755 354.071C838.793 356.981 836.939 359.469 834.498 360.643L832.972 358.601C836.352 357.005 838.394 353.014 838.417 349.493V347.71H833.793V345.55H845.459V347.71H841.023V349.493ZM850.036 343.461V351.723H853.299V353.906H850.036V364.68H847.431V343.461H850.036ZM860.763 345.597H864.518L869.565 357.943H869.776L874.822 345.597H878.578V362.591H875.644V350.902H875.48L870.762 362.544H868.579L863.861 350.855H863.72V362.591H860.763V345.597ZM886.676 362.826C883.202 362.826 881.066 360.783 881.066 358.084C881.066 356.089 882.369 354.845 884.258 353.531C883.272 352.334 882.521 351.101 882.521 349.587C882.521 347.17 884.281 345.386 886.957 345.386C889.633 345.386 891.276 347.17 891.276 349.235C891.276 350.855 890.431 352.075 889.023 353.108L887.943 353.906L891.065 357.544C891.499 356.711 891.769 355.714 891.769 354.587H894.351C894.351 356.922 893.705 358.577 892.872 359.68L895.36 362.591H892.121L891.041 361.347C889.821 362.356 888.178 362.826 886.676 362.826ZM884 357.943C884 359.305 885.08 360.384 886.77 360.384C887.673 360.384 888.6 360.068 889.422 359.469L885.878 355.408L885.596 355.62C884.446 356.465 884 357.357 884 357.943ZM885.173 349.634C885.173 350.409 885.702 351.195 886.417 352.075L887.38 351.418C888.272 350.831 888.741 350.245 888.741 349.376C888.741 348.625 888.084 347.827 887.004 347.85C885.925 347.85 885.173 348.695 885.173 349.634ZM899.139 362.591H895.877L901.862 345.597H905.617L911.626 362.591H908.364L906.955 358.389H900.548L899.139 362.591ZM901.369 355.925H906.134L903.81 349.071H903.669L901.369 355.925Z" fill="#FCFEFF"/>
<rect x="720.848" y="424.091" width="220" height="100" rx="10" fill="#3D6493"/>
<rect opacity="0.2" x="726.848" y="430.091" width="208" height="88" rx="10" fill="#1A2A3E"/>
<path d="M805.416 465.597H809.171L814.218 477.943H814.429L819.476 465.597H823.231V482.591H820.297V470.902H820.133L815.415 482.544H813.232L808.514 470.855H808.373V482.591H805.416V465.597ZM826.376 482.591V465.597H832.878C836.563 465.597 838.394 467.475 838.394 470.01C838.394 472.075 837.079 473.226 835.413 473.625V473.789C837.22 473.883 839.051 475.385 839.051 477.967C839.051 480.619 837.15 482.591 833.254 482.591H826.376ZM832.784 480.032C835.014 480.032 835.953 479.07 835.953 477.732C835.953 476.206 834.756 475.033 832.855 475.033H829.428V480.032H832.784ZM832.502 472.826C834.122 472.826 835.343 471.888 835.343 470.385C835.343 469.071 834.404 468.132 832.573 468.132H829.428V472.826H832.502ZM856.702 474.094C856.702 479.586 853.369 482.826 848.909 482.826C844.45 482.826 841.117 479.563 841.117 474.094C841.117 468.602 844.45 465.362 848.909 465.362C853.369 465.362 856.702 468.602 856.702 474.094ZM853.627 474.094C853.627 470.221 851.679 468.109 848.909 468.109C846.14 468.109 844.191 470.221 844.191 474.094C844.191 477.967 846.14 480.079 848.909 480.079C851.679 480.079 853.627 477.967 853.627 474.094Z" fill="#FCFEFF"/>
<rect opacity="0.5" x="264.285" y="179.091" width="342" height="231" rx="10" fill="#ECF0F4"/>
<rect opacity="0.03" x="270.285" y="185.091" width="330" height="219" rx="10" fill="#1A2A3E"/>
<path d="M378.413 203.656V201.097H391.956V203.656H386.722V218.091H383.67V203.656H378.413ZM391.886 214.5C391.886 211.636 394.256 210.791 396.627 210.65C397.507 210.592 399.338 210.486 399.889 210.462V209.453C399.889 208.186 399.068 207.458 397.589 207.458C396.251 207.458 395.43 208.068 395.195 208.984H392.308C392.519 206.824 394.467 205.181 397.66 205.181C400.077 205.181 402.87 206.167 402.87 209.571V218.091H400.007V216.33H399.913C399.35 217.41 398.153 218.349 396.157 218.349C393.716 218.349 391.886 217.011 391.886 214.5ZM394.773 214.476C394.773 215.579 395.665 216.143 396.932 216.143C398.739 216.143 399.913 214.946 399.913 213.514V212.458L397.096 212.645C395.665 212.763 394.773 213.349 394.773 214.476ZM405.687 218.091V205.346H408.598V207.458H408.738C409.184 206.003 410.428 205.158 411.884 205.158C412.212 205.158 412.682 205.181 412.963 205.228V207.998C412.705 207.904 412.071 207.81 411.579 207.81C409.912 207.81 408.691 208.96 408.691 210.58V218.091H405.687ZM419.888 223.137C416.508 223.137 414.372 221.635 414.16 219.241H417.141C417.353 220.344 418.409 220.884 419.935 220.884C421.718 220.884 422.892 220.109 422.892 218.232V215.791H422.751C422.282 216.729 421.272 217.903 419.066 217.903C416.132 217.903 413.808 215.767 413.808 211.613C413.808 207.411 416.132 205.181 419.09 205.181C421.343 205.181 422.282 206.519 422.751 207.435H422.892V205.346H425.849V218.302C425.849 221.565 423.338 223.137 419.888 223.137ZM419.888 215.556C421.812 215.556 422.915 214.101 422.915 211.66C422.915 209.242 421.836 207.622 419.888 207.622C417.892 207.622 416.86 209.336 416.86 211.66C416.86 214.007 417.916 215.556 419.888 215.556ZM434.37 218.349C430.52 218.349 428.173 215.791 428.173 211.8C428.173 207.857 430.567 205.181 434.205 205.181C437.327 205.181 440.026 207.129 440.026 211.613V212.551H431.131C431.166 214.723 432.445 216.002 434.393 216.002C435.708 216.002 436.6 215.438 436.975 214.687H439.909C439.369 216.894 437.327 218.349 434.37 218.349ZM431.154 210.509H437.163C437.139 208.772 435.989 207.505 434.252 207.505C432.445 207.505 431.248 208.878 431.154 210.509ZM448.711 205.346V207.646H446.2V214.265C446.2 215.485 446.81 215.744 447.561 215.744C447.913 215.744 448.5 215.72 448.875 215.697V218.138C448.523 218.208 447.937 218.255 447.185 218.255C444.932 218.255 443.195 217.152 443.219 214.758V207.646H441.388V205.346H443.219V202.294H446.2V205.346H448.711ZM468.31 206.824C467.958 204.782 466.315 203.609 464.25 203.609C461.456 203.609 459.508 205.745 459.508 209.594C459.508 213.49 461.48 215.579 464.25 215.579C466.268 215.579 467.911 214.453 468.31 212.458H471.385C470.916 215.72 468.24 218.326 464.203 218.326C459.719 218.326 456.433 215.063 456.433 209.594C456.433 204.102 459.766 200.862 464.203 200.862C467.958 200.862 470.869 203.045 471.385 206.824H468.31ZM479.436 218.349C475.727 218.349 473.333 215.72 473.333 211.777C473.333 207.81 475.727 205.181 479.436 205.181C483.168 205.181 485.539 207.81 485.539 211.777C485.539 215.72 483.168 218.349 479.436 218.349ZM479.459 215.955C481.501 215.955 482.511 214.101 482.511 211.753C482.511 209.43 481.501 207.552 479.459 207.552C477.37 207.552 476.361 209.43 476.361 211.753C476.361 214.101 477.37 215.955 479.459 215.955ZM489.717 218.279C488.707 218.279 487.886 217.457 487.886 216.448C487.886 215.462 488.707 214.64 489.717 214.64C490.679 214.64 491.524 215.462 491.524 216.448C491.524 217.457 490.679 218.279 489.717 218.279Z" fill="#1A2A3E"/>
<rect x="280.285" y="234.091" width="150" height="75" rx="10" fill="#A1D0F9"/>
<path d="M331.889 267.579C331.871 270.409 333.295 273.292 335.756 274.47L334.561 276.034C332.838 275.164 331.599 273.485 330.922 271.464C330.228 273.626 328.927 275.419 327.107 276.333L325.912 274.769C328.461 273.556 329.92 270.515 329.938 267.579V265.048H331.889V267.579ZM338.656 263.765V269.987H341.1V271.657H338.656V279.655H336.705V263.765H338.656ZM346.18 264.468C348.236 264.45 349.854 265.637 350.258 267.386H353.123V263.765H355.074V272.29H353.123V268.968H350.275C349.88 270.752 348.245 271.956 346.18 271.956C343.736 271.956 341.979 270.392 341.979 268.194C341.979 266.032 343.736 264.45 346.18 264.468ZM346.18 266.103C344.809 266.103 343.842 266.911 343.842 268.194C343.842 269.46 344.809 270.304 346.18 270.304C347.516 270.304 348.465 269.46 348.482 268.194C348.465 266.911 347.516 266.103 346.18 266.103ZM346.531 273.028V274.716H353.123V273.028H355.074V279.462H344.598V273.028H346.531ZM346.531 277.88H353.123V276.228H346.531V277.88ZM371.826 273.011V274.558H365.498V279.655H363.564V274.558H357.307V273.011H371.826ZM360.998 264.397V266.349H368.1V264.397H370.068V271.358H359.064V264.397H360.998ZM360.998 269.776H368.1V267.896H360.998V269.776ZM382.848 265.364V278.091H380.545V267.597H380.475L377.504 269.495V267.403L380.65 265.364H382.848Z" fill="#1A2A3E"/>
<rect x="280.285" y="319.091" width="150" height="75" rx="10" fill="#A1D0F9"/>
<path d="M330.833 352.579C330.815 355.409 332.239 358.292 334.7 359.47L333.505 361.034C331.782 360.164 330.543 358.485 329.866 356.464C329.172 358.626 327.871 360.419 326.052 361.333L324.856 359.769C327.405 358.556 328.864 355.515 328.882 352.579V350.048H330.833V352.579ZM337.601 348.765V354.987H340.044V356.657H337.601V364.655H335.649V348.765H337.601ZM345.124 349.468C347.181 349.45 348.798 350.637 349.202 352.386H352.067V348.765H354.019V357.29H352.067V353.968H349.22C348.824 355.752 347.189 356.956 345.124 356.956C342.681 356.956 340.923 355.392 340.923 353.194C340.923 351.032 342.681 349.45 345.124 349.468ZM345.124 351.103C343.753 351.103 342.786 351.911 342.786 353.194C342.786 354.46 343.753 355.304 345.124 355.304C346.46 355.304 347.409 354.46 347.427 353.194C347.409 351.911 346.46 351.103 345.124 351.103ZM345.476 358.028V359.716H352.067V358.028H354.019V364.462H343.542V358.028H345.476ZM345.476 362.88H352.067V361.228H345.476V362.88ZM370.771 358.011V359.558H364.442V364.655H362.509V359.558H356.251V358.011H370.771ZM359.942 349.397V351.349H367.044V349.397H369.013V356.358H358.009V349.397H359.942ZM359.942 354.776H367.044V352.896H359.942V354.776ZM381.247 363.267C378.522 363.267 376.589 361.79 376.536 359.646H378.839C378.909 360.665 379.929 361.333 381.247 361.333C382.653 361.333 383.655 360.56 383.655 359.435C383.655 358.292 382.671 357.466 381.019 357.466H379.876V355.708H381.019C382.372 355.708 383.321 354.952 383.304 353.845C383.321 352.772 382.513 352.052 381.265 352.052C380.069 352.052 379.032 352.72 378.997 353.792H376.8C376.853 351.647 378.786 350.188 381.282 350.188C383.866 350.188 385.536 351.771 385.519 353.722C385.536 355.146 384.587 356.183 383.198 356.464V356.569C384.991 356.815 386.011 357.958 385.993 359.558C386.011 361.702 384.007 363.267 381.247 363.267Z" fill="#1A2A3E"/>
<rect x="440.285" y="234.091" width="150" height="75" rx="10" fill="#A1D0F9"/>
<path d="M490.597 267.579C490.579 270.409 492.003 273.292 494.464 274.47L493.269 276.034C491.546 275.164 490.307 273.485 489.63 271.464C488.936 273.626 487.635 275.419 485.815 276.333L484.62 274.769C487.169 273.556 488.628 270.515 488.646 267.579V265.048H490.597V267.579ZM497.364 263.765V269.987H499.808V271.657H497.364V279.655H495.413V263.765H497.364ZM504.888 264.468C506.944 264.45 508.562 265.637 508.966 267.386H511.831V263.765H513.782V272.29H511.831V268.968H508.983C508.588 270.752 506.953 271.956 504.888 271.956C502.444 271.956 500.687 270.392 500.687 268.194C500.687 266.032 502.444 264.45 504.888 264.468ZM504.888 266.103C503.517 266.103 502.55 266.911 502.55 268.194C502.55 269.46 503.517 270.304 504.888 270.304C506.224 270.304 507.173 269.46 507.19 268.194C507.173 266.911 506.224 266.103 504.888 266.103ZM505.239 273.028V274.716H511.831V273.028H513.782V279.462H503.306V273.028H505.239ZM505.239 277.88H511.831V276.228H505.239V277.88ZM530.534 273.011V274.558H524.206V279.655H522.272V274.558H516.015V273.011H530.534ZM519.706 264.397V266.349H526.808V264.397H528.776V271.358H517.772V264.397H519.706ZM519.706 269.776H526.808V267.896H519.706V269.776ZM536.388 278.091V276.438L540.888 272.097C542.171 270.813 542.839 270.058 542.839 268.985C542.839 267.808 541.907 267.052 540.659 267.052C539.341 267.052 538.497 267.878 538.515 269.161H536.335C536.317 266.753 538.128 265.188 540.677 265.188C543.278 265.188 545.036 266.735 545.036 268.88C545.036 270.321 544.333 271.481 541.837 273.837L539.569 276.087V276.175H545.229V278.091H536.388Z" fill="#1A2A3E"/>
<rect x="440.285" y="319.091" width="150" height="75" rx="10" fill="#A1D0F9"/>
<path d="M490.71 352.579C490.692 355.409 492.116 358.292 494.577 359.47L493.382 361.034C491.659 360.164 490.42 358.485 489.743 356.464C489.049 358.626 487.748 360.419 485.929 361.333L484.733 359.769C487.282 358.556 488.741 355.515 488.759 352.579V350.048H490.71V352.579ZM497.478 348.765V354.987H499.921V356.657H497.478V364.655H495.526V348.765H497.478ZM505.001 349.468C507.058 349.45 508.675 350.637 509.079 352.386H511.944V348.765H513.896V357.29H511.944V353.968H509.097C508.701 355.752 507.066 356.956 505.001 356.956C502.558 356.956 500.8 355.392 500.8 353.194C500.8 351.032 502.558 349.45 505.001 349.468ZM505.001 351.103C503.63 351.103 502.663 351.911 502.663 353.194C502.663 354.46 503.63 355.304 505.001 355.304C506.337 355.304 507.286 354.46 507.304 353.194C507.286 351.911 506.337 351.103 505.001 351.103ZM505.353 358.028V359.716H511.944V358.028H513.896V364.462H503.419V358.028H505.353ZM505.353 362.88H511.944V361.228H505.353V362.88ZM530.647 358.011V359.558H524.319V364.655H522.386V359.558H516.128V358.011H530.647ZM519.819 349.397V351.349H526.921V349.397H528.89V356.358H517.886V349.397H519.819ZM519.819 354.776H526.921V352.896H519.819V354.776ZM536.272 360.718V358.89L541.774 350.364H544.622V358.837H546.292V360.718H544.622V363.091H542.442V360.718H536.272ZM538.61 358.837H542.478V352.966H542.337L538.61 358.749V358.837Z" fill="#1A2A3E"/>
<rect x="0.847656" y="0.672852" width="220" height="100" rx="10" fill="#A1D0F9"/>
<rect opacity="0.3" x="6.84766" y="6.67285" width="208" height="88" rx="10" fill="#EBF5FE"/>
<path d="M67.3776 40.0432V56.098H64.8896V40.0432H67.3776ZM63.1527 40.4188V55.4408H60.6882V48.1176H58.4348V52.2956H50.0554V41.7097H52.5199V45.0662H56.0172V41.7097H58.4348V46.0051H60.6882V40.4188H63.1527ZM52.5199 50.1831H56.0172V47.0613H52.5199V50.1831ZM67.9644 58.7269V60.8394H53.1771V53.9621H55.7825V58.7269H67.9644ZM87.7982 40.0432V61.2853H85.1928V50.4413H81.0853V48.3288H85.1928V40.0432H87.7982ZM77.7522 46.7797C77.7288 49.9953 79.6535 53.4222 83.01 54.901L81.6016 56.8961C79.1723 55.8633 77.4119 53.7391 76.4848 51.1924C75.5459 53.8917 73.7972 56.1567 71.3679 57.2482L69.9596 55.2296C73.2691 53.7274 75.1469 50.1127 75.1469 46.7797V45.6765H70.5933V43.5875H75.1703V40.4892H77.7757V43.5875H82.2119V45.6765H77.7522V46.7797ZM110.143 52.6946V54.8305H101.717V61.2619H99.1352V54.8305H90.7557V52.6946H110.143ZM108.054 48.8687V50.9342H93.2437V40.9586H107.82V43.0242H95.8256V44.9019H107.35V46.9205H95.8256V48.8687H108.054ZM119.157 46.0755C119.157 49.3616 121.105 53.0936 124.461 54.6428L123.006 56.7083C120.612 55.5816 118.84 53.3049 117.889 50.6525C116.927 53.5631 115.073 56.0511 112.632 57.2247L111.106 55.1826C114.486 53.5865 116.528 49.5963 116.551 46.0755V44.2917H111.927V42.1322H123.593V44.2917H119.157V46.0755ZM128.17 40.0432V48.3054H131.433V50.4882H128.17V61.2619H125.565V40.0432H128.17ZM151.712 56.5675V58.7034H132.324V56.5675H140.704V51.6853H143.309V56.5675H151.712ZM150.046 41.7567V43.8926H143.356C143.438 46.944 146.584 49.7489 150.938 50.3944L149.905 52.4599C146.314 51.8027 143.38 49.9132 142.018 47.2726C140.645 49.9484 137.735 51.9083 134.202 52.5772L133.169 50.5117C137.406 49.7958 140.528 46.944 140.61 43.8926H133.944V41.7567H150.046ZM169.833 40.0432V45.2775H172.79V47.4369H169.833V52.4364H167.227V40.0432H169.833ZM158.707 53.2814V55.1122H167.227V53.2814H169.833V61.0037H156.125V53.2814H158.707ZM158.707 58.9381H167.227V57.1308H158.707V58.9381ZM165.702 42.0149V44.1039H153.121V42.0149H158.12V39.8789H160.725V42.0149H165.702ZM159.411 44.8315C162.486 44.8315 164.575 46.3102 164.598 48.5635C164.575 50.8168 162.486 52.2956 159.411 52.2956C156.313 52.2956 154.2 50.8168 154.2 48.5635C154.2 46.3102 156.313 44.8315 159.411 44.8315ZM159.411 46.7562C157.792 46.7562 156.735 47.4369 156.735 48.5635C156.735 49.7137 157.792 50.3709 159.411 50.3709C161.031 50.3709 162.11 49.7137 162.11 48.5635C162.11 47.4369 161.031 46.7562 159.411 46.7562Z" fill="#1A2A3E"/>
<path d="M330.758 32.3213V33.9209H324.447V38.7373H322.514V33.9209H316.238V32.3213H330.758ZM329.193 29.4561V31.0029H318.102V23.5322H329.018V25.0791H320.035V26.4854H328.666V27.9971H320.035V29.4561H329.193ZM337.508 27.3643C337.508 29.8252 338.967 32.6201 341.48 33.7803L340.391 35.3271C338.598 34.4834 337.271 32.7783 336.559 30.792C335.838 32.9717 334.449 34.835 332.621 35.7139L331.479 34.1846C334.01 32.9893 335.539 30.001 335.557 27.3643V26.0283H332.094V24.4111H340.83V26.0283H337.508V27.3643ZM344.258 22.8467V29.0342H346.701V30.6689H344.258V38.7373H342.307V22.8467H344.258Z" fill="#1A2A3E"/>
<path d="M255.285 50.6729H435.285" stroke="#3399F3" stroke-linecap="round" stroke-linejoin="round"/>
<path d="M435.785 50.6729C435.785 50.3967 435.561 50.1729 435.285 50.1729C435.009 50.1729 434.785 50.3967 434.785 50.6729L435.785 50.6729ZM435.285 170.673L438.172 165.673L432.398 165.673L435.285 170.673ZM434.785 50.6729L434.785 166.173L435.785 166.173L435.785 50.6729L434.785 50.6729Z" fill="#3399F3"/>
<path d="M345.285 236.757C346.758 236.757 347.952 235.564 347.952 234.091C347.952 232.618 346.758 231.424 345.285 231.424C343.812 231.424 342.618 232.618 342.618 234.091C342.618 235.564 343.812 236.757 345.285 236.757ZM345.785 114.091C345.785 113.815 345.561 113.591 345.285 113.591C345.009 113.591 344.785 113.815 344.785 114.091L345.785 114.091ZM345.785 234.091L345.785 114.091L344.785 114.091L344.785 234.091L345.785 234.091Z" fill="#3399F3"/>
<path d="M344.785 474.091C344.785 474.367 345.009 474.591 345.285 474.591C345.561 474.591 345.785 474.367 345.785 474.091L344.785 474.091ZM345.285 396.757C346.758 396.757 347.952 395.564 347.952 394.091C347.952 392.618 346.758 391.424 345.285 391.424C343.812 391.424 342.618 392.618 342.618 394.091C342.618 395.564 343.812 396.757 345.285 396.757ZM345.785 474.091L345.785 394.091L344.785 394.091L344.785 474.091L345.785 474.091Z" fill="#3399F3"/>
<path d="M345.285 113.591C345.009 113.591 344.785 113.815 344.785 114.091C344.785 114.367 345.009 114.591 345.285 114.591L345.285 113.591ZM710.848 114.091L705.848 111.204L705.848 116.978L710.848 114.091ZM345.285 114.591L706.348 114.591L706.348 113.591L345.285 113.591L345.285 114.591Z" fill="#3399F3"/>
<path d="M345.285 473.591C345.009 473.591 344.785 473.815 344.785 474.091C344.785 474.367 345.009 474.591 345.285 474.591L345.285 473.591ZM710.848 474.091L705.848 471.204L705.848 476.978L710.848 474.091ZM345.285 474.591L706.348 474.591L706.348 473.591L345.285 473.591L345.285 474.591Z" fill="#3399F3"/>
<path d="M680.848 271.591L680.848 234.591" stroke="#3399F3" stroke-linecap="round" stroke-linejoin="round"/>
<path d="M587.618 271.591C587.618 273.064 588.812 274.257 590.285 274.257C591.758 274.257 592.952 273.064 592.952 271.591C592.952 270.118 591.758 268.924 590.285 268.924C588.812 268.924 587.618 270.118 587.618 271.591ZM680.848 272.091C681.124 272.091 681.348 271.867 681.348 271.591C681.348 271.315 681.124 271.091 680.848 271.091L680.848 272.091ZM590.285 272.091L680.848 272.091L680.848 271.091L590.285 271.091L590.285 272.091Z" fill="#3399F3"/>
<path d="M680.848 233.591C680.572 233.591 680.348 233.815 680.348 234.091C680.348 234.367 680.572 234.591 680.848 234.591L680.848 233.591ZM710.848 234.091L705.848 231.204L705.848 236.978L710.848 234.091ZM680.848 234.591L706.348 234.591L706.348 233.591L680.848 233.591L680.848 234.591Z" fill="#3399F3"/>
<path d="M587.618 356.591C587.618 358.064 588.812 359.257 590.285 359.257C591.758 359.257 592.952 358.064 592.952 356.591C592.952 355.118 591.758 353.924 590.285 353.924C588.812 353.924 587.618 355.118 587.618 356.591ZM710.848 356.591L705.848 353.704L705.848 359.478L710.848 356.591ZM590.285 357.091L706.348 357.091L706.348 356.091L590.285 356.091L590.285 357.091Z" fill="#3399F3"/>
<circle opacity="0.5" cx="345.285" cy="234.091" r="6" fill="#3399F3"/>
<circle opacity="0.5" cx="590.285" cy="271.591" r="6" fill="#3399F3"/>
<circle opacity="0.5" cx="590.285" cy="356.591" r="6" fill="#3399F3"/>
<circle opacity="0.5" cx="345.285" cy="394.091" r="6" fill="#3399F3"/>
</svg>
