<svg width="600" height="601" viewBox="0 0 600 601" fill="none" xmlns="http://www.w3.org/2000/svg">
<circle opacity="0.5" cx="100.002" cy="100.662" r="100" fill="#ECF0F4"/>
<circle opacity="0.5" cx="500.002" cy="100.662" r="100" fill="#ECF0F4"/>
<circle opacity="0.5" cx="100.002" cy="500.662" r="100" fill="#ECF0F4"/>
<circle opacity="0.5" cx="500.002" cy="500.662" r="100" fill="#ECF0F4"/>
<circle opacity="0.03" cx="100.002" cy="100.662" r="94" fill="#1A2A3E"/>
<circle opacity="0.03" cx="500.002" cy="100.662" r="94" fill="#1A2A3E"/>
<circle opacity="0.03" cx="100.002" cy="500.662" r="94" fill="#1A2A3E"/>
<circle opacity="0.03" cx="500.002" cy="500.662" r="94" fill="#1A2A3E"/>
<circle cx="300.002" cy="300.662" r="100" fill="#3D6493"/>
<circle opacity="0.2" cx="300.002" cy="300.662" r="94" fill="#1A2A3E"/>
<path d="M279.021 273.33V275.316H275.893C275.972 276.828 276.991 278.348 279.584 279.008L278.441 280.994C276.631 280.528 275.4 279.561 274.68 278.34C273.968 279.746 272.72 280.853 270.848 281.381L269.635 279.394C272.236 278.717 273.291 277.004 273.361 275.316H270.25V273.33H273.361V271.66H275.91V273.33H279.021ZM282.66 271.713V275.422H284.752V277.461H282.66V281.398H280.129V271.713H282.66ZM277.334 281.662C280.727 281.662 282.818 282.787 282.818 284.773C282.818 286.707 280.727 287.832 277.334 287.832C273.871 287.832 271.762 286.707 271.762 284.773C271.762 282.787 273.871 281.662 277.334 281.662ZM277.334 283.595C275.295 283.595 274.275 283.929 274.293 284.773C274.275 285.582 275.295 285.933 277.334 285.951C279.32 285.933 280.322 285.582 280.322 284.773C280.322 283.929 279.32 283.595 277.334 283.595ZM289.885 272.381C291.915 272.381 293.55 273.541 294.033 275.228H296.512V271.713H299.025V280.396H296.512V277.215H294.051C293.576 278.955 291.924 280.133 289.885 280.133C287.389 280.133 285.543 278.498 285.561 276.23C285.543 274.015 287.389 272.381 289.885 272.381ZM289.885 274.472C288.742 274.472 287.951 275.123 287.951 276.23C287.951 277.355 288.742 278.006 289.885 278.006C290.975 278.006 291.766 277.355 291.766 276.23C291.766 275.123 290.975 274.472 289.885 274.472ZM290.641 281.064V282.453H296.512V281.064H299.025V287.674H288.162V281.064H290.641ZM290.641 285.634H296.512V284.386H290.641V285.634ZM315.672 284.017V286.074H300.924V284.017H307.041V281.029H309.537V284.017H315.672ZM314.424 273.822V275.826H309.625C309.836 277.408 311.453 279.183 315.268 279.605L314.354 281.591C311.4 281.24 309.37 280.071 308.289 278.498C307.199 280.071 305.187 281.24 302.242 281.591L301.328 279.605C305.125 279.183 306.742 277.408 306.971 275.826H302.172V273.822H307.041V271.871H309.537V273.822H314.424ZM330.104 271.713V287.849H327.537V271.713H330.104ZM325.252 273.383C325.252 278.357 323.67 282.4 317.799 285.16L316.48 283.156C320.585 281.214 322.308 278.832 322.668 275.351H317.395V273.383H325.252ZM301.917 293.662V300.517H293.954V293.662H301.917ZM296.45 295.631V298.566H299.421V295.631H296.45ZM306.681 292.713V301.836H304.167V292.713H306.681ZM306.927 302.644V304.508H302.532C302.831 305.483 304.299 306.626 307.577 306.916L306.733 308.814C303.982 308.586 302.146 307.672 301.161 306.476C300.168 307.68 298.322 308.568 295.571 308.814L294.71 306.916C298.006 306.67 299.474 305.509 299.772 304.508H295.36V302.644H299.86V301.379H302.409V302.644H306.927ZM248.312 315.435H252.021L255.309 323.451H255.449L258.736 315.435H262.445V328.162H259.527V320.252H259.422L256.328 328.091H254.43L251.336 320.216H251.23V328.162H248.312V315.435ZM268.352 328.355C265.662 328.355 264.027 326.773 264.027 324.787C264.027 323.319 264.95 322.44 266.312 321.517C265.688 320.709 265.17 319.751 265.17 318.634C265.17 316.736 266.594 315.259 268.738 315.259C270.83 315.259 272.113 316.666 272.113 318.353C272.113 319.549 271.498 320.533 270.408 321.306L269.723 321.799L271.639 323.961C271.973 323.337 272.184 322.598 272.184 321.781H274.592C274.592 323.477 274.17 324.919 273.396 325.947L275.348 328.162H272.324L271.604 327.371C270.637 328.065 269.45 328.355 268.352 328.355ZM266.893 324.593C266.893 325.42 267.525 326 268.527 326C269.02 326 269.521 325.859 269.986 325.613L267.789 323.205C267.218 323.618 266.893 324.075 266.893 324.593ZM267.631 318.67C267.631 319.153 267.921 319.636 268.352 320.181L268.967 319.795C269.582 319.408 269.828 318.986 269.828 318.529C269.828 318.072 269.441 317.615 268.756 317.615C268.07 317.615 267.631 318.072 267.631 318.67ZM278.916 328.162H275.682L280.006 315.435H283.979L288.285 328.162H285.068L284.207 325.437H279.777L278.916 328.162ZM280.498 323.152H283.486L282.045 318.582H281.939L280.498 323.152ZM306.777 313.73V325.49H304.264V319.847H301.838V317.808H304.264V313.73H306.777ZM307.146 327.564V329.586H295.967V324.47H298.498V327.564H307.146ZM299.359 316.824C299.359 318.634 300.361 320.621 302.98 321.465L301.75 323.468C299.983 322.906 298.797 321.79 298.094 320.41C297.391 321.939 296.151 323.17 294.279 323.767L292.979 321.728C295.738 320.902 296.775 318.793 296.775 316.806V316.771H293.682V314.75H302.436V316.771H299.359V316.824ZM323.406 321.588V323.591H317.5V326.211H315.004V323.591H308.658V321.588H323.406ZM321.525 314.398V320.445H310.469V314.398H321.525ZM312.947 316.349V318.494H319.047V316.349H312.947ZM321.789 327.564V329.586H310.328V324.875H312.859V327.564H321.789ZM331.562 315.435L334.463 324.822H334.568L337.469 315.435H340.809L336.502 328.162H332.529L328.205 315.435H331.562ZM349.861 320.023C349.686 318.722 348.754 317.896 347.33 317.896C345.449 317.896 344.307 319.32 344.307 321.799C344.307 324.365 345.484 325.701 347.312 325.701C348.684 325.701 349.633 324.963 349.861 323.715L352.885 323.732C352.639 326 350.705 328.338 347.26 328.338C343.814 328.338 341.248 325.982 341.248 321.799C341.248 317.597 343.867 315.259 347.26 315.259C350.318 315.259 352.568 316.982 352.885 320.023H349.861Z" fill="white"/>
<path d="M72.2461 83.0563V84.2692C72.2461 85.4557 72.2461 86.8181 71.9121 88.5934H74.0215V90.1755H67.7109V92.654H72.2812V98.2263H70.3301V94.2184H60.9785V92.654H65.7598V90.1755H59.502V88.5934H69.9434C70.2598 86.9675 70.2949 85.7282 70.2949 84.6208H61.2949V83.0563H72.2461ZM88.6992 82.3356V98.2263H86.8184V90.1931H85.0605V97.4177H83.2324V82.6345H85.0605V88.5934H86.8184V82.3356H88.6992ZM77.7129 84.1638V92.5485C79.084 92.5222 80.5869 92.4079 82.248 92.0739L82.4414 93.779C80.2969 94.1657 78.4863 94.2712 76.7988 94.2712H75.7441V84.1638H77.7129ZM108.158 82.3356V98.2263H106.189V82.3356H108.158ZM103.412 84.0231C103.412 88.7516 101.584 92.777 96.0117 95.4138L94.9922 93.8493C99.1494 91.8718 101.083 89.1823 101.426 85.57H95.8008V84.0231H103.412ZM114.855 83.0388C116.912 83.0212 118.529 84.2077 118.934 85.9567H121.799V82.3356H123.75V90.861H121.799V87.5388H118.951C118.556 89.3229 116.921 90.527 114.855 90.527C112.412 90.527 110.654 88.9626 110.654 86.7653C110.654 84.6032 112.412 83.0212 114.855 83.0388ZM114.855 84.6735C113.484 84.6735 112.518 85.4821 112.518 86.7653C112.518 88.0309 113.484 88.8747 114.855 88.8747C116.191 88.8747 117.141 88.0309 117.158 86.7653C117.141 85.4821 116.191 84.6735 114.855 84.6735ZM115.207 91.5993V93.2868H121.799V91.5993H123.75V98.0329H113.273V91.5993H115.207ZM115.207 96.4509H121.799V94.7985H115.207V96.4509ZM131.15 83.4431C133.664 83.4255 135.51 85.0251 135.527 87.2751C135.51 89.5427 133.664 91.1247 131.15 91.1247C128.654 91.1247 126.791 89.5427 126.791 87.2751C126.791 85.0251 128.654 83.4255 131.15 83.4431ZM131.15 85.1306C129.762 85.1306 128.725 85.9567 128.725 87.2751C128.725 88.611 129.762 89.4196 131.15 89.4196C132.557 89.4196 133.611 88.611 133.611 87.2751C133.611 85.9567 132.557 85.1306 131.15 85.1306ZM139.236 82.3356V98.2438H137.285V82.3356H139.236ZM126.07 93.322C128.936 93.322 132.908 93.2868 136.336 92.7946L136.494 94.2184C132.926 94.904 129.111 94.9216 126.316 94.9216L126.07 93.322ZM55.4062 105.621C55.3887 107.783 56.6543 109.752 59.1504 110.543L58.0957 112.072C56.3643 111.466 55.1514 110.314 54.4746 108.802C53.7715 110.534 52.4443 111.896 50.5195 112.564L49.4824 110.982C52.1191 110.121 53.4375 107.994 53.4375 105.709V104.197H55.4062V105.621ZM62.8945 103.336V112.687H60.9434V108.011H57.7793V106.412H60.9434V103.336H62.8945ZM57.5156 113.109C60.8906 113.109 62.9473 114.234 62.9473 116.168C62.9473 118.101 60.8906 119.209 57.5156 119.209C54.1582 119.209 52.1016 118.101 52.1191 116.168C52.1016 114.234 54.1582 113.109 57.5156 113.109ZM57.5156 114.621C55.3008 114.621 54.0527 115.166 54.0527 116.168C54.0527 117.134 55.3008 117.679 57.5156 117.679C59.7305 117.679 60.9961 117.134 60.9961 116.168C60.9961 115.166 59.7305 114.621 57.5156 114.621ZM70.8398 106.201C70.8398 108.152 72.1055 109.98 74.584 110.736L73.6523 112.265C71.8682 111.712 70.6025 110.578 69.9082 109.136C69.2051 110.806 67.8604 112.133 65.9531 112.775L64.9688 111.228C67.5352 110.384 68.8711 108.328 68.8711 106.218V106.025H65.5137V104.443H74.1445V106.025H70.8398V106.201ZM77.6777 103.336V107.15H79.8926V108.75H77.6777V112.81H75.7266V103.336H77.6777ZM72.5098 113.162C75.7969 113.162 77.8184 114.269 77.8359 116.168C77.8184 118.084 75.7969 119.209 72.5098 119.209C69.1875 119.209 67.1309 118.084 67.1309 116.168C67.1309 114.269 69.1875 113.162 72.5098 113.162ZM72.5098 114.691C70.3301 114.691 69.082 115.201 69.082 116.168C69.082 117.152 70.3301 117.679 72.5098 117.679C74.6895 117.679 75.9023 117.152 75.9023 116.168C75.9023 115.201 74.6895 114.691 72.5098 114.691ZM98.2969 103.336V119.244H96.3457V110.56H93.2871V108.961H96.3457V103.336H98.2969ZM90.8086 107.554C90.8086 110.297 92.2852 113.215 94.8516 114.322L93.6914 115.886C91.8457 115.008 90.5273 113.241 89.8418 111.14C89.1299 113.382 87.7852 115.271 85.9395 116.203L84.7617 114.674C87.3105 113.478 88.8047 110.455 88.8223 107.554V106.5H85.4121V104.9H94.2188V106.5H90.8086V107.554ZM113.836 103.353V115.078H111.885V111.088H108.686V112.494H101.25V104.39H103.201V106.957H106.752V104.39H108.686V106.095H111.885V103.353H113.836ZM114.188 117.328V118.91H103.359V113.918H105.346V117.328H114.188ZM103.201 110.947H106.752V108.468H103.201V110.947ZM108.686 109.506H111.885V107.677H108.686V109.506ZM132.943 103.353V107.976H135.088V109.593H132.943V114.093H130.992V103.353H132.943ZM120.217 112.195C121.412 112.195 122.792 112.186 124.225 112.142V111.175C122.458 110.956 121.342 110.103 121.342 108.855C121.342 107.396 122.871 106.482 125.174 106.5C127.494 106.482 129.006 107.396 129.006 108.855C129.006 110.094 127.916 110.938 126.176 111.158V112.072C127.529 112.01 128.892 111.905 130.166 111.738L130.324 113.091C126.932 113.689 123.223 113.724 120.428 113.724L120.217 112.195ZM132.943 114.779V119.226H130.992V116.308H122.221V114.779H132.943ZM129.744 104.601V106.043H120.621V104.601H124.225V103.213H126.176V104.601H129.744ZM125.174 107.818C123.943 107.8 123.205 108.17 123.223 108.855C123.205 109.506 123.943 109.927 125.174 109.91C126.404 109.927 127.143 109.506 127.143 108.855C127.143 108.17 126.404 107.8 125.174 107.818ZM150.398 111.052V112.582H144.105V113.865C146.971 114.041 148.623 114.964 148.641 116.537C148.623 118.259 146.602 119.209 143.139 119.209C139.658 119.209 137.602 118.259 137.602 116.537C137.602 114.964 139.28 114.041 142.172 113.865V112.582H135.914V111.052H150.398ZM144.105 103.371V104.812H148.975V106.359H144.264C144.545 107.651 146.417 108.706 149.678 108.943L149.08 110.42C146.232 110.2 144.132 109.312 143.139 107.941C142.146 109.312 140.027 110.2 137.197 110.42L136.6 108.943C139.843 108.706 141.715 107.651 142.014 106.359H137.338V104.812H142.172V103.371H144.105ZM143.139 115.306C140.801 115.306 139.57 115.711 139.588 116.537C139.57 117.345 140.801 117.75 143.139 117.75C145.424 117.75 146.672 117.345 146.689 116.537C146.672 115.711 145.424 115.306 143.139 115.306Z" fill="#111111"/>
<path d="M474.382 72.5563V73.7692C474.382 74.9557 474.382 76.3181 474.048 78.0934H476.157V79.6755H469.847V82.154H474.417V87.7263H472.466V83.7184H463.114V82.154H467.896V79.6755H461.638V78.0934H472.079C472.396 76.4675 472.431 75.2282 472.431 74.1208H463.431V72.5563H474.382ZM490.835 71.8356V87.7263H488.954V79.6931H487.196V86.9177H485.368V72.1345H487.196V78.0934H488.954V71.8356H490.835ZM479.849 73.6638V82.0485C481.22 82.0222 482.723 81.9079 484.384 81.5739L484.577 83.279C482.433 83.6657 480.622 83.7712 478.935 83.7712H477.88V73.6638H479.849ZM498.446 76.3532C498.446 78.8141 499.905 81.6091 502.419 82.7692L501.329 84.3161C499.536 83.4724 498.209 81.7673 497.497 79.7809C496.776 81.9606 495.388 83.8239 493.56 84.7028L492.417 83.1735C494.948 81.9782 496.478 78.9899 496.495 76.3532V75.0173H493.032V73.4001H501.769V75.0173H498.446V76.3532ZM505.196 71.8356V78.0231H507.64V79.6579H505.196V87.7263H503.245V71.8356H505.196ZM512.122 72.4333V74.1559H518.978V72.4333H520.911V78.8845H516.517V80.3434H522.792V81.9255H508.308V80.3434H514.548V78.8845H510.188V72.4333H512.122ZM512.122 77.32H518.978V75.6677H512.122V77.32ZM521.157 85.8278V87.4099H510.101V82.945H512.052V85.8278H521.157ZM529.015 72.9431C531.528 72.9255 533.374 74.5251 533.392 76.7751C533.374 79.0427 531.528 80.6247 529.015 80.6247C526.519 80.6247 524.655 79.0427 524.655 76.7751C524.655 74.5251 526.519 72.9255 529.015 72.9431ZM529.015 74.6306C527.626 74.6306 526.589 75.4567 526.589 76.7751C526.589 78.111 527.626 78.9196 529.015 78.9196C530.421 78.9196 531.476 78.111 531.476 76.7751C531.476 75.4567 530.421 74.6306 529.015 74.6306ZM537.101 71.8356V87.7438H535.149V71.8356H537.101ZM523.935 82.822C526.8 82.822 530.772 82.7868 534.2 82.2946L534.358 83.7184C530.79 84.404 526.976 84.4216 524.181 84.4216L523.935 82.822ZM465.892 100.131V101.713H459.599V103.031C462.446 103.224 464.116 104.209 464.134 105.861C464.116 107.689 462.06 108.709 458.632 108.709C455.169 108.709 453.095 107.689 453.095 105.861C453.095 104.209 454.782 103.216 457.665 103.031V101.713H451.407V100.131H465.892ZM458.632 104.508C456.312 104.525 455.063 104.982 455.081 105.861C455.063 106.74 456.312 107.215 458.632 107.215C460.899 107.215 462.165 106.74 462.183 105.861C462.165 104.982 460.899 104.525 458.632 104.508ZM464.591 93.5388V95.1032H460.021C460.328 96.4128 462.227 97.5905 465.206 97.863L464.521 99.4099C461.638 99.1198 459.493 97.9684 458.632 96.3513C457.771 97.9597 455.661 99.1198 452.778 99.4099L452.11 97.863C455.028 97.5905 456.927 96.3952 457.261 95.1032H452.726V93.5388H464.591ZM481.483 105.175V106.758H466.964V105.175H473.187V101.502H475.12V105.175H481.483ZM475.173 94.9626C475.173 97.3708 477.581 99.7438 480.921 100.271L480.077 101.888C477.388 101.379 475.19 99.8405 474.136 97.7575C473.081 99.8317 470.901 101.396 468.229 101.888L467.386 100.271C470.708 99.7438 473.081 97.3532 473.099 94.9626V93.8024H475.173V94.9626ZM484.454 102.961C483.698 102.961 483.083 102.345 483.083 101.59C483.083 100.851 483.698 100.236 484.454 100.236C485.175 100.236 485.808 100.851 485.808 101.59C485.808 102.345 485.175 102.961 484.454 102.961ZM501.927 101.748V103.33H498.394V108.726H496.407V103.33H492.892V108.726H490.888V103.33H487.407V101.748H501.927ZM494.632 93.3981C498.007 93.4157 500.362 94.7868 500.362 96.9489C500.362 99.0759 498.007 100.429 494.632 100.429C491.239 100.429 488.919 99.0759 488.937 96.9489C488.919 94.7868 491.239 93.4157 494.632 93.3981ZM494.632 94.9802C492.382 94.9802 490.923 95.7009 490.94 96.9489C490.923 98.1618 492.382 98.8825 494.632 98.8825C496.882 98.8825 498.341 98.1618 498.341 96.9489C498.341 95.7009 496.882 94.9802 494.632 94.9802ZM511.05 94.0134V101.009H503.526V94.0134H511.05ZM505.442 95.5602V99.4274H509.134V95.5602H505.442ZM515.515 92.8356V96.5622H517.729V98.1442H515.515V102.099H513.563V92.8356H515.515ZM510.347 102.556C513.599 102.556 515.655 103.716 515.673 105.633C515.655 107.584 513.599 108.726 510.347 108.726C507.06 108.726 504.968 107.584 504.968 105.633C504.968 103.716 507.06 102.556 510.347 102.556ZM510.347 104.121C508.167 104.121 506.919 104.648 506.919 105.633C506.919 106.652 508.167 107.162 510.347 107.162C512.526 107.162 513.739 106.652 513.739 105.633C513.739 104.648 512.526 104.121 510.347 104.121ZM531.81 92.8356V108.726H529.841V92.8356H531.81ZM527.063 94.5231C527.063 99.2516 525.235 103.277 519.663 105.914L518.644 104.349C522.801 102.372 524.734 99.6823 525.077 96.07H519.452V94.5231H527.063ZM538.507 93.5388C540.563 93.5212 542.181 94.7077 542.585 96.4567H545.45V92.8356H547.401V101.361H545.45V98.0388H542.603C542.207 99.8229 540.572 101.027 538.507 101.027C536.063 101.027 534.306 99.4626 534.306 97.2653C534.306 95.1032 536.063 93.5212 538.507 93.5388ZM538.507 95.1735C537.136 95.1735 536.169 95.9821 536.169 97.2653C536.169 98.5309 537.136 99.3747 538.507 99.3747C539.843 99.3747 540.792 98.5309 540.81 97.2653C540.792 95.9821 539.843 95.1735 538.507 95.1735ZM538.858 102.099V103.787H545.45V102.099H547.401V108.533H536.925V102.099H538.858ZM538.858 106.951H545.45V105.299H538.858V106.951ZM457.252 113.853V123.134H455.301V121.377H451.521V119.795H455.301V118.09H451.68C450.669 120.621 448.357 122.387 444.895 123.345L444.104 121.799C447.821 120.788 449.799 118.907 450.115 116.543H444.947V114.961H452.242C452.242 115.514 452.198 116.042 452.102 116.543H455.301V113.853H457.252ZM451.996 123.31C455.213 123.31 457.357 124.523 457.357 126.474C457.357 128.425 455.213 129.638 451.996 129.638C448.744 129.638 446.6 128.425 446.6 126.474C446.6 124.523 448.744 123.31 451.996 123.31ZM451.996 124.84C449.852 124.84 448.551 125.42 448.551 126.474C448.551 127.511 449.852 128.091 451.996 128.091C454.088 128.091 455.406 127.511 455.406 126.474C455.406 125.42 454.088 124.84 451.996 124.84ZM463.914 114.732C465.197 114.732 466.305 115.207 467.061 115.998H470.857V113.836H472.809V123.187H470.857V121.166H467.061C466.305 121.957 465.188 122.423 463.914 122.414C461.523 122.431 459.713 120.814 459.713 118.582C459.713 116.332 461.523 114.732 463.914 114.732ZM463.914 116.402C462.543 116.402 461.576 117.246 461.576 118.582C461.576 119.883 462.543 120.761 463.914 120.761C465.232 120.761 466.199 119.883 466.217 118.582C466.199 117.246 465.232 116.402 463.914 116.402ZM467.43 123.521C470.77 123.521 472.861 124.664 472.861 126.615C472.861 128.566 470.77 129.709 467.43 129.709C464.107 129.709 462.016 128.566 462.033 126.615C462.016 124.664 464.107 123.521 467.43 123.521ZM467.43 125.015C465.215 125.015 463.932 125.578 463.949 126.615C463.932 127.617 465.215 128.179 467.43 128.179C469.68 128.179 470.945 127.617 470.945 126.615C470.945 125.578 469.68 125.015 467.43 125.015ZM467.939 117.562C468.027 117.887 468.08 118.221 468.08 118.582C468.08 118.933 468.027 119.267 467.957 119.584H470.857V117.562H467.939ZM480.771 117.105C480.771 118.828 482.055 120.515 484.551 121.201L483.654 122.713C481.826 122.22 480.525 121.148 479.822 119.777C479.119 121.289 477.792 122.458 475.902 122.994L474.971 121.482C477.484 120.779 478.82 119.004 478.82 117.105V117.07H475.498V115.523H478.82V113.765H480.789V115.523H484.094V117.07H480.771V117.105ZM487.592 113.836V117.668H489.807V119.285H487.592V123.187H485.641V113.836H487.592ZM487.592 123.855V129.533H477.326V123.855H487.592ZM479.26 125.402V127.951H485.658V125.402H479.26ZM494.957 114.996C496.398 114.996 497.585 115.796 498.297 117.193H502.006V113.836H503.939V129.744H502.006V123.732H498.438C497.752 125.314 496.495 126.228 494.957 126.228C492.566 126.228 490.879 124.066 490.879 120.603C490.879 117.175 492.566 114.996 494.957 114.996ZM494.957 116.754C493.639 116.754 492.742 118.177 492.76 120.603C492.742 123.047 493.639 124.47 494.957 124.47C496.275 124.47 497.154 123.047 497.172 120.603C497.154 118.177 496.275 116.754 494.957 116.754ZM498.842 118.793C498.956 119.346 499.018 119.953 499.018 120.603C499.018 121.157 498.974 121.667 498.895 122.15H502.006V118.793H498.842ZM515.084 115.418V116.965H506.207V115.418H509.758V113.695H511.709V115.418H515.084ZM510.707 117.597C512.869 117.597 514.416 118.793 514.434 120.568C514.416 122.326 512.869 123.504 510.707 123.504C508.545 123.504 507.016 122.326 507.033 120.568C507.016 118.793 508.545 117.597 510.707 117.597ZM510.707 119.056C509.582 119.056 508.844 119.619 508.861 120.568C508.844 121.5 509.582 122.045 510.707 122.045C511.832 122.045 512.605 121.5 512.605 120.568C512.605 119.619 511.832 119.056 510.707 119.056ZM519.479 113.836V124.013H517.527V122.15H515.172V120.586H517.527V119.021H515.189V117.439H517.527V113.836H519.479ZM514.135 124.189C517.492 124.189 519.566 125.209 519.566 126.949C519.566 128.672 517.492 129.709 514.135 129.709C510.777 129.709 508.703 128.672 508.703 126.949C508.703 125.209 510.777 124.189 514.135 124.189ZM514.135 125.683C511.99 125.683 510.76 126.105 510.76 126.949C510.76 127.775 511.99 128.215 514.135 128.215C516.262 128.215 517.475 127.775 517.475 126.949C517.475 126.105 516.262 125.683 514.135 125.683ZM540.502 123.31V124.91H534.191V129.726H532.258V124.91H525.982V123.31H540.502ZM538.938 120.445V121.992H527.846V114.521H538.762V116.068H529.779V117.474H538.41V118.986H529.779V120.445H538.938ZM547.252 118.353C547.252 120.814 548.711 123.609 551.225 124.769L550.135 126.316C548.342 125.472 547.015 123.767 546.303 121.781C545.582 123.961 544.193 125.824 542.365 126.703L541.223 125.174C543.754 123.978 545.283 120.99 545.301 118.353V117.017H541.838V115.4H550.574V117.017H547.252V118.353ZM554.002 113.836V120.023H556.445V121.658H554.002V129.726H552.051V113.836H554.002Z" fill="#111111"/>
<path d="M83.0039 471.836V483.859H81.1406V471.836H83.0039ZM79.8398 472.117V483.367H77.9941V477.883H76.3066V481.011H70.0312V473.084H71.877V475.597H74.4961V473.084H76.3066V476.3H77.9941V472.117H79.8398ZM71.877 479.429H74.4961V477.091H71.877V479.429ZM83.4434 485.828V487.41H72.3691V482.259H74.3203V485.828H83.4434ZM98.2969 471.836V487.744H96.3457V479.623H93.2695V478.041H96.3457V471.836H98.2969ZM90.7734 476.881C90.7559 479.289 92.1973 481.855 94.7109 482.963L93.6562 484.457C91.8369 483.683 90.5186 482.092 89.8242 480.185C89.1211 482.207 87.8115 483.903 85.9922 484.72L84.9375 483.209C87.416 482.084 88.8223 479.377 88.8223 476.881V476.054H85.4121V474.49H88.8398V472.17H90.791V474.49H94.1133V476.054H90.7734V476.881ZM113.801 471.836V487.726H111.832V471.836H113.801ZM109.055 473.523C109.055 478.252 107.227 482.277 101.654 484.914L100.635 483.349C104.792 481.372 106.726 478.682 107.068 475.07H101.443V473.523H109.055ZM120.498 472.539C122.555 472.521 124.172 473.708 124.576 475.457H127.441V471.836H129.393V480.361H127.441V477.039H124.594C124.198 478.823 122.563 480.027 120.498 480.027C118.055 480.027 116.297 478.463 116.297 476.265C116.297 474.103 118.055 472.521 120.498 472.539ZM120.498 474.174C119.127 474.174 118.16 474.982 118.16 476.265C118.16 477.531 119.127 478.375 120.498 478.375C121.834 478.375 122.783 477.531 122.801 476.265C122.783 474.982 121.834 474.174 120.498 474.174ZM120.85 481.099V482.787H127.441V481.099H129.393V487.533H118.916V481.099H120.85ZM120.85 485.951H127.441V484.299H120.85V485.951ZM44.4023 494.435H47.2148L50.9941 503.681H51.1523L54.9316 494.435H57.7441V507.162H55.5469V498.408H55.4238L51.8906 507.127H50.2559L46.7227 498.373H46.6172V507.162H44.4023V494.435ZM59.5547 504.472C59.5547 502.328 61.3301 501.695 63.1055 501.59C63.7646 501.546 65.1357 501.466 65.5488 501.449V500.693C65.5488 499.744 64.9336 499.199 63.8262 499.199C62.8242 499.199 62.209 499.656 62.0332 500.341H59.8711C60.0293 498.724 61.4883 497.494 63.8789 497.494C65.6895 497.494 67.7812 498.232 67.7812 500.781V507.162H65.6367V505.843H65.5664C65.1445 506.652 64.248 507.355 62.7539 507.355C60.9258 507.355 59.5547 506.353 59.5547 504.472ZM61.7168 504.455C61.7168 505.281 62.3848 505.703 63.334 505.703C64.6875 505.703 65.5664 504.806 65.5664 503.734V502.943L63.457 503.084C62.3848 503.172 61.7168 503.611 61.7168 504.455ZM74.6543 497.617V499.34H72.7734V504.297C72.7734 505.211 73.2305 505.404 73.793 505.404C74.0566 505.404 74.4961 505.386 74.7773 505.369V507.197C74.5137 507.25 74.0742 507.285 73.5117 507.285C71.8242 507.285 70.5234 506.459 70.541 504.666V499.34H69.1699V497.617H70.541V495.332H72.7734V497.617H74.6543ZM80.4375 507.355C77.5898 507.355 75.8672 505.316 75.8672 502.433C75.8672 499.515 77.6426 497.494 80.4375 497.494C82.7578 497.494 84.375 498.847 84.5332 500.904H82.3887C82.2129 499.99 81.5449 499.287 80.4551 499.287C79.0664 499.287 78.1348 500.465 78.1348 502.381C78.1348 504.349 79.0488 505.527 80.4551 505.527C81.457 505.527 82.1953 504.947 82.3887 503.91H84.5332C84.3574 505.931 82.8281 507.355 80.4375 507.355ZM88.4707 501.572V507.162H86.2207V494.435H88.418V499.234H88.541C88.9805 498.162 89.8945 497.494 91.3711 497.494C93.3574 497.494 94.6582 498.777 94.6582 501.08V507.162H92.4258V501.431C92.4258 500.131 91.7227 499.392 90.5449 499.392C89.332 499.392 88.4707 500.183 88.4707 501.572ZM96.7852 507.162V497.617H99.0352V507.162H96.7852ZM97.9277 496.263C97.2246 496.263 96.627 495.718 96.627 495.033C96.627 494.365 97.2246 493.82 97.9277 493.82C98.6484 493.82 99.2285 494.365 99.2285 495.033C99.2285 495.718 98.6484 496.263 97.9277 496.263ZM103.43 501.572V507.162H101.18V497.617H103.324V499.234H103.447C103.887 498.162 104.854 497.494 106.277 497.494C108.264 497.494 109.564 498.795 109.547 501.08V507.162H107.314V501.431C107.314 500.148 106.629 499.392 105.451 499.392C104.256 499.392 103.43 500.183 103.43 501.572ZM115.857 510.941C113.326 510.941 111.727 509.816 111.568 508.023H113.801C113.959 508.849 114.75 509.254 115.893 509.254C117.229 509.254 118.107 508.674 118.107 507.267V505.439H118.002C117.65 506.142 116.895 507.021 115.242 507.021C113.045 507.021 111.305 505.422 111.305 502.31C111.305 499.164 113.045 497.494 115.26 497.494C116.947 497.494 117.65 498.496 118.002 499.181H118.107V497.617H120.322V507.32C120.322 509.763 118.441 510.941 115.857 510.941ZM115.857 505.263C117.299 505.263 118.125 504.174 118.125 502.345C118.125 500.535 117.316 499.322 115.857 499.322C114.363 499.322 113.59 500.605 113.59 502.345C113.59 504.103 114.381 505.263 115.857 505.263ZM140.695 502.31V503.91H134.385V508.726H132.451V503.91H126.176V502.31H140.695ZM139.131 499.445V500.992H128.039V493.521H138.955V495.068H129.973V496.474H138.604V497.986H129.973V499.445H139.131ZM147.445 497.353C147.445 499.814 148.904 502.609 151.418 503.769L150.328 505.316C148.535 504.472 147.208 502.767 146.496 500.781C145.775 502.961 144.387 504.824 142.559 505.703L141.416 504.174C143.947 502.978 145.477 499.99 145.494 497.353V496.017H142.031V494.4H150.768V496.017H147.445V497.353ZM154.195 492.836V499.023H156.639V500.658H154.195V508.726H152.244V492.836H154.195ZM63.6855 515.435H66.498L70.2773 524.681H70.4355L74.2148 515.435H77.0273V528.162H74.8301V519.408H74.707L71.1738 528.127H69.5391L66.0059 519.373H65.9004V528.162H63.6855V515.435ZM83.0918 528.338C80.4902 528.338 78.8906 526.808 78.8906 524.787C78.8906 523.293 79.8662 522.361 81.2812 521.377C80.543 520.48 79.9805 519.557 79.9805 518.424C79.9805 516.613 81.2988 515.277 83.3027 515.277C85.3066 515.277 86.5371 516.613 86.5371 518.16C86.5371 519.373 85.9043 520.287 84.8496 521.06L84.041 521.658L86.3789 524.383C86.7041 523.758 86.9062 523.011 86.9062 522.168H88.8398C88.8398 523.917 88.3564 525.156 87.7324 525.982L89.5957 528.162H87.1699L86.3613 527.23C85.4473 527.986 84.2168 528.338 83.0918 528.338ZM81.0879 524.681C81.0879 525.701 81.8965 526.509 83.1621 526.509C83.8389 526.509 84.5332 526.272 85.1484 525.824L82.4941 522.783L82.2832 522.941C81.4219 523.574 81.0879 524.242 81.0879 524.681ZM81.9668 518.459C81.9668 519.039 82.3623 519.628 82.8984 520.287L83.6191 519.795C84.2871 519.355 84.6387 518.916 84.6387 518.265C84.6387 517.703 84.1465 517.105 83.3379 517.123C82.5293 517.123 81.9668 517.756 81.9668 518.459ZM92.4258 528.162H89.9824L94.4648 515.435H97.2773L101.777 528.162H99.334L98.2793 525.015H93.4805L92.4258 528.162ZM94.0957 523.17H97.6641L95.9238 518.037H95.8184L94.0957 523.17ZM111.322 514.539C113.379 514.521 114.996 515.708 115.4 517.457H118.266V513.836H120.217V522.361H118.266V519.039H115.418C115.022 520.823 113.388 522.027 111.322 522.027C108.879 522.027 107.121 520.463 107.121 518.265C107.121 516.103 108.879 514.521 111.322 514.539ZM111.322 516.174C109.951 516.174 108.984 516.982 108.984 518.265C108.984 519.531 109.951 520.375 111.322 520.375C112.658 520.375 113.607 519.531 113.625 518.265C113.607 516.982 112.658 516.174 111.322 516.174ZM111.674 523.099V524.787H118.266V523.099H120.217V529.533H109.74V523.099H111.674ZM111.674 527.951H118.266V526.299H111.674V527.951ZM136.969 522.836V524.418H130.641V529.709H128.707V524.418H122.449V522.836H136.969ZM135.193 514.644V520.972H124.225V514.644H135.193ZM126.141 516.209V519.443H133.242V516.209H126.141Z" fill="#111111"/>
<path d="M462.71 474.367V475.931H454.923V474.367H457.876V472.293H459.81V474.367H462.71ZM458.843 476.775C460.864 476.775 462.306 478.304 462.306 480.466C462.306 482.664 460.864 484.211 458.843 484.211C456.839 484.211 455.362 482.664 455.38 480.466C455.362 478.304 456.839 476.775 458.843 476.775ZM458.843 478.392C457.806 478.392 457.085 479.218 457.103 480.466C457.085 481.75 457.806 482.558 458.843 482.541C459.862 482.558 460.583 481.75 460.583 480.466C460.583 479.218 459.862 478.392 458.843 478.392ZM468.616 471.836V487.726H466.753V479.957H465.206V487.006H463.378V472.17H465.206V478.375H466.753V471.836H468.616ZM475.665 472.82C478.179 472.82 480.024 474.402 480.042 476.652C480.024 478.612 478.645 480.045 476.649 480.396V482.716C478.064 482.646 479.497 482.523 480.851 482.33L481.009 483.736C477.44 484.404 473.626 484.439 470.831 484.439L470.585 482.84C471.798 482.84 473.213 482.84 474.698 482.787V480.396C472.703 480.053 471.306 478.612 471.306 476.652C471.306 474.402 473.169 472.82 475.665 472.82ZM475.665 474.508C474.276 474.508 473.239 475.316 473.239 476.652C473.239 477.97 474.276 478.814 475.665 478.814C477.071 478.814 478.126 477.97 478.126 476.652C478.126 475.316 477.071 474.508 475.665 474.508ZM483.751 471.836V487.744H481.8V471.836H483.751ZM492.681 473.435L495.985 483.472H496.126L499.448 473.435H501.962L497.462 486.162H494.649L490.167 473.435H492.681ZM511.366 477.724C511.103 476.195 509.872 475.316 508.325 475.316C506.233 475.316 504.774 476.916 504.774 479.799C504.774 482.716 506.251 484.281 508.325 484.281C509.837 484.281 511.067 483.437 511.366 481.943H513.669C513.317 484.386 511.313 486.338 508.29 486.338C504.933 486.338 502.472 483.894 502.472 479.799C502.472 475.685 504.968 473.259 508.29 473.259C511.103 473.259 513.282 474.894 513.669 477.724H511.366ZM519.733 472.82C522.177 472.82 524.04 474.402 524.058 476.652C524.04 478.594 522.669 480.027 520.735 480.396V482.734C522.054 482.673 523.381 482.567 524.62 482.4L524.761 483.859C521.438 484.457 517.8 484.474 515.075 484.439L514.794 482.84C515.989 482.84 517.36 482.84 518.784 482.804V480.396C516.789 480.062 515.409 478.621 515.427 476.652C515.409 474.402 517.237 472.82 519.733 472.82ZM519.733 474.472C518.345 474.49 517.325 475.316 517.325 476.652C517.325 477.988 518.345 478.832 519.733 478.814C521.104 478.832 522.124 477.988 522.124 476.652C522.124 475.316 521.104 474.49 519.733 474.472ZM527.485 471.836V478.181H529.788V479.834H527.485V487.726H525.534V471.836H527.485ZM535.694 472.943C538.208 472.925 540.054 474.525 540.071 476.775C540.054 479.043 538.208 480.625 535.694 480.625C533.198 480.625 531.335 479.043 531.335 476.775C531.335 474.525 533.198 472.925 535.694 472.943ZM535.694 474.631C534.306 474.631 533.269 475.457 533.269 476.775C533.269 478.111 534.306 478.92 535.694 478.92C537.101 478.92 538.155 478.111 538.155 476.775C538.155 475.457 537.101 474.631 535.694 474.631ZM543.78 471.836V487.744H541.829V471.836H543.78ZM530.614 482.822C533.479 482.822 537.452 482.787 540.88 482.295L541.038 483.718C537.47 484.404 533.655 484.422 530.86 484.422L530.614 482.822ZM473.178 492.836V508.726H471.314V492.836H473.178ZM469.943 493.134V507.953H468.098V499.955H465.812V498.373H468.098V493.134H469.943ZM464.406 497.177C464.406 499.867 465.373 502.556 467.641 503.857L466.48 505.299C465.013 504.42 464.037 502.908 463.492 501.097C462.93 503.057 461.919 504.727 460.416 505.668L459.221 504.209C461.523 502.82 462.525 499.937 462.525 497.177V496.123H459.766V494.541H466.973V496.123H464.406V497.177ZM488.752 494.488V496.035H475.779V494.488H481.316V492.8H483.25V494.488H488.752ZM489.578 502.996V504.578H486.062V508.744H484.094V504.578H480.525V508.744H478.574V504.578H475.059V502.996H489.578ZM482.283 496.756C485.641 496.756 487.662 497.705 487.662 499.445C487.662 501.168 485.641 502.134 482.283 502.134C478.926 502.134 476.904 501.168 476.904 499.445C476.904 497.705 478.926 496.756 482.283 496.756ZM482.283 498.232C480.086 498.232 478.926 498.636 478.943 499.445C478.926 500.236 480.086 500.658 482.283 500.64C484.48 500.658 485.641 500.236 485.641 499.445C485.641 498.636 484.48 498.232 482.283 498.232ZM505.117 500.043V501.519H490.598V500.043H505.117ZM503.359 502.468V506.09H494.254V507.197H503.834V508.55H492.303V504.824H501.426V503.84H492.285V502.468H503.359ZM503.324 493.187V496.773H494.377V497.81H503.605V499.146H492.443V495.508H501.373V494.541H492.391V493.187H503.324ZM524.928 501.097V502.644H510.408V501.097H516.684V499.92H512.271V493.258H523.188V494.769H514.223V495.859H522.801V497.3H514.223V498.425H523.311V499.92H518.635V501.097H524.928ZM517.668 503.523C521.166 503.523 523.152 504.455 523.17 506.107C523.152 507.812 521.166 508.709 517.668 508.709C514.117 508.709 512.131 507.812 512.131 506.107C512.131 504.455 514.117 503.523 517.668 503.523ZM517.668 504.982C515.277 504.982 514.082 505.351 514.082 506.107C514.082 506.881 515.277 507.25 517.668 507.25C520.023 507.25 521.201 506.881 521.219 506.107C521.201 505.351 520.023 504.982 517.668 504.982ZM538.533 492.853V497.845H540.748V499.463H538.533V504.718H536.582V492.853H538.533ZM535.439 494.611V496.175H526.018V494.611H529.762V492.836H531.713V494.611H535.439ZM530.729 496.826C533.014 496.826 534.596 498.039 534.613 499.867C534.596 501.677 533.014 502.873 530.729 502.873C528.426 502.873 526.826 501.677 526.826 499.867C526.826 498.039 528.426 496.826 530.729 496.826ZM530.729 498.338C529.516 498.338 528.725 498.9 528.725 499.867C528.725 500.816 529.516 501.379 530.729 501.361C531.941 501.379 532.75 500.816 532.75 499.867C532.75 498.9 531.941 498.338 530.729 498.338ZM539.166 506.828V508.41H528.355V503.787H530.307V506.828H539.166ZM473.283 513.836V529.726H471.42V521.675H469.785V528.953H467.939V514.117H469.785V520.058H471.42V513.836H473.283ZM464.441 517.896C464.441 520.726 465.391 523.328 467.746 524.541L466.604 526.035C465.092 525.226 464.099 523.829 463.545 522.097C463 524.075 462.007 525.666 460.434 526.597L459.238 525.103C461.594 523.767 462.543 520.99 462.543 517.896V517.14H459.713V515.576H467.043V517.14H464.441V517.896ZM487.592 513.836V518.406H489.807V520.041H487.592V525.297H485.605V513.836H487.592ZM483.268 515.049C483.268 519.267 480.525 522.273 475.814 523.644L475.006 522.097C478.636 521.051 480.798 519.074 481.141 516.648H475.674V515.049H483.268ZM488.189 527.828V529.41H477.379V524.119H479.365V527.828H488.189ZM503.922 513.836V522.502H501.971V519.109H499.229V517.492H501.971V513.836H503.922ZM495.396 523.17V524.822H501.971V523.17H503.922V529.533H493.445V523.17H495.396ZM495.396 527.951H501.971V526.351H495.396V527.951ZM499.738 514.644V516.244H496.451C496.469 518.151 497.752 520.12 500.195 520.937L499.211 522.449C497.436 521.834 496.179 520.638 495.484 519.144C494.781 520.805 493.463 522.141 491.582 522.783L490.58 521.236C493.094 520.383 494.447 518.327 494.465 516.244H491.16V514.644H499.738ZM524.945 523.31V524.91H518.635V529.726H516.701V524.91H510.426V523.31H524.945ZM523.381 520.445V521.992H512.289V514.521H523.205V516.068H514.223V517.474H522.854V518.986H514.223V520.445H523.381ZM531.695 518.353C531.695 520.814 533.154 523.609 535.668 524.769L534.578 526.316C532.785 525.472 531.458 523.767 530.746 521.781C530.025 523.961 528.637 525.824 526.809 526.703L525.666 525.174C528.197 523.978 529.727 520.99 529.744 518.353V517.017H526.281V515.4H535.018V517.017H531.695V518.353ZM538.445 513.836V520.023H540.889V521.658H538.445V529.726H536.494V513.836H538.445Z" fill="#111111"/>
<circle opacity="0.5" cx="165.28" cy="166.32" r="6" fill="#3399F3"/>
<circle opacity="0.5" cx="435.723" cy="166.32" r="6" fill="#3399F3"/>
<circle opacity="0.5" cx="165.28" cy="436.383" r="6" fill="#3399F3"/>
<circle opacity="0.5" cx="435.723" cy="436.383" r="6" fill="#3399F3"/>
<path d="M437.609 438.269C438.65 437.227 438.65 435.539 437.609 434.498C436.567 433.456 434.879 433.456 433.838 434.498C432.796 435.539 432.796 437.227 433.838 438.269C434.879 439.31 436.567 439.31 437.609 438.269ZM379.155 379.815L380.649 385.391L384.731 381.309L379.155 379.815ZM436.077 436.03L382.69 382.643L381.983 383.35L435.37 436.737L436.077 436.03Z" fill="#3399F3"/>
<path d="M163.395 438.269C162.353 437.227 162.353 435.539 163.395 434.498C164.436 433.456 166.124 433.456 167.166 434.498C168.207 435.539 168.207 437.227 167.166 438.269C166.124 439.31 164.436 439.31 163.395 438.269ZM221.849 379.815L220.355 385.391L216.272 381.309L221.849 379.815ZM164.927 436.03L218.313 382.643L219.02 383.35L165.634 436.737L164.927 436.03Z" fill="#3399F3"/>
<path d="M437.609 164.435C436.567 163.393 434.879 163.393 433.838 164.435C432.796 165.476 432.796 167.165 433.838 168.206C434.879 169.247 436.567 169.247 437.609 168.206C438.65 167.165 438.65 165.476 437.609 164.435ZM379.155 222.889L384.731 221.395L380.649 217.312L379.155 222.889ZM435.37 165.967L381.983 219.353L382.69 220.06L436.077 166.674L435.37 165.967Z" fill="#3399F3"/>
<path d="M163.395 164.435C164.436 163.393 166.124 163.393 167.166 164.435C168.207 165.476 168.207 167.165 167.166 168.206C166.124 169.247 164.436 169.247 163.395 168.206C162.353 167.165 162.353 165.476 163.395 164.435ZM221.849 222.889L216.272 221.395L220.355 217.312L221.849 222.889ZM165.634 165.967L219.02 219.353L218.313 220.06L164.927 166.674L165.634 165.967Z" fill="#3399F3"/>
</svg>
