<svg width="719" height="638" viewBox="0 0 719 638" fill="none" xmlns="http://www.w3.org/2000/svg">
<rect opacity="0.5" x="-0.00976562" y="494.817" width="200" height="120" rx="10" fill="#ECF0F4"/>
<rect opacity="0.03" x="5.99023" y="501" width="188" height="108" rx="10" fill="#1A2A3E"/>
<path fill-rule="evenodd" clip-rule="evenodd" d="M584.324 315.428L494.335 316.805C493.815 282.829 480.666 249.289 454.81 223.434C428.955 197.578 395.415 184.429 361.439 183.909L362.816 93.9196C419.238 94.7832 475.397 116.741 518.45 159.794C561.503 202.847 583.461 259.006 584.324 315.428ZM355.886 93.9196L357.263 183.909C323.287 184.429 289.747 197.578 263.891 223.434C238.036 249.289 224.887 282.829 224.367 316.805L134.377 315.428C135.241 259.006 157.199 202.847 200.252 159.794C243.305 116.741 299.464 94.7832 355.886 93.9196ZM134.377 322.358C135.241 378.78 157.199 434.939 200.252 477.992C243.305 521.045 299.464 543.003 355.886 543.867L357.263 453.877C323.287 453.357 289.747 440.208 263.891 414.352C238.036 388.497 224.887 354.957 224.367 320.981L134.377 322.358ZM362.816 543.867L361.439 453.877C395.415 453.357 428.955 440.208 454.81 414.352C480.666 388.497 493.815 354.957 494.335 320.981L584.324 322.358C583.461 378.78 561.503 434.939 518.45 477.992C475.397 521.045 419.238 543.003 362.816 543.867Z" fill="#D9D9D9"/>
<rect opacity="0.5" x="518.712" y="48" width="200" height="93" rx="10" fill="#ECF0F4"/>
<rect opacity="0.5" x="518.712" y="494.691" width="200" height="93" rx="10" fill="#ECF0F4"/>
<rect opacity="0.5" x="-0.00976562" y="48.0288" width="200" height="93" rx="10" fill="#ECF0F4"/>
<path fill-rule="evenodd" clip-rule="evenodd" d="M355.881 93.9185L357.259 183.908C323.282 184.428 289.743 197.577 263.887 223.433C238.031 249.288 224.882 282.828 224.362 316.804L134.373 315.427C135.236 259.005 157.195 202.846 200.247 159.793C243.3 116.74 299.459 94.7821 355.881 93.9185Z" fill="#2E8BDD"/>
<path fill-rule="evenodd" clip-rule="evenodd" d="M584.32 315.427L494.331 316.804C493.811 282.828 480.662 249.288 454.806 223.433C428.95 197.577 395.411 184.428 361.434 183.908L362.812 93.9186C419.234 94.7823 475.393 116.74 518.446 159.793C561.498 202.846 583.457 259.005 584.32 315.427Z" fill="#1A2A3E"/>
<rect opacity="0.03" x="5.99023" y="54.0288" width="188" height="81" rx="10" fill="#1A2A3E"/>
<rect opacity="0.03" x="524.293" y="54.0288" width="188" height="81" rx="10" fill="#1A2A3E"/>
<rect opacity="0.03" x="524.293" y="500.72" width="188" height="81" rx="10" fill="#1A2A3E"/>
<path d="M588.459 136.441C586.567 134.549 583.501 134.549 581.609 136.441C579.718 138.332 579.718 141.399 581.609 143.29C583.501 145.181 586.567 145.181 588.459 143.29C590.35 141.399 590.35 138.332 588.459 136.441ZM546.506 178.393L556.635 175.679L549.22 168.265L546.506 178.393ZM584.392 139.223L551.643 171.972L552.927 173.256L585.676 140.507L584.392 139.223Z" fill="#3399F3"/>
<circle opacity="0.5" cx="585.034" cy="139.865" r="10.8974" transform="rotate(90 585.034 139.865)" fill="#3399F3"/>
<path d="M131.333 136.602C133.224 134.71 136.291 134.71 138.182 136.602C140.073 138.493 140.073 141.56 138.182 143.451C136.291 145.343 133.224 145.343 131.333 143.451C129.441 141.56 129.441 138.493 131.333 136.602ZM173.285 178.554L163.157 175.84L170.571 168.426L173.285 178.554ZM135.399 139.384L168.148 172.133L166.864 173.417L134.115 140.669L135.399 139.384Z" fill="#3399F3"/>
<circle opacity="0.5" cx="10.8974" cy="10.8974" r="10.8974" transform="matrix(-4.37114e-08 1 1 4.37114e-08 123.86 129.129)" fill="#3399F3"/>
<circle cx="359.351" cy="318.893" r="100" fill="#ECF0F4"/>
<path fill-rule="evenodd" clip-rule="evenodd" d="M134.373 322.361L224.362 320.984C224.882 354.96 238.031 388.5 263.887 414.355C289.742 440.211 323.282 453.36 357.258 453.88L355.881 543.869C299.459 543.006 243.3 521.048 200.247 477.995C157.194 434.942 135.236 378.783 134.373 322.361Z" fill="#3399F3"/>
<path fill-rule="evenodd" clip-rule="evenodd" d="M362.812 543.87L361.434 453.88C395.411 453.36 428.95 440.211 454.806 414.355C480.662 388.5 493.811 354.96 494.331 320.984L584.32 322.361C583.457 378.783 561.498 434.942 518.446 477.995C475.393 521.048 419.234 543.006 362.812 543.87Z" fill="#A1D0F9"/>
<path d="M340.383 314.893V305.348H342.633V314.893H340.383ZM341.526 303.995C340.823 303.995 340.225 303.45 340.225 302.764C340.225 302.096 340.823 301.551 341.526 301.551C342.247 301.551 342.827 302.096 342.827 302.764C342.827 303.45 342.247 303.995 341.526 303.995ZM356.239 308.53C356.239 312.643 353.743 315.069 350.403 315.069C347.063 315.069 344.567 312.625 344.567 308.53C344.567 304.417 347.063 301.991 350.403 301.991C353.743 301.991 356.239 304.417 356.239 308.53ZM353.936 308.53C353.936 305.629 352.477 304.047 350.403 304.047C348.329 304.047 346.87 305.629 346.87 308.53C346.87 311.43 348.329 313.012 350.403 313.012C352.477 313.012 353.936 311.43 353.936 308.53ZM368.737 302.167V314.893H366.698L360.668 306.192H360.563V314.893H358.278V302.167H360.352L366.346 310.868H366.469V302.167H368.737ZM371.092 314.893V302.167H379.372V304.083H373.377V307.563H378.932V309.479H373.377V312.959H379.407V314.893H371.092ZM338.037 323.167V335.893H335.751V323.167H338.037ZM342.554 330.303V335.893H340.304V326.348H342.449V327.965H342.572C343.011 326.893 343.978 326.225 345.402 326.225C347.388 326.225 348.689 327.526 348.671 329.811V335.893H346.439V330.163C346.439 328.879 345.753 328.124 344.576 328.124C343.38 328.124 342.554 328.915 342.554 330.303ZM358.99 326.348L355.58 335.893H353.119L349.708 326.348H352.099L354.296 333.45H354.402L356.617 326.348H358.99ZM364.298 336.086C361.416 336.086 359.658 334.17 359.658 331.182C359.658 328.229 361.451 326.225 364.175 326.225C366.513 326.225 368.535 327.684 368.535 331.042V331.745H361.873C361.899 333.371 362.857 334.329 364.316 334.329C365.3 334.329 365.968 333.907 366.25 333.344H368.447C368.042 334.997 366.513 336.086 364.298 336.086ZM361.89 330.215H366.39C366.373 328.915 365.511 327.965 364.21 327.965C362.857 327.965 361.96 328.994 361.89 330.215ZM375.689 329.073C375.548 328.352 374.951 327.895 374.001 327.895C373.035 327.895 372.332 328.37 372.349 329.02C372.332 329.512 372.736 329.881 373.703 330.11L375.32 330.444C377.13 330.848 377.992 331.674 378.009 333.045C377.992 334.838 376.427 336.086 373.931 336.086C371.505 336.086 370.064 334.997 369.835 333.168H372.121C372.261 333.977 372.894 334.381 373.931 334.381C375.003 334.381 375.724 333.942 375.724 333.239C375.724 332.694 375.285 332.342 374.335 332.131L372.806 331.797C371.031 331.446 370.117 330.514 370.117 329.143C370.117 327.385 371.628 326.225 373.966 326.225C376.251 326.225 377.658 327.333 377.816 329.073H375.689ZM384.478 326.348V328.071H382.597V333.028C382.597 333.942 383.054 334.135 383.617 334.135C383.88 334.135 384.32 334.118 384.601 334.1V335.928C384.337 335.981 383.898 336.016 383.335 336.016C381.648 336.016 380.347 335.19 380.365 333.397V328.071H378.994V326.348H380.365V324.063H382.597V326.348H384.478Z" fill="#111111"/>
<path d="M588.459 498.116C586.567 500.008 583.501 500.008 581.609 498.116C579.718 496.225 579.718 493.158 581.609 491.267C583.501 489.375 586.567 489.375 588.459 491.267C590.35 493.158 590.35 496.225 588.459 498.116ZM546.506 456.163L556.635 458.877L549.22 466.292L546.506 456.163ZM584.392 495.334L551.643 462.585L552.927 461.3L585.676 494.049L584.392 495.334Z" fill="#3399F3"/>
<circle opacity="0.5" cx="10.8974" cy="10.8974" r="10.8974" transform="matrix(4.37114e-08 -1 -1 -4.37114e-08 595.931 505.589)" fill="#3399F3"/>
<path d="M131.333 498.277C133.224 500.169 136.291 500.169 138.182 498.277C140.073 496.386 140.073 493.319 138.182 491.428C136.291 489.536 133.224 489.536 131.333 491.428C129.441 493.319 129.441 496.386 131.333 498.277ZM173.285 456.324L163.157 459.038L170.571 466.453L173.285 456.324ZM135.399 495.495L168.148 462.746L166.864 461.462L134.115 494.21L135.399 495.495Z" fill="#3399F3"/>
<circle opacity="0.5" cx="134.758" cy="494.853" r="10.8974" transform="rotate(-90 134.758 494.853)" fill="#3399F3"/>
<path d="M533.138 82.2695C532.048 82.2695 531.152 81.373 531.152 80.2656C531.152 79.1758 532.048 78.2793 533.138 78.2793C534.246 78.2793 535.142 79.1758 535.142 80.2656C535.142 81.373 534.246 82.2695 533.138 82.2695ZM545.056 73.1992V75.502H548.994V73.1992H550.646V76.1699H554.091V72.3906H555.761V80.9863H554.091V77.5586H550.646V80.459H543.386V73.1992H545.056ZM545.056 79.1055H548.994V76.8027H545.056V79.1055ZM547.148 81.7246V83.5H554.091V81.7246H555.744V87.9121H545.496V81.7246H547.148ZM547.148 86.5586H554.091V84.8008H547.148V86.5586ZM572.583 79.5098V80.7578H568.804V82.0234H570.808V85.4863H561.562V86.8047H571.3V87.9824H559.892V84.3789H569.156V83.2188H559.875V82.0234H561.966V80.7578H558.169V79.5098H572.583ZM570.773 72.7949V76.1875H561.667V77.3477H571.037V78.5254H560.015V75.0801H569.103V73.9551H559.98V72.7949H570.773ZM563.619 82.0234H567.152V80.7578H563.619V82.0234ZM591.181 72.3906V80.4941H589.529V72.3906H591.181ZM591.199 81.25V85.1875H582.515V86.6465H591.726V87.9824H580.898V83.9219H589.546V82.5684H580.845V81.25H591.199ZM583.869 74.0254C583.851 76.1348 585.38 78.0508 587.789 78.8066L586.962 80.1074C585.125 79.5098 583.746 78.2617 583.042 76.6621C582.322 78.3848 580.916 79.7559 579.035 80.4062L578.191 79.0879C580.652 78.2617 582.164 76.2051 582.164 74.0254V72.8125H583.869V74.0254ZM599.162 76.3984C599.144 79.1934 600.761 82.041 603.117 83.1836L602.08 84.5195C600.366 83.6318 599.039 81.8652 598.353 79.7559C597.641 82.0059 596.261 83.8867 594.468 84.8184L593.431 83.4648C595.857 82.3047 597.492 79.2812 597.492 76.3984V73.709H599.162V76.3984ZM605.964 72.3906V78.666H608.496V80.0898H605.964V88.1406H604.294V72.3906H605.964ZM533.138 109.27C532.048 109.27 531.152 108.373 531.152 107.266C531.152 106.176 532.048 105.279 533.138 105.279C534.246 105.279 535.142 106.176 535.142 107.266C535.142 108.373 534.246 109.27 533.138 109.27ZM551.964 105.068C551.648 103.434 550.294 102.52 548.677 102.52C546.48 102.52 544.845 104.207 544.845 107.283C544.845 110.377 546.498 112.047 548.677 112.047C550.277 112.047 551.63 111.15 551.964 109.533L553.916 109.551C553.511 112.064 551.455 113.822 548.66 113.822C545.337 113.822 542.929 111.344 542.929 107.283C542.929 103.205 545.355 100.744 548.66 100.744C551.349 100.744 553.476 102.326 553.916 105.068H551.964ZM559.892 113.84C557.185 113.84 555.427 111.871 555.427 108.918C555.427 105.947 557.185 103.979 559.892 103.979C562.582 103.979 564.339 105.947 564.339 108.918C564.339 111.871 562.582 113.84 559.892 113.84ZM559.892 112.275C561.615 112.275 562.441 110.746 562.441 108.918C562.441 107.09 561.615 105.525 559.892 105.525C558.134 105.525 557.308 107.09 557.308 108.918C557.308 110.746 558.134 112.275 559.892 112.275ZM566.185 113.646V104.102H567.996V105.666H568.101C568.505 104.594 569.437 103.979 570.703 103.979C571.968 103.979 572.865 104.611 573.269 105.666H573.375C573.832 104.629 574.851 103.979 576.24 103.979C577.962 103.979 579.193 105.068 579.193 107.248V113.646H577.312V107.424C577.312 106.141 576.503 105.596 575.519 105.596C574.306 105.596 573.621 106.422 573.621 107.564V113.646H571.757V107.318C571.757 106.281 571.037 105.596 570.017 105.596C568.962 105.596 568.066 106.475 568.066 107.758V113.646H566.185ZM581.46 117.232V104.102H583.289V105.648H583.447C583.781 105.051 584.431 103.979 586.189 103.979C588.492 103.979 590.197 105.789 590.197 108.9C590.197 111.977 588.527 113.84 586.207 113.84C584.466 113.84 583.781 112.785 583.447 112.152H583.341V117.232H581.46ZM583.306 108.865C583.306 110.869 584.185 112.24 585.785 112.24C587.437 112.24 588.298 110.781 588.298 108.865C588.298 106.984 587.455 105.578 585.785 105.578C584.167 105.578 583.306 106.879 583.306 108.865ZM593.941 100.92V113.646H592.06V100.92H593.941ZM596.226 113.646V104.102H598.107V113.646H596.226ZM597.175 102.625C596.525 102.625 595.98 102.133 595.98 101.518C595.98 100.902 596.525 100.41 597.175 100.41C597.808 100.41 598.353 100.902 598.353 101.518C598.353 102.133 597.808 102.625 597.175 102.625ZM599.953 110.957C599.953 108.777 601.798 108.215 603.521 108.092C604.154 108.048 605.586 107.969 606.035 107.951L606.017 107.195C606.017 106.123 605.367 105.49 604.083 105.49C602.976 105.49 602.308 106 602.115 106.703H600.251C600.427 105.121 601.904 103.979 604.154 103.979C605.666 103.979 607.898 104.541 607.898 107.301V113.646H606.07V112.346H606C605.63 113.066 604.751 113.857 603.169 113.857C601.359 113.857 599.953 112.82 599.953 110.957ZM601.781 110.975C601.781 111.889 602.537 112.363 603.591 112.363C605.121 112.363 606.035 111.344 606.035 110.201V109.322L603.785 109.48C602.554 109.568 601.781 110.025 601.781 110.975ZM612.046 107.986V113.646H610.166V104.102H611.976V105.666H612.082C612.539 104.646 613.47 103.979 614.894 103.979C616.863 103.979 618.146 105.209 618.146 107.582V113.646H616.283V107.811C616.283 106.422 615.527 105.596 614.261 105.596C612.978 105.596 612.046 106.457 612.046 107.986ZM624.474 113.84C621.697 113.84 620.009 111.783 620.009 108.918C620.009 106 621.75 103.979 624.439 103.979C626.619 103.979 628.201 105.262 628.394 107.195H626.566C626.373 106.299 625.652 105.543 624.474 105.543C622.927 105.543 621.89 106.826 621.89 108.865C621.89 110.957 622.91 112.24 624.474 112.24C625.529 112.24 626.337 111.66 626.566 110.623H628.394C628.183 112.469 626.724 113.84 624.474 113.84ZM634.283 113.84C631.47 113.84 629.748 111.906 629.748 108.936C629.748 106 631.505 103.979 634.16 103.979C636.339 103.979 638.396 105.332 638.396 108.777V109.445H631.611C631.664 111.256 632.727 112.293 634.3 112.293C635.373 112.293 636.058 111.836 636.375 111.256H638.273C637.851 112.803 636.375 113.84 634.283 113.84ZM631.628 108.039H636.55C636.55 106.58 635.619 105.525 634.177 105.525C632.674 105.525 631.699 106.686 631.628 108.039ZM648.451 100.111C650.525 100.094 652.125 101.298 652.476 103.064H655.552V99.3906H657.222V107.846H655.552V104.436H652.494C652.151 106.246 650.542 107.459 648.451 107.459C646.042 107.459 644.32 105.947 644.32 103.768C644.32 101.623 646.042 100.094 648.451 100.111ZM648.451 101.5C646.957 101.5 645.919 102.414 645.919 103.768C645.919 105.121 646.957 106.053 648.451 106.053C649.91 106.053 650.947 105.121 650.947 103.768C650.947 102.414 649.91 101.5 648.451 101.5ZM648.609 108.602V110.43H655.552V108.602H657.222V114.947H646.957V108.602H648.609ZM648.609 113.576H655.552V111.748H648.609V113.576ZM674.044 108.426V109.779H667.611V115.123H665.976V109.779H659.63V108.426H674.044ZM672.234 100.234V106.422H661.441V100.234H672.234ZM663.076 101.57V105.121H670.564V101.57H663.076Z" fill="#111111"/>
<path d="M533.138 528.961C532.048 528.961 531.152 528.064 531.152 526.957C531.152 525.867 532.048 524.971 533.138 524.971C534.246 524.971 535.142 525.867 535.142 526.957C535.142 528.064 534.246 528.961 533.138 528.961ZM555.656 519.082V534.832H553.986V519.082H555.656ZM542.718 530.543C544.01 530.534 545.496 530.525 547.042 530.473V528.908C545.197 528.671 544.001 527.59 544.019 526.043C544.001 524.268 545.548 523.09 547.833 523.09C550.136 523.09 551.718 524.268 551.718 526.043C551.718 527.572 550.523 528.645 548.695 528.891V530.42C550.154 530.358 551.63 530.244 553.019 530.068L553.142 531.316C549.644 531.896 545.83 531.932 542.947 531.932L542.718 530.543ZM552.667 520.963V522.299H543.052V520.963H547.042V519.117H548.712V520.963H552.667ZM547.833 524.391C546.515 524.391 545.583 525.041 545.601 526.043C545.583 527.045 546.515 527.66 547.833 527.66C549.187 527.66 550.119 527.045 550.119 526.043C550.119 525.041 549.187 524.391 547.833 524.391ZM571.722 519.082V534.832H570.14V519.082H571.722ZM568.505 519.486V534.059H566.923V528.697H564.234V527.326H566.923V524.76H564.498C563.733 527.405 562.054 529.699 559.083 531.475L558.099 530.279C561.439 528.293 563.047 525.647 563.337 522.404H558.873V521.033H564.99C564.99 521.842 564.928 522.624 564.796 523.389H566.923V519.486H568.505ZM586.453 520.084V526.553H578.964V520.084H586.453ZM580.599 521.42V525.252H584.8V521.42H580.599ZM591.181 519.082V528.082H589.529V519.082H591.181ZM591.55 529.102V530.367H586.945C587.059 531.738 589.248 533.171 592.113 533.496L591.55 534.779C589.081 534.489 587.05 533.426 586.101 532.037C585.134 533.443 583.06 534.472 580.582 534.779L580.001 533.496C582.867 533.224 585.108 531.773 585.222 530.367H580.634V529.102H585.257V527.625H586.91V529.102H591.55ZM603.574 523.723C603.574 526.219 605.208 528.996 607.599 530.121L606.65 531.422C604.883 530.569 603.486 528.794 602.783 526.729C602.053 528.987 600.577 530.93 598.775 531.826L597.791 530.508C600.181 529.365 601.921 526.395 601.921 523.723V522.053H598.371V520.664H607.001V522.053H603.574V523.723ZM610.359 519.082V525.322H612.89V526.729H610.359V534.832H608.689V519.082H610.359ZM619.113 521.965C619.113 524.074 620.589 526.061 622.98 526.869L622.119 528.188C620.352 527.563 619.042 526.307 618.339 524.725C617.654 526.491 616.3 527.871 614.455 528.557L613.523 527.238C616.019 526.377 617.46 524.268 617.46 521.912V520.049H619.113V521.965ZM626.021 519.064V523.811H628.306V525.234H626.021V530.684H624.351V519.064H626.021ZM626.707 533.145V534.498H616.054V529.559H617.759V533.145H626.707ZM642.246 519.082V527.186H640.593V519.082H642.246ZM642.263 527.941V531.879H633.58V533.338H642.791V534.674H631.962V530.613H640.611V529.26H631.91V527.941H642.263ZM634.933 520.717C634.916 522.826 636.445 524.742 638.853 525.498L638.027 526.799C636.19 526.201 634.81 524.953 634.107 523.354C633.386 525.076 631.98 526.447 630.099 527.098L629.255 525.779C631.716 524.953 633.228 522.896 633.228 520.717V519.504H634.933V520.717ZM650.226 523.09C650.208 525.885 651.826 528.732 654.181 529.875L653.144 531.211C651.43 530.323 650.103 528.557 649.417 526.447C648.706 528.697 647.326 530.578 645.533 531.51L644.496 530.156C646.921 528.996 648.556 525.973 648.556 523.09V520.4H650.226V523.09ZM657.029 519.082V525.357H659.56V526.781H657.029V534.832H655.359V519.082H657.029ZM533.138 555.961C532.048 555.961 531.152 555.064 531.152 553.957C531.152 552.867 532.048 551.971 533.138 551.971C534.246 551.971 535.142 552.867 535.142 553.957C535.142 555.064 534.246 555.961 533.138 555.961ZM555.726 546.082V561.832H554.039V546.082H555.726ZM551.033 547.77C551.033 552.375 549.064 556.383 543.667 558.967L542.789 557.613C546.981 555.618 549.02 552.779 549.345 549.105H543.544V547.77H551.033ZM562.546 546.803C564.621 546.785 566.22 547.989 566.572 549.756H569.648V546.082H571.318V554.537H569.648V551.127H566.589C566.247 552.938 564.638 554.15 562.546 554.15C560.138 554.15 558.416 552.639 558.416 550.459C558.416 548.314 560.138 546.785 562.546 546.803ZM562.546 548.191C561.052 548.191 560.015 549.105 560.015 550.459C560.015 551.812 561.052 552.744 562.546 552.744C564.005 552.744 565.042 551.812 565.042 550.459C565.042 549.105 564.005 548.191 562.546 548.191ZM562.705 555.293V557.121H569.648V555.293H571.318V561.639H561.052V555.293H562.705ZM562.705 560.268H569.648V558.439H562.705V560.268ZM586.013 546.082V552.357H588.457V553.746H586.013V561.814H584.343V546.082H586.013ZM581.9 547.734C581.882 552.287 579.878 556.348 574.693 558.914L573.761 557.613C577.708 555.645 579.852 552.797 580.195 549.123H574.552V547.734H581.9ZM602.343 546.082V561.832H600.673V546.082H602.343ZM595.224 551.145C595.224 553.658 596.894 556.225 599.337 557.262L598.423 558.545C596.613 557.754 595.163 556.119 594.433 554.133C593.721 556.233 592.297 557.982 590.46 558.809L589.529 557.525C591.972 556.436 593.589 553.781 593.589 551.145V550.107H590.003V548.771H593.572V546.398H595.224V548.771H598.757V550.107H595.224V551.145ZM613.681 547.225V548.578H612.169V553.342C612.837 553.289 613.479 553.228 614.103 553.148L614.173 554.414C611.15 554.889 607.617 554.941 605.085 554.941L604.875 553.553L606.791 553.535V548.578H605.314V547.225H613.681ZM617.988 546.082V555.768H616.318V553.025H613.91V551.689H616.318V550.16H613.91V548.824H616.318V546.082H617.988ZM612.714 556.066C616.037 556.066 618.041 557.104 618.041 558.949C618.041 560.742 616.037 561.814 612.714 561.797C609.392 561.814 607.371 560.742 607.388 558.949C607.371 557.104 609.392 556.066 612.714 556.066ZM612.714 557.367C610.394 557.367 609.041 557.93 609.041 558.949C609.041 559.951 610.394 560.514 612.714 560.514C615.017 560.514 616.388 559.951 616.388 558.949C616.388 557.93 615.017 557.367 612.714 557.367ZM608.408 553.518C609.12 553.5 609.84 553.474 610.57 553.43V548.578H608.408V553.518ZM632.683 546.082V552.357H635.126V553.746H632.683V561.814H631.013V546.082H632.683ZM628.57 547.734C628.552 552.287 626.548 556.348 621.363 558.914L620.431 557.613C624.377 555.645 626.522 552.797 626.865 549.123H621.222V547.734H628.57Z" fill="#111111"/>
<path d="M14.416 82.2983C13.3262 82.2983 12.4297 81.4019 12.4297 80.2944C12.4297 79.2046 13.3262 78.3081 14.416 78.3081C15.5234 78.3081 16.4199 79.2046 16.4199 80.2944C16.4199 81.4019 15.5234 82.2983 14.416 82.2983ZM38.3047 81.8765V83.2476H31.9062V88.1694H30.2539V83.2476H23.8906V81.8765H38.3047ZM36.7051 79.0815V80.4175H25.7891V73.1226H36.5293V74.4585H27.4238V76.0757H36.1777V77.3765H27.4238V79.0815H36.7051ZM44.9492 77.0601C44.9492 79.5562 46.584 82.3335 48.9746 83.4585L48.0254 84.7593C46.2588 83.9067 44.8613 82.1313 44.1582 80.0659C43.4287 82.3247 41.9521 84.2671 40.1504 85.1636L39.166 83.8452C41.5566 82.7026 43.2969 79.7319 43.2969 77.0601V75.3901H39.7461V74.0015H48.377V75.3901H44.9492V77.0601ZM51.7344 72.4194V78.6597H54.2656V80.0659H51.7344V88.1694H50.0645V72.4194H51.7344ZM72.5117 72.4194V88.1694H70.8242V72.4194H72.5117ZM67.8184 74.1069C67.8184 78.7124 65.8496 82.7202 60.4531 85.3042L59.5742 83.9507C63.7666 81.9556 65.8057 79.1167 66.1309 75.4429H60.3301V74.1069H67.8184ZM87.998 72.4194V88.1694H86.3281V72.4194H87.998ZM75.0605 83.8804C76.3525 83.8716 77.8379 83.8628 79.3848 83.8101V82.2456C77.5391 82.0083 76.3438 80.9272 76.3613 79.3804C76.3438 77.605 77.8906 76.4272 80.1758 76.4272C82.4785 76.4272 84.0605 77.605 84.0605 79.3804C84.0605 80.9097 82.8652 81.9819 81.0371 82.228V83.7573C82.4961 83.6958 83.9727 83.5815 85.3613 83.4058L85.4844 84.6538C81.9863 85.2339 78.1719 85.269 75.2891 85.269L75.0605 83.8804ZM85.0098 74.3003V75.6362H75.3945V74.3003H79.3848V72.4546H81.0547V74.3003H85.0098ZM80.1758 77.728C78.8574 77.728 77.9258 78.3784 77.9434 79.3804C77.9258 80.3823 78.8574 80.9976 80.1758 80.9976C81.5293 80.9976 82.4609 80.3823 82.4609 79.3804C82.4609 78.3784 81.5293 77.728 80.1758 77.728ZM97.1738 73.0874V75.2319H101.305V73.0874H102.957V79.9604H95.5391V73.0874H97.1738ZM97.1738 78.6245H101.305V76.5151H97.1738V78.6245ZM107.299 72.4194V75.7241H109.584V77.0776H107.299V80.5229H105.629V72.4194H107.299ZM107.299 81.2085V85.1812H98.791V86.6753H107.844V88.0112H97.1562V83.9507H105.646V82.5269H97.1211V81.2085H107.299ZM123.066 73.0522V74.0718C123.066 75.1001 123.066 76.4097 122.75 78.0444H124.895V79.3452H118.479V81.2085H123.084V85.146H113.855V86.6753H123.488V88.0112H112.186V83.9683H121.432V82.5269H112.168V81.2085H116.826V79.3452H110.48V78.0444H121.08C121.379 76.5063 121.414 75.3638 121.414 74.3882H112.291V73.0522H123.066ZM14.416 109.298C13.3262 109.298 12.4297 108.402 12.4297 107.294C12.4297 106.205 13.3262 105.308 14.416 105.308C15.5234 105.308 16.4199 106.205 16.4199 107.294C16.4199 108.402 15.5234 109.298 14.416 109.298ZM37.5137 99.4194V115.169H35.9141V107.083H34.0332V114.396H32.4512V99.7183H34.0332V105.677H35.9141V99.4194H37.5137ZM28.6895 103.585C28.6895 106.416 29.7617 108.982 32.0469 110.16L31.0625 111.443C29.5156 110.608 28.4785 109.14 27.916 107.312C27.3799 109.386 26.334 111.039 24.7344 111.988L23.6973 110.722C26 109.421 27.0723 106.714 27.0723 103.585V102.566H24.1191V101.212H31.4316V102.566H28.6895V103.585ZM53.8613 108.455V109.808H47.4277V115.152H45.793V109.808H39.4473V108.455H53.8613ZM52.0508 100.263V106.451H41.2578V100.263H52.0508ZM42.8926 101.599V105.15H50.3809V101.599H42.8926ZM72.459 99.4194V107.523H70.8066V99.4194H72.459ZM72.4766 108.279V112.216H63.793V113.675H73.0039V115.011H62.1758V110.951H70.8242V109.597H62.123V108.279H72.4766ZM65.1465 101.054C65.1289 103.164 66.6582 105.08 69.0664 105.835L68.2402 107.136C66.4033 106.539 65.0234 105.291 64.3203 103.691C63.5996 105.414 62.1934 106.785 60.3125 107.435L59.4688 106.117C61.9297 105.291 63.4414 103.234 63.4414 101.054V99.8413H65.1465V101.054ZM80.4395 103.427C80.4219 106.222 82.0391 109.07 84.3945 110.212L83.3574 111.548C81.6436 110.661 80.3164 108.894 79.6309 106.785C78.9189 109.035 77.5391 110.916 75.7461 111.847L74.709 110.494C77.1348 109.333 78.7695 106.31 78.7695 103.427V100.738H80.4395V103.427ZM87.2422 99.4194V105.695H89.7734V107.119H87.2422V115.169H85.5723V99.4194H87.2422Z" fill="#111111"/>
<path d="M222.115 188.684V190.891H205.767V188.684H222.115ZM220.24 194.993V197.239H207.701V191.985H210.513V194.993H220.24ZM213.931 180.129C217.876 180.129 220.494 181.536 220.513 183.821C220.494 186.145 217.876 187.571 213.931 187.59C209.966 187.571 207.349 186.145 207.349 183.821C207.349 181.536 209.966 180.129 213.931 180.129ZM213.931 182.336C211.568 182.356 210.259 182.844 210.279 183.821C210.259 184.856 211.568 185.305 213.931 185.305C216.275 185.305 217.603 184.856 217.603 183.821C217.603 182.844 216.275 182.356 213.931 182.336ZM238.501 179.602V190.813H235.826V186.184H234.712V190.227H232.076V179.934H234.712V183.899H235.826V179.602H238.501ZM231.626 181.36V183.528H222.955V181.36H225.904V179.778H228.697V181.36H231.626ZM227.31 184.016C229.595 184.016 231.255 185.286 231.255 187.161C231.255 189.016 229.595 190.286 227.31 190.286C225.083 190.286 223.423 189.016 223.423 187.161C223.423 185.286 225.083 184.016 227.31 184.016ZM227.31 186.028C226.49 186.008 225.943 186.418 225.943 187.161C225.943 187.903 226.49 188.313 227.31 188.313C228.15 188.313 228.716 187.903 228.716 187.161C228.716 186.418 228.15 186.008 227.31 186.028ZM232.31 190.93C236.216 190.93 238.58 192.141 238.599 194.231C238.58 196.34 236.216 197.551 232.31 197.532C228.443 197.551 226.041 196.34 226.06 194.231C226.041 192.141 228.443 190.93 232.31 190.93ZM232.31 193.02C230.005 193.02 228.853 193.391 228.873 194.231C228.853 195.051 230.005 195.422 232.31 195.422C234.654 195.422 235.748 195.051 235.767 194.231C235.748 193.391 234.654 193.02 232.31 193.02ZM247.388 180.852L242.837 197.786H240.025L244.576 180.852H247.388ZM251.939 181.516V195.657H248.619V181.516H251.939ZM254.087 195.657V181.516H259.927C263.091 181.516 264.732 182.961 264.732 185.11C264.732 186.731 263.638 187.844 262.095 188.157V188.293C263.794 188.372 265.279 189.661 265.279 191.711C265.279 193.997 263.501 195.657 260.376 195.657H254.087ZM259.595 192.961C261.119 192.961 261.802 192.356 261.802 191.34C261.802 190.227 260.982 189.524 259.654 189.524H257.408V192.961H259.595ZM259.38 187.356C260.513 187.356 261.333 186.75 261.333 185.735C261.333 184.778 260.611 184.172 259.419 184.172H257.408V187.356H259.38Z" fill="#FCFEFF"/>
<path d="M447.468 180.52V182.649H450.515V180.52H453.289V183.606H456.296V179.602H459.089V189.426H456.296V185.891H453.289V188.958H444.636V180.52H447.468ZM447.468 186.711H450.515V184.797H447.468V186.711ZM449.792 190.129V191.594H456.296V190.129H459.089V197.297H447.019V190.129H449.792ZM449.792 195.051H456.296V193.743H449.792V195.051ZM477.566 189.504V191.75H470.71V197.493H467.917V191.75H461.179V189.504H477.566ZM475.671 180.442V187.747H463.054V180.442H475.671ZM465.808 182.668V185.54H472.859V182.668H465.808ZM482.039 180.52V182.649H485.085V180.52H487.859V183.606H490.867V179.602H493.66V189.426H490.867V185.891H487.859V188.958H479.207V180.52H482.039ZM482.039 186.711H485.085V184.797H482.039V186.711ZM484.363 190.129V191.594H490.867V190.129H493.66V197.297H481.589V190.129H484.363ZM484.363 195.051H490.867V193.743H484.363V195.051ZM510.828 179.622V192.434H508.015V179.622H510.828ZM511.277 194.993V197.239H498.679V191.145H501.531V194.993H511.277ZM500.964 180.735C503.738 180.735 505.925 182.649 505.925 185.286C505.925 187.981 503.738 189.875 500.964 189.875C498.191 189.875 495.984 187.981 496.003 185.286C495.984 182.649 498.191 180.735 500.964 180.735ZM500.964 183.176C499.695 183.157 498.738 183.938 498.738 185.286C498.738 186.692 499.695 187.434 500.964 187.434C502.175 187.434 503.132 186.692 503.132 185.286C503.132 183.938 502.175 183.157 500.964 183.176Z" fill="#FCFEFF"/>
<path d="M213.022 408.263V409.513C213.022 410.646 213.022 412.032 212.69 413.771H214.897V415.958H198.511V413.771H209.858C210.112 412.462 210.181 411.388 210.21 410.47H200.483V408.263H213.022ZM212.905 417.052V422.208H203.14V423.204H213.394V425.353H200.347V420.138H210.132V419.2H200.327V417.052H212.905ZM232.183 421.251V423.536H215.796V421.251H222.573V418.751H217.632V412.579H227.573V410.899H217.612V408.653H230.347V414.767H220.444V416.485H230.757V418.751H225.347V421.251H232.183ZM248.257 407.54V416.642H245.464V413.302H242.456V416.231H233.804V408.282H236.636V410.177H239.683V408.282H242.456V411.056H245.464V407.54H248.257ZM248.257 417.247V422.247H239.077V423.087H248.726V425.274H236.245V420.255H245.464V419.435H236.245V417.247H248.257ZM236.636 414.044H239.683V412.325H236.636V414.044ZM190.737 432.888C190.718 438.005 188.667 441.384 182.534 443.317L181.46 441.149C183.823 440.397 185.366 439.499 186.343 438.415L181.87 438.786L181.499 436.599L187.495 436.423C187.612 436.013 187.7 435.583 187.749 435.134H182.397V432.888H190.737ZM196.401 431.56V444.763H193.608V439.157H190.601V436.872H193.608V431.56H196.401ZM196.831 446.931V449.177H184.468V443.493H187.3V446.931H196.831ZM213.687 431.54V440.622H210.894V436.228H207.729V434.021H210.894V431.54H213.687ZM213.687 441.306V446.267H204.468V447.087H214.155V449.274H201.714V444.235H210.894V443.454H201.675V441.306H213.687ZM205.425 433.317C205.405 435.388 206.46 437.438 209.39 438.278L207.925 440.427C206.04 439.841 204.761 438.708 203.999 437.263C203.208 438.884 201.841 440.163 199.78 440.798L198.335 438.552C201.401 437.692 202.554 435.524 202.554 433.317V432.146H205.425V433.317ZM225.464 432.771V434.997H219.585V436.13H224.937V438.298H219.585V439.431C222.534 439.431 224.487 439.401 226.675 439.04L226.929 441.228C224.409 441.638 222.104 441.677 218.335 441.677H216.753V432.771H225.464ZM230.854 431.56V442.321H228.042V431.56H230.854ZM224.722 442.575C228.511 442.575 230.933 443.845 230.952 446.032C230.933 448.22 228.511 449.489 224.722 449.47C220.874 449.489 218.511 448.22 218.511 446.032C218.511 443.845 220.874 442.575 224.722 442.575ZM224.722 444.724C222.437 444.724 221.323 445.153 221.323 446.032C221.323 446.931 222.437 447.341 224.722 447.36C226.968 447.341 228.12 446.931 228.12 446.032C228.12 445.153 226.968 444.724 224.722 444.724ZM252.71 431.54V449.47H249.917V431.54H252.71ZM237.632 444.313C238.94 444.304 240.435 444.304 242.007 444.274V442.888C240.112 442.487 238.882 441.267 238.882 439.646C238.882 437.653 240.737 436.267 243.394 436.267C246.069 436.267 247.944 437.653 247.944 439.646C247.944 441.267 246.704 442.487 244.8 442.888V444.177C246.216 444.099 247.642 443.991 248.999 443.806L249.194 445.876C245.308 446.56 241.128 446.599 237.983 446.599L237.632 444.313ZM248.823 433.474V435.661H237.983V433.474H242.007V431.638H244.819V433.474H248.823ZM243.394 438.396C242.319 438.396 241.558 438.825 241.558 439.646C241.558 440.485 242.319 440.896 243.394 440.915C244.507 440.896 245.249 440.485 245.249 439.646C245.249 438.825 244.507 438.396 243.394 438.396ZM261.616 435.349C261.616 438.591 262.749 441.813 265.718 443.259L264.038 445.485C262.163 444.577 260.933 442.927 260.229 440.896C259.448 443.093 258.13 444.86 256.128 445.837L254.409 443.552C257.573 442.126 258.804 438.708 258.804 435.349V432.868H261.616V435.349ZM269.058 431.54V438.337H271.597V440.7H269.058V449.47H266.245V431.54H269.058Z" fill="#FCFEFF"/>
<path d="M467.767 434.599V452.529H464.974V434.599H467.767ZM452.689 447.373C453.998 447.363 455.492 447.363 457.064 447.333V445.947C455.169 445.546 453.939 444.326 453.939 442.705C453.939 440.712 455.794 439.326 458.451 439.326C461.126 439.326 463.001 440.712 463.001 442.705C463.001 444.326 461.761 445.546 459.857 445.947V447.236C461.273 447.158 462.699 447.05 464.056 446.865L464.251 448.935C460.365 449.619 456.185 449.658 453.041 449.658L452.689 447.373ZM463.88 436.533V438.72H453.041V436.533H457.064V434.697H459.876V436.533H463.88ZM458.451 441.455C457.376 441.455 456.615 441.884 456.615 442.705C456.615 443.544 457.376 443.955 458.451 443.974C459.564 443.955 460.306 443.544 460.306 442.705C460.306 441.884 459.564 441.455 458.451 441.455ZM485.482 434.599V452.529H482.845V434.599H485.482ZM481.712 434.99V451.767H479.056V445.966H476.771V443.701H479.056V441.513H477.123C476.302 444.433 474.515 446.865 471.185 448.837L469.544 446.865C473.08 444.785 474.583 442.363 474.916 438.935H470.658V436.689H477.708C477.708 437.578 477.66 438.427 477.572 439.248H479.056V434.99H481.712ZM490.736 435.517V437.646H493.783V435.517H496.556V438.603H499.564V434.599H502.357V444.423H499.564V440.888H496.556V443.955H487.904V435.517H490.736ZM490.736 441.708H493.783V439.794H490.736V441.708ZM493.06 445.126V446.591H499.564V445.126H502.357V452.294H490.287V445.126H493.06ZM493.06 450.048H499.564V448.74H493.06V450.048ZM519.525 434.619V447.431H516.712V434.619H519.525ZM519.974 449.99V452.236H507.376V446.142H510.228V449.99H519.974ZM509.662 435.732C512.435 435.732 514.623 437.646 514.623 440.283C514.623 442.978 512.435 444.873 509.662 444.873C506.888 444.873 504.681 442.978 504.701 440.283C504.681 437.646 506.888 435.732 509.662 435.732ZM509.662 438.173C508.392 438.154 507.435 438.935 507.435 440.283C507.435 441.689 508.392 442.431 509.662 442.431C510.873 442.431 511.83 441.689 511.83 440.283C511.83 438.935 510.873 438.154 509.662 438.173Z" fill="#111111"/>
<path d="M14.416 529.623C13.3262 529.623 12.4297 528.727 12.4297 527.619C12.4297 526.529 13.3262 525.633 14.416 525.633C15.5234 525.633 16.4199 526.529 16.4199 527.619C16.4199 528.727 15.5234 529.623 14.416 529.623ZM37.0391 519.762V531.293H35.3691V525.369H32.3633V524.016H35.3691V519.762H37.0391ZM37.4609 533.807V535.16H26.8086V530.256H28.4785V533.807H37.4609ZM29.5508 522.943C29.5508 524.912 30.9746 526.881 33.3477 527.672L32.4863 529.008C30.7197 528.384 29.4102 527.118 28.7246 525.562C28.0391 527.294 26.6592 528.691 24.7871 529.359L23.9258 528.006C26.3516 527.18 27.8457 525.105 27.8457 522.943V522.328H24.4355V520.957H32.9258V522.328H29.5508V522.943ZM54.125 522.152V523.523H51.8398V525.475H54.125V526.863H51.8398V529.324H50.1699V519.762H51.8398V522.152H54.125ZM47.2695 520.676V525.176H41.7852V527.197C44.5186 527.188 46.4521 527.092 48.7461 526.705L48.9219 528.059C46.4785 528.48 44.4043 528.568 41.3809 528.568H40.1152V523.875H45.6348V522.029H40.0977V520.676H47.2695ZM51.8398 530.115V535.477H50.1699V531.469H41.4336V530.115H51.8398ZM72.459 519.744V527.848H70.8066V519.744H72.459ZM72.4766 528.604V532.541H63.793V534H73.0039V535.336H62.1758V531.275H70.8242V529.922H62.123V528.604H72.4766ZM65.1465 521.379C65.1289 523.488 66.6582 525.404 69.0664 526.16L68.2402 527.461C66.4033 526.863 65.0234 525.615 64.3203 524.016C63.5996 525.738 62.1934 527.109 60.3125 527.76L59.4688 526.441C61.9297 525.615 63.4414 523.559 63.4414 521.379V520.166H65.1465V521.379ZM80.4395 523.752C80.4219 526.547 82.0391 529.395 84.3945 530.537L83.3574 531.873C81.6436 530.985 80.3164 529.219 79.6309 527.109C78.9189 529.359 77.5391 531.24 75.7461 532.172L74.709 530.818C77.1348 529.658 78.7695 526.635 78.7695 523.752V521.062H80.4395V523.752ZM87.2422 519.744V526.02H89.7734V527.443H87.2422V535.494H85.5723V519.744H87.2422ZM14.416 556.623C13.3262 556.623 12.4297 555.727 12.4297 554.619C12.4297 553.529 13.3262 552.633 14.416 552.633C15.5234 552.633 16.4199 553.529 16.4199 554.619C16.4199 555.727 15.5234 556.623 14.416 556.623ZM38.3047 554.637V555.99H32.0645V559.049H30.377V555.99H23.8906V554.637H38.3047ZM36.7051 560.789V562.16H25.7012V557.537H27.3711V560.789H36.7051ZM31.0801 547.113C34.4727 547.113 36.6699 548.344 36.6699 550.312C36.6699 552.281 34.4727 553.494 31.0801 553.494C27.7051 553.494 25.4727 552.281 25.4727 550.312C25.4727 548.344 27.7051 547.113 31.0801 547.113ZM31.0801 548.449C28.7773 548.449 27.248 549.152 27.2656 550.312C27.248 551.455 28.7773 552.141 31.0801 552.141C33.4004 552.141 34.9121 551.455 34.9121 550.312C34.9121 549.152 33.4004 548.449 31.0801 548.449ZM43.8242 547.658C45.1338 547.649 46.25 548.142 46.9883 548.959H50.9258V546.744H52.5957V556.043H50.9258V553.916H46.9707C46.2412 554.725 45.125 555.208 43.8242 555.199C41.4512 555.217 39.6934 553.635 39.6934 551.438C39.6934 549.223 41.4512 547.641 43.8242 547.658ZM43.8242 549.1C42.3477 549.082 41.293 550.031 41.293 551.438C41.293 552.809 42.3477 553.793 43.8242 553.775C45.2656 553.793 46.3203 552.809 46.3203 551.438C46.3203 550.031 45.2656 549.082 43.8242 549.1ZM47.3223 556.395C50.5918 556.395 52.6484 557.502 52.6484 559.436C52.6484 561.352 50.5918 562.477 47.3223 562.459C44.0352 562.477 41.9785 561.352 41.9961 559.436C41.9785 557.502 44.0352 556.395 47.3223 556.395ZM47.3223 557.678C45.0195 557.678 43.6133 558.311 43.6309 559.436C43.6133 560.525 45.0195 561.141 47.3223 561.141C49.6426 561.141 51.0137 560.525 51.0137 559.436C51.0137 558.311 49.6426 557.678 47.3223 557.678ZM47.7441 550.295C47.8584 550.646 47.9199 551.033 47.9199 551.438C47.9199 551.824 47.8584 552.202 47.7617 552.545H50.9258V550.295H47.7441ZM72.5469 546.762V558.293H70.877V552.369H67.8711V551.016H70.877V546.762H72.5469ZM72.9688 560.807V562.16H62.3164V557.256H63.9863V560.807H72.9688ZM65.0586 549.943C65.0586 551.912 66.4824 553.881 68.8555 554.672L67.9941 556.008C66.2275 555.384 64.918 554.118 64.2324 552.562C63.5469 554.294 62.167 555.691 60.2949 556.359L59.4336 555.006C61.8594 554.18 63.3535 552.105 63.3535 549.943V549.328H59.9434V547.957H68.4336V549.328H65.0586V549.943ZM89.6328 549.152V550.523H87.3477V552.475H89.6328V553.863H87.3477V556.324H85.6777V546.762H87.3477V549.152H89.6328ZM82.7773 547.676V552.176H77.293V554.197C80.0264 554.188 81.96 554.092 84.2539 553.705L84.4297 555.059C81.9863 555.48 79.9121 555.568 76.8887 555.568H75.623V550.875H81.1426V549.029H75.6055V547.676H82.7773ZM87.3477 557.115V562.477H85.6777V558.469H76.9414V557.115H87.3477ZM102.992 548.133C102.975 550.225 105.541 552.193 108.635 552.598L107.984 553.969C105.409 553.556 103.142 552.22 102.131 550.365C101.094 552.229 98.835 553.556 96.2773 553.969L95.6094 552.598C98.7031 552.193 101.234 550.242 101.252 548.133V547.271H102.992V548.133ZM109.285 555.516V556.887H102.887V562.494H101.252V556.887H94.9238V555.516H109.285ZM123.541 546.762V555.445H121.871V546.762H123.541ZM118.514 547.5V551.895H112.941V553.758C115.692 553.74 117.723 553.67 120.113 553.283L120.324 554.637C117.758 555.059 115.596 555.129 112.625 555.146H111.307V550.594H116.861V548.854H111.271V547.5H118.514ZM114.875 556.184V557.889H121.889V556.184H123.541V562.301H113.205V556.184H114.875ZM114.875 560.947H121.889V559.207H114.875V560.947ZM14.416 583.623C13.3262 583.623 12.4297 582.727 12.4297 581.619C12.4297 580.529 13.3262 579.633 14.416 579.633C15.5234 579.633 16.4199 580.529 16.4199 581.619C16.4199 582.727 15.5234 583.623 14.416 583.623ZM38.3047 581.637V582.99H32.0645V586.049H30.377V582.99H23.8906V581.637H38.3047ZM36.7051 587.789V589.16H25.7012V584.537H27.3711V587.789H36.7051ZM31.0801 574.113C34.4727 574.113 36.6699 575.344 36.6699 577.312C36.6699 579.281 34.4727 580.494 31.0801 580.494C27.7051 580.494 25.4727 579.281 25.4727 577.312C25.4727 575.344 27.7051 574.113 31.0801 574.113ZM31.0801 575.449C28.7773 575.449 27.248 576.152 27.2656 577.312C27.248 578.455 28.7773 579.141 31.0801 579.141C33.4004 579.141 34.9121 578.455 34.9121 577.312C34.9121 576.152 33.4004 575.449 31.0801 575.449ZM43.8242 574.658C45.1338 574.649 46.25 575.142 46.9883 575.959H50.9258V573.744H52.5957V583.043H50.9258V580.916H46.9707C46.2412 581.725 45.125 582.208 43.8242 582.199C41.4512 582.217 39.6934 580.635 39.6934 578.438C39.6934 576.223 41.4512 574.641 43.8242 574.658ZM43.8242 576.1C42.3477 576.082 41.293 577.031 41.293 578.438C41.293 579.809 42.3477 580.793 43.8242 580.775C45.2656 580.793 46.3203 579.809 46.3203 578.438C46.3203 577.031 45.2656 576.082 43.8242 576.1ZM47.3223 583.395C50.5918 583.395 52.6484 584.502 52.6484 586.436C52.6484 588.352 50.5918 589.477 47.3223 589.459C44.0352 589.477 41.9785 588.352 41.9961 586.436C41.9785 584.502 44.0352 583.395 47.3223 583.395ZM47.3223 584.678C45.0195 584.678 43.6133 585.311 43.6309 586.436C43.6133 587.525 45.0195 588.141 47.3223 588.141C49.6426 588.141 51.0137 587.525 51.0137 586.436C51.0137 585.311 49.6426 584.678 47.3223 584.678ZM47.7441 577.295C47.8584 577.646 47.9199 578.033 47.9199 578.438C47.9199 578.824 47.8584 579.202 47.7617 579.545H50.9258V577.295H47.7441ZM72.5469 583.852V589.494H70.877V585.17H61.877V583.852H72.5469ZM72.5469 573.744V583.025H70.877V580.863H66.9922C66.2627 581.725 65.1113 582.243 63.7754 582.234C61.4023 582.252 59.6445 580.67 59.6445 578.42C59.6445 576.205 61.4023 574.605 63.7754 574.623C65.1113 574.614 66.2539 575.133 66.9922 575.994H70.877V573.744H72.5469ZM63.7754 576.029C62.2988 576.029 61.2441 577.014 61.2441 578.42C61.2441 579.861 62.2988 580.828 63.7754 580.828C65.1992 580.828 66.2715 579.861 66.2715 578.42C66.2715 577.014 65.1992 576.029 63.7754 576.029ZM67.7305 579.492H70.877V577.365H67.7305C67.8184 577.699 67.8711 578.051 67.8711 578.42C67.8711 578.798 67.8184 579.158 67.7305 579.492ZM89.6504 576.1V577.488H87.3477V579.422H89.6504V580.811H87.3477V583.271H85.6777V573.762H87.3477V576.1H89.6504ZM82.7773 574.711V579.123H77.293V581.039C80.0264 581.03 81.96 580.934 84.2539 580.547L84.4297 581.9C81.9863 582.34 79.9121 582.428 76.8887 582.41H75.623V577.84H81.1426V576.064H75.6055V574.711H82.7773ZM82.25 583.658C85.4844 583.658 87.4883 584.748 87.4883 586.576C87.4883 588.404 85.4844 589.459 82.25 589.459C78.9629 589.459 76.959 588.404 76.959 586.576C76.959 584.748 78.9629 583.658 82.25 583.658ZM82.25 584.977C79.9473 584.977 78.5938 585.557 78.5938 586.576C78.5938 587.596 79.9473 588.193 82.25 588.176C84.5352 588.193 85.8535 587.596 85.8535 586.576C85.8535 585.557 84.5352 584.977 82.25 584.977ZM100.725 578.385C100.725 581.021 102.447 583.746 104.873 584.783L103.959 586.084C102.104 585.267 100.628 583.535 99.8984 581.426C99.1689 583.676 97.6836 585.592 95.8555 586.488L94.8887 585.17C97.2617 584.062 99.0195 581.092 99.0371 578.385V576.715H95.4336V575.326H104.311V576.715H100.725V578.385ZM107.967 573.744V589.494H106.297V573.744H107.967ZM123.576 573.762V585.697H121.906V584.186H118.742V583.008H121.906V573.762H123.576ZM123.963 587.807V589.16H112.59V584.537H114.242V587.807H123.963ZM110.41 580.951C113.328 580.934 117.248 580.898 120.605 580.477L120.711 581.672C119.366 581.892 117.951 582.041 116.562 582.129V585.205H114.893V582.217C113.363 582.287 111.896 582.296 110.621 582.287L110.41 580.951ZM115.561 574.359C117.863 574.359 119.463 575.467 119.463 577.137C119.463 578.807 117.863 579.879 115.561 579.879C113.223 579.879 111.641 578.807 111.641 577.137C111.641 575.467 113.223 574.359 115.561 574.359ZM115.561 575.607C114.154 575.59 113.205 576.188 113.223 577.137C113.205 578.068 114.154 578.648 115.561 578.648C116.914 578.648 117.863 578.068 117.881 577.137C117.863 576.188 116.914 575.59 115.561 575.607Z" fill="#111111"/>
</svg>
