<svg width="941" height="344" viewBox="0 0 941 344" fill="none" xmlns="http://www.w3.org/2000/svg">
<rect x="720.848" y="0.566406" width="220" height="100" rx="10" fill="#3D6493"/>
<rect opacity="0.2" x="726.848" y="6.56641" width="208" height="88" rx="10" fill="#1A2A3E"/>
<path d="M801.32 26.3991V28.0187C801.32 29.6031 801.32 31.4221 800.874 33.7928H803.691V35.9053H795.264V39.2148H801.367V46.6554H798.762V41.3038H786.274V39.2148H792.659V35.9053H784.303V33.7928H798.245C798.668 31.6216 798.715 29.9669 798.715 28.4881H786.697V26.3991H801.32ZM823.29 25.4368V46.6554H820.778V35.9287H818.431V45.5757H815.99V25.8358H818.431V33.7928H820.778V25.4368H823.29ZM808.62 27.8779V39.074C810.451 39.0388 812.457 38.8862 814.675 38.4402L814.934 40.717C812.07 41.2334 809.653 41.3742 807.399 41.3742H805.991V27.8779H808.62ZM849.508 34.8021V36.8911H841.833V27.2911H849.32V29.3801H844.461V34.8021H849.508ZM850.94 41.961V44.0735H831.552V41.961H839.884V37.8534H842.466V41.961H850.94ZM840.518 27.2911V29.4035H835.706V34.7317C837.432 34.7082 838.981 34.5791 840.682 34.2153L840.87 36.3747C838.664 36.8441 836.786 36.8911 834.415 36.8911H833.101V27.2911H840.518ZM869.506 31.4456V33.5111H854.812V26.2114H857.394V31.4456H869.506ZM871.689 35.9757V38.0412H852.301V35.9757H871.689ZM869.647 44.05V46.1625H854.625V39.919H857.23V44.05H869.647ZM800.358 57.8167V59.9057H789.96V57.8167H793.903V55.0471H796.485V57.8167H800.358ZM795.194 61.0324C797.893 61.0324 799.818 63.0745 799.818 65.9615C799.818 68.8955 797.893 70.961 795.194 70.961C792.518 70.961 790.546 68.8955 790.57 65.9615C790.546 63.0745 792.518 61.0324 795.194 61.0324ZM795.194 63.1918C793.809 63.1918 792.847 64.295 792.87 65.9615C792.847 67.675 793.809 68.7547 795.194 68.7312C796.555 68.7547 797.518 67.675 797.518 65.9615C797.518 64.295 796.555 63.1918 795.194 63.1918ZM808.244 54.4368V75.6554H805.756V65.2808H803.691V74.6931H801.25V54.8828H803.691V63.1683H805.756V54.4368H808.244ZM817.656 55.7512C821.013 55.7512 823.477 57.8637 823.501 60.8681C823.477 63.4852 821.635 65.3982 818.971 65.8676V68.9659C820.86 68.872 822.773 68.7077 824.581 68.4495L824.792 70.3273C820.027 71.2192 814.934 71.2662 811.202 71.2662L810.873 69.1302C812.493 69.1302 814.382 69.1302 816.365 69.0598V65.8676C813.701 65.4099 811.835 63.4852 811.835 60.8681C811.835 57.8637 814.323 55.7512 817.656 55.7512ZM817.656 58.0045C815.802 58.0045 814.417 59.0842 814.417 60.8681C814.417 62.6285 815.802 63.7551 817.656 63.7551C819.534 63.7551 820.943 62.6285 820.943 60.8681C820.943 59.0842 819.534 58.0045 817.656 58.0045ZM828.454 54.4368V75.6789H825.848V54.4368H828.454ZM850.893 64.3185V66.4309H831.552V64.3185H850.893ZM841.199 67.8393C845.776 67.8393 848.522 69.271 848.545 71.7356C848.522 74.2236 845.776 75.6319 841.199 75.6319C836.575 75.6319 833.805 74.2236 833.805 71.7356C833.805 69.271 836.575 67.8393 841.199 67.8393ZM841.199 69.8813C838.1 69.8813 836.434 70.5151 836.457 71.7356C836.434 72.9561 838.1 73.5899 841.199 73.5899C844.227 73.5899 845.917 72.9561 845.94 71.7356C845.917 70.5151 844.227 69.8813 841.199 69.8813ZM849.156 55.4461V57.582H843.03C843.417 59.3424 845.964 60.9268 849.977 61.3141L849.062 63.3796C845.212 62.9688 842.349 61.4549 841.199 59.2955C840.049 61.4432 837.232 62.9688 833.383 63.3796L832.491 61.3141C836.422 60.9268 838.981 59.3424 839.391 57.582H833.312V55.4461H849.156ZM860.352 59.5302C860.328 63.4265 862.37 67.3229 865.821 68.8016L864.272 70.8906C861.831 69.764 860.035 67.5106 859.061 64.741C858.087 67.7336 856.268 70.1747 853.686 71.3835L852.09 69.2006C855.634 67.675 857.7 63.6143 857.7 59.5302V56.1502H860.352V59.5302ZM869.975 54.4368V75.6789H867.347V54.4368H869.975Z" fill="#FCFEFF"/>
<rect opacity="0.5" x="720.848" y="240.566" width="220" height="100" rx="10" fill="#ECF0F4"/>
<rect opacity="0.03" x="726.848" y="246.566" width="208" height="88" rx="10" fill="#1A2A3E"/>
<path d="M773.975 284.631V282.073H787.518V284.631H782.284V299.066H779.233V284.631H773.975ZM787.448 295.475C787.448 292.612 789.819 291.767 792.189 291.626C793.07 291.567 794.9 291.462 795.452 291.438V290.429C795.452 289.161 794.63 288.434 793.152 288.434C791.814 288.434 790.992 289.044 790.758 289.959H787.871C788.082 287.8 790.03 286.157 793.222 286.157C795.64 286.157 798.433 287.143 798.433 290.546V299.066H795.569V297.306H795.475C794.912 298.386 793.715 299.325 791.72 299.325C789.279 299.325 787.448 297.987 787.448 295.475ZM790.335 295.452C790.335 296.555 791.227 297.118 792.495 297.118C794.302 297.118 795.475 295.921 795.475 294.489V293.433L792.659 293.621C791.227 293.738 790.335 294.325 790.335 295.452ZM801.25 299.066V286.321H804.16V288.434H804.301C804.747 286.978 805.991 286.133 807.446 286.133C807.775 286.133 808.244 286.157 808.526 286.204V288.973C808.268 288.88 807.634 288.786 807.141 288.786C805.475 288.786 804.254 289.936 804.254 291.555V299.066H801.25ZM815.45 304.113C812.07 304.113 809.934 302.611 809.723 300.217H812.704C812.915 301.32 813.971 301.86 815.497 301.86C817.281 301.86 818.454 301.085 818.454 299.207V296.766H818.314C817.844 297.705 816.835 298.879 814.629 298.879C811.695 298.879 809.371 296.743 809.371 292.588C809.371 288.387 811.695 286.157 814.652 286.157C816.905 286.157 817.844 287.495 818.314 288.41H818.454V286.321H821.412V299.278C821.412 302.54 818.9 304.113 815.45 304.113ZM815.45 296.531C817.375 296.531 818.478 295.076 818.478 292.635C818.478 290.217 817.398 288.598 815.45 288.598C813.455 288.598 812.422 290.311 812.422 292.635C812.422 294.982 813.478 296.531 815.45 296.531ZM829.932 299.325C826.083 299.325 823.736 296.766 823.736 292.776C823.736 288.833 826.13 286.157 829.768 286.157C832.89 286.157 835.589 288.105 835.589 292.588V293.527H826.693C826.728 295.698 828.008 296.977 829.956 296.977C831.27 296.977 832.162 296.414 832.538 295.663H835.472C834.932 297.869 832.89 299.325 829.932 299.325ZM826.717 291.485H832.725C832.702 289.748 831.552 288.481 829.815 288.481C828.008 288.481 826.81 289.854 826.717 291.485ZM844.274 286.321V288.621H841.762V295.24C841.762 296.461 842.372 296.719 843.123 296.719C843.476 296.719 844.062 296.696 844.438 296.672V299.113C844.086 299.184 843.499 299.231 842.748 299.231C840.495 299.231 838.758 298.128 838.781 295.733V288.621H836.95V286.321H838.781V283.27H841.762V286.321H844.274ZM863.873 287.8C863.521 285.758 861.878 284.584 859.812 284.584C857.019 284.584 855.071 286.72 855.071 290.57C855.071 294.466 857.042 296.555 859.812 296.555C861.831 296.555 863.474 295.428 863.873 293.433H866.947C866.478 296.696 863.802 299.301 859.765 299.301C855.282 299.301 851.996 296.039 851.996 290.57C851.996 285.077 855.329 281.838 859.765 281.838C863.521 281.838 866.431 284.021 866.947 287.8H863.873ZM874.998 299.325C871.29 299.325 868.896 296.696 868.896 292.752C868.896 288.786 871.29 286.157 874.998 286.157C878.73 286.157 881.101 288.786 881.101 292.752C881.101 296.696 878.73 299.325 874.998 299.325ZM875.022 296.93C877.064 296.93 878.073 295.076 878.073 292.729C878.073 290.405 877.064 288.528 875.022 288.528C872.933 288.528 871.924 290.405 871.924 292.729C871.924 295.076 872.933 296.93 875.022 296.93ZM885.279 299.254C884.27 299.254 883.448 298.433 883.448 297.423C883.448 296.438 884.27 295.616 885.279 295.616C886.241 295.616 887.086 296.438 887.086 297.423C887.086 298.433 886.241 299.254 885.279 299.254Z" fill="#1A2A3E"/>
<rect x="0.847656" y="243.066" width="220" height="100" rx="10" fill="#A1D0F9"/>
<rect opacity="0.3" x="6.84766" y="249.066" width="208" height="88" rx="10" fill="#EBF5FE"/>
<path d="M67.3776 282.437V298.492H64.8896V282.437H67.3776ZM63.1527 282.812V297.834H60.6882V290.511H58.4348V294.689H50.0554V284.103H52.5199V287.46H56.0172V284.103H58.4348V288.399H60.6882V282.812H63.1527ZM52.5199 292.577H56.0172V289.455H52.5199V292.577ZM67.9644 301.12V303.233H53.1771V296.356H55.7825V301.12H67.9644ZM87.7982 282.437V303.679H85.1928V292.835H81.0853V290.722H85.1928V282.437H87.7982ZM77.7522 289.173C77.7288 292.389 79.6535 295.816 83.01 297.295L81.6016 299.29C79.1723 298.257 77.4119 296.133 76.4848 293.586C75.5459 296.285 73.7972 298.55 71.3679 299.642L69.9596 297.623C73.2691 296.121 75.1469 292.506 75.1469 289.173V288.07H70.5933V285.981H75.1703V282.883H77.7757V285.981H82.2119V288.07H77.7522V289.173ZM110.143 295.088V297.224H101.717V303.655H99.1352V297.224H90.7557V295.088H110.143ZM108.054 291.262V293.328H93.2437V283.352H107.82V285.418H95.8256V287.295H107.35V289.314H95.8256V291.262H108.054ZM119.157 288.469C119.157 291.755 121.105 295.487 124.461 297.036L123.006 299.102C120.612 297.975 118.84 295.698 117.889 293.046C116.927 295.957 115.073 298.445 112.632 299.618L111.106 297.576C114.486 295.98 116.528 291.99 116.551 288.469V286.685H111.927V284.526H123.593V286.685H119.157V288.469ZM128.17 282.437V290.699H131.433V292.882H128.17V303.655H125.565V282.437H128.17ZM151.712 298.961V301.097H132.324V298.961H140.704V294.079H143.309V298.961H151.712ZM150.046 284.15V286.286H143.356C143.438 289.338 146.584 292.142 150.938 292.788L149.905 294.853C146.314 294.196 143.38 292.307 142.018 289.666C140.645 292.342 137.735 294.302 134.202 294.971L133.169 292.905C137.406 292.189 140.528 289.338 140.61 286.286H133.944V284.15H150.046ZM169.833 282.437V287.671H172.79V289.83H169.833V294.83H167.227V282.437H169.833ZM158.707 295.675V297.506H167.227V295.675H169.833V303.397H156.125V295.675H158.707ZM158.707 301.332H167.227V299.524H158.707V301.332ZM165.702 284.408V286.497H153.121V284.408H158.12V282.272H160.725V284.408H165.702ZM159.411 287.225C162.486 287.225 164.575 288.704 164.598 290.957C164.575 293.21 162.486 294.689 159.411 294.689C156.313 294.689 154.2 293.21 154.2 290.957C154.2 288.704 156.313 287.225 159.411 287.225ZM159.411 289.15C157.792 289.15 156.735 289.83 156.735 290.957C156.735 292.107 157.792 292.764 159.411 292.764C161.031 292.764 162.11 292.107 162.11 290.957C162.11 289.83 161.031 289.15 159.411 289.15Z" fill="#1A2A3E"/>
<path d="M470.32 277.215V278.814H464.01V283.631H462.076V278.814H455.801V277.215H470.32ZM468.756 274.35V275.896H457.664V268.426H468.58V269.973H459.598V271.379H468.229V272.891H459.598V274.35H468.756ZM477.07 272.258C477.07 274.719 478.529 277.514 481.043 278.674L479.953 280.221C478.16 279.377 476.833 277.672 476.121 275.686C475.4 277.865 474.012 279.729 472.184 280.607L471.041 279.078C473.572 277.883 475.102 274.895 475.119 272.258V270.922H471.656V269.305H480.393V270.922H477.07V272.258ZM483.82 267.74V273.928H486.264V275.562H483.82V283.631H481.869V267.74H483.82Z" fill="#1A2A3E"/>
<path d="M710.848 293.066L705.848 290.18V295.953L710.848 293.066ZM230.848 293.566L706.348 293.566V292.566L230.848 292.566V293.566Z" fill="#3399F3"/>
<path d="M749.148 153.84V166.566H746.863V153.84H749.148ZM751.521 166.566V153.84H756.303C759.221 153.84 760.785 155.615 760.785 158.059C760.785 160.502 759.203 162.26 756.268 162.26H753.807V166.566H751.521ZM753.807 160.379H755.951C757.674 160.379 758.447 159.412 758.447 158.059C758.447 156.688 757.674 155.756 755.951 155.756H753.807V160.379ZM773.986 160.203C773.986 164.316 771.49 166.742 768.15 166.742C764.811 166.742 762.314 164.299 762.314 160.203C762.314 156.09 764.811 153.664 768.15 153.664C771.49 153.664 773.986 156.09 773.986 160.203ZM771.684 160.203C771.684 157.303 770.225 155.721 768.15 155.721C766.076 155.721 764.617 157.303 764.617 160.203C764.617 163.104 766.076 164.686 768.15 164.686C770.225 164.686 771.684 163.104 771.684 160.203ZM705.634 176.105C705.634 178.057 706.899 179.885 709.378 180.641L708.446 182.17C706.662 181.616 705.396 180.482 704.702 179.041C703.999 180.711 702.654 182.038 700.747 182.68L699.763 181.133C702.329 180.289 703.665 178.232 703.665 176.123V175.93H700.308V174.348H708.938V175.93H705.634V176.105ZM712.472 173.24V177.055H714.687V178.654H712.472V182.715H710.521V173.24H712.472ZM707.304 183.066C710.591 183.066 712.612 184.174 712.63 186.072C712.612 187.988 710.591 189.113 707.304 189.113C703.981 189.113 701.925 187.988 701.925 186.072C701.925 184.174 703.981 183.066 707.304 183.066ZM707.304 184.596C705.124 184.596 703.876 185.105 703.876 186.072C703.876 187.057 705.124 187.584 707.304 187.584C709.483 187.584 710.696 187.057 710.696 186.072C710.696 185.105 709.483 184.596 707.304 184.596ZM729.136 173.24V189.131H727.255V181.098H725.497V188.322H723.669V173.539H725.497V179.498H727.255V173.24H729.136ZM718.149 175.068V183.453C719.521 183.427 721.023 183.312 722.685 182.979L722.878 184.684C720.733 185.07 718.923 185.176 717.235 185.176H716.181V175.068H718.149ZM743.796 174.225V180.834H736.132V174.225H743.796ZM738.065 175.771V179.305H741.862V175.771H738.065ZM748.524 173.24V182.293H746.591V173.24H748.524ZM748.858 183.225V184.701H744.323C744.508 185.932 746.415 187.285 749.456 187.584L748.788 189.078C746.213 188.814 744.262 187.795 743.304 186.477C742.311 187.812 740.342 188.797 737.749 189.078L737.081 187.584C740.122 187.32 742.073 185.967 742.249 184.701H737.731V183.225H742.302V181.836H744.271V183.225H748.858ZM760.847 176.105C760.847 178.057 762.112 179.885 764.591 180.641L763.659 182.17C761.875 181.616 760.609 180.482 759.915 179.041C759.212 180.711 757.867 182.038 755.96 182.68L754.976 181.133C757.542 180.289 758.878 178.232 758.878 176.123V175.93H755.521V174.348H764.151V175.93H760.847V176.105ZM767.685 173.24V177.055H769.899V178.654H767.685V182.715H765.733V173.24H767.685ZM762.517 183.066C765.804 183.066 767.825 184.174 767.843 186.072C767.825 187.988 765.804 189.113 762.517 189.113C759.194 189.113 757.138 187.988 757.138 186.072C757.138 184.174 759.194 183.066 762.517 183.066ZM762.517 184.596C760.337 184.596 759.089 185.105 759.089 186.072C759.089 187.057 760.337 187.584 762.517 187.584C764.696 187.584 765.909 187.057 765.909 186.072C765.909 185.105 764.696 184.596 762.517 184.596ZM775.858 174.225C778.372 174.225 780.218 175.807 780.235 178.057C780.218 180.017 778.838 181.449 776.843 181.801V184.121C778.258 184.051 779.69 183.928 781.044 183.734L781.202 185.141C777.634 185.809 773.819 185.844 771.024 185.844L770.778 184.244C771.991 184.244 773.406 184.244 774.892 184.191V181.801C772.896 181.458 771.499 180.017 771.499 178.057C771.499 175.807 773.362 174.225 775.858 174.225ZM775.858 175.912C774.47 175.912 773.433 176.721 773.433 178.057C773.433 179.375 774.47 180.219 775.858 180.219C777.265 180.219 778.319 179.375 778.319 178.057C778.319 176.721 777.265 175.912 775.858 175.912ZM783.944 173.24V189.148H781.993V173.24H783.944ZM804.247 173.24V189.131H802.366V180.992H800.679V188.357H798.833V173.521H800.679V179.375H802.366V173.24H804.247ZM797.269 174.963V185.035H791.028V174.963H797.269ZM792.856 176.51V183.488H795.44V176.51H792.856ZM818.626 173.24V177.072H820.841V178.707H818.626V182.504H816.675V173.24H818.626ZM814.196 174.172C814.196 178.338 811.489 181.203 806.743 182.416L805.935 180.922C809.652 179.964 811.762 178.065 812.104 175.754H806.726V174.172H814.196ZM818.626 183.172V189.131H816.675V184.736H808.044V183.172H818.626Z" fill="#1A2A3E"/>
<path d="M830.348 230.566C830.348 230.843 830.572 231.066 830.848 231.066C831.124 231.066 831.348 230.843 831.348 230.566L830.348 230.566ZM830.848 110.566L827.961 115.566L833.734 115.566L830.848 110.566ZM831.348 230.566L831.348 115.066L830.348 115.066L830.348 230.566L831.348 230.566Z" fill="#3399F3"/>
</svg>
