<svg width="24" height="24" viewBox="0 0 24 24" fill="none" xmlns="http://www.w3.org/2000/svg">
<g clip-path="url(#clip0_45_39)">
<path d="M23.6721 12.0466C23.6721 13.6779 23.6393 15.3138 23.6814 16.9451C23.7518 19.8326 21.9377 22.0638 19.6268 23.0576C18.6986 23.456 17.7236 23.667 16.7158 23.667C13.5611 23.6716 10.4018 23.7138 7.24707 23.6529C4.87051 23.606 2.91582 22.6123 1.51426 20.6529C0.77832 19.6216 0.426758 18.4498 0.426758 17.1795C0.426758 13.8185 0.426758 10.4623 0.426758 7.10134C0.426758 4.35915 1.7627 2.44196 4.13457 1.19509C5.16582 0.656025 6.28613 0.426337 7.45332 0.42165C10.5143 0.42165 13.5799 0.4029 16.6408 0.431025C19.0174 0.449775 21.0002 1.35915 22.4627 3.27165C23.2783 4.3404 23.6721 5.56852 23.6721 6.91852C23.6721 8.62477 23.6721 10.3357 23.6721 12.0466ZM2.15645 12.0466C2.15645 13.767 2.15645 15.4826 2.15645 17.2029C2.15645 17.9716 2.33457 18.6935 2.73301 19.3451C3.77832 21.056 5.35801 21.8904 7.31738 21.9232C10.4627 21.9701 13.6127 21.942 16.7627 21.9326C17.5361 21.9326 18.2861 21.7732 18.9846 21.4404C20.8877 20.531 21.9518 19.0826 21.9424 16.9076C21.9236 13.5795 21.9377 10.2513 21.9377 6.92321C21.9377 5.98102 21.6705 5.11852 21.1127 4.35915C20.0346 2.90134 18.5439 2.18415 16.7627 2.1654C13.6221 2.1279 10.4814 2.15134 7.34082 2.15602C6.67051 2.15602 6.02363 2.29196 5.39551 2.52634C3.67051 3.16852 2.06738 4.79509 2.14238 7.1904C2.19863 8.81227 2.15645 10.4295 2.15645 12.0466Z" fill="black"/>
<path d="M12.075 17.0156C9.05157 17.0156 6.61407 14.6063 6.60938 11.6063C6.60469 8.65313 9.06094 6.23438 12.0656 6.23438C15.0797 6.22969 17.5266 8.64376 17.5313 11.6203C17.5313 14.5922 15.0891 17.0109 12.075 17.0156ZM12.075 15.2813C14.1328 15.2813 15.8016 13.6359 15.7969 11.6109C15.7922 9.60469 14.1234 7.96407 12.075 7.96407C10.0172 7.96407 8.33907 9.60001 8.33907 11.6203C8.34376 13.6453 10.0172 15.2859 12.075 15.2813Z" fill="black"/>
<path d="M18.1643 4.59375C18.7971 4.59375 19.3127 5.13281 19.3127 5.79375C19.308 6.45469 18.7877 6.98906 18.1549 6.98438C17.5315 6.97969 17.0205 6.44531 17.0205 5.79844C17.0159 5.1375 17.5315 4.59375 18.1643 4.59375Z" fill="black"/>
</g>
<defs>
<clipPath id="clip0_45_39">
<rect width="24" height="24" fill="white"/>
</clipPath>
</defs>
</svg>
