<svg width="700" height="946" viewBox="0 0 700 946" fill="none" xmlns="http://www.w3.org/2000/svg">
<rect y="449.573" width="220" height="100" rx="10" fill="#3D6493"/>
<rect opacity="0.2" x="6" y="455.573" width="208" height="88" rx="10" fill="#1A2A3E"/>
<path d="M57.3642 501.522V503.658H48.9378V510.089H46.3559V503.658H37.9764V501.522H57.3642ZM55.2752 497.696V499.761H40.4644V489.786H55.0405V491.851H43.0463V493.729H54.5711V495.748H43.0463V497.696H55.2752ZM66.3774 494.903C66.3774 498.189 68.3256 501.921 71.6821 503.47L70.2268 505.535C67.8327 504.409 66.0606 502.132 65.1099 499.48C64.1476 502.39 62.2933 504.878 59.8522 506.052L58.3266 504.01C61.7065 502.414 63.7486 498.423 63.772 494.903V493.119H59.1481V490.959H70.8136V493.119H66.3774V494.903ZM75.3906 488.87V497.132H78.6532V499.315H75.3906V510.089H72.7853V488.87H75.3906ZM97.2195 488.894V500.888H94.5907V488.894H97.2195ZM97.2195 501.944V509.831H83.1364V501.944H97.2195ZM85.7183 504.01V507.718H94.6611V504.01H85.7183ZM87.4552 491.757C87.4552 494.457 89.2626 496.992 92.5721 498.048L91.3046 500.043C88.8518 499.28 87.0914 497.719 86.1408 495.677C85.1667 497.872 83.3828 499.621 80.8361 500.466L79.5452 498.4C82.9956 497.297 84.7559 494.551 84.7559 491.757V489.692H87.4552V491.757ZM107.195 490.349C110.552 490.326 113.016 492.462 113.04 495.466C113.016 498.494 110.552 500.606 107.195 500.606C103.862 500.606 101.374 498.494 101.374 495.466C101.374 492.462 103.862 490.326 107.195 490.349ZM107.195 492.602C105.341 492.602 103.956 493.706 103.956 495.466C103.956 497.25 105.341 498.33 107.195 498.33C109.073 498.33 110.481 497.25 110.481 495.466C110.481 493.706 109.073 492.602 107.195 492.602ZM117.992 488.87V510.112H115.387V488.87H117.992ZM100.412 503.54C104.238 503.54 109.542 503.493 114.119 502.836L114.331 504.737C109.566 505.653 104.472 505.676 100.74 505.676L100.412 503.54ZM128.015 489.809C131.23 489.786 133.578 491.617 133.578 494.269C133.578 496.874 131.23 498.729 128.015 498.705C124.823 498.729 122.499 496.874 122.499 494.269C122.499 491.617 124.823 489.786 128.015 489.809ZM128.015 491.922C126.278 491.898 125.01 492.814 125.034 494.269C125.01 495.701 126.278 496.569 128.015 496.569C129.822 496.569 131.09 495.701 131.09 494.269C131.09 492.814 129.822 491.898 128.015 491.922ZM138.835 488.894V510.066H136.253V488.894H138.835ZM121.114 500.16C124.94 500.16 130.291 500.09 134.869 499.409L135.056 501.334C133.225 501.686 131.324 501.909 129.47 502.038V509.432H126.841V502.202C124.881 502.285 123.039 502.296 121.443 502.32L121.114 500.16ZM159.655 488.894V504.949H157.026V503.094H152.871V501.264H157.026V488.894H159.655ZM160.148 507.554V509.667H144.586V503.4H147.191V507.554H160.148ZM141.769 498.423C145.689 498.4 150.947 498.353 155.453 497.79L155.594 499.667C153.846 499.961 152.038 500.16 150.243 500.278V504.362H147.637V500.419C145.654 500.501 143.764 500.512 142.098 500.512L141.769 498.423ZM148.693 489.668C151.792 489.668 153.951 491.194 153.975 493.424C153.951 495.701 151.792 497.156 148.693 497.156C145.548 497.156 143.389 495.701 143.389 493.424C143.389 491.194 145.548 489.668 148.693 489.668ZM148.693 491.593C147.003 491.593 145.853 492.274 145.853 493.424C145.853 494.574 147.003 495.255 148.693 495.255C150.313 495.255 151.463 494.574 151.487 493.424C151.463 492.274 150.313 491.593 148.693 491.593ZM180.31 488.87V510.089H177.705V488.87H180.31ZM162.73 504.198C164.42 504.186 166.333 504.186 168.339 504.127V502.179C165.945 501.803 164.396 500.336 164.396 498.33C164.396 495.935 166.509 494.339 169.607 494.339C172.729 494.339 174.888 495.935 174.888 498.33C174.888 500.325 173.327 501.78 170.945 502.155V504.033C172.811 503.951 174.689 503.799 176.461 503.564L176.649 505.512C171.978 506.31 166.931 506.357 163.105 506.357L162.73 504.198ZM176.085 491.311V493.377H163.176V491.311H168.339V488.941H170.945V491.311H176.085ZM169.607 496.334C168.011 496.358 166.861 497.086 166.884 498.33C166.861 499.55 168.011 500.278 169.607 500.254C171.273 500.278 172.377 499.55 172.377 498.33C172.377 497.086 171.273 496.358 169.607 496.334Z" fill="#FCFEFF"/>
<rect x="479.442" y="449.573" width="220" height="100" rx="10" fill="#3D6493"/>
<rect opacity="0.2" x="485.442" y="455.573" width="208" height="88" rx="10" fill="#1A2A3E"/>
<path d="M523.788 488.87V510.112H521.206V488.87H523.788ZM517.263 490.725V498.682H509.963V502.954C513.308 502.93 516.195 502.766 519.493 502.202L519.727 504.338C516.113 504.972 512.944 505.089 509.141 505.089H507.287V496.616H514.61V492.837H507.264V490.725H517.263ZM537.848 491.781C537.848 495.067 541.063 498.353 545.499 499.128L544.326 501.311C540.77 500.559 537.859 498.412 536.486 495.56C535.078 498.388 532.167 500.548 528.623 501.311L527.473 499.128C531.862 498.33 535.054 495.043 535.078 491.781V490.208H537.848V491.781ZM546.274 505.23V507.39H526.886V505.23H546.274ZM564.864 490.842V493.377C564.864 496.452 564.864 499.386 563.925 503.869L561.32 503.634C561.754 501.78 562 500.149 562.141 498.635L549.63 499.292L549.278 497.179L562.258 496.687C562.305 495.548 562.305 494.457 562.305 493.377V492.954H549.912V490.842H564.864ZM567 505.254V507.39H547.659V505.254H567ZM580.285 490.443V491.71C580.261 493.166 580.261 495.255 579.768 497.954L577.187 497.719C577.597 495.525 577.679 493.905 577.726 492.602H569.464V490.443H580.285ZM574.933 495.278V499.503C577.128 499.421 579.381 499.257 581.435 498.963L581.576 500.841C577.163 501.639 572.164 501.71 568.432 501.733L568.197 499.644C569.453 499.632 570.861 499.621 572.351 499.597V495.278H574.933ZM585.355 488.87V495.489H588.101V497.672H585.355V504.761H582.679V488.87H585.355ZM586.035 507.554V509.667H571.365V503.353H573.994V507.554H586.035ZM606.879 488.87V510.112H604.297V488.87H606.879ZM600.353 490.725V498.682H593.054V502.954C596.398 502.93 599.285 502.766 602.583 502.202L602.818 504.338C599.203 504.972 596.034 505.089 592.232 505.089H590.378V496.616H597.701V492.837H590.354V490.725H600.353ZM616.901 489.809C620.117 489.786 622.464 491.617 622.464 494.269C622.464 496.874 620.117 498.729 616.901 498.705C613.709 498.729 611.385 496.874 611.385 494.269C611.385 491.617 613.709 489.786 616.901 489.809ZM616.901 491.922C615.164 491.898 613.897 492.814 613.92 494.269C613.897 495.701 615.164 496.569 616.901 496.569C618.708 496.569 619.976 495.701 619.976 494.269C619.976 492.814 618.708 491.898 616.901 491.922ZM627.722 488.894V510.066H625.14V488.894H627.722ZM610 500.16C613.826 500.16 619.178 500.09 623.755 499.409L623.943 501.334C622.112 501.686 620.211 501.909 618.356 502.038V509.432H615.727V502.202C613.768 502.285 611.925 502.296 610.329 502.32L610 500.16ZM648.541 488.894V504.949H645.912V503.094H641.758V501.264H645.912V488.894H648.541ZM649.034 507.554V509.667H633.472V503.4H636.078V507.554H649.034ZM630.656 498.423C634.575 498.4 639.833 498.353 644.34 497.79L644.481 499.667C642.732 499.961 640.925 500.16 639.129 500.278V504.362H636.524V500.419C634.54 500.501 632.651 500.512 630.984 500.512L630.656 498.423ZM637.58 489.668C640.678 489.668 642.838 491.194 642.861 493.424C642.838 495.701 640.678 497.156 637.58 497.156C634.435 497.156 632.275 495.701 632.275 493.424C632.275 491.194 634.435 489.668 637.58 489.668ZM637.58 491.593C635.89 491.593 634.74 492.274 634.74 493.424C634.74 494.574 635.89 495.255 637.58 495.255C639.199 495.255 640.349 494.574 640.373 493.424C640.349 492.274 639.199 491.593 637.58 491.593ZM669.196 488.87V510.089H666.591V488.87H669.196ZM651.616 504.198C653.306 504.186 655.219 504.186 657.226 504.127V502.179C654.832 501.803 653.283 500.336 653.283 498.33C653.283 495.935 655.395 494.339 658.493 494.339C661.615 494.339 663.774 495.935 663.774 498.33C663.774 500.325 662.214 501.78 659.831 502.155V504.033C661.697 503.951 663.575 503.799 665.347 503.564L665.535 505.512C660.864 506.31 655.817 506.357 651.992 506.357L651.616 504.198ZM664.972 491.311V493.377H652.062V491.311H657.226V488.941H659.831V491.311H664.972ZM658.493 496.334C656.897 496.358 655.747 497.086 655.771 498.33C655.747 499.55 656.897 500.278 658.493 500.254C660.16 500.278 661.263 499.55 661.263 498.33C661.263 497.086 660.16 496.358 658.493 496.334Z" fill="#FCFEFF"/>
<rect x="239.721" y="300" width="220" height="100" rx="10" fill="#A1D0F9"/>
<rect opacity="0.3" x="245.721" y="306" width="208" height="88" rx="10" fill="#EBF5FE"/>
<path d="M326.641 339.37V360.589H324.153V349.768H321.759V359.509H319.364V339.769H321.759V347.679H324.153V339.37H326.641ZM316.97 341.882V343.994H311.666V353.43C313.978 353.407 315.879 353.289 318.027 352.89L318.214 355.026C315.656 355.543 313.426 355.613 310.469 355.636H309.037V341.882H316.97ZM348.54 356.035V358.148H329.152V356.035H334.175V351.67H330.819V349.557H333.8V343.267H330.748V341.178H346.85V343.267H343.752V349.557H346.78V351.67H343.423V356.035H348.54ZM336.405 349.557H341.17V343.267H336.405V349.557ZM336.781 356.035H340.818V351.67H336.781V356.035ZM367.576 339.37V360.612H364.947V339.37H367.576ZM356.145 340.92C359.337 340.92 361.661 343.83 361.684 348.407C361.661 353.031 359.337 355.918 356.145 355.918C352.929 355.918 350.606 353.031 350.606 348.407C350.606 343.83 352.929 340.92 356.145 340.92ZM356.145 343.267C354.338 343.267 353.117 345.168 353.117 348.407C353.117 351.67 354.338 353.571 356.145 353.571C357.929 353.571 359.149 351.67 359.149 348.407C359.149 345.168 357.929 343.267 356.145 343.267ZM378.279 344.464C378.255 348.243 380.157 352.092 383.443 353.665L381.847 355.754C379.546 354.592 377.892 352.35 376.988 349.651C376.061 352.538 374.324 354.932 371.895 356.153L370.298 354.064C373.702 352.444 375.65 348.384 375.674 344.464V341.084H378.279V344.464ZM387.316 339.37V347.679H390.578V349.909H387.316V360.589H384.71V339.37H387.316Z" fill="#1A2A3E"/>
<path d="M350 410L350 500" stroke="#3399F3" stroke-linejoin="round"/>
<path d="M350 500L350 590" stroke="#3399F3" stroke-linejoin="round"/>
<path d="M230 500H470" stroke="#3399F3" stroke-linejoin="round"/>
<path d="M170 590H530" stroke="#3399F3" stroke-linejoin="round"/>
<rect x="239.721" y="150" width="220" height="100" rx="10" fill="#A1D0F9"/>
<rect opacity="0.3" x="245.721" y="156" width="208" height="88" rx="10" fill="#EBF5FE"/>
<path d="M336.917 189.37V210.612H334.288V189.37H336.917ZM325.486 190.92C328.678 190.92 331.002 193.83 331.025 198.407C331.002 203.031 328.678 205.918 325.486 205.918C322.27 205.918 319.947 203.031 319.947 198.407C319.947 193.83 322.27 190.92 325.486 190.92ZM325.486 193.267C323.679 193.267 322.458 195.168 322.458 198.407C322.458 201.67 323.679 203.571 325.486 203.571C327.27 203.571 328.49 201.67 328.49 198.407C328.49 195.168 327.27 193.267 325.486 193.267ZM347.62 194.464C347.596 198.243 349.498 202.092 352.784 203.665L351.188 205.754C348.887 204.592 347.233 202.35 346.329 199.651C345.402 202.538 343.665 204.932 341.236 206.153L339.64 204.064C343.043 202.444 344.991 198.384 345.015 194.464V191.084H347.62V194.464ZM356.657 189.37V197.679H359.919V199.909H356.657V210.589H354.051V189.37H356.657ZM378.486 189.37V210.589H375.88V189.37H378.486ZM360.905 204.698C362.595 204.686 364.508 204.686 366.515 204.627V202.679C364.121 202.303 362.572 200.836 362.572 198.83C362.572 196.435 364.684 194.839 367.782 194.839C370.904 194.839 373.064 196.435 373.064 198.83C373.064 200.825 371.503 202.28 369.12 202.655V204.533C370.986 204.451 372.864 204.299 374.636 204.064L374.824 206.012C370.153 206.81 365.107 206.857 361.281 206.857L360.905 204.698ZM374.261 191.811V193.877H361.351V191.811H366.515V189.441H369.12V191.811H374.261ZM367.782 196.834C366.186 196.858 365.036 197.586 365.06 198.83C365.036 200.05 366.186 200.778 367.782 200.754C369.449 200.778 370.552 200.05 370.552 198.83C370.552 197.586 369.449 196.858 367.782 196.834Z" fill="#1A2A3E"/>
<path d="M349.721 260L349.721 290" stroke="#3399F3" stroke-linejoin="round"/>
<path d="M170 590L170 620" stroke="#3399F3" stroke-linejoin="round"/>
<path d="M530 590L530 620" stroke="#3399F3" stroke-linejoin="round"/>
<rect x="239.721" width="220" height="100" rx="10" fill="#A1D0F9"/>
<rect opacity="0.3" x="245.721" y="6" width="208" height="88" rx="10" fill="#EBF5FE"/>
<path d="M327.72 51.2002V53.3127H319.294V60.5655H316.712V53.3127H308.38V51.2002H327.72ZM325.937 40.5674V42.633H319.576C319.728 44.9567 322.521 47.1865 326.711 47.7264L325.772 49.7684C322.158 49.2638 319.341 47.609 318.05 45.3088C316.759 47.609 313.942 49.2638 310.375 49.7684L309.389 47.7264C313.555 47.1865 316.348 44.9567 316.548 42.633H310.163V40.5674H325.937ZM348.493 51.2002V53.3127H340.067V60.5655H337.485V53.3127H329.152V51.2002H348.493ZM346.709 40.5674V42.633H340.348C340.501 44.9567 343.294 47.1865 347.484 47.7264L346.545 49.7684C342.93 49.2638 340.114 47.609 338.823 45.3088C337.532 47.609 334.715 49.2638 331.147 49.7684L330.162 47.7264C334.328 47.1865 337.121 44.9567 337.32 42.633H330.936V40.5674H346.709ZM369.266 50.1205V52.233H349.925V50.1205H358.281V47.8672H360.863V50.1205H369.266ZM360.863 39.4173V41.342H367.365V43.4076H361.074C361.391 45.1445 363.891 46.5997 368.303 46.9049L367.505 48.9C363.703 48.6066 360.898 47.4213 359.572 45.5904C358.246 47.4213 355.417 48.6066 351.638 48.9L350.84 46.9049C355.23 46.5997 357.729 45.1445 358.07 43.4076H351.826V41.342H358.281V39.4173H360.863ZM359.572 53.4066C364.196 53.4066 366.895 54.6741 366.919 56.9978C366.895 59.298 364.196 60.5655 359.572 60.5655C354.924 60.5655 352.178 59.298 352.178 56.9978C352.178 54.6741 354.924 53.4066 359.572 53.4066ZM359.572 55.3548C356.45 55.3548 354.807 55.8946 354.83 56.9978C354.807 58.0775 356.45 58.6174 359.572 58.6174C362.623 58.6174 364.29 58.0775 364.313 56.9978C364.29 55.8946 362.623 55.3548 359.572 55.3548ZM388.372 39.3704V60.589H385.766V39.3704H388.372ZM370.791 54.6975C372.481 54.6858 374.394 54.6858 376.401 54.6271V52.679C374.007 52.3034 372.458 50.8364 372.458 48.8296C372.458 46.4354 374.57 44.8393 377.669 44.8393C380.79 44.8393 382.95 46.4354 382.95 48.8296C382.95 50.8247 381.389 52.2799 379.007 52.6555V54.5332C380.873 54.4511 382.75 54.2985 384.522 54.0638L384.71 56.012C380.039 56.81 374.993 56.857 371.167 56.857L370.791 54.6975ZM384.147 41.8115V43.877H371.237V41.8115H376.401V39.4408H379.007V41.8115H384.147ZM377.669 46.8345C376.073 46.8579 374.922 47.5856 374.946 48.8296C374.922 50.0501 376.073 50.7777 377.669 50.7543C379.335 50.7777 380.438 50.0501 380.438 48.8296C380.438 47.5856 379.335 46.8579 377.669 46.8345Z" fill="#1A2A3E"/>
<path d="M349.721 110L349.721 140" stroke="#3399F3" stroke-linejoin="round"/>
<rect opacity="0.5" x="30" y="630" width="280" height="316" rx="10" fill="#ECF0F4"/>
<rect opacity="0.03" x="36" y="636" width="268" height="304" rx="10" fill="#1A2A3E"/>
<path d="M148.523 667.522V669.658H140.097V676.089H137.515V669.658H129.135V667.522H148.523ZM146.434 663.696V665.761H131.623V655.786H146.199V657.851H134.205V659.729H145.73V661.748H134.205V663.696H146.434ZM157.536 660.903C157.536 664.189 159.485 667.921 162.841 669.47L161.386 671.535C158.992 670.409 157.22 668.132 156.269 665.48C155.307 668.39 153.452 670.878 151.011 672.052L149.486 670.01C152.865 668.414 154.908 664.423 154.931 660.903V659.119H150.307V656.959H161.973V659.119H157.536V660.903ZM166.55 654.87V663.132H169.812V665.315H166.55V676.089H163.944V654.87H166.55ZM175.798 655.668V657.969H184.952V655.668H187.534V664.283H181.666V666.231H190.045V668.343H170.704V666.231H179.037V664.283H173.216V655.668H175.798ZM175.798 662.194H184.952V659.987H175.798V662.194ZM187.862 673.554V675.667H173.098V669.705H175.704V673.554H187.862ZM210.841 667.217V669.282H202.391V676.089H199.809V669.282H191.453V667.217H210.841ZM196.382 655.715V658.321H205.865V655.715H208.494V665.01H193.801V655.715H196.382ZM196.382 662.898H205.865V660.386H196.382V662.898Z" fill="#3D6493"/>
<rect x="70" y="700" width="200" height="50" rx="10" fill="#A1D0F9"/>
<path d="M131.803 716.674V728.328H129.852V722.615H127.355V721.051H129.852V716.674H131.803ZM127.426 717.992V719.574H126.02V724.25C126.705 724.197 127.382 724.136 128.023 724.057L128.146 725.463C125.018 726.008 121.414 726.078 118.725 726.078L118.514 724.461L120.307 724.443V719.574H118.918V717.992H127.426ZM132.207 730.666V732.248H121.361V727.326H123.33V730.666H132.207ZM122.205 724.426C122.838 724.408 123.479 724.391 124.121 724.355V719.574H122.205V724.426ZM146.955 724.127V725.691H135.811V718.062H146.832V719.645H137.744V724.127H146.955ZM148.572 728.926V730.543H134.053V728.926H148.572ZM155.34 717.676L151.244 732.916H149.275L153.389 717.676H155.34ZM170.58 729.049V730.648H156.061V729.049H162.336V725.393H164.287V729.049H170.58ZM169.332 717.957V719.557H164.322C164.384 721.842 166.739 723.942 170 724.426L169.227 725.973C166.537 725.48 164.34 724.065 163.32 722.088C162.292 724.092 160.112 725.56 157.467 726.061L156.693 724.514C159.866 723.978 162.204 721.842 162.266 719.557H157.273V717.957H169.332ZM184.15 716.674V720.594H186.365V722.211H184.15V725.955H182.199V716.674H184.15ZM175.818 726.588V727.959H182.199V726.588H184.15V732.371H173.885V726.588H175.818ZM175.818 730.824H182.199V729.471H175.818V730.824ZM181.057 718.15V719.715H171.635V718.15H175.379V716.551H177.33V718.15H181.057ZM176.346 720.26C178.648 720.26 180.213 721.367 180.23 723.055C180.213 724.742 178.648 725.85 176.346 725.85C174.025 725.85 172.443 724.742 172.443 723.055C172.443 721.367 174.025 720.26 176.346 720.26ZM176.346 721.701C175.133 721.701 174.342 722.211 174.342 723.055C174.342 723.916 175.133 724.408 176.346 724.408C177.559 724.408 178.367 723.916 178.367 723.055C178.367 722.211 177.559 721.701 176.346 721.701ZM204.752 716.674V724.725H202.801V723.336H198.969V721.842H202.801V720.277H199.18C198.178 722.703 195.857 724.285 192.342 725.076L191.656 723.477C195.392 722.703 197.255 721.06 197.527 718.941H192.535V717.359H199.707C199.707 717.86 199.663 718.335 199.602 718.783H202.801V716.674H204.752ZM204.752 725.34V729.523H196.262V730.842H205.174V732.406H194.311V728.064H202.801V726.887H194.293V725.34H204.752ZM212.82 718.959C212.803 721.121 214.068 723.09 216.564 723.881L215.51 725.41C213.778 724.804 212.565 723.652 211.889 722.141C211.186 723.872 209.858 725.234 207.934 725.902L206.896 724.32C209.533 723.459 210.852 721.332 210.852 719.047V717.535H212.82V718.959ZM220.309 716.674V726.025H218.357V721.35H215.193V719.75H218.357V716.674H220.309ZM214.93 726.447C218.305 726.447 220.361 727.572 220.361 729.506C220.361 731.439 218.305 732.547 214.93 732.547C211.572 732.547 209.516 731.439 209.533 729.506C209.516 727.572 211.572 726.447 214.93 726.447ZM214.93 727.959C212.715 727.959 211.467 728.504 211.467 729.506C211.467 730.473 212.715 731.018 214.93 731.018C217.145 731.018 218.41 730.473 218.41 729.506C218.41 728.504 217.145 727.959 214.93 727.959Z" fill="#1A2A3E"/>
<rect x="70" y="760" width="200" height="50" rx="10" fill="#A1D0F9"/>
<path d="M153.002 776.674V788.697H151.139V776.674H153.002ZM149.838 776.955V788.205H147.992V782.721H146.305V785.85H140.029V777.922H141.875V780.436H144.494V777.922H146.305V781.139H147.992V776.955H149.838ZM141.875 784.268H144.494V781.93H141.875V784.268ZM153.441 790.666V792.248H142.367V787.098H144.318V790.666H153.441ZM168.295 776.674V792.582H166.344V784.461H163.268V782.879H166.344V776.674H168.295ZM160.771 781.719C160.754 784.127 162.195 786.693 164.709 787.801L163.654 789.295C161.835 788.521 160.517 786.931 159.822 785.023C159.119 787.045 157.81 788.741 155.99 789.559L154.936 788.047C157.414 786.922 158.82 784.215 158.82 781.719V780.893H155.41V779.328H158.838V777.008H160.789V779.328H164.111V780.893H160.771V781.719ZM185.029 786.148V787.748H178.719V792.564H176.785V787.748H170.51V786.148H185.029ZM183.465 783.283V784.83H172.373V777.359H183.289V778.906H174.307V780.312H182.938V781.824H174.307V783.283H183.465ZM191.779 781.191C191.779 783.652 193.238 786.447 195.752 787.607L194.662 789.154C192.869 788.311 191.542 786.605 190.83 784.619C190.109 786.799 188.721 788.662 186.893 789.541L185.75 788.012C188.281 786.816 189.811 783.828 189.828 781.191V779.855H186.365V778.238H195.102V779.855H191.779V781.191ZM198.529 776.674V782.861H200.973V784.496H198.529V792.564H196.578V776.674H198.529Z" fill="#1A2A3E"/>
<rect x="70" y="820" width="200" height="50" rx="10" fill="#A1D0F9"/>
<path d="M128.56 838.273H131.372L135.151 847.52H135.31L139.089 838.273H141.901V851H139.704V842.246H139.581L136.048 850.965H134.413L130.88 842.211H130.774V851H128.56V838.273ZM147.966 851.176C145.364 851.176 143.765 849.646 143.765 847.625C143.765 846.131 144.74 845.199 146.155 844.215C145.417 843.318 144.854 842.396 144.854 841.262C144.854 839.451 146.173 838.115 148.177 838.115C150.181 838.115 151.411 839.451 151.411 840.998C151.411 842.211 150.778 843.125 149.724 843.898L148.915 844.496L151.253 847.221C151.578 846.597 151.78 845.85 151.78 845.006H153.714C153.714 846.755 153.23 847.994 152.606 848.82L154.47 851H152.044L151.235 850.068C150.321 850.824 149.091 851.176 147.966 851.176ZM145.962 847.52C145.962 848.539 146.771 849.348 148.036 849.348C148.713 849.348 149.407 849.11 150.022 848.662L147.368 845.621L147.157 845.779C146.296 846.412 145.962 847.08 145.962 847.52ZM146.841 841.297C146.841 841.877 147.236 842.466 147.772 843.125L148.493 842.633C149.161 842.193 149.513 841.754 149.513 841.104C149.513 840.541 149.021 839.943 148.212 839.961C147.403 839.961 146.841 840.594 146.841 841.297ZM157.3 851H154.856L159.339 838.273H162.151L166.651 851H164.208L163.153 847.854H158.354L157.3 851ZM158.97 846.008H162.538L160.798 840.875H160.692L158.97 846.008ZM172.435 851V838.273H180.591V840.189H174.72V843.67H180.028V845.586H174.72V851H172.435ZM187.921 846.992V841.455H190.153V851H187.991V849.312H187.886C187.446 850.367 186.444 851.123 185.021 851.123C183.14 851.123 181.839 849.822 181.821 847.537V841.455H184.071V847.186C184.071 848.398 184.792 849.172 185.882 849.172C186.866 849.172 187.921 848.451 187.921 846.992ZM194.548 845.41V851H192.298V841.455H194.442V843.072H194.565C195.005 842 195.972 841.332 197.396 841.332C199.382 841.332 200.683 842.633 200.665 844.918V851H198.433V845.27C198.433 843.986 197.747 843.23 196.569 843.23C195.374 843.23 194.548 844.021 194.548 845.41ZM206.36 851.176C204.11 851.176 202.423 849.383 202.423 846.236C202.423 843.055 204.163 841.332 206.378 841.332C208.065 841.332 208.769 842.334 209.103 843.02H209.19V838.273H211.423V851H209.226V849.488H209.103C208.751 850.191 208.013 851.176 206.36 851.176ZM206.976 849.33C208.417 849.33 209.243 848.082 209.243 846.219C209.243 844.373 208.435 843.16 206.976 843.16C205.481 843.16 204.708 844.443 204.708 846.219C204.708 848.029 205.499 849.33 206.976 849.33Z" fill="#1A2A3E"/>
<rect x="70" y="880" width="200" height="50" rx="10" fill="#A1D0F9"/>
<path d="M142.771 896.674V912.564H140.803V896.674H142.771ZM138.025 898.361C138.025 903.09 136.197 907.115 130.625 909.752L129.605 908.188C133.763 906.21 135.696 903.521 136.039 899.908H130.414V898.361H138.025ZM149.469 897.377C151.525 897.359 153.143 898.546 153.547 900.295H156.412V896.674H158.363V905.199H156.412V901.877H153.564C153.169 903.661 151.534 904.865 149.469 904.865C147.025 904.865 145.268 903.301 145.268 901.104C145.268 898.941 147.025 897.359 149.469 897.377ZM149.469 899.012C148.098 899.012 147.131 899.82 147.131 901.104C147.131 902.369 148.098 903.213 149.469 903.213C150.805 903.213 151.754 902.369 151.771 901.104C151.754 899.82 150.805 899.012 149.469 899.012ZM149.82 905.938V907.625H156.412V905.938H158.363V912.371H147.887V905.938H149.82ZM149.82 910.789H156.412V909.137H149.82V910.789ZM173.217 897.904C173.217 902.229 171.248 905.27 165.957 906.992L165.201 905.463C167.645 904.681 169.191 903.652 170.105 902.387L165.465 902.773L165.166 901.227L170.826 900.998C171.002 900.523 171.107 900.014 171.16 899.486H165.975V897.904H173.217ZM178.191 896.691V908.434H176.24V903.178H173.146V901.578H176.24V896.691H178.191ZM178.613 910.666V912.248H167.891V907.273H169.859V910.666H178.613ZM193.748 896.674V904.812H191.797V900.787H188.633V899.223H191.797V896.674H193.748ZM193.748 905.498V909.611H185.223V910.824H194.258V912.371H183.307V908.152H191.814V907.027H183.289V905.498H193.748ZM186.207 898.467C186.207 900.418 187.49 902.281 189.951 903.037L188.914 904.549C187.191 903.969 185.943 902.853 185.258 901.402C184.555 903.028 183.254 904.285 181.373 904.9L180.354 903.336C182.902 902.562 184.238 900.611 184.238 898.467V897.201H186.207V898.467ZM204.559 897.816V899.363H198.863V900.875H204.102V902.404H198.863V903.934C201.834 903.951 203.645 903.907 205.736 903.547L205.93 905.094C203.645 905.463 201.658 905.533 198.23 905.516H196.877V897.816H204.559ZM209.234 896.691V906.377H207.266V896.691H209.234ZM203.873 906.605C207.213 906.605 209.305 907.695 209.305 909.576C209.305 911.457 207.213 912.547 203.873 912.547C200.48 912.547 198.424 911.457 198.441 909.576C198.424 907.695 200.48 906.605 203.873 906.605ZM203.873 908.117C201.623 908.117 200.375 908.645 200.393 909.576C200.375 910.525 201.623 911.035 203.873 911.035C206.07 911.035 207.354 910.525 207.354 909.576C207.354 908.645 206.07 908.117 203.873 908.117Z" fill="#1A2A3E"/>
<rect opacity="0.5" x="390" y="630" width="280" height="316" rx="10" fill="#ECF0F4"/>
<rect opacity="0.03" x="396" y="636" width="268" height="304" rx="10" fill="#1A2A3E"/>
<path d="M483.756 654.87V676.089H481.127V654.87H483.756ZM477.418 657.124C477.418 663.438 474.977 668.813 467.537 672.333L466.175 670.244C471.726 667.604 474.308 664.013 474.766 659.189H467.255V657.124H477.418ZM500.116 656.56V658.485H487.558V656.56H492.511V654.753H495.116V656.56H500.116ZM493.849 659.095C496.947 659.072 499.059 660.316 499.059 662.288C499.059 663.954 497.51 665.069 495.116 665.362V666.489C496.912 666.407 498.707 666.254 500.397 666.043L500.585 667.827C496.031 668.601 491.008 668.672 487.253 668.672L486.901 666.653C488.591 666.665 490.516 666.653 492.511 666.583V665.339C490.105 665.057 488.591 663.942 488.614 662.288C488.591 660.316 490.68 659.072 493.849 659.095ZM493.849 660.856C492.182 660.832 491.102 661.349 491.126 662.288C491.102 663.156 492.182 663.672 493.849 663.649C495.468 663.672 496.548 663.156 496.571 662.288C496.548 661.349 495.468 660.832 493.849 660.856ZM504.505 654.917V669.188H501.876V654.917H504.505ZM504.505 670.057V676.089H501.876V672.099H489.905V670.057H504.505ZM519.433 656.443V657.71C519.41 659.166 519.41 661.255 518.917 663.954L516.335 663.719C516.745 661.525 516.828 659.905 516.875 658.602H508.612V656.443H519.433ZM514.081 661.278V665.503C516.276 665.421 518.529 665.257 520.583 664.963L520.724 666.841C516.311 667.639 511.312 667.71 507.58 667.733L507.345 665.644C508.601 665.632 510.009 665.621 511.499 665.597V661.278H514.081ZM524.503 654.87V661.489H527.249V663.672H524.503V670.761H521.827V654.87H524.503ZM525.184 673.554V675.667H510.514V669.353H513.143V673.554H525.184ZM546.027 654.87V676.112H543.445V654.87H546.027ZM539.501 656.725V664.682H532.202V668.954C535.546 668.93 538.434 668.766 541.731 668.202L541.966 670.338C538.351 670.972 535.183 671.089 531.38 671.089H529.526V662.616H536.849V658.837H529.502V656.725H539.501ZM559.922 655.668V657.969H569.076V655.668H571.658V664.283H565.79V666.231H574.17V668.343H554.829V666.231H563.161V664.283H557.34V655.668H559.922ZM559.922 662.194H569.076V659.987H559.922V662.194ZM571.987 673.554V675.667H557.223V669.705H559.828V673.554H571.987ZM594.966 667.217V669.282H586.516V676.089H583.934V669.282H575.578V667.217H594.966ZM580.507 655.715V658.321H589.99V655.715H592.618V665.01H577.925V655.715H580.507ZM580.507 662.898H589.99V660.386H580.507V662.898Z" fill="#3D6493"/>
<rect x="430" y="700" width="200" height="50" rx="10" fill="#A1D0F9"/>
<path d="M509.425 716.691V728.17H507.456V716.691H509.425ZM509.864 730.666V732.248H498.913V727.01H500.882V730.666H509.864ZM500.759 717.729C503.167 717.729 505.03 719.398 505.03 721.701C505.03 724.057 503.167 725.691 500.759 725.691C498.333 725.691 496.47 724.057 496.47 721.701C496.47 719.398 498.333 717.729 500.759 717.729ZM500.759 719.434C499.405 719.434 498.368 720.33 498.386 721.701C498.368 723.107 499.405 723.986 500.759 723.986C502.077 723.986 503.114 723.107 503.114 721.701C503.114 720.33 502.077 719.434 500.759 719.434ZM517.423 720.488C517.405 723.318 518.829 726.201 521.29 727.379L520.095 728.943C518.372 728.073 517.133 726.395 516.456 724.373C515.762 726.535 514.461 728.328 512.642 729.242L511.446 727.678C513.995 726.465 515.454 723.424 515.472 720.488V717.957H517.423V720.488ZM524.19 716.674V722.896H526.634V724.566H524.19V732.564H522.239V716.674H524.19ZM533.032 717.676L528.937 732.916H526.968L531.081 717.676H533.032ZM548.237 724.725V726.307H533.753V724.725H540.011V723.037H541.944V724.725H548.237ZM541.944 716.709V718.15H546.813V719.697H542.103C542.34 720.998 544.212 722.088 547.517 722.316L546.919 723.811C544.071 723.591 541.971 722.703 540.978 721.332C539.984 722.703 537.866 723.591 535.036 723.811L534.438 722.316C537.726 722.088 539.598 720.998 539.853 719.697H535.177V718.15H540.011V716.709H541.944ZM540.978 727.186C544.44 727.186 546.462 728.135 546.479 729.875C546.462 731.598 544.44 732.547 540.978 732.547C537.497 732.547 535.44 731.598 535.44 729.875C535.44 728.135 537.497 727.186 540.978 727.186ZM540.978 728.645C538.64 728.645 537.409 729.049 537.427 729.875C537.409 730.684 538.64 731.088 540.978 731.088C543.263 731.088 544.511 730.684 544.528 729.875C544.511 729.049 543.263 728.645 540.978 728.645ZM563.812 725.674V727.256H557.483V732.547H555.55V727.256H549.292V725.674H563.812ZM562.036 717.482V723.811H551.067V717.482H562.036ZM552.983 719.047V722.281H560.085V719.047H552.983Z" fill="#1A2A3E"/>
<rect x="430" y="790" width="200" height="50" rx="10" fill="#A1D0F9"/>
<path d="M509.97 806.674V822.564H508.106V814.514H506.472V821.791H504.626V806.955H506.472V812.896H508.106V806.674H509.97ZM501.128 810.734C501.128 813.564 502.077 816.166 504.433 817.379L503.29 818.873C501.778 818.064 500.785 816.667 500.231 814.936C499.687 816.913 498.693 818.504 497.12 819.436L495.925 817.941C498.28 816.605 499.229 813.828 499.229 810.734V809.979H496.399V808.414H503.729V809.979H501.128V810.734ZM526.247 815.674V817.256H519.919V822.547H517.985V817.256H511.728V815.674H526.247ZM524.472 807.482V813.811H513.503V807.482H524.472ZM515.419 809.047V812.281H522.521V809.047H515.419ZM533.032 807.676L528.937 822.916H526.968L531.081 807.676H533.032ZM546.989 806.674V822.564H545.038V806.674H546.989ZM533.823 818.152C535.089 818.144 536.521 818.144 538.024 818.1V816.641C536.231 816.359 535.071 815.261 535.071 813.758C535.071 811.965 536.653 810.77 538.974 810.77C541.312 810.77 542.929 811.965 542.929 813.758C542.929 815.252 541.76 816.342 539.976 816.623V818.029C541.373 817.968 542.779 817.854 544.106 817.678L544.247 819.137C540.749 819.734 536.97 819.77 534.104 819.77L533.823 818.152ZM543.825 808.502V810.049H534.157V808.502H538.024V806.727H539.976V808.502H543.825ZM538.974 812.264C537.778 812.281 536.917 812.826 536.935 813.758C536.917 814.672 537.778 815.217 538.974 815.199C540.222 815.217 541.048 814.672 541.048 813.758C541.048 812.826 540.222 812.281 538.974 812.264ZM563.021 806.674V822.564H561.157V806.674H563.021ZM559.733 807.061V821.809H557.87V816.5H555.392V814.9H557.87V812.545H555.673C554.926 815.182 553.265 817.449 550.294 819.207L549.151 817.818C552.447 815.876 553.959 813.389 554.249 810.189H549.995V808.607H556.183C556.183 809.407 556.13 810.189 556.024 810.945H557.87V807.061H559.733Z" fill="#1A2A3E"/>
<rect x="430" y="880" width="200" height="50" rx="10" fill="#A1D0F9"/>
<path d="M496.224 906.148V907.748H489.913V912.564H487.979V907.748H481.704V906.148H496.224ZM494.659 903.283V904.83H483.567V897.359H494.483V898.906H485.501V900.312H494.132V901.824H485.501V903.283H494.659ZM502.974 901.191C502.974 903.652 504.433 906.447 506.946 907.607L505.856 909.154C504.063 908.311 502.736 906.605 502.024 904.619C501.304 906.799 499.915 908.662 498.087 909.541L496.944 908.012C499.476 906.816 501.005 903.828 501.022 901.191V899.855H497.56V898.238H506.296V899.855H502.974V901.191ZM509.724 896.674V902.861H512.167V904.496H509.724V912.564H507.772V896.674H509.724ZM527.354 909.049V910.648H512.835V909.049H519.11V905.393H521.062V909.049H527.354ZM526.106 897.957V899.557H521.097C521.158 901.842 523.514 903.942 526.774 904.426L526.001 905.973C523.312 905.48 521.114 904.065 520.095 902.088C519.066 904.092 516.887 905.56 514.241 906.061L513.468 904.514C516.641 903.978 518.979 901.842 519.04 899.557H514.048V897.957H526.106ZM540.925 896.674V900.594H543.14V902.211H540.925V905.955H538.974V896.674H540.925ZM532.593 906.588V907.959H538.974V906.588H540.925V912.371H530.659V906.588H532.593ZM532.593 910.824H538.974V909.471H532.593V910.824ZM537.831 898.15V899.715H528.409V898.15H532.153V896.551H534.104V898.15H537.831ZM533.12 900.26C535.423 900.26 536.987 901.367 537.005 903.055C536.987 904.742 535.423 905.85 533.12 905.85C530.8 905.85 529.218 904.742 529.218 903.055C529.218 901.367 530.8 900.26 533.12 900.26ZM533.12 901.701C531.907 901.701 531.116 902.211 531.116 903.055C531.116 903.916 531.907 904.408 533.12 904.408C534.333 904.408 535.142 903.916 535.142 903.055C535.142 902.211 534.333 901.701 533.12 901.701ZM557.097 897.852V898.801C557.079 899.891 557.079 901.455 556.71 903.477L554.776 903.301C555.084 901.657 555.146 900.444 555.181 899.469H548.993V897.852H557.097ZM553.089 901.473V904.637C554.732 904.575 556.42 904.452 557.958 904.232L558.063 905.639C554.759 906.236 551.015 906.289 548.22 906.307L548.044 904.742C548.984 904.733 550.039 904.725 551.155 904.707V901.473H553.089ZM560.894 896.674V901.631H562.95V903.266H560.894V908.574H558.89V896.674H560.894ZM561.403 910.666V912.248H550.417V907.52H552.386V910.666H561.403ZM577.013 896.674V912.582H575.079V896.674H577.013ZM572.126 898.062V904.021H566.659V907.221C569.164 907.203 571.326 907.08 573.796 906.658L573.972 908.258C571.265 908.732 568.892 908.82 566.044 908.82H564.655V902.475H570.14V899.645H564.638V898.062H572.126Z" fill="#1A2A3E"/>
</svg>
