<svg width="24" height="24" viewBox="0 0 24 24" fill="none" xmlns="http://www.w3.org/2000/svg">
<g clip-path="url(#clip0_45_40)">
<path fill-rule="evenodd" clip-rule="evenodd" d="M0.441508 8.58733C0.587341 6.32283 2.34201 4.49349 4.59718 4.25199C6.93634 4.01633 9.42251 3.88916 11.9997 3.88916C14.5768 3.88916 17.063 4.01633 19.4022 4.25316C21.6573 4.49349 23.412 6.32283 23.5578 8.58733C23.629 9.70266 23.6663 10.8425 23.6663 11.9998C23.6663 13.1572 23.629 14.297 23.5578 15.4123C23.412 17.6768 21.6573 19.5062 19.4022 19.7477C17.063 19.9833 14.5768 20.1105 11.9997 20.1105C9.42251 20.1105 6.93634 19.9833 4.59718 19.7465C2.34201 19.5062 0.587341 17.6768 0.441508 15.4123C0.370341 14.297 0.333008 13.1572 0.333008 11.9998C0.333008 10.8425 0.370341 9.70266 0.441508 8.58733Z" fill="#111111"/>
<path fill-rule="evenodd" clip-rule="evenodd" d="M15.5641 12L9.83691 15.4942V8.50586L15.5641 12Z" fill="white"/>
</g>
<defs>
<clipPath id="clip0_45_40">
<rect width="24" height="24" fill="white"/>
</clipPath>
</defs>
</svg>
